<svg width="414" height="334" viewBox="0 0 414 334" fill="none" xmlns="http://www.w3.org/2000/svg">
<g opacity="0.7">
<path opacity="0.1" d="M262.012 79.8398C261.524 82.0477 260.413 84.1018 258.83 85.7241C257.246 87.3463 255.267 88.4584 253.159 88.9097C246.291 90.4583 233.401 91.8274 223.853 83.7802C210.258 72.3331 234.495 58.0044 252.522 66.0571C261.564 70.1056 262.896 75.5026 262.012 79.8398Z" fill="#32324C"/>
<path opacity="0.1" d="M209.18 79.6969C208.319 80.5037 207.265 81.0326 206.16 81.2119C205.055 81.3912 203.953 81.2122 203.003 80.6992C199.885 79.0616 194.502 75.3195 193.284 68.5903C191.535 58.9783 205.24 60.8437 209.729 70.4548C211.971 75.2651 210.858 78.0865 209.18 79.6969Z" fill="#32324C"/>
<g clip-path="url(#clip0_1438_13550)">
<path opacity="0.1" d="M219.332 95.8785C219.332 95.8785 241.504 117.102 279.724 94.0309C317.943 70.9595 369.161 73.7276 383.677 130.936C398.193 188.144 400.874 277.849 330.928 280.449C267.705 282.801 247.221 295.338 223.504 315.641C199.787 335.944 112.574 343.63 68.8357 276.754C33.8012 223.214 25.5529 166.571 60.1588 109.161C103.292 37.6626 165.058 46.0406 219.332 95.8785Z" fill="#C4A747"/>
</g>
</g>
<g clip-path="url(#clip1_1438_13550)">
<path opacity="0.1" d="M257.094 296.977C257.094 299.757 239.812 302 219.112 302C198.413 302 182.127 299.757 182.127 296.977C182.127 294.196 198.473 291.954 219.112 291.954C239.752 291.954 257.094 294.211 257.094 296.977Z" fill="#171211"/>
<path d="M212.143 266.973L216.453 281.339L211.564 283.971L206.244 268.677L212.143 266.973Z" fill="black"/>
<path d="M207.048 278.469C206.396 281.81 204.855 284.91 202.59 287.439C199.009 291.042 196.022 294.794 197.627 297.321C197.627 297.321 205.472 297.186 213.972 288.097L214.522 289.233L221.06 285.331L216.602 275.942L211.238 279.351V278.2L207.048 278.469Z" fill="#2F2421"/>
<path d="M209.5 290.564C201.55 297.949 197.909 296.454 197.285 296.544C197.325 296.805 197.422 297.055 197.567 297.276C197.567 297.276 205.413 297.141 213.913 288.052L214.463 289.188L221.001 285.286L220.095 283.417C217.747 284.853 215.354 285.122 209.5 290.564Z" fill="black"/>
<path d="M222.799 273.954L222.16 289.009L227.51 290.22L228.921 273.984L222.799 273.954Z" fill="black"/>
<path d="M230.525 283.626C231.993 286.647 234.261 289.202 237.078 291.012C241.417 293.523 245.726 296.453 244.79 299.309C244.79 299.309 236.662 301.208 226.275 294.734L226.023 295.99L218.727 294.091L220.807 283.806L226.825 285.63L226.572 284.509L230.525 283.626Z" fill="#2F2421"/>
<path d="M232.531 296.917C236.417 298.623 240.699 299.203 244.894 298.592C244.913 298.855 244.877 299.12 244.79 299.369C244.79 299.369 236.662 301.268 226.275 294.794L226.023 296.05L218.727 294.092L219.247 291.505C221.847 292.223 225.993 294.271 232.531 296.917Z" fill="black"/>
<path d="M237.212 166.061C230.275 168.545 222.913 169.603 215.562 169.17C205.992 168.767 203.228 166.718 203.228 166.718V166.629H203.08L187.299 222.153L188.042 227.161L205.561 276.764C205.561 276.764 209.767 279.022 218.237 272.414L203.184 222.87L215.904 192.866L222.323 192.791L228.698 226.084L219.262 281.1C219.262 281.1 222.947 285.66 231.729 284.269L243.75 225.501L237.212 166.061Z" fill="#5D5D5D"/>
<path d="M232.473 162.428C234.004 162.094 235.477 161.53 236.841 160.753C237.703 160.424 237.584 161.366 237.674 162.368C237.807 163.683 237.674 164.386 236.841 164.655C235.73 165.47 234.458 166.035 233.112 166.315C232.904 165.014 232.681 163.713 232.473 162.428Z" fill="#050404"/>
<path d="M211.579 163.534C215.115 163.867 218.669 163.967 222.218 163.833C224.853 163.751 227.477 163.456 230.064 162.951C230.025 164.298 230.119 165.645 230.347 166.973C227.69 167.525 224.99 167.84 222.278 167.915C221.03 167.915 219.796 167.915 218.608 167.915C216.124 167.875 213.644 167.706 211.178 167.406C211.428 166.131 211.563 164.835 211.579 163.534Z" fill="#050404"/>
<path d="M202.068 163.22C202.232 162.233 202.336 161.366 203.198 161.725C205.221 162.477 207.318 163.009 209.454 163.31C209.365 164.611 209.201 165.881 209.023 167.152C206.778 166.776 204.58 166.155 202.47 165.298C201.875 164.999 201.905 164.222 202.068 163.22Z" fill="#050404"/>
<path d="M216.9 163.265L216.811 168.498L224.344 168.049L224.434 163.19L216.9 163.265ZM218.163 164.132H223.141V167.346L218.163 167.646V164.132Z" fill="#AEAEAE"/>
<path d="M221.965 93.7779L221.505 112.824L210.107 107.681L210.464 88.082L221.965 93.7779Z" fill="#E8BCA5"/>
<path d="M240.333 107.891C240.333 107.891 230.6 137.506 228.446 154.789C228.446 154.789 228.698 163.026 215.339 162.473C205.904 162.084 203.184 160.051 203.184 160.051L189.662 104.049C189.662 104.049 196.468 100.73 210.852 100.745C210.852 100.745 210.852 100.281 214.076 102.015C216.573 103.346 217.435 112.48 217.435 112.48C217.435 112.48 217.91 103.331 219.322 102.584C220.42 101.901 221.634 101.429 222.903 101.193C228.327 101.582 233.959 103.241 240.274 104.288L240.333 107.891Z" fill="#D3F0F3"/>
<path d="M225.606 101.462C224.685 101.342 223.764 101.238 222.857 101.163C221.588 101.399 220.374 101.87 219.276 102.553C218.747 103.142 218.419 103.886 218.34 104.676C219.245 104.533 220.158 104.443 221.074 104.407C222.055 104.407 223.348 104.183 224.551 104.108C224.72 103.163 225.079 102.262 225.606 101.462Z" fill="#9FCACC"/>
<path d="M212.901 104.841H213.555C214.201 104.841 214.845 104.922 215.472 105.08H215.903C215.631 103.9 214.971 102.846 214.03 102.09C210.776 100.356 210.806 100.819 210.806 100.819C209.795 100.819 208.83 100.819 207.834 100.819C208.919 101.597 210.018 102.314 211.059 103.226C211.75 103.668 212.371 104.212 212.901 104.841Z" fill="#9FCACC"/>
<path d="M212.47 46.3568C201.623 48.8534 201.92 56.3433 201.92 56.3433C201.92 56.3433 202.247 62.1289 202.47 69.0058C201.99 68.3049 201.278 67.7984 200.462 67.5765C199.645 67.3547 198.777 67.4321 198.012 67.7949C194.327 69.3796 197.046 81.0704 202.663 80.0538C202.709 82.3178 203.033 84.5675 203.629 86.7513C205.204 90.0702 212.128 95.1382 218.265 95.9306C224.402 96.7229 232.129 92.6117 232.129 85.3162C232.129 78.0206 232.219 51.066 232.219 51.066C232.219 51.066 230.406 42.2456 212.47 46.3568Z" fill="#FFCEB1"/>
<path d="M218.445 61.89C214.938 62.0096 212.902 61.3817 209.945 63.1458C209.945 58.6608 216.602 58.3768 218.445 61.89Z" fill="#8E6537"/>
<path d="M224.893 61.8898C226.185 58.1523 232.322 58.8998 231.669 63.1455C229.306 61.5459 227.627 61.8748 224.893 61.8898Z" fill="#8E6537"/>
<path opacity="0.4" d="M198.533 69.8433C200.45 68.8715 202.159 71.9811 202.233 75.3149C200.658 75.0757 200.39 76.9146 201.267 78.2152C198.146 78.8132 196.438 70.8449 198.533 69.8433Z" fill="#C87761"/>
<path d="M222.621 65.4331C224.044 69.133 224.93 73.0201 225.251 76.9744C224.032 77.5575 222.799 78.1256 221.551 78.6339C222.65 77.9312 223.78 77.2884 224.909 76.6455L224.805 76.8847C224.077 73.1174 223.482 69.1556 222.621 65.4331Z" fill="#E69483"/>
<path d="M225.623 84.4939C220.555 89.3377 215.904 83.8511 215.904 83.8511L225.623 84.4939Z" fill="white"/>
<path d="M232.441 53.1141C234.685 52.8152 238.846 48.3003 237.211 43.5911C237.211 43.5911 236.81 46.1475 233.244 46.1475C233.244 46.1475 235.28 45.3253 235.696 44.0994C235.696 44.0994 233.155 45.5944 227.151 41.9615C226.616 41.6177 225.992 41.2738 225.324 40.93C224.445 40.4185 223.519 39.993 222.56 39.6593C215.754 36.9533 205.932 36.0862 202.559 48.9132C202.476 49.1522 202.412 49.3971 202.366 49.6458C202.366 49.6458 197.596 49.1225 197.596 57.2553C197.596 60.3349 198.74 63.5193 200.226 67.4212C201.712 67.6305 202.589 69.6338 202.589 69.6338L203.272 74.8961C203.326 76.6206 203.126 78.3436 202.678 80.009C201.92 81.9226 200.909 90.8178 212.5 95.3177C224.09 99.8176 234.789 95.1233 232.129 79.9791C232.129 79.9791 232.367 84.0604 230.539 83.5372C228.712 83.0139 230.421 77.7516 221.624 78.7383C218.86 78.3944 215.115 76.122 212.054 81.3993C209.662 85.5405 205.263 82.7 204.921 72.25V69.5889C204.921 69.4394 204.921 69.2899 204.921 69.1255V62.0542C206.875 60.2741 208.16 57.8724 208.562 55.252C229.856 63.5043 236.364 53.0693 236.364 53.0693C235.078 53.3902 233.735 53.4055 232.441 53.1141ZM214.268 82.2664C216.864 83.1171 219.683 82.9461 222.159 81.788C223.945 83.0757 226.098 83.747 228.296 83.7016C228.647 84.3484 228.848 85.0668 228.884 85.803C228.921 86.5391 228.791 87.274 228.505 87.9527C228.22 88.6314 227.785 89.2362 227.234 89.722C226.683 90.2078 226.03 90.5619 225.324 90.7579C220.435 92.5968 221.653 87.1849 221.653 87.1849L219.722 86.871C219.876 87.3766 219.895 87.9144 219.775 88.4296C219.656 88.9448 219.403 89.4188 219.041 89.8034C218.68 90.1879 218.224 90.4692 217.72 90.6185C217.215 90.7678 216.681 90.7799 216.17 90.6533C209.81 90.0404 214.268 82.2664 214.268 82.2664Z" fill="#8E6537"/>
<path d="M213.348 103.735C215.759 104.054 218.209 103.861 220.54 103.167L221.803 105.573L219.604 108.713L223.898 153.563L219.916 157.778L215.087 154.22L215.414 109.161L212.07 105.932L212.784 103.944" fill="#475059"/>
<path d="M206.408 100.58L211.119 108.22L214.418 102.03L207.538 97.5454L206.408 100.58Z" fill="#BFDBDD"/>
<path d="M199.885 171.219L220.347 175.434L222.115 168.782L223.898 174.941L239.04 170.561L236.886 133.724L240.229 104.228L225.607 101.432L218.727 138.149L206.394 100.58C206.394 100.58 199.9 99.7431 189.543 104.258L199.885 171.219Z" fill="#474747"/>
<path d="M206.409 100.58C204.993 100.395 203.56 100.395 202.144 100.58L200.049 114.693L204.878 115.829L203.273 119.552L218.727 138.149L206.409 100.58Z" fill="#373737"/>
<path d="M225.607 101.462L218.742 138.149L229.218 121.779L225.355 116.427L230.021 115.291L228.416 101.851L226.157 101.522" fill="#373737"/>
<path d="M226.751 100.79L223.244 108.564L219.291 102.554L225.517 98.3828L226.751 100.79Z" fill="#BFDBDD"/>
<path d="M217.939 143.411C217.939 143.707 218.027 143.996 218.19 144.242C218.353 144.488 218.585 144.68 218.857 144.793C219.128 144.906 219.427 144.935 219.715 144.878C220.004 144.82 220.268 144.678 220.476 144.469C220.684 144.26 220.826 143.993 220.883 143.703C220.94 143.413 220.911 143.113 220.798 142.839C220.686 142.566 220.495 142.333 220.251 142.168C220.007 142.004 219.719 141.917 219.425 141.917C219.031 141.917 218.653 142.074 218.375 142.354C218.096 142.635 217.939 143.015 217.939 143.411Z" fill="#373737"/>
<path d="M220.599 158.167C221.444 158.167 222.129 157.478 222.129 156.627C222.129 155.777 221.444 155.087 220.599 155.087C219.754 155.087 219.068 155.777 219.068 156.627C219.068 157.478 219.754 158.167 220.599 158.167Z" fill="#373737"/>
<path d="M264.45 72.8333C265.208 75.2103 266.01 78.1405 266.798 81.1902C264.282 81.7185 261.771 82.2816 259.264 82.8796C258.685 79.0375 258.179 75.6139 257.897 73.6256C256.902 74.0741 254.762 74.5076 252.592 71.712C250.779 69.3499 251.82 67.8998 252.889 67.1224C252.523 65.9165 252.236 64.6881 252.028 63.4447C251.344 59.8119 258.714 57.5993 262.311 58.4963C265.907 59.3933 266.664 67.5709 265.996 70.2918C265.927 70.7999 265.754 71.2881 265.488 71.7256C265.222 72.163 264.869 72.5402 264.45 72.8333Z" fill="#FFCEB1"/>
<path d="M267.868 79.5757L266.649 74.1489L256.5 76.0625L257.362 81.4445L267.868 79.5757Z" fill="#D3F0F3"/>
<path d="M255.756 79.3964L260.481 99.3395L233.14 103.316C227.196 105.888 234.076 118.341 234.076 118.341L235.978 117.862L274.984 107.711L267.941 77.5127L255.756 79.3964Z" fill="#474747"/>
<path d="M167.536 70.4411C166.718 72.8331 165.975 75.8231 165.232 78.8131C167.744 79.3363 170.255 79.9044 172.766 80.4875C173.346 76.6603 173.851 73.2218 174.133 71.2485C175.129 71.682 177.269 72.1305 179.438 69.3199C181.251 66.9578 180.211 65.5077 179.141 64.7303C179.507 63.5296 179.795 62.3061 180.003 61.0676C180.686 57.4198 173.316 55.2222 169.72 56.1042C166.124 56.9863 165.366 65.1938 166.035 67.8997C166.101 68.4035 166.268 68.8885 166.526 69.3254C166.784 69.7623 167.127 70.1418 167.536 70.4411Z" fill="#FFCEB1"/>
<path d="M164.117 77.1838L165.336 71.772L175.485 73.6856L174.623 79.0675L164.117 77.1838Z" fill="#D3F0F3"/>
<path d="M176.228 77.0192L171.503 96.9475L198.845 100.924C204.788 103.496 197.908 115.874 197.908 115.874L196.006 115.396L157 105.245L164.043 75.0459L176.228 77.0192Z" fill="#474747"/>
<path d="M231.06 69.9628C230.54 68.6173 229.915 66.3898 228.266 66.4945C227.902 66.5123 227.55 66.6286 227.247 66.8313C226.943 67.0339 226.7 67.3153 226.542 67.6456C226.184 68.4392 225.963 69.2886 225.889 70.1572C225.589 69.2445 225.589 68.2593 225.889 67.3466C226.008 66.9548 226.218 66.5968 226.501 66.3015C226.783 66.0062 227.131 65.7819 227.516 65.6466C227.9 65.5113 228.311 65.4688 228.715 65.5226C229.119 65.5764 229.505 65.725 229.841 65.9563C230.364 66.468 230.753 67.1009 230.976 67.7994C231.199 68.4979 231.248 69.2408 231.119 69.9628H231.06Z" fill="#1C1C24"/>
<path d="M215.756 70.4263C215.384 69.036 214.998 66.7486 213.319 66.7486C211.639 66.7486 210.941 68.6921 210.585 70.217C210.363 69.2799 210.441 68.2963 210.807 67.4064C210.963 67.029 211.202 66.6926 211.508 66.4233C211.813 66.154 212.176 65.959 212.568 65.8535C212.96 65.748 213.371 65.7347 213.77 65.8148C214.168 65.8948 214.542 66.066 214.864 66.3151C215.336 66.8748 215.663 67.5422 215.819 68.259C215.974 68.9758 215.953 69.72 215.756 70.4263Z" fill="#1C1C24"/>
</g>
<defs>
<clipPath id="clip0_1438_13550">
<rect width="415" height="273" fill="white" transform="translate(1 54)"/>
</clipPath>
<clipPath id="clip1_1438_13550">
<rect width="118" height="264" fill="white" transform="translate(157 38)"/>
</clipPath>
</defs>
</svg>
