<svg width="457" height="334" viewBox="0 0 457 334" fill="none" xmlns="http://www.w3.org/2000/svg">
<g opacity="0.7">
<path opacity="0.1" d="M278.012 79.8398C277.524 82.0477 276.413 84.1018 274.83 85.7241C273.246 87.3463 271.267 88.4584 269.159 88.9097C262.291 90.4583 249.401 91.8274 239.853 83.7802C226.258 72.3331 250.495 58.0044 268.522 66.0571C277.564 70.1056 278.896 75.5026 278.012 79.8398Z" fill="#32324C"/>
<path opacity="0.1" d="M225.18 79.6969C224.319 80.5037 223.265 81.0326 222.16 81.2119C221.055 81.3912 219.953 81.2122 219.003 80.6992C215.885 79.0616 210.502 75.3195 209.284 68.5903C207.535 58.9783 221.24 60.8437 225.729 70.4548C227.971 75.2651 226.858 78.0865 225.18 79.6969Z" fill="#32324C"/>
<path opacity="0.1" d="M231.332 92.88C231.332 92.88 253.504 114.104 291.724 91.0324C329.943 67.961 381.161 70.729 395.677 127.937C410.193 185.145 412.874 274.851 342.928 277.451C279.705 279.802 259.221 292.339 235.504 312.642C211.787 332.946 124.574 340.632 80.8357 273.756C45.8012 220.216 37.5529 163.572 72.1588 106.162C115.292 34.6641 177.058 43.042 231.332 92.88Z" fill="#C4A747"/>
<path opacity="0.07" d="M148 306C212.617 306 265 301.971 265 297C265 292.029 212.617 288 148 288C83.3827 288 31 292.029 31 297C31 301.971 83.3827 306 148 306Z" fill="black"/>
</g>
<g clip-path="url(#clip0_1442_13550)">
<path opacity="0.1" d="M330.202 302.15C354.983 302.15 375.071 299.251 375.071 295.675C375.071 292.099 354.983 289.2 330.202 289.2C305.422 289.2 285.334 292.099 285.334 295.675C285.334 299.251 305.422 302.15 330.202 302.15Z" fill="black"/>
</g>
<g clip-path="url(#clip1_1442_13550)">
<path d="M316.162 276.297L313.914 289.899H308.664L310.422 275.105L316.162 276.297Z" fill="#33343D"/>
<path d="M307.073 283.456C307.073 283.456 304.083 287.373 299.539 288.744C294.995 290.116 290.888 291.873 291.222 294.622C291.222 294.622 297.985 297.955 308.956 294.249V295.416L316.131 295.097V285.471L310.152 285.893L310.6 284.942L307.073 283.456Z" fill="#705543"/>
<path d="M304.185 294.382C294.349 296.926 291.856 294.105 291.276 293.906C291.214 294.139 291.196 294.382 291.222 294.622C291.222 294.622 297.985 297.955 308.956 294.249V295.416L316.131 295.098V293.178C313.59 293.335 311.437 292.511 304.185 294.382Z" fill="#543D31"/>
<path d="M341.274 276.297L343.522 289.899H348.771L347.014 275.105L341.274 276.297Z" fill="#33343D"/>
<path d="M350.361 283.456C350.361 283.456 353.35 287.373 357.9 288.744C362.45 290.116 367.048 291.873 366.713 294.598C366.713 294.598 359.449 297.931 348.477 294.225V295.392L341.303 295.073V285.447L347.282 285.869L346.839 284.918L350.361 283.456Z" fill="#705543"/>
<path d="M354.755 294.887C361.654 295.976 366.115 294.105 366.665 293.906C366.722 294.132 366.739 294.367 366.713 294.598C366.713 294.598 359.448 297.931 348.477 294.225V295.392L341.302 295.073V292.667C343.843 292.829 348.118 293.834 354.755 294.887Z" fill="#543D31"/>
<path d="M317.021 163.03L311.377 233.293L306.498 281.423C306.498 281.423 309.153 285.099 319.114 283.426L324.346 232.992L330.767 191.541H335.879L339.299 283.402C339.299 283.402 343.616 286.777 351.586 283.769L349.972 165.484L317.021 163.03Z" fill="#DDCEA6"/>
<path d="M331.617 102.663L332.066 121.319L343.24 116.29L342.887 97.0801L331.617 102.663Z" fill="#DDBCA6"/>
<path d="M313.621 116.519C313.621 116.519 314.697 149.897 316.844 166.844C316.844 166.844 325.065 170.544 338.147 170.009C347.396 169.63 350.057 167.638 350.057 167.638L363.312 112.723C363.312 112.723 356.646 109.468 342.559 109.486C342.559 109.486 342.559 109.035 339.397 110.737C336.945 112.043 336.108 120.965 336.108 120.965C336.108 120.965 335.63 112.001 334.249 111.267C333.179 110.59 331.989 110.128 330.745 109.907C325.436 110.274 319.917 111.898 313.729 112.915L313.621 116.519Z" fill="white"/>
<path d="M326.936 109.534L330.368 117.156L334.242 111.266L328.144 107.175L326.936 109.534Z" fill="#EFEFED"/>
<path d="M346.863 109.329L342.253 116.814L339.013 110.749L345.751 106.357L346.863 109.329Z" fill="#EFEFED"/>
<path d="M340.926 56.2003C351.544 58.6369 351.263 65.9827 351.263 65.9827C351.263 65.9827 350.928 71.6499 350.719 78.4001C351.186 77.7136 351.879 77.2159 352.676 76.9956C353.473 76.7753 354.322 76.8466 355.072 77.1969C358.659 78.7551 356.016 90.2099 350.522 89.2293C350.283 92.4299 349.972 94.9206 349.565 95.7869C348.023 99.0417 341.236 104.011 335.216 104.811C329.195 105.611 321.643 101.55 321.643 94.4152C321.643 87.28 321.548 60.8388 321.548 60.8388C321.548 60.8388 323.347 52.1454 340.926 56.2003Z" fill="#F7CEB2"/>
<path d="M337.571 77.8465C337.571 79.4047 338.259 80.6681 339.108 80.6681C339.957 80.6681 340.65 79.4047 340.65 77.8465C340.65 76.2883 339.963 75.0068 339.108 75.0068C338.253 75.0068 337.571 76.2943 337.571 77.8465Z" fill="#222228"/>
<path d="M324.616 78.466C324.616 80.0242 325.31 81.2876 326.159 81.2876C327.008 81.2876 327.695 80.0242 327.695 78.466C327.695 76.9078 327.008 75.6504 326.159 75.6504C325.31 75.6504 324.616 76.9138 324.616 78.466Z" fill="#222228"/>
<path d="M335.066 71.3971C335.066 71.3971 335.772 71.4453 336.651 71.3971C337.093 71.3971 337.577 71.3971 338.068 71.3971H338.438C338.558 71.3971 338.683 71.3971 338.803 71.3971C339.048 71.3971 339.281 71.3971 339.514 71.3971C339.748 71.3971 339.975 71.3971 340.19 71.4633C340.405 71.5295 340.627 71.5115 340.824 71.5776C340.926 71.606 341.03 71.6281 341.135 71.6438C341.236 71.6438 341.326 71.716 341.428 71.7461C341.634 71.7961 341.835 71.8687 342.026 71.9627C342.205 72.0529 342.402 72.1131 342.564 72.1973C342.725 72.2815 342.863 72.3658 342.988 72.4319C343.239 72.5643 343.413 72.6365 343.413 72.6365C343.428 72.4804 343.428 72.3233 343.413 72.1672C343.413 72.0168 343.365 71.8303 343.317 71.6197C343.24 71.3943 343.142 71.1767 343.024 70.97C342.963 70.8426 342.893 70.72 342.815 70.603L342.516 70.2661C342.404 70.1438 342.287 70.0274 342.163 69.9172C342.032 69.8209 341.888 69.7307 341.739 69.6344C341.436 69.4405 341.108 69.2906 340.764 69.1892C340.414 69.0921 340.056 69.0276 339.694 68.9967C339.344 68.985 338.993 69.0071 338.647 69.0629C338.323 69.1067 338.004 69.1874 337.697 69.3035C337.161 69.4953 336.658 69.7715 336.208 70.1217C335.891 70.3722 335.607 70.6634 335.365 70.988C335.25 71.1125 335.15 71.2498 335.066 71.3971Z" fill="#84653C"/>
<path d="M328.74 71.3972L328.704 71.2889C328.674 71.1909 328.634 71.0962 328.585 71.0061C328.431 70.688 328.229 70.3957 327.987 70.1398C327.634 69.7808 327.213 69.4965 326.749 69.3035C326.477 69.1854 326.192 69.1005 325.9 69.0508C325.58 68.9995 325.255 68.9873 324.932 69.0147C324.593 69.0481 324.261 69.1376 323.951 69.2795C323.644 69.3966 323.361 69.5723 323.12 69.7969C322.884 69.9834 322.682 70.2092 322.522 70.4647C322.38 70.6724 322.273 70.902 322.205 71.1445C322.13 71.3369 322.086 71.5399 322.074 71.7461C322.062 71.9043 322.062 72.0632 322.074 72.2214C322.077 72.3242 322.087 72.4267 322.104 72.5282V72.6365L322.205 72.5884C322.271 72.5523 322.373 72.5102 322.48 72.444C322.588 72.3778 322.719 72.3116 322.845 72.2274C322.99 72.1407 323.14 72.0624 323.293 71.9928C323.442 71.9034 323.598 71.8269 323.76 71.7642C323.912 71.6948 324.07 71.6385 324.232 71.5957C324.31 71.5957 324.382 71.5476 324.453 71.5235C324.525 71.4994 324.615 71.5235 324.686 71.4814C324.758 71.4393 324.991 71.4393 325.147 71.4092C325.302 71.3791 325.476 71.4092 325.655 71.3731C325.834 71.337 326.02 71.3731 326.217 71.3731C326.6 71.3731 327 71.3731 327.371 71.3731C327.55 71.3731 327.736 71.3731 327.891 71.3731C328.047 71.3731 328.202 71.3731 328.328 71.3731L328.74 71.3972Z" fill="#84653C"/>
<path opacity="0.4" d="M354.583 79.1699C352.7 78.2073 351.031 81.2635 350.954 84.5183C352.496 84.2897 352.747 86.0945 351.898 87.376C354.96 88.0257 356.55 80.1866 354.583 79.1699Z" fill="#B57662"/>
<path d="M291.563 175.405C293.04 173.51 294.858 173.113 297.249 172.818C299.294 166.02 304.753 147.55 304.753 147.55L312.609 153.133C312.609 153.133 307.133 167.897 303.258 175.61L303.366 175.712C304.191 177.818 303.091 180.122 302.541 181.602C301.991 183.082 301.907 183.84 301.405 185.422C300.98 186.77 300.257 188.99 299.444 188.4C298.631 187.811 300.161 183.527 299.761 183.311C299.246 183.028 295.814 192.233 294.559 190.169C294.146 189.495 296.903 184.231 296.825 183.178C296.747 182.125 292.329 190.674 290.882 189.489C290.003 188.773 295.103 181.343 294.146 182.035C292.915 182.92 289.722 186.95 288.915 187.161C288.108 187.372 287.121 187.72 289.692 183.768C291.581 180.868 293.357 178.913 293.166 178.089C292.933 177.066 291.551 178.528 291.551 178.528C287.832 181.211 287.408 179.129 287.211 178.456C287.013 177.782 290.015 177.391 291.563 175.405Z" fill="#F7CEB2"/>
<path d="M330.977 74.8804C330.768 75.3135 330.612 75.7648 330.439 76.216C330.265 76.6672 330.14 77.1244 330.008 77.5877C329.877 78.0509 329.751 78.5081 329.632 78.9714L329.309 80.3732C329.111 81.3057 328.95 82.2502 328.789 83.1948C328.627 84.1393 328.52 85.0899 328.418 86.0404V86.2029L328.543 86.263C329.141 86.5277 329.697 86.8045 330.277 87.0632C330.857 87.3219 331.437 87.5806 332.035 87.8212C331.497 87.4723 330.947 87.1594 330.397 86.8286C329.847 86.4977 329.291 86.1969 328.741 85.878L328.854 86.1006C329.052 85.1681 329.213 84.2296 329.369 83.291L329.644 81.8893C329.727 81.42 329.799 80.9507 329.895 80.4815L330.409 77.6779C330.493 77.2086 330.612 76.7514 330.69 76.2761C330.768 75.8009 330.839 75.3496 330.977 74.8804Z" fill="#D39484"/>
<path d="M295.947 170.099L305.429 142.003L313.728 112.909C317.872 111.922 326.529 112.813 320.987 128.485L314.027 150.294L305.914 174.894L295.947 170.099Z" fill="white"/>
<path d="M377.309 165.003C377.309 165.003 383.575 182.594 381.924 184.201C381.829 184.608 381.6 184.972 381.275 185.232C380.95 185.493 380.547 185.636 380.131 185.639C380.131 185.639 379.891 187.299 377.99 186.878C377.909 187.529 377.668 188.149 377.291 188.683C376.448 189.621 374.516 188.978 374.498 184.724C374.153 185.542 373.512 186.198 372.705 186.559C370.911 187.257 371.772 184.7 371.772 184.7C371.772 184.7 371.856 182.294 372.208 179.021C372.561 175.748 373.602 175.068 373.602 175.068L366.714 152.447L377.309 165.003Z" fill="#F7CEB2"/>
<path d="M379.951 170.4L371.664 142.003L363.365 112.909C359.222 111.922 350.564 112.813 356.113 128.485L363.067 150.312L371.581 173.805L379.951 170.4Z" fill="white"/>
<path d="M339.295 92.189L338.751 92.3815C338.41 92.5078 337.908 92.6582 337.316 92.8447C336.724 93.0312 336.024 93.2177 335.265 93.3922C334.894 93.5005 334.494 93.5546 334.069 93.6449C333.645 93.7351 333.268 93.7893 332.873 93.8434C332.479 93.8976 332.06 93.9698 331.678 93.9818C331.295 93.9938 330.877 94.054 330.482 94.042C330.087 94.0299 329.723 94.042 329.37 94.042C329.017 94.042 328.682 94.042 328.377 93.9637L327.54 93.8555C327.289 93.8133 327.08 93.7532 326.901 93.7171L326.303 93.6028L326.835 93.8254C327.008 93.8916 327.217 93.9818 327.433 94.066L328.27 94.2886C328.602 94.3717 328.94 94.43 329.28 94.4631C329.658 94.5203 330.04 94.5525 330.422 94.5594C330.82 94.5822 331.22 94.5822 331.618 94.5594C332.036 94.5594 332.455 94.4811 332.879 94.439C334.414 94.2141 335.913 93.7915 337.34 93.1816C338.016 92.9019 338.67 92.5701 339.295 92.189Z" fill="#D39484"/>
<path d="M321.356 62.8058C319.156 62.517 315.078 58.0951 316.675 53.4807C316.675 53.4807 317.069 55.9895 320.561 55.9895C320.561 55.9895 318.564 55.1893 318.169 53.9861C318.169 53.9861 320.657 55.4901 326.54 51.8804C327.066 51.5555 327.664 51.2126 328.334 50.8757C329.2 50.3713 330.113 49.9542 331.06 49.6303C337.751 46.9652 347.323 46.1289 350.629 58.7629C350.708 58.9947 350.77 59.2319 350.815 59.4728C350.815 59.4728 355.49 58.9615 355.49 66.9329C355.49 69.941 354.372 73.0695 352.919 76.9018C351.496 77.1063 350.605 79.0676 350.605 79.0676L349.942 84.2235C349.942 85.6253 350.025 87.9836 350.54 89.235C351.269 91.1 352.268 99.8235 340.908 104.239C329.547 108.655 319.084 104.035 321.673 89.1989C321.673 89.1989 321.446 93.1997 323.24 92.6943C325.033 92.189 323.353 87.021 331.927 87.9836C334.636 87.6407 338.307 85.4267 341.302 90.6007C343.634 94.6315 347.939 91.8521 348.274 81.6245V79.0014C348.274 78.851 348.274 78.7006 348.274 78.5502V71.6196C348.274 71.6196 345.087 68.8641 344.686 64.9596C323.826 73.0334 317.446 62.8058 317.446 62.8058C318.73 63.1235 320.072 63.1235 321.356 62.8058ZM339.209 91.3828C336.667 92.218 333.905 92.0524 331.479 90.9195C328.884 92.959 325.458 92.7906 325.458 92.7906C324.962 93.3922 323.568 97.9044 328.352 99.7092C333.135 101.514 331.939 96.1958 331.939 96.1958L333.828 95.8949C333.828 95.8949 333.093 100.016 337.32 99.6069C343.478 99.0053 339.209 91.3828 339.209 91.3828Z" fill="#84653C"/>
<path d="M321.314 169.936C319.814 169.61 318.372 169.054 317.039 168.288C316.202 167.969 316.316 168.89 316.22 169.87C316.101 171.164 316.292 171.85 317.045 172.12C317.183 172.168 317.847 172.957 320.693 173.739C320.902 172.469 321.111 171.206 321.314 169.936Z" fill="#705543"/>
<path d="M341.799 171.025C338.335 171.353 334.853 171.448 331.377 171.308C328.787 171.232 326.208 170.945 323.664 170.448C323.706 171.767 323.616 173.087 323.395 174.388C325.998 174.93 328.643 175.24 331.3 175.315C332.531 175.351 333.727 175.357 334.887 175.315C337.331 175.281 339.772 175.114 342.199 174.816C341.953 173.567 341.819 172.298 341.799 171.025Z" fill="#705543"/>
<path d="M351.115 170.719C350.954 169.75 350.846 168.914 350.015 169.208C348.029 169.94 345.973 170.462 343.881 170.767C343.958 172.024 344.126 173.275 344.293 174.527C346.496 174.161 348.653 173.556 350.727 172.722C351.306 172.469 351.283 171.699 351.115 170.719Z" fill="#705543"/>
<path d="M336.58 170.754L336.676 175.886L329.28 175.441L329.196 170.676L336.58 170.754ZM335.342 171.609L330.464 171.561L330.517 174.707L335.402 175.002L335.342 171.609Z" fill="#ADADAD"/>
<path d="M380.848 171.098L379.353 165.082L368.985 169.792L371.18 174.906L380.848 171.098Z" fill="#EFEFED"/>
<path d="M308.299 170.496L296.939 166.285L295.145 170.093L306.906 175.309L308.299 170.496Z" fill="#EFEFED"/>
</g>
<defs>
<clipPath id="clip0_1442_13550">
<rect width="142" height="14" fill="white" transform="translate(262 292)"/>
</clipPath>
<clipPath id="clip1_1442_13550">
<rect width="95" height="248" fill="white" transform="matrix(-1 0 0 1 382.199 48)"/>
</clipPath>
</defs>
</svg>
