<svg width="414" height="896" viewBox="0 0 414 896" fill="none" xmlns="http://www.w3.org/2000/svg">
<g clip-path="url(#clip0_156_2503)">
<rect width="414" height="896" fill="#E6E6E6"/>
<g clip-path="url(#clip1_156_2503)">
<path d="M279.652 391H134.348C126.994 391 121 385.006 121 377.652V232.348C121 224.994 126.994 219 134.348 219H279.652C287.006 219 293 224.994 293 232.348V377.652C293 385.006 287.006 391 279.652 391Z" fill="#D0A153"/>
<g clip-path="url(#clip2_156_2503)">
<path d="M166.175 362.224C172.068 362.213 177.961 362.189 183.854 362.197C185.511 362.201 185.549 362.248 185.573 363.82C185.604 365.934 185.569 368.052 185.592 370.171C185.6 370.822 185.487 371.431 185.181 372C175.827 372 166.474 372 157.108 372C157.225 371.704 157.112 372.055 157.031 371.786C157.011 371.727 156.988 371.633 157.015 371.598C159.913 368.322 163.106 365.333 166.175 362.224Z" fill="#DEE0E0"/>
<path d="M166.788 247.776C172.681 247.787 178.574 247.811 184.467 247.803C186.124 247.799 186.163 247.752 186.186 246.18C186.217 244.066 186.182 241.948 186.205 239.83C186.213 239.178 186.097 238.573 185.794 238C176.44 238 167.087 238 157.718 238C157.834 238.296 157.722 237.945 157.64 238.215C157.621 238.277 157.598 238.371 157.625 238.402C160.527 241.679 163.719 244.667 166.788 247.776Z" fill="#DEE0E0"/>
<path d="M210.549 300.875L213.761 304.105C214.25 304.596 214.25 305.404 213.761 305.899L210.549 309.129C210.06 309.621 209.257 309.621 208.764 309.129L205.552 305.899C205.063 305.408 205.063 304.6 205.552 304.105L208.764 300.875C209.257 300.379 210.06 300.379 210.549 300.875Z" fill="#797979"/>
<path d="M186.027 300.875L189.239 304.105C189.728 304.596 189.728 305.404 189.239 305.899L186.027 309.129C185.538 309.621 184.735 309.621 184.242 309.129L181.03 305.899C180.541 305.408 180.541 304.6 181.03 304.105L184.242 300.875C184.735 300.379 185.534 300.379 186.027 300.875Z" fill="#797979"/>
<path d="M212.078 362.224C216.819 362.213 242.602 362.189 247.347 362.197C248.682 362.201 248.713 362.248 248.732 363.82C248.755 365.934 248.728 368.052 248.748 370.171C248.752 370.822 248.662 371.431 248.418 372C240.892 372 222.759 372 215.221 372C215.314 371.704 215.225 372.055 215.159 371.786C215.143 371.727 215.124 371.633 215.147 371.598C213.642 366.945 209.611 365.333 212.078 362.224Z" fill="#DEE0E0"/>
<path d="M247.622 271.38C244.961 274.575 242.265 277.739 239.654 280.972C237.924 283.114 236.465 285.443 235.305 287.959C232.492 294.044 232.659 300.118 235.301 306.196C235.495 306.648 236.034 307.939 236.17 308.103L236.185 308.138C236.426 308.528 236.442 308.805 236.201 308.95C235.976 309.086 235.677 309.012 235.507 308.809C235.289 308.552 234.956 308.193 234.793 308.162C226.867 303.137 224.846 292.738 225.765 284.799C226.188 281.14 227.647 277.684 229.885 274.77C233.175 270.487 243.06 258.316 243.06 258.316C245.395 255.425 246.695 252.043 247.684 248.513C248.782 248.692 248.666 249.632 248.678 250.331C248.767 256.619 248.786 262.907 248.674 269.196C248.654 270.046 248.464 270.889 247.622 271.38Z" fill="#DEE0E0"/>
<path d="M228.617 247.776C222.724 247.787 216.831 247.811 210.938 247.803C209.281 247.799 209.242 247.752 209.219 246.18C209.188 244.066 209.223 241.948 209.2 239.83C209.192 239.178 209.304 238.57 209.611 238C218.964 238 228.318 238 237.683 238C237.567 238.296 237.679 237.945 237.761 238.215C237.78 238.273 237.803 238.367 237.776 238.402C234.882 241.679 231.689 244.667 228.617 247.776Z" fill="#DEE0E0"/>
<path d="M247.622 271.38C247.874 270.506 248.076 269.64 248.068 268.704C248.037 262.638 248.06 256.576 248.045 250.51C248.045 249.831 248.266 249.082 247.676 248.509C248.239 245.033 247.925 241.507 248.091 238.008C248.949 237.934 249.248 238.484 249.612 238.854C252.111 241.398 254.57 243.976 257.077 246.508C257.713 247.151 258.081 247.826 257.984 248.755C257.946 249.106 257.98 249.465 257.98 249.82C257.98 276.475 257.98 334.508 257.98 364.963C257.98 366.929 248.002 372.866 248.057 371.895C248.084 371.399 248.06 370.904 248.06 370.404C248.06 350.046 248.064 294.134 248.045 273.775C248.045 272.972 248.382 272.055 247.622 271.38Z" fill="white"/>
<path d="M228.007 362.224C222.114 362.213 216.221 362.189 210.328 362.197C208.672 362.201 208.633 362.248 208.61 363.82C208.579 365.934 208.613 368.052 208.59 370.171C208.582 370.822 208.695 371.431 209.001 372C218.355 372 227.709 372 237.074 372C236.957 371.704 237.07 372.055 237.151 371.786C237.171 371.727 237.194 371.633 237.167 371.598C234.269 368.322 231.076 365.333 228.007 362.224Z" fill="#DEE0E0"/>
<path d="M199.434 245.037C199.434 275.496 199.434 333.525 199.434 360.18C199.434 360.535 199.465 360.894 199.43 361.245C199.329 362.174 199.709 362.849 200.361 363.492C202.93 366.024 205.455 368.602 208.012 371.146C208.384 371.516 208.691 372.07 209.571 371.992C209.738 368.497 209.626 347.362 209.595 341.3C209.591 340.36 209.622 337.028 209.618 336.229C209.61 330.214 209.606 321.093 209.606 310.705C209.191 310.744 208.764 310.611 208.45 310.296L204.206 306.028C203.643 305.462 203.643 304.538 204.206 303.976L208.45 299.708C208.764 299.392 209.191 299.26 209.602 299.299C209.598 276.841 209.602 251.817 209.602 239.599C209.602 239.104 209.579 238.605 209.61 238.109C209.664 237.134 199.434 243.075 199.434 245.037Z" fill="white"/>
<path d="M185.224 238.008C185.057 241.503 185.17 262.638 185.201 268.7C185.205 269.64 185.174 272.972 185.177 273.771C185.185 279.72 185.189 288.704 185.189 298.948C185.546 298.96 185.899 299.096 186.167 299.369L190.745 303.972C191.307 304.538 191.307 305.462 190.745 306.024L186.167 310.627C185.899 310.9 185.546 311.037 185.189 311.045C185.193 333.416 185.189 358.246 185.189 370.401C185.189 370.896 185.212 371.395 185.181 371.891C185.123 372.866 195.353 366.925 195.353 364.959C195.353 334.501 195.353 276.471 195.353 249.816C195.353 249.461 195.322 249.102 195.357 248.751C195.458 247.823 195.078 247.148 194.426 246.504C191.858 243.972 189.332 241.394 186.776 238.851C186.407 238.484 186.105 237.93 185.224 238.008Z" fill="white"/>
</g>
</g>
<path d="M-530.234 868.48C-530.561 865.308 -530.887 862.183 -531.261 858.498C-535.227 858.172 -539.193 857.892 -544.092 857.472C-544.092 850.709 -544.092 844.272 -544.092 837.462C-567.748 837.462 -590.378 837.462 -614.221 837.462C-614.221 847.864 -614.221 858.079 -614.221 868.34C-615.388 868.387 -616.601 868.387 -617.767 868.433C-618.141 857.239 -617.814 845.951 -617.907 833.777C-593.364 833.777 -569.335 833.777 -544.419 833.777C-544.419 826.221 -544.419 819.504 -544.419 811.621C-522.582 811.621 -501.632 811.621 -479.982 811.621C-479.982 752.664 -479.982 694.872 -479.982 636.474C-473.916 636.474 -468.55 636.474 -461.738 636.474C-461.738 640.812 -462.018 645.383 -461.598 649.861C-461.458 651.447 -459.592 652.846 -458.518 654.339C-457.445 652.846 -455.439 651.4 -455.439 649.861C-455.206 637.547 -455.299 625.186 -455.299 612.219C-435.422 612.219 -416.152 612.219 -396.088 612.219C-396.088 626.026 -396.088 639.599 -396.088 652.986C-391.609 654.479 -387.363 654.898 -384.283 657.044C-378.264 661.242 -375.371 666.839 -375.511 675.095C-376.164 706.906 -375.791 738.764 -375.838 770.575C-375.838 773.513 -375.838 776.499 -375.838 779.95C-355.728 779.95 -336.364 779.95 -316.814 779.95C-316.44 776.825 -316.114 773.933 -315.694 770.155C-294.184 770.155 -272.86 770.155 -251.164 770.155C-250.744 766.237 -250.417 763.065 -249.997 759.52C-235.579 759.52 -221.488 759.52 -206.464 759.52C-206.464 768.942 -206.464 777.851 -206.464 787.18C-201.518 787.18 -197.505 787.18 -192.233 787.18C-192.233 773.467 -192.279 759.847 -192.186 746.274C-192.139 742.495 -193.819 737.691 -187.007 737.318C-185.98 737.271 -185.14 733.4 -184.86 732.793C-179.961 729.995 -176.042 727.756 -172.169 725.517C-172.449 724.957 -172.776 724.444 -173.056 723.885C-166.29 723.885 -159.524 723.885 -152.385 723.885C-152.152 728.502 -151.965 732.514 -151.732 737.318C-147.673 737.598 -143.707 737.924 -139.041 738.251C-139.041 758.168 -139.041 777.805 -139.041 797.302C-132.415 798.794 -132.415 798.794 -130.642 787.74C-124.95 787.74 -119.07 787.74 -113.005 787.74C-110.065 772.907 -117.671 757.002 -102.926 744.361C-95.5541 744.361 -85.8022 744.361 -75.6305 744.361C-75.6305 758.914 -75.6305 773.14 -75.6305 787.413C-76.3771 787.46 -77.1236 787.507 -77.8702 787.507C-77.8702 774.586 -77.8702 761.619 -77.8702 748.373C-86.9688 748.373 -94.5276 748.373 -102.086 748.373C-102.18 749.305 -102.273 750.238 -102.413 751.218C-97.2805 751.777 -92.1479 752.291 -87.0154 752.85C-86.9221 753.643 -86.8754 754.483 -86.7821 755.276C-93.6877 755.602 -100.593 755.882 -108.059 756.209C-108.059 766.424 -108.059 776.452 -108.059 787.04C-103.44 787.413 -98.9603 787.786 -93.5478 788.206C-93.5478 799.447 -93.5478 810.269 -93.5478 821.556C-89.4417 821.556 -86.2689 821.556 -85.5223 821.556C-81.7896 817.872 -79.2233 815.586 -77.0303 813.021C-76.2371 812.134 -75.8171 810.549 -75.8171 809.289C-76.0504 802.339 -73.6241 797.162 -67.0451 793.897C-65.7853 793.244 -65.0388 790.259 -65.1321 788.346C-65.412 781.303 -66.6252 774.26 -66.4852 767.263C-66.4386 763.672 -63.2191 760.127 -63.2657 756.582C-63.4057 742.402 -64.6655 728.269 -64.7589 714.089C-64.8522 702.942 -63.6857 691.794 -63.4524 680.599C-63.3591 676.028 -64.2456 671.41 -64.6655 666.839C-64.7589 666.046 -65.1788 664.787 -64.8055 664.46C-57.8999 658.35 -61.5393 650.887 -61.6326 643.704C-61.726 634.935 -60.3729 626.166 -59.6263 617.444C-58.9731 617.397 -58.3198 617.397 -57.6199 617.35C-57.2466 627.519 -57.0134 637.734 -56.5001 647.902C-56.2668 652.939 -59.673 658.77 -53.5606 662.735C-52.9073 663.154 -52.8607 664.74 -52.8607 665.766C-52.814 681.532 -52.5341 697.344 -52.814 713.11C-53.0939 727.01 -54.2138 740.863 -54.5404 754.763C-54.5871 757.421 -52.6274 760.173 -51.5542 762.832C-51.1809 763.812 -50.341 764.838 -50.481 765.771C-51.4142 773.42 -52.5341 781.023 -55.1003 788.579C-55.1003 747.393 -55.1003 706.207 -55.1003 664.507C-57.6199 664.507 -59.6263 664.507 -62.3792 664.507C-62.3792 680.646 -62.6125 696.598 -62.2859 712.597C-62.0526 725.097 -60.6528 737.551 -60.6061 750.052C-60.5595 762.552 -64.7589 774.866 -62.7058 787.46C-62.2859 790.025 -60.0929 792.358 -58.3665 794.596C-56.1268 797.535 -53.5606 800.194 -51.2276 803.086C-50.2011 804.345 -49.5012 805.838 -47.4481 807.47C-45.6284 795.996 -45.7684 782.656 -29.5776 784.428C-17.2595 785.781 -17.2595 796.509 -17.0262 806.491C-11.7537 806.817 -6.71442 807.144 -1.7218 807.423C-1.7218 808.216 -1.7218 809.056 -1.7218 809.849C-19.3124 809.849 -36.8564 809.849 -55.8002 809.849C-55.8002 819.084 -55.8002 826.734 -55.8002 834.43C-56.6867 834.477 -57.5733 834.477 -58.5065 834.523C-58.9264 829.066 -59.3463 823.655 -59.7662 817.685C-65.4587 817.685 -71.1046 817.685 -77.4503 817.685C-77.9168 819.831 -78.5234 822.349 -79.1766 825.335C-83.6093 825.568 -87.902 825.801 -92.7546 826.034C-92.7546 830.092 -92.7546 833.777 -92.7546 838.115C-90.4683 838.675 -87.9486 839.281 -85.1024 839.981C-84.8224 843.059 -84.5891 845.998 -84.2625 849.543C-68.7715 849.543 -53.2339 849.543 -36.7164 849.543C-36.7164 841.94 -36.7164 834.15 -36.7164 825.008C-24.6783 825.008 -11.4736 821.137 -2.88831 825.801C15.3556 835.69 33.3661 826.314 50.7234 831.305C52.8698 825.335 51.5634 823.282 46.5708 823.422C41.0649 823.609 35.6058 823.516 30.0999 823.422C27.627 823.376 25.1541 822.956 22.4011 821.836C27.6736 819.691 31.9197 817.685 28.1869 810.502C22.4478 810.502 16.2421 810.502 10.0364 810.502C9.94305 809.522 9.84973 808.59 9.80304 807.61C15.8688 807.33 21.9345 807.004 28.7935 806.677C29.0734 804.485 29.3534 802.199 29.7734 798.748C17.2219 798.748 5.32373 798.748 -6.5744 798.748C-6.62109 797.815 -6.66779 796.929 -6.71442 795.996C5.09045 795.996 16.8953 795.996 30.8465 795.996C25.3406 782.003 32.6196 770.668 32.1063 758.634C31.4998 745.061 30.0533 731.534 29.9133 717.961C29.7733 705.46 31.0798 692.913 31.3597 680.366C31.4531 675.795 30.5198 671.177 30.1932 666.559C30.0999 665.253 29.82 663.154 30.4733 662.688C37.7521 657.51 33.5528 650.561 33.7394 644.217C34.066 633.442 34.9058 622.714 35.5591 611.986C36.6323 611.986 37.6588 612.033 38.7319 612.033C38.7319 624.953 38.5453 637.873 38.8253 650.794C38.9186 654.712 36.3989 659.796 42.3247 662.128C42.9313 662.361 43.2112 664.041 43.2112 665.067C43.3046 682.745 43.6312 700.376 43.2579 718.054C42.978 731.348 41.4382 744.641 41.1582 757.934C41.0649 763.299 38.1254 769.922 45.1243 774.027C45.8242 774.446 44.0978 778.411 44.0511 780.743C43.8645 786.714 44.0045 792.684 44.0045 799.028C47.7372 799.028 51.1434 799.028 55.3427 799.028C55.3427 787.413 55.3427 776.265 55.3427 764.838C63.5548 764.838 70.927 764.838 78.3459 764.838C78.3926 765.584 78.4392 766.377 78.5325 767.123C72.4202 767.496 66.3077 767.823 59.0289 768.289C59.0289 777.711 58.7489 787.18 59.3088 796.649C59.4021 798.235 62.9482 799.634 66.8677 802.666C58.2823 802.666 51.4233 802.666 44.0978 802.666C44.0978 809.103 44.0978 813.907 44.0978 819.131C47.8306 819.504 51.2833 819.831 55.1561 820.157C55.436 823.282 55.716 826.221 56.0426 829.812C59.6354 829.812 63.2748 829.812 67.2409 829.812C67.4742 826.361 67.7075 823.142 67.9408 819.458C70.7404 819.038 73.3533 818.618 76.6661 818.105C76.6661 813.347 76.6661 808.496 76.6661 803.319C79.7457 802.619 82.2653 802.059 85.9047 801.22C85.1581 791.658 84.4116 782.236 83.6651 772.814C83.5718 771.461 83.0585 769.875 83.5717 768.802C91.4572 751.404 87.1645 733.493 85.9514 715.675C85.8114 713.809 85.6248 711.897 85.6248 710.031C85.6248 693.753 85.6248 677.474 85.6248 661.195C85.6248 659.843 85.2515 657.697 85.858 657.277C93.6968 652.38 89.0309 645.336 89.3109 639.133C89.7775 628.125 90.524 617.164 91.1772 606.156C92.2504 606.156 93.2769 606.202 94.3501 606.202C94.3501 617.91 94.1635 629.571 94.4434 641.278C94.5834 646.736 90.8973 653.313 98.2695 657.184C98.7827 657.464 98.6428 659.236 98.6428 660.309C98.6895 677.427 98.9694 694.499 98.6428 711.617C98.3628 727.709 97.2896 743.755 96.9163 759.8C96.8697 762.272 98.8761 764.744 99.7626 767.31C100.323 768.942 100.976 770.761 100.836 772.441C100.043 782.096 99.0161 791.705 97.9896 801.826C102.655 801.826 105.548 801.826 109.188 801.826C107.835 782.003 121.739 778.038 137.93 775.286C137.93 770.855 137.743 766.237 137.977 761.666C138.583 749.632 147.589 740.956 159.207 740.956C170.872 740.956 179.877 749.539 180.577 761.573C180.81 765.864 180.624 770.202 180.624 774.4C203.393 777.385 213.239 784.568 214.685 806.304C227.283 806.304 239.974 806.304 253.319 806.304C253.319 827.76 253.319 848.097 253.319 868.433C252.573 868.48 251.873 868.527 251.126 868.527C251.126 853.507 251.126 838.442 251.126 822.489C228.45 822.489 207.313 821.603 186.409 823.236C182.21 823.562 176.984 828.88 171.105 827.807C168.679 827.387 166.626 824.822 164.199 824.495C160.56 823.982 156.081 823.376 153.281 825.008C149.782 827.06 138.117 829.906 136.81 826.594C134.711 821.323 131.071 822.536 127.478 822.489C111.008 822.396 94.5367 822.583 78.0659 822.349C72.6068 822.256 70.2272 823.889 72.2335 830.372C79.2324 830.372 86.5113 830.372 94.3501 830.372C94.8167 834.523 95.19 837.928 95.5632 841.194C109.608 843.526 109.608 843.526 109.748 858.592C109.794 861.997 109.748 865.402 109.748 868.807C108.721 868.853 107.695 868.9 106.668 868.993C106.295 861.763 105.922 854.487 105.502 846.371C101.069 846.091 96.8231 845.765 92.0638 845.438C91.6906 842.08 91.3639 838.908 90.944 834.99C61.3152 834.99 31.593 834.99 0.564453 834.99C0.564453 841.707 0.564453 848.61 0.564453 855.513C-0.462036 855.56 -1.48859 855.653 -2.46844 855.7C-2.46844 846.977 -2.46844 838.208 -2.46844 829.066C-13.2001 829.066 -22.1587 829.066 -32.5171 829.066C-32.5171 842.126 -32.5171 855.28 -32.5171 868.433C-33.4503 868.48 -34.3835 868.573 -35.3167 868.62C-35.8766 863.956 -36.3898 859.245 -36.9498 854.254C-52.7673 854.254 -68.305 854.254 -84.1226 854.254C-84.4958 859.291 -84.8224 863.909 -85.149 868.527C-85.9889 868.48 -86.8754 868.48 -87.7153 868.433C-87.7153 860.317 -87.7153 852.155 -87.7153 842.779C-97.7938 842.779 -106.612 842.779 -115.431 842.779C-115.478 841.753 -115.571 840.774 -115.618 839.748C-109.832 839.374 -104.046 839.001 -97.7004 838.628C-97.7004 823.142 -97.7004 807.937 -97.7004 791.471C-106.332 791.471 -115.058 791.191 -123.69 791.704C-125.416 791.798 -126.956 794.783 -128.589 796.462C-128.122 797.395 -127.656 798.281 -127.189 799.214C-119.584 799.214 -111.978 799.214 -104.373 799.214C-104.373 800.147 -104.326 801.08 -104.326 802.013C-115.431 802.013 -126.536 802.013 -138.061 802.013C-138.061 814 -138.061 824.542 -138.061 835.316C-135.121 835.969 -132.368 836.576 -129.616 837.229C-129.616 837.882 -129.616 838.581 -129.616 839.234C-137.501 839.234 -145.386 839.234 -153.692 839.234C-154.018 845.485 -154.252 850.289 -154.532 855.606C-157.378 856.073 -159.944 856.446 -162.977 856.912C-163.304 860.831 -163.63 864.702 -163.957 868.573C-164.61 868.573 -165.31 868.573 -165.963 868.573C-165.963 863.629 -165.963 858.685 -165.963 853.274C-163.817 852.901 -161.251 852.388 -158.358 851.875C-158.078 846.791 -157.845 841.94 -157.565 836.622C-152.525 836.343 -147.953 836.109 -142.774 835.829C-142.774 804.718 -142.774 773.84 -142.774 742.169C-146.506 741.889 -150.472 741.609 -154.998 741.283C-155.418 736.898 -155.792 732.654 -156.258 727.989C-160.644 727.989 -164.704 727.989 -168.763 727.989C-168.483 728.362 -168.203 728.689 -167.923 729.062C-171.749 731.394 -175.622 733.726 -180.614 736.758C-181.968 738.251 -184.534 741.003 -188.173 744.921C-188.173 771.788 -188.173 800.52 -188.173 829.906C-185.467 830.326 -182.901 830.699 -180.055 831.118C-179.588 833.637 -179.121 835.969 -178.701 838.395C-175.668 839.001 -172.869 839.561 -170.069 840.121C-170.069 840.82 -170.069 841.473 -170.069 842.173C-173.989 842.453 -177.908 842.779 -182.294 843.106C-182.807 839.981 -183.181 837.649 -183.694 834.197C-195.219 834.197 -206.837 834.197 -218.455 834.197C-218.502 833.264 -218.549 832.285 -218.595 831.352C-210.057 831.352 -201.471 831.352 -192.513 831.352C-192.513 817.405 -192.513 805.185 -192.513 791.984C-198.065 791.751 -203.618 791.471 -209.963 791.191C-209.963 781.909 -209.963 772.954 -209.963 763.392C-222.281 763.392 -233.9 763.392 -246.078 763.392C-246.078 784.708 -246.078 805.931 -246.078 827.527C-242.112 827.9 -238.659 828.18 -234.273 828.6C-234.273 837.415 -234.273 846.091 -234.273 855.467C-221.955 855.467 -210.523 855.467 -198.485 855.467C-198.485 860.364 -198.485 864.515 -198.485 868.667C-199.138 868.807 -199.838 868.9 -200.491 869.04C-201.005 866.241 -201.471 863.443 -202.171 859.571C-213.556 859.571 -225.221 859.571 -237.772 859.571C-237.772 849.963 -237.772 841.333 -237.772 832.238C-244.071 832.238 -249.391 832.238 -255.363 832.238C-255.643 836.529 -255.97 840.774 -256.296 845.811C-263.388 845.811 -270.154 845.811 -277.386 845.811C-277.386 849.216 -277.386 851.875 -277.386 855.513C-272.067 855.513 -266.748 855.513 -260.635 855.513C-260.869 860.644 -261.055 864.655 -261.242 868.667C-261.989 868.713 -262.688 868.713 -263.435 868.76C-263.995 866.055 -264.555 863.349 -265.395 859.105C-280.046 859.105 -295.117 859.105 -310.141 859.105C-310.141 858.172 -310.141 857.192 -310.141 856.259C-301.089 856.259 -292.084 856.259 -282.472 856.259C-282.006 851.082 -281.632 847.164 -281.166 842.36C-274.167 842.36 -267.401 842.36 -260.076 842.36C-259.796 837.462 -259.516 833.451 -259.236 828.973C-256.576 828.413 -254.01 827.9 -250.884 827.294C-250.884 809.849 -250.884 792.404 -250.884 774.493C-270.947 774.493 -290.871 774.493 -312.194 774.493C-312.194 785.221 -312.194 796.182 -312.194 807.144C-313.267 807.19 -314.341 807.283 -315.414 807.33C-315.787 799.914 -316.207 792.497 -316.58 784.755C-336.177 784.755 -355.308 784.755 -375.091 784.755C-375.465 790.445 -375.884 796.089 -376.258 801.733C-377.051 801.733 -377.891 801.733 -378.684 801.733C-378.871 798.701 -379.244 795.716 -379.244 792.684C-379.291 753.177 -379.291 713.67 -379.337 674.116C-379.337 663.667 -384.33 658.583 -394.595 658.537C-414.892 658.49 -435.235 658.537 -455.532 658.537C-458.472 658.537 -461.411 658.537 -465.237 658.537C-465.237 651.867 -465.237 646.269 -465.237 640.159C-469.017 640.159 -471.91 640.159 -475.456 640.159C-475.456 696.785 -475.456 753.457 -475.456 810.922C-473.449 811.108 -471.163 811.295 -467.43 811.621C-467.43 797.535 -467.43 784.242 -467.43 770.901C-466.544 770.901 -465.657 770.901 -464.771 770.901C-464.771 784.008 -464.771 797.069 -464.771 811.108C-457.165 811.108 -450.726 811.108 -443.401 811.108C-443.401 818.758 -443.401 825.475 -443.401 832.844C-431.969 832.844 -421.424 832.844 -409.899 832.844C-409.899 826.407 -409.899 819.737 -409.899 812.041C-403.694 811.761 -398.374 811.528 -391.749 811.202C-391.749 805.418 -391.749 799.914 -391.749 794.456C-390.862 794.41 -389.976 794.363 -389.089 794.317C-388.762 796.416 -388.249 798.515 -388.203 800.613C-387.829 814.373 -384.33 817.778 -370.472 817.778C-365.806 817.778 -361.14 817.872 -356.474 817.685C-354.934 817.638 -352.975 817.452 -351.948 816.519C-344.623 809.756 -340.423 810.082 -332.211 815.819C-329.085 818.012 -323.812 817.125 -318.913 817.685C-318.913 834.57 -318.913 851.642 -318.913 868.713C-319.613 868.76 -320.266 868.76 -320.966 868.807C-320.966 853.228 -320.966 837.695 -320.966 821.183C-324.932 820.997 -327.918 821.23 -330.671 820.577C-332.864 820.064 -334.871 818.618 -336.784 817.265C-340.657 814.467 -344.016 813.487 -347.609 817.965C-348.962 819.691 -351.482 821.323 -353.535 821.463C-361.187 821.883 -368.886 821.836 -376.584 821.556C-380.457 821.417 -384.05 822.676 -387.223 817.032C-388.996 813.954 -398.608 815.446 -405.233 814.84C-405.233 821.557 -405.233 826.921 -405.233 833.311C-398.001 833.311 -390.769 833.311 -382.977 833.311C-382.977 838.535 -382.977 842.733 -382.977 847.397C-410.133 847.397 -437.242 847.397 -464.351 847.397C-464.444 846.697 -464.491 845.998 -464.584 845.298C-461.925 845.018 -459.265 844.552 -456.605 844.552C-435.189 844.505 -413.772 844.459 -392.355 844.552C-387.643 844.552 -384.61 843.759 -386.989 837.462C-410.039 837.462 -433.322 837.462 -456.979 837.462C-457.679 834.43 -458.238 831.911 -458.892 829.159C-467.477 829.159 -475.829 829.159 -484.741 829.159C-484.741 834.104 -484.741 838.628 -484.741 843.572C-482.035 844.132 -479.469 844.645 -476.576 845.205C-476.576 853.041 -476.576 860.877 -476.576 868.667C-477.322 868.76 -478.022 868.853 -478.769 868.9C-478.769 862.323 -478.769 855.746 -478.769 848.703C-486.514 848.703 -492.673 848.703 -499.392 848.703C-499.719 855.513 -499.999 862.137 -500.325 868.713C-501.072 868.713 -501.772 868.667 -502.518 868.667C-502.518 860.924 -502.518 853.181 -502.518 844.972C-498.412 844.645 -494.12 844.319 -489.454 843.945C-489.454 834.523 -489.454 825.568 -489.454 815.913C-505.971 815.913 -522.535 815.913 -539.659 815.913C-539.659 828.46 -539.659 840.914 -539.659 853.974C-535.553 854.3 -531.821 854.58 -528.088 854.86C-528.088 859.571 -528.088 864.096 -528.088 868.62C-529.021 868.48 -529.628 868.48 -530.234 868.48ZM80.7722 818.711C97.103 818.711 112.921 818.571 128.785 818.805C132.891 818.851 138.117 816.519 140.403 823.049C140.683 823.842 146.562 824.122 148.428 822.723C155.567 817.312 161.773 817.452 168.492 822.396C170.778 824.075 175.444 823.142 178.85 822.489C181.79 821.93 184.403 818.991 187.203 818.898C198.727 818.478 210.252 818.711 221.777 818.711C231.016 818.711 240.254 818.711 250.1 818.711C249.82 815.353 249.633 813.021 249.4 809.802C236.148 809.802 223.41 809.802 210.859 809.802C210.346 805.045 209.972 801.266 209.739 798.888C205.213 800.334 201.854 802.246 198.448 802.386C187.203 802.759 175.958 802.526 164.713 802.526C158.554 802.526 152.394 802.526 146.375 802.526C145.909 806.77 145.582 809.662 145.302 812.088C137.65 812.088 130.558 812.088 123.512 812.088C123.466 811.248 123.466 810.409 123.419 809.569C129.485 809.569 135.55 809.569 142.176 809.569C142.176 801.22 142.596 794.037 141.943 786.993C141.709 784.475 139.61 781.116 137.37 779.997C130.698 776.685 116.327 785.081 114.18 793.897C120.666 793.897 126.918 793.897 133.171 793.897C133.171 794.503 133.171 795.11 133.124 795.763C126.685 795.763 120.246 795.763 113.574 795.763C113.201 799.447 112.921 802.293 112.547 805.978C101.769 805.978 91.4572 805.978 80.7722 805.978C80.7722 810.315 80.7722 813.767 80.7722 818.711ZM-414.099 635.775C-414.052 636.754 -414.052 637.734 -414.005 638.713C-426.277 638.713 -438.548 638.713 -450.773 638.713C-450.866 645.43 -450.866 645.43 -434.769 645.43C-427.863 645.43 -420.958 645.43 -414.052 645.43C-414.099 646.642 -414.145 647.855 -414.192 649.068C-416.758 649.068 -419.371 649.068 -421.937 649.068C-430.429 649.068 -438.921 648.975 -447.413 649.208C-448.813 649.255 -450.12 650.887 -451.473 651.82C-450.353 652.706 -449.28 654.339 -448.16 654.339C-432.109 654.525 -416.105 654.432 -399.821 654.432C-399.821 644.17 -399.821 635.215 -399.821 626.259C-403.227 625.606 -406.26 625.046 -409.293 624.44C-407.1 622.155 -404.813 622.108 -402.714 621.408C-401.501 620.988 -399.821 619.589 -399.774 618.61C-399.727 617.63 -401.454 615.624 -402.434 615.624C-417.785 615.438 -433.136 615.438 -448.487 615.578C-449.513 615.578 -451.24 617.444 -451.286 618.47C-451.286 619.449 -449.7 620.988 -448.487 621.408C-446.387 622.108 -444.054 622.108 -441.814 622.434C-441.814 623.087 -441.814 623.74 -441.768 624.393C-444.801 624.953 -447.787 625.56 -451.1 626.166C-451.1 629.058 -451.1 631.95 -451.1 635.681C-438.548 635.774 -426.323 635.775 -414.099 635.775ZM31.3131 819.597C35.4191 819.411 37.7054 819.318 40.7383 819.178C40.7383 810.455 41.3915 802.246 40.5517 794.177C39.7585 786.527 43.3513 779.111 39.2452 771.041C36.6789 766.05 38.592 758.681 38.7786 752.384C39.1519 740.49 39.9918 728.549 40.1784 716.655C40.4117 699.303 40.225 681.998 40.225 664.414C37.5654 664.414 35.0458 664.414 32.8995 664.414C33.2728 668.472 33.926 671.97 33.8793 675.468C33.5061 689.881 32.4329 704.341 32.5262 718.754C32.6195 735.079 33.786 751.358 34.1127 767.683C34.1593 770.575 32.4329 773.513 31.3597 776.918C31.313 790.212 31.3131 804.298 31.3131 819.597ZM96.9163 802.153C95.9832 777.805 94.77 754.436 94.3034 731.114C93.8369 707.093 94.2101 683.071 94.2101 658.863C93.137 658.863 90.7106 658.863 88.2844 658.863C88.7509 662.501 89.3575 665.44 89.4042 668.379C89.6375 687.596 89.8241 706.86 89.9174 726.077C90.0107 738.158 90.1041 750.238 89.7775 762.272C89.6841 765.211 87.8644 768.103 86.8379 771.088C86.8379 780.93 86.8379 791.191 86.8379 801.173C88.9376 801.733 89.6841 802.106 90.4774 802.153C92.1105 802.199 93.7435 802.153 96.9163 802.153ZM206.986 791.565C200.594 780.417 184.823 775.846 169.145 780.51C158.087 783.775 154.308 788.486 155.054 798.888C165.319 798.888 175.678 798.981 185.989 798.841C193.548 798.748 202.04 801.173 206.986 791.565ZM147.775 798.934C150.808 793.524 152.814 786.714 157.294 782.796C162.333 778.411 169.705 776.685 176.051 773.793C176.051 770.668 176.051 767.03 176.051 763.532C164.199 763.532 153.141 763.532 141.383 763.532C141.383 766.983 140.87 770.062 141.476 772.907C143.203 781.163 145.396 789.279 147.775 798.934ZM142.129 760.873C147.915 760.873 153.561 760.873 159.253 760.873C164.853 760.873 170.452 760.873 176.191 760.873C174.091 749.725 168.119 744.454 158.88 744.548C149.735 744.641 143.763 750.238 142.129 760.873ZM-447.18 815.586C-460.245 815.586 -472.61 815.586 -485.581 815.586C-485.394 818.944 -485.254 821.743 -485.068 825.101C-474.709 825.101 -465.237 825.101 -455.626 825.101C-454.366 829.626 -455.486 836.856 -447.227 831.911C-447.18 826.921 -447.18 821.743 -447.18 815.586ZM-41.7557 794.923C-37.3231 795.296 -33.8236 795.623 -30.3241 795.949C-30.3241 796.369 -30.3708 796.742 -30.3708 797.162C-34.0569 797.442 -37.743 797.722 -41.709 798.001C-41.709 801.08 -41.709 803.692 -41.709 806.677C-34.8968 806.677 -28.4578 806.677 -22.1121 806.677C-20.2457 795.809 -22.112 790.445 -28.551 788.439C-34.4768 786.62 -38.3962 789.139 -41.7557 794.923ZM-60.1862 813.207C-59.7196 811.575 -59.393 809.756 -58.6464 808.123C-57.7599 806.117 -55.287 802.946 -55.6603 802.572C-57.8999 800.52 -60.7462 797.861 -63.3591 797.908C-65.972 797.955 -69.5648 800.38 -70.8246 802.759C-72.2711 805.511 -71.6644 809.383 -71.9444 813.207C-67.5584 813.207 -64.1056 813.207 -60.1862 813.207Z" fill="#A09F9D"/>
<path d="M300.585 849.449C300.865 851.362 301.239 853.694 301.612 856.399C319.716 856.399 337.493 856.399 355.737 856.399C356.203 854.207 356.67 851.875 357.323 848.703C365.489 848.703 373.887 848.703 382.753 848.703C382.753 843.059 382.753 838.302 382.753 832.751C374.727 832.751 366.842 832.751 357.65 832.751C357.65 826.967 357.65 821.883 357.65 816.799C357.65 811.388 355.084 808.729 349.531 808.916C344.399 809.056 339.266 808.963 333.807 808.963C333.434 815.4 333.154 820.95 332.827 826.501C332.034 826.547 331.241 826.641 330.494 826.687C329.934 822.536 329.421 818.385 328.721 812.787C308.191 812.787 287.707 812.787 267.224 812.787C267.224 811.901 267.177 811.062 267.177 810.175C271.89 809.802 276.602 809.476 281.875 809.103C281.875 801.593 281.875 794.363 281.875 785.734C265.264 785.734 248.56 785.734 233.442 785.734C235.402 779.297 237.035 773.747 238.855 767.776C241.001 767.776 243.941 767.776 247.253 767.776C247.58 772.534 247.86 776.825 248.187 781.629C254.532 781.629 260.738 781.629 267.457 781.629C267.457 774.493 267.457 767.543 267.457 759.987C251.08 759.987 234.749 759.987 216.971 759.987C216.971 767.87 216.971 775.752 216.971 783.635C216.178 783.635 215.385 783.589 214.592 783.589C214.592 774.68 214.592 765.817 214.592 756.349C233.209 756.349 251.966 756.349 271.563 756.349C271.563 764.791 271.563 772.907 271.563 781.583C276.556 781.956 280.802 782.236 286.027 782.609C286.027 791.425 286.027 800.054 286.027 809.382C299.839 809.382 313.277 811.715 325.315 808.59C334.04 806.351 342.346 805.698 350.978 805.091C352.797 804.951 354.897 803.319 356.203 801.826C366.795 789.606 377.34 777.292 387.605 764.791C389.472 762.506 390.498 758.961 390.685 755.929C391.151 748.886 390.825 741.749 390.825 734.053C396.144 733.726 400.67 733.446 405.662 733.167C405.942 729.948 406.176 727.056 406.502 723.651C409.395 723.371 412.008 723.092 415.088 722.765C415.508 719.267 415.881 715.862 416.301 712.084C420.127 712.084 423.626 712.084 428.246 712.084C428.246 719.827 428.246 727.569 428.246 735.685C431.792 735.825 434.171 735.965 436.691 736.059C441.684 718.007 431.605 698.044 444.39 680.552C455.448 693.566 449.709 707.886 450.876 721.272C449.756 721.366 448.636 721.506 447.469 721.599C447.469 710.731 447.469 699.816 447.469 688.948C446.21 688.855 444.95 688.762 443.69 688.669C442.99 691.514 441.824 694.312 441.73 697.204C441.497 707.606 441.497 718.054 441.777 728.456C441.824 730.974 443.41 733.446 444.297 735.965C445.65 733.68 447.003 731.441 449.242 727.663C451.622 727.663 455.635 727.803 459.648 727.616C461.747 727.523 464.174 727.476 465.947 726.497C481.204 717.821 487.317 719.36 495.342 734.099C495.762 734.892 496.882 735.312 497.628 735.919C498.982 733.96 500.381 732 501.968 729.668C507.614 729.668 513.773 729.668 519.932 729.668C520.025 730.461 520.118 731.208 520.165 732C515.219 732.42 510.273 732.887 504.907 733.353C504.254 742.542 497.675 739.324 492.496 739.417C489.836 726.73 486.897 723.931 475.838 725.844C472.806 726.357 469.166 730.228 468.14 733.307C466.786 737.225 467.533 742.029 468 746.367C468.186 747.906 470.146 749.305 471.312 750.751C472.479 749.305 474.065 747.999 474.672 746.367C475.372 744.454 475.279 742.262 475.512 740.163C476.212 740.117 476.912 740.023 477.565 739.977C478.031 743.148 478.498 746.32 479.058 750.192C490.536 750.192 502.154 750.192 514.333 750.192C514.659 746.693 514.939 743.288 515.312 738.95C518.532 738.95 521.471 739.044 524.364 738.904C525.951 738.857 528.844 738.624 528.937 738.111C530.383 729.902 536.776 733.54 541.255 732.793C545.314 732.094 549 733.586 552.92 728.502C555.579 725.097 565.051 727.01 571.724 726.497C572.237 730.228 572.61 732.793 573.077 736.012C581.056 736.012 588.708 736.432 596.313 735.779C598.553 735.592 600.559 732.327 603.639 729.622C607.558 730.508 615.63 724.771 617.45 736.059C622.489 736.059 627.715 734.986 632.288 736.245C654.824 742.402 677.921 738.437 698.917 740.07C701.25 744.454 702.93 747.58 704.657 750.751C706.336 746.413 708.016 742.122 710.209 736.385C717.488 736.385 726.353 736.385 735.359 736.385C735.919 733.027 736.338 730.648 736.852 727.569C743.711 727.569 750.663 727.569 758.222 727.569C758.688 729.622 759.155 731.861 759.715 734.426C765.594 734.426 771.24 734.426 777.259 734.426C777.772 731.954 778.239 729.668 778.752 727.15C785.658 727.15 792.19 727.15 799.235 727.15C799.749 729.622 800.215 731.907 800.729 734.613C807.448 734.613 813.98 734.613 821.585 734.613C821.585 748.093 821.585 761.06 821.585 775.053C829.004 775.053 835.443 775.053 842.489 775.053C842.862 780.743 843.189 785.548 843.469 790.398C846.875 790.772 849.814 791.051 853.127 791.378C854.247 799.028 851.867 809.336 865.352 807.05C865.725 810.968 866.052 814.14 866.379 817.685C871.278 818.012 875.85 818.338 880.516 818.665C880.516 835.456 880.516 851.922 880.516 868.34C879.77 868.387 879.023 868.433 878.277 868.527C877.857 863.443 877.483 858.358 876.97 852.155C861.619 852.155 846.128 852.155 829.937 852.155C829.937 842.453 829.937 833.731 829.937 824.448C819.766 824.448 810.34 824.448 799.515 824.448C799.515 839.281 799.515 853.974 799.515 868.713C798.722 868.713 797.976 868.667 797.182 868.667C797.182 852.854 797.182 837.042 797.182 820.624C800.449 820.39 803.901 820.157 807.634 819.877C809.687 815.819 809.314 813.301 803.808 813.347C795.316 813.44 786.824 813.394 777.725 813.394C777.725 820.903 777.725 827.853 777.725 835.176C780.572 835.69 783.465 836.203 786.451 836.716C786.451 847.537 786.451 858.032 786.451 868.527C785.704 868.573 784.958 868.62 784.164 868.713C784.164 859.338 784.164 849.963 784.164 840.167C770.353 840.167 758.128 840.167 745.25 840.167C744.924 845.438 744.644 850.476 744.271 856.633C729.946 856.633 715.948 856.633 701.53 856.633C701.204 861.157 700.97 864.982 700.551 870.766C696.071 861.95 697.471 858.358 701.017 852.341C703.35 848.423 702.464 842.593 703.07 837.089C692.012 837.089 682.26 837.089 671.482 837.089C671.482 843.199 671.482 849.356 671.482 856.073C665.183 856.399 659.864 856.679 654.078 856.959C653.704 861.11 653.331 864.889 653.005 868.667C652.258 868.667 651.512 868.62 650.718 868.62C650.718 854.114 650.718 839.654 650.718 824.448C634.901 824.448 620.203 824.448 604.105 824.448C604.105 839.001 604.105 853.741 604.105 868.527C603.126 868.527 602.146 868.573 601.166 868.573C600.839 862.65 600.513 856.773 600.139 849.823C591.927 849.823 583.855 849.823 574.85 849.823C574.85 833.591 574.85 818.338 574.85 802.806C559.686 802.806 545.454 802.806 530.15 802.806C530.15 817.778 530.15 832.658 530.15 847.817C514.519 847.817 499.961 847.817 485.45 847.817C485.404 847.117 485.357 846.418 485.357 845.671C498.608 845.671 511.86 845.671 525.671 845.671C525.671 840.074 525.671 835.829 525.671 830.605C517.739 830.605 506.26 827.247 502.154 831.305C493.289 840.074 484.47 833.404 475.792 836.529C475.092 832.984 474.579 830.419 473.972 827.294C468.186 827.294 462.354 827.294 455.961 827.294C455.961 832.378 455.961 837.135 455.961 842.546C461.187 842.779 466.273 843.059 471.779 843.292C471.779 851.922 471.779 860.131 471.779 868.387C471.079 868.433 470.379 868.527 469.679 868.573C469.679 861.623 469.679 854.674 469.679 846.884C463.194 846.884 458.154 846.884 452.089 846.884C452.089 835.55 452.089 825.008 452.089 813.86C443.877 813.86 436.644 813.86 428.572 813.86C428.572 821.696 428.572 829.533 428.572 835.876C424.28 838.395 421.2 840.167 418.121 841.94C421.014 843.292 423.906 844.598 427.499 846.278C427.499 852.948 427.499 860.737 427.499 868.527C426.706 868.573 425.959 868.62 425.166 868.62C424.84 862.137 424.466 855.653 424.046 846.837C416.907 848.61 410.608 850.616 404.123 851.642C399.037 852.435 393.718 852.015 388.492 852.015C379.487 852.061 370.435 852.015 360.496 852.015C360.216 857.845 359.936 863.256 359.656 868.667C358.956 868.713 358.21 868.76 357.51 868.76C356.95 866.381 356.39 864.002 355.643 860.831C336.793 860.831 317.709 860.831 298.299 860.831C297.599 857.659 297.039 855.14 296.246 851.548C286.587 851.548 276.976 851.548 267.364 851.548C267.364 850.802 267.364 850.056 267.364 849.309C278.375 849.449 289.2 849.449 300.585 849.449ZM625.569 805.744C639.1 805.744 651.558 805.744 664.016 805.744C664.669 808.776 665.183 811.295 665.743 814.047C673.115 814.047 679.974 814.187 686.786 814C692.012 813.86 697.004 813.674 696.398 820.997C704.423 820.997 711.935 820.997 720.381 820.997C720.381 809.569 720.381 798.748 720.381 787.74C726.073 787.74 730.786 787.74 736.478 787.74C736.478 799.401 736.478 810.549 736.478 822.256C743.337 822.256 749.31 822.256 755.702 822.256C756.075 826.874 756.355 830.839 756.682 835.27C762.374 835.27 767.647 835.27 773.759 835.27C773.759 826.641 773.759 818.525 773.759 810.082C787.057 810.082 799.515 810.082 812.253 810.082C812.627 813.58 812.953 816.472 813.373 820.344C819.952 820.344 826.438 820.344 833.903 820.344C833.903 830.139 833.903 839.048 833.903 847.63C849.114 847.63 863.206 847.63 877.11 847.63C877.11 838.815 877.11 830.745 877.11 821.93C873.517 821.93 870.531 821.603 867.592 821.976C858.633 823.189 851.867 820.157 846.222 813.067C842.489 808.403 837.683 804.578 832.784 799.867C832.037 804.158 831.524 806.91 831.057 809.709C830.731 809.662 830.357 809.616 830.031 809.616C829.797 805.651 829.517 801.686 829.237 796.929C819.252 796.929 809.687 796.649 800.122 797.022C788.317 797.442 785.704 784.755 775.626 780.51C775.626 786.107 775.626 791.005 775.626 795.902C773.666 789.139 775.439 780.557 771.893 776.265C768.487 772.114 759.668 772.394 752.576 770.575C752.109 776.825 751.783 780.65 751.503 784.475C750.99 784.475 750.523 784.475 750.01 784.475C749.543 780.417 749.123 776.359 748.657 772.441C725.7 771.088 725.327 771.135 722.341 775.752C713.849 768.383 704.33 773.513 694.578 772.254C694.578 780.976 694.578 788.486 694.578 795.996C693.925 795.996 693.272 795.996 692.618 795.996C692.618 788.206 692.618 780.463 692.618 772.627C686.133 772.627 680.767 772.627 675.215 772.627C674.888 776.359 674.608 779.577 674.328 782.796C675.168 770.202 666.069 764.838 656.877 757.095C656.877 770.761 656.877 782.656 656.877 794.55C656.177 794.55 655.431 794.55 654.731 794.55C654.731 781.303 654.731 768.103 654.731 755.089C645.679 755.089 637.84 755.089 629.488 755.089C629.208 761.106 628.975 766.657 628.742 772.207C628.042 772.161 627.389 772.114 626.689 772.067C626.689 766.424 626.689 760.826 626.689 754.903C615.817 754.903 605.739 754.903 594.494 754.903C594.494 767.217 594.494 779.297 594.494 791.331C593.7 791.331 592.907 791.331 592.161 791.285C592.161 779.111 592.161 766.983 592.161 754.996C582.362 754.996 573.637 754.996 563.978 754.996C563.978 765.771 563.978 776.172 563.978 786.527C563.232 786.527 562.532 786.527 561.785 786.527C561.785 776.125 561.785 765.724 561.785 755.182C551.473 755.182 542.328 755.182 533.183 755.182C532.856 760.127 532.576 764.465 532.296 768.802C531.737 768.756 531.13 768.756 530.57 768.709C530.29 764.278 530.01 759.8 529.73 755.043C521.845 755.043 514.286 755.043 505.607 755.043C505.607 769.735 505.607 783.962 505.607 798.188C504.907 798.188 504.207 798.188 503.508 798.141C503.508 783.868 503.508 769.595 503.508 755.043C496.462 755.043 490.349 755.043 483.397 755.043C483.397 762.459 483.397 769.316 483.397 776.219C482.697 776.219 481.997 776.219 481.298 776.265C481.298 769.176 481.298 762.086 481.298 755.089C473.272 755.089 466.553 755.089 458.994 755.089C458.994 767.543 458.994 779.484 458.994 791.425C458.341 791.425 457.641 791.425 456.988 791.425C456.988 779.297 456.988 767.123 456.988 755.136C451.015 755.136 446.21 755.136 440.704 755.136C440.704 760.267 440.704 764.744 440.704 769.269C440.237 769.269 439.771 769.269 439.304 769.315C438.977 764.558 438.651 759.847 438.324 754.996C431.465 754.996 425.306 754.996 417.934 754.996C417.934 767.31 417.934 779.157 417.934 791.052C417.234 791.052 416.581 791.005 415.881 791.005C415.881 780.23 415.881 769.455 415.881 758.867C410.562 761.339 405.802 763.532 399.597 766.377C399.597 770.715 399.597 776.732 399.597 782.702C399.083 782.702 398.57 782.702 398.01 782.702C397.73 776.639 397.45 770.575 397.124 763.718C379.533 770.482 383.499 785.874 380.466 798.235C380.186 792.731 379.906 787.273 379.58 780.277C371.321 789.979 364.276 798.281 359.096 804.345C360.356 814.047 361.336 821.323 362.363 829.299C370.481 829.299 378.32 829.299 386.952 829.299C386.952 836.016 386.952 841.986 386.952 849.729C396.657 847.724 405.243 845.951 414.015 844.179C414.248 841.24 414.481 838.581 414.761 835.596C418.027 835.27 420.967 834.943 424 834.617C424 831.678 424 829.113 424 825.381C414.154 825.381 404.823 825.381 395.537 825.381C395.537 824.495 395.491 823.655 395.491 822.769C405.009 822.769 414.528 822.769 424.14 822.769C424.466 817.825 424.746 814.327 425.026 810.362C435.151 810.362 445.09 810.362 455.075 810.362C455.402 815.073 455.635 819.038 455.915 823.469C463.707 823.469 470.706 823.469 477.985 823.469C478.265 826.547 478.498 829.159 478.778 832.005C484.377 832.005 492.589 834.01 494.129 831.632C499.121 823.982 505.654 827.713 511.486 827.014C516.199 826.407 521.051 826.874 526.697 826.874C526.697 816.892 526.697 808.216 526.697 799.727C544.381 799.727 561.225 799.727 578.909 799.727C578.909 815.353 578.909 830.326 578.909 845.718C586.468 845.718 593.187 845.718 600.793 845.718C600.793 837.089 600.793 829.019 600.793 819.924C609.425 819.924 617.217 819.924 625.382 819.924C625.569 814.7 625.569 810.642 625.569 805.744ZM818.133 738.671C797.416 738.671 777.026 738.671 756.169 738.671C755.702 735.592 755.329 733.353 754.956 731.021C749.87 731.021 745.344 731.021 740.818 731.021C740.258 734.053 739.791 736.618 739.231 739.883C730.179 739.883 721.547 739.883 712.589 739.883C712.589 749.539 712.589 758.401 712.589 768.103C725.373 768.103 737.738 769.082 749.87 767.87C764.847 766.33 776.792 770.202 785.144 782.796C793.543 795.436 805.581 793.71 818.133 792.497C818.133 774.773 818.133 757.561 818.133 738.671ZM654.171 820.111C654.171 831.725 654.171 842.033 654.171 852.435C658.977 852.435 662.99 852.435 667.936 852.435C667.936 845.858 667.936 839.701 667.936 833.637C681.327 833.637 693.738 833.637 706.85 833.637C706.85 840.307 706.85 846.231 706.85 852.388C711.516 852.388 715.435 852.388 719.774 852.388C719.774 843.246 719.774 834.617 719.774 825.381C710.629 825.381 701.95 825.381 692.898 825.381C692.245 822.629 691.685 820.437 690.985 817.638C681.14 817.638 671.668 817.638 661.963 817.638C661.31 814.467 660.75 811.901 660.19 809.429C649.785 809.429 639.8 809.429 629.582 809.429C629.582 813.114 629.582 816.239 629.582 820.157C637.654 820.111 645.212 820.111 654.171 820.111ZM394.977 737.831C394.977 745.481 394.977 752.524 394.977 761.246C400.39 759.893 406.642 760.127 409.535 757.141C415.041 751.498 420.873 750.565 427.966 750.705C439.911 751.031 451.809 750.798 463.614 750.798C463.614 743.522 463.614 737.644 463.614 731.674C459.228 731.674 455.495 731.674 451.669 731.674C450.969 734.473 450.362 736.991 449.849 739.137C441.357 739.137 433.518 739.137 424.793 739.137C424.793 733.773 425.073 728.875 424.7 724.024C424.466 721.133 423.253 718.287 422.46 715.442C421.387 718.334 420.36 721.226 419.287 724.118C419.007 724.864 418.68 725.564 418.401 726.263C415.601 726.637 412.988 726.963 410.282 727.336C409.909 730.694 409.629 733.586 409.255 736.851C404.589 737.178 400.25 737.458 394.977 737.831ZM616.937 750.798C627.948 750.798 638.074 751.218 648.105 750.658C654.731 750.285 660.097 751.871 663.643 757.421C671.995 770.482 684.36 768.942 697.098 767.59C697.098 759.427 697.098 751.684 697.098 743.428C680.067 743.428 663.69 743.428 647.312 743.428C644.886 743.428 642.366 743.428 639.987 743.008C632.474 741.609 625.009 739.977 616.937 738.344C616.937 743.708 616.937 746.647 616.937 750.798ZM724.534 791.098C724.534 811.995 724.534 832.098 724.534 852.388C730.179 852.388 735.265 852.388 740.678 852.388C740.958 846.837 741.191 841.8 741.471 836.389C745.297 836.016 748.47 835.69 752.063 835.363C752.063 832.285 752.063 829.439 752.063 825.568C745.484 825.568 739.325 825.568 732.372 825.568C732.372 813.487 732.372 802.433 732.372 791.098C729.34 791.098 727.24 791.098 724.534 791.098ZM568.551 730.041C563.792 730.741 556.886 730.321 556.186 732.187C554.32 737.178 551.147 735.919 547.881 736.432C542.468 737.318 535.003 732.793 532.343 741.936C532.156 742.589 529.31 742.542 527.724 742.589C524.831 742.682 521.938 742.635 518.625 742.635C518.765 745.854 518.858 747.906 518.998 750.285C535.656 750.285 551.893 750.285 568.551 750.285C568.551 743.895 568.551 737.924 568.551 730.041ZM822.892 779.344C822.892 784.288 822.892 788.486 822.892 792.637C823.498 792.124 824.105 791.611 824.712 791.098C829.238 793.99 834.137 796.369 838.196 799.821C843.609 804.392 848.181 809.942 853.454 814.7C855.507 816.566 858.446 817.452 861.013 818.758C862.179 815.073 861.992 811.481 861.293 811.388C851.634 809.942 849.861 802.759 849.348 794.97C845.895 794.55 843.002 794.223 839.876 793.803C839.643 788.813 839.409 784.241 839.129 779.344C833.53 779.344 828.398 779.344 822.892 779.344ZM600.373 740.07C597.666 739.93 595.24 739.697 592.861 739.65C586.375 739.603 579.889 739.65 573.03 739.65C573.03 743.568 573.03 746.693 573.03 750.332C575.69 750.471 578.069 750.751 580.449 750.751C586.935 750.798 593.42 750.751 600.139 750.751C600.419 748.606 600.699 747.3 600.699 746.04C600.699 744.221 600.513 742.355 600.373 740.07ZM612.317 733.12C603.872 733.213 603.639 734.053 604.339 745.9C604.712 752.43 608.351 750.611 612.317 750.332C612.317 744.454 612.317 739.09 612.317 733.12ZM709.323 767.077C707.829 762.645 706.523 758.587 705.17 754.529C703.91 756.628 701.717 758.681 701.53 760.873C701.017 767.45 701.297 767.496 709.323 767.077ZM796.156 733.913C796.203 733.213 796.249 732.514 796.343 731.814C791.583 731.814 786.824 731.814 782.111 731.814C782.111 732.514 782.111 733.213 782.111 733.913C786.777 733.913 791.443 733.913 796.156 733.913Z" fill="#A09F9D"/>
<path d="M0.890842 763.205C0.470905 765.584 0.0509377 767.87 -0.368999 770.388C-3.12191 770.622 -5.50151 770.855 -7.97446 771.088C-10.2141 782.982 -19.0794 775.332 -24.9585 777.711C-25.7984 774.773 -26.405 772.487 -27.0582 770.108C-31.9108 769.875 -36.4834 769.689 -41.9893 769.409C-33.2639 763.019 -23.3721 765.304 -21.2258 773.607C-17.7263 773.327 -13.247 776.265 -12.0339 769.269C-11.8006 767.823 -7.27456 767.077 -4.05505 765.677C-3.72844 764.138 -3.21518 761.852 -2.65527 759.38C2.61726 759.38 7.46981 759.38 12.1824 759.38C18.3415 767.496 6.53663 780.557 20.3012 787.646C17.2217 787.973 14.1888 788.299 10.0361 788.719C10.0361 779.67 10.0361 771.601 10.0361 763.112C6.53663 763.205 3.92371 763.205 0.890842 763.205Z" fill="#A09F9D"/>
<path d="M195.228 835.596C199.66 835.596 202.88 835.596 206.892 835.596C207.079 838.302 207.266 840.867 207.499 844.085C203.486 844.085 200.08 844.085 195.881 844.085C195.694 841.66 195.507 839.094 195.228 835.596Z" fill="#A09F9D"/>
<path d="M381.727 870.159C381.727 865.448 381.727 862.79 381.727 858.918C384.106 859.291 387.326 858.872 388.165 860.084C389.332 861.81 389.519 865.075 388.632 866.988C387.932 868.48 384.899 868.853 381.727 870.159Z" fill="#A09F9D"/>
<path d="M66.8681 846.744C69.2477 846.651 71.5807 846.511 74.5669 846.418C74.5669 849.356 74.5669 851.828 74.5669 854.487C67.7546 856.306 64.4418 854.767 66.8681 846.744Z" fill="#A09F9D"/>
<path d="M25.8542 846.418C25.8542 849.729 25.8542 852.015 25.8542 854.767C23.1946 854.907 20.9083 855.047 17.9688 855.233C17.9688 852.295 17.9688 849.869 17.9688 846.838C20.395 846.744 22.6814 846.604 25.8542 846.418Z" fill="#A09F9D"/>
<path d="M41.9047 854.767C39.2918 854.767 37.0054 854.767 34.1592 854.767C34.1592 852.108 34.1592 849.823 34.1592 846.931C36.5855 846.744 38.9185 846.558 41.9047 846.324C41.9047 849.356 41.9047 851.875 41.9047 854.767Z" fill="#A09F9D"/>
<path d="M50.5833 846.837C53.3362 846.837 55.6692 846.837 58.4221 846.837C58.4221 849.543 58.4221 851.875 58.4221 854.347C51.8898 856.399 48.6703 854.953 50.5833 846.837Z" fill="#A09F9D"/>
<g opacity="0.11">
<path d="M-6.71429 236.831C-6.94758 234.498 -7.18087 232.166 -7.46083 229.508C-10.3537 229.274 -13.2933 229.041 -16.9327 228.761C-16.9327 223.77 -16.9327 219.059 -16.9327 214.022C-34.3367 214.022 -51.0408 214.022 -68.6314 214.022C-68.6314 221.671 -68.6314 229.228 -68.6314 236.784C-69.518 236.831 -70.3578 236.831 -71.2443 236.877C-71.5243 228.621 -71.291 220.319 -71.3377 211.363C-53.2338 211.363 -35.5499 211.363 -17.166 211.363C-17.166 205.766 -17.166 200.822 -17.166 195.038C-1.06849 195.038 14.3758 195.038 30.2867 195.038C30.2867 151.566 30.2867 108.98 30.2867 65.9746C34.766 65.9746 38.6854 65.9746 43.7246 65.9746C43.7246 69.193 43.538 72.5047 43.818 75.8164C43.9113 76.9825 45.3111 78.0087 46.0576 79.1282C46.8508 78.0087 48.2973 76.9359 48.3439 75.8164C48.5306 66.7209 48.4373 57.672 48.4373 48.1101C63.0884 48.1101 77.3195 48.1101 92.0639 48.1101C92.0639 58.2784 92.0639 68.3068 92.0639 78.1486C95.3301 79.2214 98.5029 79.5946 100.743 81.1338C105.175 84.2123 107.322 88.3636 107.182 94.4273C106.715 117.889 106.948 141.351 106.948 164.813C106.948 167.005 106.948 169.151 106.948 171.716C121.786 171.716 136.017 171.716 150.435 171.716C150.715 169.43 150.948 167.285 151.275 164.533C167.139 164.533 182.817 164.533 198.821 164.533C199.147 161.641 199.381 159.309 199.661 156.697C210.299 156.697 220.704 156.697 231.762 156.697C231.762 163.647 231.762 170.223 231.762 177.08C235.402 177.08 238.341 177.08 242.261 177.08C242.261 166.958 242.214 156.977 242.308 146.948C242.308 144.15 241.094 140.651 246.134 140.371C246.88 140.325 247.533 137.479 247.72 137.06C251.313 135.007 254.206 133.328 257.099 131.696C256.865 131.276 256.679 130.903 256.445 130.483C261.438 130.483 266.384 130.483 271.703 130.483C271.89 133.888 272.03 136.826 272.17 140.371C275.156 140.605 278.095 140.791 281.502 141.071C281.502 155.764 281.502 170.223 281.502 184.59C286.401 185.662 286.401 185.662 287.707 177.546C291.907 177.546 296.246 177.546 300.679 177.546C302.872 166.632 297.226 154.878 308.097 145.595C313.557 145.595 320.742 145.595 328.208 145.595C328.208 156.324 328.208 166.818 328.208 177.313C327.648 177.36 327.135 177.36 326.575 177.407C326.575 167.891 326.575 158.329 326.575 148.581C319.902 148.581 314.303 148.581 308.751 148.581C308.657 149.28 308.611 149.98 308.517 150.68C312.297 151.099 316.076 151.473 319.856 151.892C319.902 152.499 319.949 153.105 319.996 153.665C314.91 153.898 309.824 154.131 304.318 154.364C304.318 161.921 304.318 169.29 304.318 177.08C307.724 177.36 311.037 177.64 315.003 177.92C315.003 186.176 315.003 194.198 315.003 202.501C318.036 202.501 320.369 202.501 320.882 202.501C323.635 199.795 325.501 198.116 327.135 196.251C327.741 195.598 328.021 194.431 328.021 193.499C327.881 188.368 329.654 184.543 334.46 182.164C335.393 181.698 335.953 179.459 335.86 178.106C335.673 172.929 334.787 167.751 334.88 162.574C334.927 159.962 337.306 157.35 337.26 154.738C337.166 144.289 336.233 133.888 336.186 123.44C336.14 115.23 336.98 107.021 337.166 98.7652C337.26 95.4068 336.606 92.0018 336.28 88.6435C336.233 88.0371 335.907 87.1509 336.186 86.871C341.272 82.3466 338.566 76.8893 338.519 71.5719C338.426 65.135 339.453 58.6516 340.013 52.2147C340.526 52.2147 340.992 52.1681 341.459 52.1681C341.739 59.6777 341.926 67.1874 342.252 74.697C342.439 78.4285 339.919 82.6731 344.445 85.6583C344.912 85.9848 344.958 87.1042 344.958 87.8972C345.005 99.5115 345.192 111.172 344.958 122.787C344.772 133.002 343.932 143.217 343.699 153.478C343.652 155.437 345.098 157.443 345.892 159.449C346.172 160.148 346.778 160.941 346.685 161.594C345.985 167.238 345.192 172.835 343.279 178.386C343.279 148.021 343.279 117.656 343.279 86.9643C341.459 86.9643 339.966 86.9643 337.913 86.9643C337.913 98.8585 337.726 110.613 337.96 122.414C338.146 131.602 339.173 140.791 339.173 150.027C339.219 159.215 336.093 168.311 337.633 177.593C337.96 179.459 339.593 181.231 340.806 182.864C342.439 185.009 344.352 187.015 346.078 189.114C346.825 190.047 347.338 191.12 348.831 192.333C350.184 183.89 350.091 174.048 362.036 175.354C371.134 176.334 371.134 184.263 371.274 191.586C375.147 191.819 378.88 192.053 382.566 192.286C382.566 192.892 382.566 193.499 382.566 194.058C369.595 194.058 356.67 194.058 342.719 194.058C342.719 200.868 342.719 206.512 342.719 212.156C342.066 212.156 341.412 212.203 340.712 212.203C340.386 208.191 340.106 204.18 339.779 199.796C335.58 199.796 331.427 199.796 326.761 199.796C326.388 201.381 325.968 203.247 325.501 205.439C322.235 205.626 319.062 205.766 315.47 205.952C315.47 208.938 315.47 211.69 315.47 214.861C317.149 215.281 319.016 215.701 321.115 216.214C321.302 218.453 321.489 220.645 321.722 223.257C333.154 223.257 344.585 223.257 356.763 223.257C356.763 217.66 356.763 211.923 356.763 205.16C365.629 205.16 375.334 202.314 381.679 205.766C395.117 213.042 408.369 206.139 421.2 209.824C422.786 205.439 421.807 203.9 418.167 204.04C414.108 204.18 410.095 204.133 406.036 204.04C404.216 203.993 402.396 203.714 400.39 202.874C404.263 201.288 407.436 199.842 404.636 194.525C400.39 194.525 395.864 194.525 391.291 194.525C391.245 193.825 391.151 193.125 391.105 192.379C395.584 192.146 400.063 191.959 405.103 191.679C405.289 190.047 405.522 188.414 405.802 185.849C396.564 185.849 387.792 185.849 379.02 185.849C378.973 185.196 378.973 184.496 378.927 183.843C387.605 183.843 396.33 183.843 406.596 183.843C402.536 173.535 407.902 165.186 407.529 156.324C407.109 146.342 405.989 136.36 405.896 126.378C405.802 117.143 406.736 107.907 406.969 98.6719C407.062 95.3135 406.362 91.9085 406.082 88.5035C405.989 87.524 405.802 86.0314 406.316 85.6583C411.682 81.8335 408.602 76.7027 408.742 72.0383C408.975 64.1089 409.628 56.1794 410.095 48.2966C410.888 48.2966 411.635 48.3433 412.428 48.3433C412.428 57.8586 412.288 67.3739 412.521 76.8893C412.568 79.7812 410.748 83.5127 415.088 85.2385C415.508 85.4251 415.741 86.6378 415.741 87.3841C415.788 100.398 416.068 113.411 415.788 126.425C415.601 136.22 414.434 146.015 414.248 155.81C414.154 159.775 412.008 164.626 417.187 167.658C417.701 167.938 416.441 170.876 416.394 172.602C416.254 176.987 416.347 181.418 416.347 186.082C419.1 186.082 421.62 186.082 424.7 186.082C424.7 177.5 424.7 169.29 424.7 160.895C430.719 160.895 436.178 160.895 441.637 160.895C441.684 161.454 441.73 162.014 441.777 162.574C437.298 162.854 432.772 163.087 427.406 163.413C427.406 170.363 427.219 177.36 427.592 184.31C427.639 185.476 430.252 186.502 433.145 188.741C426.799 188.741 421.76 188.741 416.347 188.741C416.347 193.499 416.347 196.997 416.347 200.868C419.1 201.148 421.667 201.381 424.466 201.615C424.7 203.9 424.886 206.092 425.12 208.704C427.779 208.704 430.439 208.704 433.378 208.704C433.565 206.139 433.705 203.807 433.891 201.055C435.944 200.728 437.904 200.449 440.33 200.075C440.33 196.577 440.33 192.985 440.33 189.161C442.617 188.648 444.437 188.228 447.143 187.575C446.583 180.532 446.023 173.582 445.463 166.632C445.37 165.652 444.996 164.486 445.37 163.647C451.202 150.82 447.983 137.619 447.143 124.513C447.049 123.113 446.909 121.761 446.909 120.361C446.909 108.374 446.909 96.3863 446.909 84.3989C446.909 83.4194 446.629 81.8335 447.096 81.507C452.882 77.9154 449.429 72.6913 449.616 68.1202C449.989 60.0042 450.502 51.9349 451.016 43.8188C451.809 43.8188 452.555 43.8188 453.349 43.8655C453.349 52.4946 453.208 61.077 453.395 69.7061C453.488 73.7175 450.782 78.5684 456.195 81.4603C456.568 81.6469 456.475 82.9529 456.475 83.7459C456.521 96.3397 456.708 108.933 456.475 121.527C456.241 133.375 455.448 145.222 455.215 157.023C455.168 158.842 456.661 160.661 457.315 162.527C457.735 163.74 458.201 165.093 458.108 166.305C457.501 173.395 456.755 180.485 456.008 187.948C459.414 187.948 461.607 187.948 464.267 187.948C463.287 173.348 473.505 170.41 485.45 168.358C485.45 165.093 485.31 161.688 485.497 158.329C485.917 149.467 492.589 143.077 501.128 143.077C509.713 143.077 516.339 149.42 516.852 158.283C517.039 161.454 516.899 164.673 516.899 167.705C533.696 169.897 540.928 175.168 542.002 191.213C551.287 191.213 560.619 191.213 570.464 191.213C570.464 207.025 570.464 221.998 570.464 237.017C569.904 237.064 569.391 237.064 568.831 237.11C568.831 226.009 568.831 214.955 568.831 203.2C552.127 203.2 536.542 202.547 521.145 203.76C518.065 203.993 514.192 207.911 509.853 207.119C508.08 206.792 506.54 204.926 504.767 204.646C502.108 204.273 498.795 203.807 496.695 205.02C494.129 206.559 485.544 208.611 484.564 206.186C483.024 202.314 480.318 203.2 477.705 203.154C465.573 203.107 453.442 203.247 441.31 203.061C437.298 203.014 435.525 204.227 437.018 208.984C442.15 208.984 447.516 208.984 453.302 208.984C453.628 212.063 453.908 214.535 454.188 216.96C464.547 218.686 464.547 218.686 464.64 229.787C464.64 232.306 464.64 234.825 464.64 237.297C463.894 237.344 463.147 237.39 462.354 237.437C462.074 232.12 461.794 226.756 461.514 220.739C458.248 220.505 455.121 220.319 451.622 220.086C451.342 217.613 451.109 215.281 450.829 212.389C428.992 212.389 407.109 212.389 384.246 212.389C384.246 217.334 384.246 222.418 384.246 227.502C383.499 227.549 382.753 227.595 382.006 227.642C382.006 221.205 382.006 214.768 382.006 208.051C374.121 208.051 367.495 208.051 359.89 208.051C359.89 217.66 359.89 227.362 359.89 237.064C359.19 237.11 358.49 237.157 357.836 237.204C357.416 233.752 357.043 230.301 356.623 226.616C344.958 226.616 333.527 226.616 321.862 226.616C321.582 230.347 321.349 233.752 321.115 237.157C320.462 237.11 319.856 237.11 319.202 237.064C319.202 231.093 319.202 225.076 319.202 218.173C311.784 218.173 305.298 218.173 298.812 218.173C298.766 217.427 298.719 216.681 298.672 215.934C302.918 215.654 307.211 215.421 311.877 215.095C311.877 203.714 311.877 192.472 311.877 180.345C305.485 180.345 299.092 180.158 292.746 180.532C291.487 180.625 290.32 182.817 289.154 184.03C289.48 184.683 289.854 185.383 290.18 186.036C295.779 186.036 301.378 186.036 306.978 186.036C306.978 186.735 307.024 187.388 307.024 188.088C298.859 188.088 290.647 188.088 282.155 188.088C282.155 196.904 282.155 204.693 282.155 212.623C284.301 213.089 286.354 213.555 288.407 214.022C288.407 214.535 288.407 215.001 288.407 215.514C282.575 215.514 276.789 215.514 270.677 215.514C270.443 220.132 270.257 223.677 270.07 227.595C267.97 227.922 266.057 228.202 263.864 228.575C263.631 231.467 263.398 234.312 263.164 237.204C262.651 237.204 262.185 237.204 261.671 237.204C261.671 233.566 261.671 229.927 261.671 225.916C263.258 225.636 265.171 225.263 267.27 224.89C267.457 221.112 267.644 217.567 267.877 213.649C271.61 213.462 274.969 213.276 278.795 213.042C278.795 190.094 278.795 167.378 278.795 144.01C276.042 143.823 273.149 143.59 269.79 143.357C269.463 140.138 269.183 137.013 268.857 133.561C265.637 133.561 262.651 133.561 259.665 133.561C259.852 133.841 260.085 134.074 260.271 134.354C257.425 136.08 254.626 137.806 250.893 140.045C249.866 141.118 248 143.17 245.34 146.062C245.34 165.839 245.34 187.062 245.34 208.704C247.347 208.984 249.213 209.311 251.313 209.591C251.639 211.456 251.966 213.182 252.339 214.955C254.579 215.421 256.632 215.794 258.685 216.214C258.685 216.727 258.685 217.24 258.685 217.707C255.792 217.94 252.946 218.173 249.68 218.406C249.306 216.121 249.027 214.395 248.653 211.83C240.161 211.83 231.576 211.83 223.037 211.83C222.99 211.13 222.944 210.43 222.944 209.731C229.243 209.731 235.542 209.731 242.168 209.731C242.168 199.469 242.168 190.42 242.168 180.718C238.108 180.532 233.955 180.345 229.336 180.112C229.336 173.255 229.336 166.678 229.336 159.635C220.238 159.635 211.699 159.635 202.74 159.635C202.74 175.308 202.74 190.98 202.74 206.885C205.68 207.165 208.199 207.398 211.419 207.678C211.419 214.162 211.419 220.552 211.419 227.455C220.518 227.455 228.916 227.455 237.782 227.455C237.782 231.093 237.782 234.125 237.782 237.157C237.268 237.25 236.802 237.344 236.288 237.437C235.915 235.385 235.542 233.332 235.029 230.487C226.677 230.487 218.045 230.487 208.806 230.487C208.806 223.397 208.806 217.054 208.806 210.337C204.187 210.337 200.221 210.337 195.835 210.337C195.601 213.509 195.415 216.634 195.135 220.319C189.909 220.319 184.916 220.319 179.597 220.319C179.597 222.838 179.597 224.797 179.597 227.455C183.517 227.455 187.436 227.455 191.962 227.455C191.775 231.233 191.635 234.172 191.495 237.157C190.935 237.157 190.422 237.204 189.862 237.204C189.442 235.198 189.069 233.239 188.416 230.067C177.591 230.067 166.532 230.067 155.474 230.067C155.474 229.368 155.474 228.668 155.474 227.968C162.146 227.968 168.819 227.968 175.864 227.968C176.238 224.19 176.518 221.252 176.844 217.707C182.023 217.707 186.969 217.707 192.382 217.707C192.615 214.115 192.802 211.13 192.988 207.818C194.948 207.398 196.861 207.025 199.148 206.559C199.148 193.685 199.148 180.858 199.148 167.658C184.356 167.658 169.705 167.658 153.981 167.658C153.981 175.587 153.981 183.657 153.981 191.726C153.188 191.773 152.395 191.819 151.601 191.866C151.321 186.409 151.042 180.951 150.715 175.261C136.297 175.261 122.206 175.261 107.602 175.261C107.322 179.459 107.042 183.61 106.762 187.761C106.155 187.761 105.549 187.761 104.942 187.761C104.802 185.523 104.522 183.33 104.522 181.091C104.475 151.986 104.475 122.833 104.475 93.7276C104.475 86.0314 100.789 82.2533 93.2304 82.2533C78.2527 82.2533 63.275 82.2533 48.3439 82.2533C46.1509 82.2533 44.0046 82.2533 41.2051 82.2533C41.2051 77.3557 41.2051 73.2044 41.2051 68.7266C38.4055 68.7266 36.2591 68.7266 33.6462 68.7266C33.6462 110.473 33.6462 152.219 33.6462 194.525C35.1393 194.665 36.8191 194.805 39.572 195.038C39.572 184.683 39.572 174.841 39.572 165.046C40.2252 165.046 40.8784 165.046 41.5317 165.046C41.5317 174.701 41.5317 184.356 41.5317 194.665C47.1308 194.665 51.8901 194.665 57.3026 194.665C57.3026 200.309 57.3026 205.253 57.3026 210.663C65.748 210.663 73.4934 210.663 81.9854 210.663C81.9854 205.906 81.9854 201.008 81.9854 195.318C86.5581 195.084 90.4775 194.945 95.3767 194.711C95.3767 190.42 95.3767 186.409 95.3767 182.351C96.03 182.304 96.6832 182.257 97.3364 182.211C97.5697 183.75 97.943 185.289 97.9897 186.875C98.2696 196.997 100.836 199.516 111.054 199.516C114.507 199.516 117.913 199.562 121.366 199.469C122.486 199.422 123.979 199.329 124.726 198.629C130.138 193.639 133.218 193.872 139.237 198.116C141.523 199.702 145.396 199.049 149.035 199.516C149.035 211.923 149.035 224.517 149.035 237.11C148.522 237.11 148.009 237.157 147.542 237.157C147.542 225.683 147.542 214.208 147.542 202.081C144.602 201.941 142.41 202.128 140.403 201.661C138.817 201.288 137.277 200.215 135.924 199.189C133.078 197.137 130.558 196.391 127.945 199.702C126.965 200.962 125.099 202.174 123.559 202.268C117.913 202.594 112.221 202.547 106.575 202.361C103.729 202.268 101.069 203.154 98.7362 199.049C97.4297 196.81 90.3375 197.883 85.4849 197.417C85.4849 202.361 85.4849 206.326 85.4849 211.037C90.8041 211.037 96.17 211.037 101.909 211.037C101.909 214.861 101.909 217.987 101.909 221.438C81.8921 221.438 61.9219 221.438 41.9516 221.438C41.9049 220.925 41.8116 220.412 41.765 219.899C43.7247 219.712 45.6843 219.339 47.644 219.339C63.415 219.293 79.1859 219.293 94.9568 219.339C98.4096 219.339 100.649 218.733 98.9229 214.115C81.9388 214.115 64.7681 214.115 47.3641 214.115C46.8508 211.876 46.4309 210.01 45.9643 208.005C39.6653 208.005 33.4595 208.005 26.9272 208.005C26.9272 211.643 26.9272 214.955 26.9272 218.64C28.9336 219.059 30.8466 219.433 32.9463 219.852C32.9463 225.636 32.9463 231.373 32.9463 237.157C32.3864 237.204 31.8731 237.297 31.3132 237.344C31.3132 232.493 31.3132 227.642 31.3132 222.464C25.5741 222.464 21.0481 222.464 16.1022 222.464C15.8689 227.502 15.6356 232.353 15.4023 237.204C14.8424 237.204 14.3292 237.204 13.7693 237.157C13.7693 231.467 13.7693 225.729 13.7693 219.712C16.8021 219.479 19.975 219.199 23.3811 218.966C23.3811 212.016 23.3811 205.393 23.3811 198.303C11.203 198.303 -1.02179 198.303 -13.6199 198.303C-13.6199 207.538 -13.6199 216.727 -13.6199 226.336C-10.587 226.569 -7.88076 226.802 -5.12785 226.989C-5.12785 230.44 -5.12785 233.799 -5.12785 237.11C-5.78108 236.831 -6.24769 236.831 -6.71429 236.831ZM443.55 200.169C455.588 200.169 467.253 200.075 478.918 200.215C481.951 200.262 485.777 198.536 487.503 203.34C487.69 203.947 492.029 204.133 493.382 203.107C498.608 199.142 503.228 199.189 508.173 202.874C509.853 204.133 513.306 203.434 515.779 202.921C517.925 202.501 519.885 200.355 521.938 200.262C530.43 199.935 538.922 200.122 547.414 200.122C554.226 200.122 561.039 200.122 568.271 200.122C568.084 197.65 567.944 195.924 567.758 193.545C557.959 193.545 548.627 193.545 539.342 193.545C538.969 190.047 538.689 187.248 538.502 185.523C535.189 186.595 532.716 187.995 530.197 188.088C521.938 188.368 513.633 188.181 505.327 188.181C500.801 188.181 496.275 188.181 491.796 188.181C491.469 191.306 491.189 193.452 491.003 195.224C485.357 195.224 480.131 195.224 474.952 195.224C474.952 194.618 474.905 194.012 474.905 193.359C479.384 193.359 483.864 193.359 488.716 193.359C488.716 187.202 488.996 181.931 488.576 176.707C488.436 174.841 486.85 172.369 485.217 171.576C480.271 169.104 469.726 175.308 468.14 181.791C472.899 181.791 477.518 181.791 482.137 181.791C482.137 182.257 482.137 182.677 482.137 183.144C477.378 183.144 472.619 183.144 467.72 183.144C467.44 185.849 467.253 187.948 466.973 190.653C458.994 190.653 451.435 190.653 443.55 190.653C443.55 193.965 443.55 196.53 443.55 200.169ZM78.9059 65.3683C78.9059 66.1146 78.9526 66.8142 78.9526 67.5605C69.9006 67.5605 60.8953 67.5605 51.89 67.5605C51.8434 72.5047 51.8434 72.5047 63.6483 72.5047C68.7342 72.5047 73.82 72.5047 78.9059 72.5047C78.8593 73.391 78.8126 74.2772 78.8126 75.1634C76.8996 75.1634 74.9865 75.1634 73.0735 75.1634C66.8211 75.1634 60.5688 75.0701 54.2697 75.2567C53.2432 75.3034 52.2634 76.5161 51.2835 77.1691C52.1234 77.8221 52.9166 79.0349 53.7564 79.0349C65.5613 79.1748 77.3662 79.1282 89.3577 79.1282C89.3577 71.5719 89.3577 64.9951 89.3577 58.3717C86.838 57.9053 84.5984 57.4855 82.3587 57.0657C83.9452 55.3865 85.6716 55.3398 87.2113 54.8268C88.0979 54.5469 89.3577 53.5207 89.3577 52.7744C89.4043 52.0281 88.0979 50.5822 87.398 50.5822C76.1064 50.4423 64.7681 50.4423 53.4765 50.5822C52.7299 50.5822 51.4235 51.9815 51.4235 52.7278C51.4235 53.4741 52.5899 54.5935 53.4765 54.8734C55.0162 55.3865 56.7426 55.3865 58.3757 55.6197C58.3757 56.0861 58.3757 56.5526 58.3757 57.0657C56.1361 57.4855 53.9431 57.9053 51.5168 58.3717C51.5168 60.5173 51.5168 62.6163 51.5168 65.3683C60.8954 65.3683 69.9006 65.3683 78.9059 65.3683ZM407.109 200.775C410.142 200.635 411.821 200.542 414.061 200.449C414.061 194.012 414.528 187.995 413.921 182.024C413.361 176.38 415.974 170.923 412.941 164.953C411.075 161.268 412.428 155.857 412.568 151.193C412.848 142.424 413.455 133.655 413.595 124.886C413.781 112.105 413.641 99.3249 413.641 86.4046C411.682 86.4046 409.815 86.4046 408.229 86.4046C408.509 89.3898 409.022 92.0018 408.929 94.5672C408.649 105.202 407.855 115.837 407.902 126.472C407.949 138.506 408.835 150.493 409.069 162.527C409.115 164.673 407.809 166.818 407.016 169.337C407.109 179.179 407.109 189.534 407.109 200.775ZM455.448 187.948C454.748 169.99 453.862 152.779 453.535 135.614C453.208 117.889 453.442 100.211 453.442 82.3932C452.649 82.3932 450.829 82.3932 449.056 82.3932C449.382 85.0519 449.849 87.2442 449.896 89.3898C450.082 103.569 450.222 117.749 450.269 131.882C450.316 140.791 450.409 149.653 450.176 158.562C450.129 160.755 448.776 162.854 448.029 165.046C448.029 172.276 448.029 179.832 448.029 187.202C449.569 187.621 450.129 187.855 450.689 187.901C451.902 187.995 453.115 187.948 455.448 187.948ZM536.542 180.158C531.83 171.949 520.212 168.591 508.64 171.996C500.475 174.421 497.722 177.873 498.235 185.523C505.794 185.523 513.446 185.569 521.051 185.523C526.651 185.476 532.903 187.248 536.542 180.158ZM492.916 185.569C495.155 181.558 496.602 176.567 499.961 173.675C503.694 170.457 509.107 169.197 513.773 167.052C513.773 164.719 513.773 162.061 513.773 159.495C505.047 159.495 496.882 159.495 488.25 159.495C488.25 162.061 487.877 164.3 488.296 166.399C489.556 172.462 491.143 178.479 492.916 185.569ZM488.763 157.536C493.009 157.536 497.208 157.536 501.361 157.536C505.467 157.536 509.62 157.536 513.866 157.536C512.326 149.327 507.94 145.409 501.128 145.502C494.362 145.549 489.976 149.7 488.763 157.536ZM54.5497 197.883C44.9378 197.883 35.7925 197.883 26.2273 197.883C26.3673 200.355 26.4606 202.408 26.6006 204.88C34.2061 204.88 41.205 204.88 48.2973 204.88C49.2305 208.238 48.4373 213.509 54.503 209.917C54.5497 206.186 54.5497 202.408 54.5497 197.883ZM353.264 182.631C356.53 182.91 359.096 183.144 361.663 183.377C361.663 183.657 361.663 183.983 361.616 184.263C358.91 184.45 356.157 184.683 353.264 184.916C353.264 187.202 353.264 189.114 353.264 191.306C358.303 191.306 363.016 191.306 367.682 191.306C369.081 183.33 367.682 179.319 362.922 177.873C358.63 176.474 355.737 178.386 353.264 182.631ZM339.686 196.111C340.059 194.898 340.292 193.592 340.806 192.379C341.459 190.887 343.279 188.554 342.999 188.274C341.366 186.735 339.266 184.776 337.306 184.823C335.393 184.869 332.734 186.642 331.8 188.414C330.727 190.467 331.194 193.265 330.961 196.111C334.273 196.111 336.793 196.111 339.686 196.111Z" fill="#A9A9A9"/>
<path d="M57.9554 89.6697C57.9554 123.766 57.9554 156.37 57.9554 189.114C55.2958 185.989 54.8292 96.6662 57.9554 89.6697Z" fill="#A9A9A9"/>
<path d="M79.1396 209.078C79.6035 209.078 79.9795 178.192 79.9795 140.092C79.9795 101.992 79.6035 71.1055 79.1396 71.1055C78.6758 71.1055 78.2998 101.992 78.2998 140.092C78.2998 178.192 78.6758 209.078 79.1396 209.078Z" fill="#A9A9A9"/>
<path d="M384.666 159.262C384.339 160.988 384.059 162.714 383.732 164.579C381.726 164.766 379.953 164.906 378.133 165.092C376.5 173.861 369.921 168.218 365.629 169.99C365.022 167.844 364.555 166.165 364.089 164.393C360.496 164.206 357.137 164.066 353.077 163.88C359.47 159.169 366.795 160.848 368.381 167.005C370.994 166.772 374.261 168.964 375.147 163.833C375.334 162.76 378.647 162.201 381.026 161.221C381.26 160.102 381.633 158.422 382.053 156.557C385.925 156.557 389.518 156.557 392.971 156.557C397.497 162.527 388.818 172.182 398.943 177.406C396.704 177.64 394.418 177.873 391.385 178.199C391.385 171.529 391.385 165.559 391.385 159.309C388.818 159.262 386.905 159.262 384.666 159.262Z" fill="#A9A9A9"/>
<path d="M41.1587 94.1941C41.1587 113.784 41.1587 133.375 41.1587 152.919C40.6921 152.919 40.2723 152.919 39.8057 152.919C39.8057 133.375 39.8057 113.784 39.8057 94.2407C40.2723 94.2407 40.7388 94.1941 41.1587 94.1941Z" fill="#A9A9A9"/>
<path d="M95.7031 173.162C95.7031 155.437 95.7031 137.666 95.7031 119.941C96.1231 119.941 96.4963 119.941 96.9163 119.941C96.9163 137.666 96.9163 155.437 96.9163 173.162C96.4963 173.115 96.1231 173.115 95.7031 173.162Z" fill="#A9A9A9"/>
<path d="M130.978 230.021C130.978 226.616 130.791 223.164 131.071 219.759C131.165 218.639 132.611 217.613 133.404 216.541C134.197 217.66 135.504 218.686 135.691 219.899C136.064 222.464 136.11 225.17 135.644 227.735C135.411 229.134 133.777 230.254 132.798 231.467C132.238 231.047 131.631 230.534 130.978 230.021Z" fill="#A9A9A9"/>
<path d="M125.145 224.05C123.792 226.662 122.673 228.854 121.553 231C120.713 228.715 119.22 226.429 119.22 224.19C119.22 221.671 120.619 219.153 121.413 216.587C122.579 218.919 123.746 221.252 125.145 224.05Z" fill="#A9A9A9"/>
<path d="M62.9482 97.1326C67.0543 97.1326 69.8072 97.1326 73.3533 97.1326C72.8867 99.1382 72.7934 101.89 72.0935 102.03C69.6672 102.637 66.9609 102.683 64.488 102.123C63.7414 101.984 63.5548 99.2782 62.9482 97.1326Z" fill="#A9A9A9"/>
<path d="M73.6805 168.311C69.5744 168.311 66.8215 168.311 63.2754 168.311C63.602 166.352 63.602 163.507 64.2552 163.367C66.6815 162.714 69.4344 162.574 71.9074 163.04C72.654 163.18 72.9339 165.979 73.6805 168.311Z" fill="#A9A9A9"/>
<path d="M62.9482 176.147C66.7277 176.147 69.4806 176.147 73.2133 176.147C72.7467 178.106 72.7934 180.998 71.9068 181.278C69.7138 181.978 67.0076 182.071 64.8613 181.371C63.8348 181.045 63.6481 178.293 62.9482 176.147Z" fill="#A9A9A9"/>
<path d="M62.7148 189.347C66.8675 189.347 69.6205 189.347 73.1666 189.347C72.84 191.26 72.8866 194.058 72.2334 194.245C69.8071 194.898 67.1008 195.085 64.6279 194.572C63.8347 194.385 63.5547 191.726 62.7148 189.347Z" fill="#A9A9A9"/>
<path d="M62.8555 110.286C66.9615 110.286 69.7144 110.286 73.2606 110.286C72.8406 112.245 72.794 114.951 72.1407 115.137C69.7144 115.743 67.0082 115.837 64.5819 115.324C63.7887 115.184 63.5554 112.525 62.8555 110.286Z" fill="#A9A9A9"/>
<path d="M73.8664 141.864C69.667 141.864 66.9607 141.864 63.3213 141.864C63.5546 140.091 63.4613 137.293 64.0212 137.153C66.4475 136.5 69.1538 136.267 71.5801 136.733C72.5132 136.92 72.8865 139.485 73.8664 141.864Z" fill="#A9A9A9"/>
<path d="M73.493 155.017C69.3869 155.017 66.6807 155.017 63.0879 155.017C63.5545 153.012 63.6479 150.306 64.3011 150.12C66.7274 149.514 69.4336 149.467 71.8599 149.98C72.6998 150.167 72.8864 152.919 73.493 155.017Z" fill="#A9A9A9"/>
<path d="M97.1498 93.9609C97.1498 99.2783 97.1498 104.596 97.1498 109.96C96.6832 109.96 96.2166 110.006 95.75 110.006C95.75 104.736 95.75 99.4649 95.75 94.1942C96.2166 94.1009 96.6832 94.0542 97.1498 93.9609Z" fill="#A9A9A9"/>
<path d="M74.0538 122.414C72.7473 125.679 72.3274 128.384 71.4409 128.524C69.0146 128.944 66.355 128.431 63.882 127.964C63.5554 127.918 63.3221 124.839 63.5087 124.792C66.355 123.999 69.2945 123.44 74.0538 122.414Z" fill="#A9A9A9"/>
<path d="M403.096 220.552C403.096 223.024 403.096 224.703 403.096 226.709C401.136 226.849 399.457 226.942 397.264 227.082C397.264 224.937 397.264 223.117 397.264 220.925C399.037 220.785 400.716 220.692 403.096 220.552Z" fill="#A9A9A9"/>
<path d="M414.947 226.709C413.034 226.709 411.308 226.709 409.255 226.709C409.255 224.75 409.255 223.071 409.255 220.925C411.028 220.785 412.754 220.645 414.947 220.505C414.947 222.744 414.947 224.563 414.947 226.709Z" fill="#A9A9A9"/>
</g>
<path d="M92.3412 459C90.6012 459 89.2412 458.74 88.2612 458.22C87.3012 457.68 86.6212 456.86 86.2212 455.76C85.8412 454.64 85.6512 453.22 85.6512 451.5C85.6512 449.78 85.8412 448.37 86.2212 447.27C86.6212 446.15 87.3012 445.33 88.2612 444.81C89.2412 444.27 90.6012 444 92.3412 444H98.5512V457.8H96.2112V445.11L97.4112 446.13H92.3412C91.1812 446.13 90.2812 446.27 89.6412 446.55C89.0212 446.83 88.5912 447.36 88.3512 448.14C88.1112 448.9 87.9912 450.02 87.9912 451.5C87.9912 452.98 88.1112 454.11 88.3512 454.89C88.5912 455.65 89.0212 456.17 89.6412 456.45C90.2812 456.73 91.1812 456.87 92.3412 456.87H101.791V459H92.3412ZM101.791 459V456.87C102.051 456.87 102.211 456.97 102.271 457.17C102.351 457.35 102.391 457.6 102.391 457.92C102.391 458.24 102.351 458.5 102.271 458.7C102.211 458.9 102.051 459 101.791 459ZM89.4312 441.3V438.6H91.7712V441.3H89.4312ZM93.5412 441.3V438.6H95.8812V441.3H93.5412ZM118.805 459V456.87H122.045V459H118.805ZM101.795 459V456.87H118.205L116.465 458.1V451.65C116.465 450.25 116.305 449.15 115.985 448.35C115.665 447.55 115.115 446.98 114.335 446.64C113.575 446.3 112.535 446.13 111.215 446.13C110.375 446.13 109.535 446.19 108.695 446.31C107.875 446.43 107.235 446.59 106.775 446.79L108.185 445.35C108.065 445.83 107.945 446.44 107.825 447.18C107.705 447.9 107.605 448.68 107.525 449.52C107.445 450.36 107.405 451.2 107.405 452.04C107.405 452.9 107.445 453.74 107.525 454.56C107.605 455.38 107.695 456.09 107.795 456.69C107.895 457.29 107.975 457.71 108.035 457.95L105.815 458.58C105.735 458.32 105.635 457.87 105.515 457.23C105.415 456.59 105.315 455.82 105.215 454.92C105.135 454.02 105.095 453.06 105.095 452.04C105.095 451.06 105.135 450.11 105.215 449.19C105.315 448.25 105.425 447.4 105.545 446.64C105.685 445.88 105.815 445.27 105.935 444.81C106.375 444.63 107.075 444.45 108.035 444.27C108.995 444.09 110.055 444 111.215 444C112.895 444 114.295 444.25 115.415 444.75C116.555 445.25 117.405 446.06 117.965 447.18C118.525 448.28 118.805 449.77 118.805 451.65V459H101.795ZM101.795 459C101.535 459 101.375 458.9 101.315 458.7C101.235 458.5 101.195 458.24 101.195 457.92C101.195 457.6 101.235 457.35 101.315 457.17C101.375 456.97 101.535 456.87 101.795 456.87V459ZM122.045 459V456.87C122.305 456.87 122.465 456.97 122.525 457.17C122.605 457.35 122.645 457.6 122.645 457.92C122.645 458.24 122.605 458.5 122.525 458.7C122.465 458.9 122.305 459 122.045 459ZM122.039 459V456.87H126.359L125.279 457.74V444H127.619V459H122.039ZM122.039 459C121.779 459 121.619 458.9 121.559 458.7C121.479 458.5 121.439 458.24 121.439 457.92C121.439 457.6 121.479 457.35 121.559 457.17C121.619 456.97 121.779 456.87 122.039 456.87V459ZM123.239 464.4V461.7H125.579V464.4H123.239ZM127.349 464.4V461.7H129.689V464.4H127.349ZM142.847 459V456.87H146.087V459H142.847ZM131.237 459V456.87H142.427L140.507 458.58V452.04C140.507 450.56 140.337 449.39 139.997 448.53C139.657 447.67 139.097 447.06 138.317 446.7C137.557 446.32 136.527 446.13 135.227 446.13H132.797V444H135.227C136.827 444 138.197 444.25 139.337 444.75C140.477 445.25 141.347 446.09 141.947 447.27C142.547 448.43 142.847 450.02 142.847 452.04V459H131.237ZM146.087 459V456.87C146.347 456.87 146.507 456.97 146.567 457.17C146.647 457.35 146.687 457.6 146.687 457.92C146.687 458.24 146.647 458.5 146.567 458.7C146.507 458.9 146.347 459 146.087 459ZM162.022 459V456.87H165.262V459H162.022ZM146.092 459V456.87H161.242L159.682 458.22V445.11L160.912 446.13H155.812C154.652 446.13 153.752 446.27 153.112 446.55C152.492 446.83 152.062 447.36 151.822 448.14C151.582 448.9 151.462 450.02 151.462 451.5C151.462 452.98 151.582 454.11 151.822 454.89C152.062 455.65 152.492 456.17 153.112 456.45C153.752 456.73 154.652 456.87 155.812 456.87V458.4C154.072 458.4 152.712 458.19 151.732 457.77C150.772 457.33 150.092 456.61 149.692 455.61C149.312 454.59 149.122 453.22 149.122 451.5C149.122 449.78 149.312 448.37 149.692 447.27C150.092 446.15 150.772 445.33 151.732 444.81C152.712 444.27 154.072 444 155.812 444H162.022V459H146.092ZM146.092 459C145.832 459 145.672 458.9 145.612 458.7C145.532 458.5 145.492 458.24 145.492 457.92C145.492 457.6 145.532 457.35 145.612 457.17C145.672 456.97 145.832 456.87 146.092 456.87V459ZM165.262 459V456.87C165.522 456.87 165.682 456.97 165.742 457.17C165.822 457.35 165.862 457.6 165.862 457.92C165.862 458.24 165.822 458.5 165.742 458.7C165.682 458.9 165.522 459 165.262 459ZM153.052 441.3V438.6H155.392V441.3H153.052ZM157.162 441.3V438.6H159.502V441.3H157.162ZM168.882 459V437.49H171.222V459H168.882ZM165.252 459V456.87H168.882V459H165.252ZM165.252 459C164.992 459 164.832 458.9 164.772 458.7C164.692 458.5 164.652 458.24 164.652 457.92C164.652 457.6 164.692 457.35 164.772 457.17C164.832 456.97 164.992 456.87 165.252 456.87V459ZM176.394 459V437.49H178.704V459H176.394ZM209.432 459V456.87H212.672V459H209.432ZM198.272 459C195.292 459 193.062 458.48 191.582 457.44C190.102 456.4 189.362 454.79 189.362 452.61C189.362 452.13 189.392 451.61 189.452 451.05C189.532 450.49 189.622 449.95 189.722 449.43C189.822 448.89 189.912 448.43 189.992 448.05C190.072 447.65 190.122 447.38 190.142 447.24L192.422 447.66C192.362 447.98 192.272 448.42 192.152 448.98C192.052 449.54 191.952 450.14 191.852 450.78C191.752 451.42 191.702 452.03 191.702 452.61C191.702 453.61 191.912 454.43 192.332 455.07C192.752 455.69 193.442 456.15 194.402 456.45C195.362 456.73 196.652 456.87 198.272 456.87H207.092V444H209.432V459H198.272ZM212.672 459V456.87C212.932 456.87 213.092 456.97 213.152 457.17C213.232 457.35 213.272 457.6 213.272 457.92C213.272 458.24 213.232 458.5 213.152 458.7C213.092 458.9 212.932 459 212.672 459ZM198.242 464.4V461.7H200.582V464.4H198.242ZM218.654 459V456.87H221.894V459H218.654ZM216.314 459V437.49H218.654V459H216.314ZM212.684 459V456.87H216.314V459H212.684ZM212.684 459C212.424 459 212.264 458.9 212.204 458.7C212.124 458.5 212.084 458.24 212.084 457.92C212.084 457.6 212.124 457.35 212.204 457.17C212.264 456.97 212.424 456.87 212.684 456.87V459ZM221.894 459V456.87C222.154 456.87 222.314 456.97 222.374 457.17C222.454 457.35 222.494 457.6 222.494 457.92C222.494 458.24 222.454 458.5 222.374 458.7C222.314 458.9 222.154 459 221.894 459ZM236.733 459V456.87H239.973V459H236.733ZM221.883 459V456.87H235.113L234.393 457.5V450.06C234.393 448.76 233.983 447.79 233.163 447.15C232.363 446.49 231.133 446.16 229.473 446.16C228.953 446.16 228.203 446.21 227.223 446.31C226.243 446.39 225.213 446.51 224.133 446.67L223.863 444.75C224.683 444.55 225.583 444.38 226.563 444.24C227.543 444.08 228.493 444 229.413 444C230.933 444 232.233 444.24 233.313 444.72C234.413 445.18 235.253 445.86 235.833 446.76C236.433 447.66 236.733 448.76 236.733 450.06V459H221.883ZM221.883 459C221.623 459 221.463 458.9 221.403 458.7C221.323 458.5 221.283 458.24 221.283 457.92C221.283 457.6 221.323 457.35 221.403 457.17C221.463 456.97 221.623 456.87 221.883 456.87V459ZM239.973 459V456.87C240.233 456.87 240.393 456.97 240.453 457.17C240.533 457.35 240.573 457.6 240.573 457.92C240.573 458.24 240.533 458.5 240.453 458.7C240.393 458.9 240.233 459 239.973 459ZM243.589 459V437.49H245.929V459H243.589ZM239.959 459V456.87H243.589V459H239.959ZM239.959 459C239.699 459 239.539 458.9 239.479 458.7C239.399 458.5 239.359 458.24 239.359 457.92C239.359 457.6 239.399 457.35 239.479 457.17C239.539 456.97 239.699 456.87 239.959 456.87V459ZM276.083 459V456.87H279.323V459H276.083ZM264.923 459C261.943 459 259.713 458.48 258.233 457.44C256.753 456.4 256.013 454.79 256.013 452.61C256.013 452.13 256.043 451.61 256.103 451.05C256.183 450.49 256.273 449.95 256.373 449.43C256.473 448.89 256.563 448.43 256.643 448.05C256.723 447.65 256.773 447.38 256.792 447.24L259.073 447.66C259.013 447.98 258.923 448.42 258.803 448.98C258.703 449.54 258.603 450.14 258.503 450.78C258.403 451.42 258.353 452.03 258.353 452.61C258.353 453.61 258.563 454.43 258.983 455.07C259.403 455.69 260.093 456.15 261.053 456.45C262.013 456.73 263.303 456.87 264.923 456.87H274.823L273.743 457.74V437.49H276.083V459H264.923ZM279.323 459V456.87C279.583 456.87 279.743 456.97 279.803 457.17C279.883 457.35 279.923 457.6 279.923 457.92C279.923 458.24 279.883 458.5 279.803 458.7C279.743 458.9 279.583 459 279.323 459ZM264.653 448.62C264.333 448.22 264.083 447.83 263.903 447.45C263.743 447.07 263.663 446.67 263.663 446.25C263.663 445.67 263.803 445.15 264.083 444.69C264.383 444.23 264.773 443.87 265.253 443.61C265.733 443.35 266.253 443.22 266.813 443.22C267.133 443.22 267.453 443.27 267.773 443.37C268.093 443.45 268.373 443.57 268.613 443.73L267.833 445.08C267.673 444.98 267.513 444.92 267.353 444.9C267.213 444.86 267.063 444.84 266.903 444.84C266.443 444.84 266.073 444.97 265.793 445.23C265.533 445.49 265.403 445.83 265.403 446.25C265.403 446.51 265.453 446.76 265.553 447C265.673 447.24 265.843 447.5 266.063 447.78L264.653 448.62ZM263.093 448.62V447.03H269.003V448.62H263.093ZM284.914 459V456.87H288.154V459H284.914ZM288.154 459V456.87C288.414 456.87 288.574 456.97 288.634 457.17C288.714 457.35 288.754 457.6 288.754 457.92C288.754 458.24 288.714 458.5 288.634 458.7C288.574 458.9 288.414 459 288.154 459ZM279.334 459V456.87H283.654L282.574 457.74V444H284.914V459H279.334ZM279.334 459C279.074 459 278.914 458.9 278.854 458.7C278.774 458.5 278.734 458.24 278.734 457.92C278.734 457.6 278.774 457.35 278.854 457.17C278.914 456.97 279.074 456.87 279.334 456.87V459ZM280.534 441.3V438.6H282.874V441.3H280.534ZM284.644 441.3V438.6H286.984V441.3H284.644ZM288.152 459V456.87H292.472L291.392 457.74V444H293.732V459H288.152ZM288.152 459C287.892 459 287.732 458.9 287.672 458.7C287.592 458.5 287.552 458.24 287.552 457.92C287.552 457.6 287.592 457.35 287.672 457.17C287.732 456.97 287.892 456.87 288.152 456.87V459ZM291.392 464.4V461.7H293.732V464.4H291.392ZM299.03 459V437.49H301.34V459H299.03ZM318.307 459V456.87H321.547V459H318.307ZM311.197 465.63C310.497 465.63 309.747 465.57 308.947 465.45C308.167 465.35 307.307 465.2 306.367 465L306.727 463.11C307.787 463.25 308.667 463.35 309.367 463.41C310.087 463.47 310.697 463.5 311.197 463.5C312.857 463.5 314.067 463.18 314.827 462.54C315.587 461.92 315.967 461.01 315.967 459.81V445.35L317.167 446.13H312.097C310.937 446.13 310.037 446.27 309.397 446.55C308.777 446.83 308.347 447.36 308.107 448.14C307.867 448.9 307.747 450.02 307.747 451.5C307.747 452.98 307.867 454.11 308.107 454.89C308.347 455.65 308.777 456.17 309.397 456.45C310.037 456.73 310.937 456.87 312.097 456.87H315.967V459H312.097C310.357 459 308.997 458.74 308.017 458.22C307.057 457.68 306.377 456.86 305.977 455.76C305.597 454.64 305.407 453.22 305.407 451.5C305.407 449.78 305.597 448.37 305.977 447.27C306.377 446.15 307.057 445.33 308.017 444.81C308.997 444.27 310.357 444 312.097 444H318.307V459.78C318.307 461.02 318.017 462.08 317.437 462.96C316.877 463.84 316.067 464.5 315.007 464.94C313.947 465.4 312.677 465.63 311.197 465.63ZM321.547 459V456.87C321.807 456.87 321.967 456.97 322.027 457.17C322.107 457.35 322.147 457.6 322.147 457.92C322.147 458.24 322.107 458.5 322.027 458.7C321.967 458.9 321.807 459 321.547 459ZM321.551 459V456.87H325.871L324.791 457.74V444H327.131V459H321.551ZM321.551 459C321.291 459 321.131 458.9 321.071 458.7C320.991 458.5 320.951 458.24 320.951 457.92C320.951 457.6 320.991 457.35 321.071 457.17C321.131 456.97 321.291 456.87 321.551 456.87V459ZM324.791 464.4V461.7H327.131V464.4H324.791Z" fill="#797979"/>
</g>
<defs>
<clipPath id="clip0_156_2503">
<rect width="414" height="896" fill="white"/>
</clipPath>
<clipPath id="clip1_156_2503">
<rect width="172" height="172" fill="white" transform="translate(121 219)"/>
</clipPath>
<clipPath id="clip2_156_2503">
<rect width="101" height="134" fill="white" transform="translate(157 238)"/>
</clipPath>
</defs>
</svg>
