<svg width="414" height="265" viewBox="0 0 414 265" fill="none" xmlns="http://www.w3.org/2000/svg">
<g clip-path="url(#clip0_156_2505)">
<path d="M-530.232 262.48C-530.559 259.308 -530.885 256.183 -531.259 252.498C-535.225 252.172 -539.191 251.892 -544.09 251.472C-544.09 244.709 -544.09 238.272 -544.09 231.462C-567.746 231.462 -590.376 231.462 -614.219 231.462C-614.219 241.864 -614.219 252.079 -614.219 262.34C-615.386 262.387 -616.599 262.387 -617.765 262.433C-618.139 251.239 -617.812 239.951 -617.905 227.777C-593.362 227.777 -569.333 227.777 -544.417 227.777C-544.417 220.221 -544.417 213.504 -544.417 205.621C-522.58 205.621 -501.63 205.621 -479.98 205.621C-479.98 146.664 -479.98 88.8721 -479.98 30.4742C-473.914 30.4742 -468.548 30.4742 -461.736 30.4742C-461.736 34.8121 -462.016 39.3831 -461.596 43.8609C-461.456 45.4468 -459.59 46.8461 -458.516 48.3387C-457.443 46.8461 -455.437 45.4002 -455.437 43.8609C-455.204 31.547 -455.297 19.1864 -455.297 6.21945C-435.42 6.21945 -416.15 6.21945 -396.086 6.21945C-396.086 20.026 -396.086 33.5993 -396.086 46.9861C-391.607 48.4787 -387.361 48.8984 -384.281 51.0441C-378.262 55.242 -375.369 60.8392 -375.509 69.0952C-376.162 100.906 -375.789 132.764 -375.836 164.575C-375.836 167.513 -375.836 170.499 -375.836 173.95C-355.726 173.95 -336.362 173.95 -316.812 173.95C-316.438 170.825 -316.112 167.933 -315.692 164.155C-294.182 164.155 -272.858 164.155 -251.162 164.155C-250.742 160.237 -250.415 157.065 -249.995 153.52C-235.577 153.52 -221.486 153.52 -206.462 153.52C-206.462 162.942 -206.462 171.851 -206.462 181.18C-201.516 181.18 -197.503 181.18 -192.231 181.18C-192.231 167.467 -192.277 153.847 -192.184 140.274C-192.137 136.495 -193.817 131.691 -187.005 131.318C-185.978 131.271 -185.138 127.4 -184.858 126.793C-179.959 123.995 -176.04 121.756 -172.167 119.517C-172.447 118.957 -172.774 118.444 -173.054 117.885C-166.288 117.885 -159.522 117.885 -152.383 117.885C-152.15 122.502 -151.964 126.514 -151.73 131.318C-147.671 131.598 -143.705 131.924 -139.039 132.251C-139.039 152.168 -139.039 171.805 -139.039 191.302C-132.413 192.794 -132.413 192.794 -130.64 181.74C-124.948 181.74 -119.069 181.74 -113.003 181.74C-110.063 166.907 -117.669 151.002 -102.924 138.361C-95.5522 138.361 -85.8003 138.361 -75.6285 138.361C-75.6285 152.914 -75.6285 167.14 -75.6285 181.413C-76.3751 181.46 -77.1216 181.507 -77.8682 181.507C-77.8682 168.586 -77.8682 155.619 -77.8682 142.373C-86.9669 142.373 -94.5257 142.373 -102.085 142.373C-102.178 143.305 -102.271 144.238 -102.411 145.218C-97.2786 145.777 -92.146 146.291 -87.0135 146.85C-86.9202 147.643 -86.8735 148.483 -86.7802 149.276C-93.6858 149.602 -100.591 149.882 -108.057 150.209C-108.057 160.424 -108.057 170.452 -108.057 181.04C-103.438 181.413 -98.9583 181.786 -93.5458 182.206C-93.5458 193.447 -93.5458 204.269 -93.5458 215.556C-89.4398 215.556 -86.267 215.556 -85.5204 215.556C-81.7877 211.872 -79.2213 209.586 -77.0283 207.021C-76.2351 206.134 -75.8152 204.549 -75.8152 203.289C-76.0485 196.339 -73.6222 191.162 -67.0432 187.897C-65.7834 187.244 -65.0368 184.259 -65.1301 182.346C-65.4101 175.303 -66.6233 168.26 -66.4833 161.263C-66.4366 157.672 -63.2171 154.127 -63.2638 150.582C-63.4037 136.402 -64.6636 122.269 -64.7569 108.089C-64.8502 96.9415 -63.6837 85.7936 -63.4504 74.5991C-63.3571 70.0281 -64.2437 65.4103 -64.6636 60.8392C-64.7569 60.0463 -65.1768 58.7869 -64.8036 58.4604C-57.8979 52.3501 -61.5374 44.8871 -61.6307 37.704C-61.724 28.9349 -60.3709 20.1659 -59.6244 11.4435C-58.9711 11.3969 -58.3179 11.3969 -57.618 11.3503C-57.2447 21.5186 -57.0114 31.7336 -56.4982 41.9019C-56.2648 46.9394 -59.671 52.7699 -53.5587 56.7346C-52.9054 57.1544 -52.8588 58.7403 -52.8588 59.7664C-52.8121 75.532 -52.5321 91.3442 -52.812 107.11C-53.092 121.01 -54.2119 134.863 -54.5385 148.763C-54.5851 151.421 -52.6254 154.173 -51.5522 156.832C-51.179 157.812 -50.3391 158.838 -50.4791 159.771C-51.4122 167.42 -52.5321 175.023 -55.0984 182.579C-55.0984 141.393 -55.0984 100.207 -55.0984 58.5071C-57.618 58.5071 -59.6243 58.5071 -62.3773 58.5071C-62.3773 74.6458 -62.6105 90.5979 -62.2839 106.597C-62.0507 119.097 -60.6509 131.551 -60.6042 144.052C-60.5576 156.552 -64.7569 168.866 -62.7039 181.46C-62.2839 184.025 -60.0909 186.358 -58.3645 188.596C-56.1249 191.535 -53.5587 194.194 -51.2256 197.086C-50.1992 198.345 -49.4992 199.838 -47.4462 201.47C-45.6265 189.996 -45.7665 176.656 -29.5756 178.428C-17.2575 179.781 -17.2575 190.509 -17.0242 200.491C-11.7517 200.817 -6.71246 201.144 -1.71985 201.423C-1.71985 202.216 -1.71985 203.056 -1.71985 203.849C-19.3105 203.849 -36.8545 203.849 -55.7983 203.849C-55.7983 213.084 -55.7983 220.734 -55.7983 228.43C-56.6848 228.477 -57.5714 228.477 -58.5045 228.523C-58.9244 223.066 -59.3444 217.655 -59.7643 211.685C-65.4568 211.685 -71.1026 211.685 -77.4483 211.685C-77.9149 213.831 -78.5214 216.349 -79.1747 219.335C-83.6073 219.568 -87.9 219.801 -92.7526 220.034C-92.7526 224.092 -92.7526 227.777 -92.7526 232.115C-90.4663 232.675 -87.9467 233.281 -85.1005 233.981C-84.8205 237.059 -84.5872 239.998 -84.2606 243.543C-68.7696 243.543 -53.232 243.543 -36.7145 243.543C-36.7145 235.94 -36.7145 228.15 -36.7145 219.008C-24.6763 219.008 -11.4717 215.137 -2.88635 219.801C15.3575 229.69 33.368 220.314 50.7254 225.305C52.8717 219.335 51.5653 217.282 46.5728 217.422C41.0669 217.609 35.6077 217.516 30.1019 217.422C27.629 217.376 25.156 216.956 22.4031 215.836C27.6756 213.691 31.9216 211.685 28.1888 204.502C22.4498 204.502 16.244 204.502 10.0383 204.502C9.94501 203.522 9.85168 202.59 9.80499 201.61C15.8707 201.33 21.9365 201.004 28.7954 200.677C29.0754 198.485 29.3553 196.199 29.7753 192.748C17.2239 192.748 5.32568 192.748 -6.57245 192.748C-6.61914 191.815 -6.66583 190.929 -6.71246 189.996C5.09241 189.996 16.8972 189.996 30.8484 189.996C25.3426 176.003 32.6215 164.668 32.1083 152.634C31.5017 139.061 30.0552 125.534 29.9152 111.961C29.7753 99.4602 31.0817 86.9131 31.3617 74.3659C31.455 69.7948 30.5218 65.1771 30.1952 60.5594C30.1019 59.2534 29.822 57.1544 30.4752 56.6879C37.7541 51.5105 33.5547 44.5606 33.7413 38.217C34.068 27.4423 34.9078 16.7143 35.561 5.98623C36.6342 5.98623 37.6608 6.03286 38.7339 6.03286C38.7339 18.9532 38.5472 31.8735 38.8272 44.7938C38.9205 48.7119 36.4009 53.7961 42.3267 56.1282C42.9332 56.3615 43.2132 58.0406 43.2132 59.0668C43.3065 76.7447 43.6331 94.3761 43.2598 112.054C42.9799 125.348 41.4401 138.641 41.1602 151.934C41.0668 157.299 38.1273 163.922 45.1262 168.027C45.8261 168.446 44.0998 172.411 44.0531 174.743C43.8665 180.714 44.0065 186.684 44.0065 193.028C47.7392 193.028 51.1453 193.028 55.3447 193.028C55.3447 181.413 55.3447 170.265 55.3447 158.838C63.5568 158.838 70.929 158.838 78.3478 158.838C78.3945 159.584 78.4412 160.377 78.5345 161.123C72.4221 161.496 66.3097 161.823 59.0308 162.289C59.0308 171.711 58.7509 181.18 59.3107 190.649C59.4041 192.235 62.9502 193.634 66.8696 196.666C58.2842 196.666 51.4253 196.666 44.0997 196.666C44.0997 203.103 44.0997 207.907 44.0997 213.131C47.8325 213.504 51.2853 213.831 55.158 214.157C55.438 217.282 55.718 220.221 56.0446 223.812C59.6373 223.812 63.2768 223.812 67.2429 223.812C67.4761 220.361 67.7095 217.142 67.9427 213.458C70.7423 213.038 73.3553 212.618 76.6681 212.105C76.6681 207.347 76.6681 202.496 76.6681 197.319C79.7476 196.619 82.2672 196.059 85.9067 195.22C85.1601 185.658 84.4136 176.236 83.6671 166.814C83.5737 165.461 83.0604 163.875 83.5737 162.802C91.4592 145.404 87.1664 127.493 85.9533 109.675C85.8134 107.809 85.6267 105.897 85.6267 104.031C85.6267 87.7527 85.6267 71.474 85.6267 55.1954C85.6267 53.8427 85.2534 51.6971 85.86 51.2773C93.6988 46.3797 89.0329 39.3365 89.3128 33.1329C89.7794 22.1249 90.526 11.1637 91.1792 0.155762C92.2524 0.155762 93.2789 0.202394 94.3521 0.202394C94.3521 11.91 94.1654 23.5709 94.4454 35.2785C94.5853 40.7358 90.8992 47.3126 98.2714 51.184C98.7847 51.4639 98.6447 53.2363 98.6447 54.3091C98.6914 71.4274 98.9714 88.499 98.6447 105.617C98.3647 121.709 97.2916 137.755 96.9183 153.8C96.8716 156.272 98.8781 158.744 99.7646 161.31C100.324 162.942 100.978 164.761 100.838 166.441C100.044 176.096 99.018 185.705 97.9915 195.826C102.657 195.826 105.55 195.826 109.19 195.826C107.837 176.003 121.741 172.038 137.932 169.286C137.932 164.855 137.745 160.237 137.979 155.666C138.585 143.632 147.591 134.956 159.209 134.956C170.874 134.956 179.879 143.539 180.579 155.573C180.812 159.864 180.625 164.202 180.625 168.4C203.395 171.385 213.24 178.568 214.687 200.304C227.285 200.304 239.976 200.304 253.321 200.304C253.321 221.76 253.321 242.097 253.321 262.433C252.574 262.48 251.875 262.527 251.128 262.527C251.128 247.507 251.128 232.442 251.128 216.489C228.451 216.489 207.315 215.603 186.411 217.236C182.212 217.562 176.986 222.88 171.107 221.807C168.681 221.387 166.628 218.822 164.201 218.495C160.562 217.982 156.083 217.376 153.283 219.008C149.784 221.06 138.119 223.906 136.812 220.594C134.713 215.323 131.073 216.536 127.48 216.489C111.009 216.396 94.5387 216.583 78.0679 216.349C72.6088 216.256 70.2291 217.889 72.2355 224.372C79.2344 224.372 86.5132 224.372 94.3521 224.372C94.8186 228.523 95.192 231.928 95.5652 235.194C109.61 237.526 109.61 237.526 109.75 252.592C109.796 255.997 109.75 259.402 109.75 262.807C108.723 262.853 107.697 262.9 106.67 262.993C106.297 255.763 105.924 248.487 105.504 240.371C101.071 240.091 96.825 239.765 92.0657 239.438C91.6925 236.08 91.3658 232.908 90.9459 228.99C61.3171 228.99 31.595 228.99 0.566406 228.99C0.566406 235.707 0.566406 242.61 0.566406 249.513C-0.460083 249.56 -1.48663 249.653 -2.46649 249.7C-2.46649 240.977 -2.46649 232.208 -2.46649 223.066C-13.1982 223.066 -22.1567 223.066 -32.5151 223.066C-32.5151 236.126 -32.5151 249.28 -32.5151 262.433C-33.4484 262.48 -34.3815 262.573 -35.3147 262.62C-35.8746 257.956 -36.3879 253.245 -36.9478 248.254C-52.7654 248.254 -68.303 248.254 -84.1206 248.254C-84.4939 253.291 -84.8205 257.909 -85.1471 262.527C-85.9869 262.48 -86.8735 262.48 -87.7134 262.433C-87.7134 254.317 -87.7134 246.155 -87.7134 236.779C-97.7918 236.779 -106.61 236.779 -115.429 236.779C-115.476 235.753 -115.569 234.774 -115.616 233.748C-109.83 233.374 -104.044 233.001 -97.6985 232.628C-97.6985 217.142 -97.6985 201.937 -97.6985 185.471C-106.331 185.471 -115.056 185.191 -123.688 185.704C-125.414 185.798 -126.954 188.783 -128.587 190.462C-128.12 191.395 -127.654 192.281 -127.187 193.214C-119.582 193.214 -111.976 193.214 -104.371 193.214C-104.371 194.147 -104.324 195.08 -104.324 196.013C-115.429 196.013 -126.534 196.013 -138.059 196.013C-138.059 208 -138.059 218.542 -138.059 229.316C-135.119 229.969 -132.367 230.576 -129.614 231.229C-129.614 231.882 -129.614 232.581 -129.614 233.234C-137.499 233.234 -145.385 233.234 -153.69 233.234C-154.017 239.485 -154.25 244.289 -154.53 249.606C-157.376 250.073 -159.942 250.446 -162.975 250.912C-163.302 254.831 -163.628 258.702 -163.955 262.573C-164.608 262.573 -165.308 262.573 -165.961 262.573C-165.961 257.629 -165.961 252.685 -165.961 247.274C-163.815 246.901 -161.249 246.388 -158.356 245.875C-158.076 240.791 -157.843 235.94 -157.563 230.622C-152.523 230.343 -147.951 230.109 -142.772 229.829C-142.772 198.718 -142.772 167.84 -142.772 136.169C-146.504 135.889 -150.47 135.609 -154.996 135.283C-155.416 130.898 -155.79 126.654 -156.256 121.989C-160.642 121.989 -164.702 121.989 -168.761 121.989C-168.481 122.362 -168.201 122.689 -167.921 123.062C-171.747 125.394 -175.62 127.726 -180.612 130.758C-181.966 132.251 -184.532 135.003 -188.171 138.921C-188.171 165.788 -188.171 194.52 -188.171 223.906C-185.465 224.326 -182.899 224.699 -180.053 225.118C-179.586 227.637 -179.119 229.969 -178.699 232.395C-175.667 233.001 -172.867 233.561 -170.067 234.121C-170.067 234.82 -170.067 235.473 -170.067 236.173C-173.987 236.453 -177.906 236.779 -182.292 237.106C-182.805 233.981 -183.179 231.649 -183.692 228.197C-195.217 228.197 -206.835 228.197 -218.453 228.197C-218.5 227.264 -218.547 226.285 -218.593 225.352C-210.055 225.352 -201.469 225.352 -192.511 225.352C-192.511 211.405 -192.511 199.185 -192.511 185.984C-198.063 185.751 -203.616 185.471 -209.961 185.191C-209.961 175.909 -209.961 166.954 -209.961 157.392C-222.279 157.392 -233.898 157.392 -246.076 157.392C-246.076 178.708 -246.076 199.931 -246.076 221.527C-242.11 221.9 -238.657 222.18 -234.271 222.6C-234.271 231.415 -234.271 240.091 -234.271 249.467C-221.953 249.467 -210.521 249.467 -198.483 249.467C-198.483 254.364 -198.483 258.515 -198.483 262.667C-199.136 262.807 -199.836 262.9 -200.489 263.04C-201.003 260.241 -201.469 257.443 -202.169 253.571C-213.554 253.571 -225.219 253.571 -237.77 253.571C-237.77 243.963 -237.77 235.333 -237.77 226.238C-244.069 226.238 -249.389 226.238 -255.361 226.238C-255.641 230.529 -255.968 234.774 -256.294 239.811C-263.386 239.811 -270.152 239.811 -277.384 239.811C-277.384 243.216 -277.384 245.875 -277.384 249.513C-272.065 249.513 -266.746 249.513 -260.634 249.513C-260.867 254.644 -261.053 258.655 -261.24 262.667C-261.987 262.713 -262.687 262.713 -263.433 262.76C-263.993 260.055 -264.553 257.349 -265.393 253.105C-280.044 253.105 -295.115 253.105 -310.139 253.105C-310.139 252.172 -310.139 251.192 -310.139 250.259C-301.087 250.259 -292.082 250.259 -282.47 250.259C-282.004 245.082 -281.63 241.164 -281.164 236.36C-274.165 236.36 -267.399 236.36 -260.074 236.36C-259.794 231.462 -259.514 227.451 -259.234 222.973C-256.574 222.413 -254.008 221.9 -250.882 221.294C-250.882 203.849 -250.882 186.404 -250.882 168.493C-270.945 168.493 -290.869 168.493 -312.192 168.493C-312.192 179.221 -312.192 190.182 -312.192 201.144C-313.265 201.19 -314.339 201.283 -315.412 201.33C-315.785 193.914 -316.205 186.497 -316.578 178.755C-336.175 178.755 -355.306 178.755 -375.089 178.755C-375.463 184.445 -375.883 190.089 -376.256 195.733C-377.049 195.733 -377.889 195.733 -378.682 195.733C-378.869 192.701 -379.242 189.716 -379.242 186.684C-379.289 147.177 -379.289 107.67 -379.335 68.1157C-379.335 57.6675 -384.328 52.5833 -394.593 52.5366C-414.89 52.49 -435.233 52.5366 -455.53 52.5366C-458.47 52.5366 -461.409 52.5366 -465.235 52.5366C-465.235 45.8666 -465.235 40.2694 -465.235 34.1591C-469.015 34.1591 -471.908 34.1591 -475.454 34.1591C-475.454 90.7845 -475.454 147.457 -475.454 204.922C-473.448 205.108 -471.161 205.295 -467.428 205.621C-467.428 191.535 -467.428 178.242 -467.428 164.901C-466.542 164.901 -465.655 164.901 -464.769 164.901C-464.769 178.008 -464.769 191.069 -464.769 205.108C-457.163 205.108 -450.724 205.108 -443.399 205.108C-443.399 212.758 -443.399 219.475 -443.399 226.844C-431.967 226.844 -421.422 226.844 -409.897 226.844C-409.897 220.407 -409.897 213.737 -409.897 206.041C-403.692 205.761 -398.372 205.528 -391.747 205.202C-391.747 199.418 -391.747 193.914 -391.747 188.456C-390.86 188.41 -389.974 188.363 -389.087 188.317C-388.761 190.416 -388.247 192.515 -388.201 194.613C-387.827 208.373 -384.328 211.778 -370.47 211.778C-365.804 211.778 -361.138 211.872 -356.472 211.685C-354.932 211.638 -352.973 211.452 -351.946 210.519C-344.621 203.756 -340.421 204.082 -332.209 209.819C-329.083 212.012 -323.81 211.125 -318.911 211.685C-318.911 228.57 -318.911 245.642 -318.911 262.713C-319.611 262.76 -320.264 262.76 -320.964 262.807C-320.964 247.228 -320.964 231.695 -320.964 215.183C-324.93 214.997 -327.917 215.23 -330.669 214.577C-332.862 214.064 -334.869 212.618 -336.782 211.265C-340.655 208.467 -344.014 207.487 -347.607 211.965C-348.96 213.691 -351.48 215.323 -353.533 215.463C-361.185 215.883 -368.884 215.836 -376.582 215.556C-380.455 215.417 -384.048 216.676 -387.221 211.032C-388.994 207.954 -398.606 209.446 -405.231 208.84C-405.231 215.557 -405.231 220.921 -405.231 227.311C-397.999 227.311 -390.767 227.311 -382.975 227.311C-382.975 232.535 -382.975 236.733 -382.975 241.397C-410.131 241.397 -437.24 241.397 -464.349 241.397C-464.442 240.697 -464.489 239.998 -464.582 239.298C-461.923 239.018 -459.263 238.552 -456.603 238.552C-435.187 238.505 -413.77 238.459 -392.353 238.552C-387.641 238.552 -384.608 237.759 -386.987 231.462C-410.037 231.462 -433.32 231.462 -456.977 231.462C-457.677 228.43 -458.237 225.911 -458.89 223.159C-467.475 223.159 -475.827 223.159 -484.739 223.159C-484.739 228.104 -484.739 232.628 -484.739 237.572C-482.033 238.132 -479.467 238.645 -476.574 239.205C-476.574 247.041 -476.574 254.877 -476.574 262.667C-477.32 262.76 -478.02 262.853 -478.767 262.9C-478.767 256.323 -478.767 249.746 -478.767 242.703C-486.512 242.703 -492.671 242.703 -499.39 242.703C-499.717 249.513 -499.997 256.137 -500.323 262.713C-501.07 262.713 -501.77 262.667 -502.516 262.667C-502.516 254.924 -502.516 247.181 -502.516 238.972C-498.41 238.645 -494.118 238.319 -489.452 237.945C-489.452 228.523 -489.452 219.568 -489.452 209.913C-505.969 209.913 -522.533 209.913 -539.657 209.913C-539.657 222.46 -539.657 234.914 -539.657 247.974C-535.551 248.3 -531.819 248.58 -528.086 248.86C-528.086 253.571 -528.086 258.096 -528.086 262.62C-529.019 262.48 -529.626 262.48 -530.232 262.48ZM80.7741 212.711C97.1049 212.711 112.923 212.571 128.787 212.805C132.893 212.851 138.119 210.519 140.405 217.049C140.685 217.842 146.564 218.122 148.43 216.723C155.569 211.312 161.775 211.452 168.494 216.396C170.78 218.075 175.446 217.142 178.852 216.489C181.792 215.93 184.405 212.991 187.204 212.898C198.729 212.478 210.254 212.711 221.779 212.711C231.018 212.711 240.256 212.711 250.102 212.711C249.822 209.353 249.635 207.021 249.402 203.802C236.15 203.802 223.412 203.802 210.861 203.802C210.348 199.045 209.974 195.266 209.741 192.888C205.215 194.334 201.856 196.246 198.449 196.386C187.204 196.759 175.96 196.526 164.715 196.526C158.556 196.526 152.396 196.526 146.377 196.526C145.911 200.77 145.584 203.662 145.304 206.088C137.652 206.088 130.56 206.088 123.514 206.088C123.468 205.248 123.468 204.409 123.421 203.569C129.487 203.569 135.552 203.569 142.178 203.569C142.178 195.22 142.598 188.037 141.945 180.993C141.711 178.475 139.612 175.116 137.372 173.997C130.7 170.685 116.329 179.081 114.182 187.897C120.668 187.897 126.92 187.897 133.173 187.897C133.173 188.503 133.173 189.11 133.126 189.763C126.687 189.763 120.248 189.763 113.576 189.763C113.203 193.447 112.922 196.293 112.549 199.978C101.771 199.978 91.4592 199.978 80.7741 199.978C80.7741 204.315 80.7741 207.767 80.7741 212.711ZM-414.097 29.7745C-414.05 30.754 -414.05 31.7335 -414.003 32.7131C-426.275 32.7131 -438.546 32.7131 -450.771 32.7131C-450.864 39.4297 -450.864 39.4298 -434.767 39.4298C-427.861 39.4298 -420.956 39.4298 -414.05 39.4298C-414.097 40.6425 -414.143 41.8553 -414.19 43.068C-416.756 43.068 -419.369 43.068 -421.935 43.068C-430.427 43.068 -438.919 42.9747 -447.412 43.2079C-448.811 43.2545 -450.118 44.8871 -451.471 45.82C-450.351 46.7062 -449.278 48.3387 -448.158 48.3387C-432.107 48.5253 -416.103 48.432 -399.819 48.432C-399.819 38.1704 -399.819 29.2148 -399.819 20.2592C-403.225 19.6062 -406.258 19.0464 -409.291 18.4401C-407.098 16.1545 -404.811 16.1079 -402.712 15.4082C-401.499 14.9884 -399.819 13.5891 -399.772 12.6096C-399.725 11.6301 -401.452 9.6244 -402.432 9.6244C-417.783 9.43783 -433.134 9.43784 -448.485 9.57777C-449.511 9.57777 -451.238 11.4436 -451.284 12.4697C-451.284 13.4492 -449.698 14.9884 -448.485 15.4082C-446.385 16.1079 -444.052 16.1079 -441.812 16.4344C-441.812 17.0874 -441.812 17.7404 -441.766 18.3934C-444.799 18.9532 -447.785 19.5596 -451.098 20.1659C-451.098 23.0578 -451.098 25.9497 -451.098 29.6812C-438.546 29.7745 -426.321 29.7745 -414.097 29.7745ZM31.3151 213.597C35.4211 213.411 37.7074 213.318 40.7403 213.178C40.7403 204.455 41.3935 196.246 40.5536 188.177C39.7604 180.527 43.3532 173.111 39.2471 165.041C36.6808 160.05 38.5939 152.681 38.7806 146.384C39.1538 134.49 39.9937 122.549 40.1804 110.655C40.4136 93.3033 40.227 75.9985 40.227 58.4138C37.5674 58.4138 35.0478 58.4138 32.9015 58.4138C33.2747 62.4718 33.928 65.9701 33.8813 69.4683C33.5081 83.8812 32.4349 98.3408 32.5282 112.754C32.6215 129.079 33.788 145.358 34.1146 161.683C34.1613 164.575 32.4349 167.513 31.3617 170.918C31.315 184.212 31.3151 198.298 31.3151 213.597ZM96.9183 196.153C95.9851 171.805 94.772 148.436 94.3054 125.114C93.8388 101.093 94.2121 77.0713 94.2121 52.8632C93.1389 52.8632 90.7126 52.8632 88.2863 52.8632C88.7529 56.5014 89.3594 59.44 89.4061 62.3785C89.6394 81.5957 89.826 100.86 89.9194 120.077C90.0127 132.158 90.106 144.238 89.7794 156.272C89.6861 159.211 87.8663 162.103 86.8398 165.088C86.8398 174.93 86.8398 185.191 86.8398 195.173C88.9395 195.733 89.6861 196.106 90.4793 196.153C92.1124 196.199 93.7454 196.153 96.9183 196.153ZM206.988 185.565C200.596 174.417 184.825 169.846 169.147 174.51C158.089 177.775 154.31 182.486 155.056 192.888C165.321 192.888 175.68 192.981 185.991 192.841C193.55 192.748 202.042 195.173 206.988 185.565ZM147.777 192.934C150.81 187.524 152.816 180.714 157.296 176.796C162.335 172.411 169.707 170.685 176.053 167.793C176.053 164.668 176.053 161.03 176.053 157.532C164.201 157.532 153.143 157.532 141.385 157.532C141.385 160.983 140.872 164.062 141.478 166.907C143.205 175.163 145.398 183.279 147.777 192.934ZM142.131 154.873C147.917 154.873 153.563 154.873 159.255 154.873C164.855 154.873 170.454 154.873 176.193 154.873C174.093 143.725 168.121 138.454 158.882 138.548C149.737 138.641 143.764 144.238 142.131 154.873ZM-447.178 209.586C-460.243 209.586 -472.608 209.586 -485.579 209.586C-485.392 212.944 -485.252 215.743 -485.066 219.101C-474.707 219.101 -465.235 219.101 -455.624 219.101C-454.364 223.626 -455.484 230.856 -447.225 225.911C-447.178 220.921 -447.178 215.743 -447.178 209.586ZM-41.7537 188.923C-37.3211 189.296 -33.8217 189.623 -30.3221 189.949C-30.3221 190.369 -30.3688 190.742 -30.3688 191.162C-34.0549 191.442 -37.741 191.722 -41.7071 192.001C-41.7071 195.08 -41.7071 197.692 -41.7071 200.677C-34.8948 200.677 -28.4558 200.677 -22.1101 200.677C-20.2437 189.809 -22.11 184.445 -28.5491 182.439C-34.4749 180.62 -38.3943 183.139 -41.7537 188.923ZM-60.1843 207.207C-59.7177 205.575 -59.3911 203.756 -58.6445 202.123C-57.7579 200.117 -55.285 196.946 -55.6583 196.572C-57.8979 194.52 -60.7442 191.861 -63.3571 191.908C-65.97 191.955 -69.5629 194.38 -70.8226 196.759C-72.2691 199.511 -71.6625 203.383 -71.9424 207.207C-67.5565 207.207 -64.1036 207.207 -60.1843 207.207Z" fill="#A09F9D"/>
<path d="M300.587 243.449C300.867 245.362 301.24 247.694 301.614 250.399C319.718 250.399 337.495 250.399 355.739 250.399C356.205 248.207 356.672 245.875 357.325 242.703C365.491 242.703 373.889 242.703 382.755 242.703C382.755 237.059 382.755 232.302 382.755 226.751C374.729 226.751 366.844 226.751 357.652 226.751C357.652 220.967 357.652 215.883 357.652 210.799C357.652 205.388 355.086 202.729 349.533 202.916C344.401 203.056 339.268 202.963 333.809 202.963C333.436 209.4 333.156 214.95 332.829 220.501C332.036 220.547 331.243 220.641 330.496 220.687C329.936 216.536 329.423 212.385 328.723 206.787C308.193 206.787 287.709 206.787 267.226 206.787C267.226 205.901 267.179 205.062 267.179 204.175C271.892 203.802 276.604 203.476 281.877 203.103C281.877 195.593 281.877 188.363 281.877 179.734C265.266 179.734 248.562 179.734 233.444 179.734C235.404 173.297 237.037 167.747 238.857 161.776C241.003 161.776 243.943 161.776 247.255 161.776C247.582 166.534 247.862 170.825 248.189 175.629C254.534 175.629 260.74 175.629 267.459 175.629C267.459 168.493 267.459 161.543 267.459 153.987C251.081 153.987 234.751 153.987 216.973 153.987C216.973 161.87 216.973 169.752 216.973 177.635C216.18 177.635 215.387 177.589 214.594 177.589C214.594 168.68 214.594 159.817 214.594 150.349C233.211 150.349 251.968 150.349 271.565 150.349C271.565 158.791 271.565 166.907 271.565 175.583C276.558 175.956 280.804 176.236 286.029 176.609C286.029 185.425 286.029 194.054 286.029 203.382C299.841 203.382 313.279 205.715 325.317 202.59C334.042 200.351 342.347 199.698 350.979 199.091C352.799 198.951 354.899 197.319 356.205 195.826C366.797 183.606 377.342 171.292 387.607 158.791C389.474 156.506 390.5 152.961 390.687 149.929C391.153 142.886 390.827 135.749 390.827 128.053C396.146 127.726 400.672 127.446 405.664 127.167C405.944 123.948 406.178 121.056 406.504 117.651C409.397 117.371 412.01 117.092 415.09 116.765C415.51 113.267 415.883 109.862 416.303 106.084C420.129 106.084 423.628 106.084 428.248 106.084C428.248 113.827 428.248 121.569 428.248 129.685C431.794 129.825 434.173 129.965 436.693 130.059C441.686 112.007 431.607 92.0439 444.392 74.5525C455.45 87.5661 449.711 101.886 450.878 115.272C449.758 115.366 448.638 115.506 447.471 115.599C447.471 104.731 447.471 93.8164 447.471 82.9484C446.212 82.8551 444.952 82.7618 443.692 82.6685C442.992 85.5138 441.826 88.3124 441.732 91.2043C441.499 101.606 441.499 112.054 441.779 122.456C441.826 124.974 443.412 127.446 444.298 129.965C445.652 127.68 447.005 125.441 449.244 121.663C451.624 121.663 455.637 121.803 459.65 121.616C461.749 121.523 464.176 121.476 465.949 120.497C481.206 111.821 487.319 113.36 495.344 128.099C495.764 128.892 496.884 129.312 497.63 129.919C498.983 127.96 500.383 126 501.97 123.668C507.615 123.668 513.775 123.668 519.934 123.668C520.027 124.461 520.12 125.208 520.167 126C515.221 126.42 510.275 126.887 504.909 127.353C504.256 136.542 497.677 133.324 492.498 133.417C489.838 120.73 486.899 117.931 475.84 119.844C472.807 120.357 469.168 124.228 468.142 127.307C466.788 131.225 467.535 136.029 468.002 140.367C468.188 141.906 470.148 143.305 471.314 144.751C472.481 143.305 474.067 141.999 474.674 140.367C475.374 138.454 475.28 136.262 475.514 134.163C476.214 134.117 476.914 134.023 477.567 133.977C478.033 137.148 478.5 140.32 479.06 144.192C490.538 144.192 502.156 144.192 514.334 144.192C514.661 140.693 514.941 137.288 515.314 132.95C518.534 132.95 521.473 133.044 524.366 132.904C525.953 132.857 528.846 132.624 528.939 132.111C530.385 123.902 536.778 127.54 541.257 126.793C545.316 126.094 549.002 127.586 552.922 122.502C555.581 119.097 565.053 121.01 571.726 120.497C572.239 124.228 572.612 126.793 573.079 130.012C581.058 130.012 588.71 130.432 596.315 129.779C598.555 129.592 600.561 126.327 603.641 123.622C607.56 124.508 615.632 118.771 617.452 130.059C622.491 130.059 627.717 128.986 632.29 130.245C654.826 136.402 677.923 132.437 698.919 134.07C701.252 138.454 702.932 141.58 704.659 144.751C706.338 140.413 708.018 136.122 710.211 130.385C717.49 130.385 726.355 130.385 735.361 130.385C735.92 127.027 736.34 124.648 736.854 121.569C743.713 121.569 750.665 121.569 758.224 121.569C758.69 123.622 759.157 125.861 759.717 128.426C765.596 128.426 771.242 128.426 777.261 128.426C777.774 125.954 778.241 123.668 778.754 121.15C785.659 121.15 792.192 121.15 799.237 121.15C799.751 123.622 800.217 125.907 800.731 128.613C807.45 128.613 813.982 128.613 821.587 128.613C821.587 142.093 821.587 155.06 821.587 169.053C829.006 169.053 835.445 169.053 842.491 169.053C842.864 174.743 843.191 179.548 843.471 184.398C846.877 184.772 849.816 185.051 853.129 185.378C854.249 193.028 851.869 203.336 865.354 201.05C865.727 204.968 866.054 208.14 866.38 211.685C871.28 212.012 875.852 212.338 880.518 212.665C880.518 229.456 880.518 245.922 880.518 262.34C879.772 262.387 879.025 262.433 878.279 262.527C877.859 257.443 877.485 252.358 876.972 246.155C861.621 246.155 846.13 246.155 829.939 246.155C829.939 236.453 829.939 227.731 829.939 218.448C819.768 218.448 810.342 218.448 799.517 218.448C799.517 233.281 799.517 247.974 799.517 262.713C798.724 262.713 797.978 262.667 797.184 262.667C797.184 246.854 797.184 231.042 797.184 214.624C800.451 214.39 803.903 214.157 807.636 213.877C809.689 209.819 809.316 207.301 803.81 207.347C795.318 207.44 786.826 207.394 777.727 207.394C777.727 214.903 777.727 221.853 777.727 229.176C780.574 229.69 783.466 230.203 786.453 230.716C786.453 241.537 786.453 252.032 786.453 262.527C785.706 262.573 784.96 262.62 784.166 262.713C784.166 253.338 784.166 243.963 784.166 234.167C770.355 234.167 758.13 234.167 745.252 234.167C744.926 239.438 744.646 244.476 744.273 250.633C729.948 250.633 715.95 250.633 701.532 250.633C701.206 255.157 700.972 258.982 700.552 264.766C696.073 255.95 697.473 252.358 701.019 246.341C703.352 242.423 702.466 236.593 703.072 231.089C692.014 231.089 682.262 231.089 671.484 231.089C671.484 237.199 671.484 243.356 671.484 250.073C665.185 250.399 659.865 250.679 654.08 250.959C653.706 255.11 653.333 258.889 653.007 262.667C652.26 262.667 651.513 262.62 650.72 262.62C650.72 248.114 650.72 233.654 650.72 218.448C634.903 218.448 620.205 218.448 604.107 218.448C604.107 233.001 604.107 247.741 604.107 262.527C603.127 262.527 602.148 262.573 601.168 262.573C600.841 256.65 600.515 250.773 600.141 243.823C591.929 243.823 583.857 243.823 574.852 243.823C574.852 227.591 574.852 212.338 574.852 196.806C559.687 196.806 545.456 196.806 530.152 196.806C530.152 211.778 530.152 226.658 530.152 241.817C514.521 241.817 499.963 241.817 485.452 241.817C485.405 241.117 485.359 240.418 485.359 239.671C498.61 239.671 511.862 239.671 525.673 239.671C525.673 234.074 525.673 229.829 525.673 224.605C517.741 224.605 506.262 221.247 502.156 225.305C493.291 234.074 484.472 227.404 475.794 230.529C475.094 226.984 474.581 224.419 473.974 221.294C468.188 221.294 462.356 221.294 455.963 221.294C455.963 226.378 455.963 231.135 455.963 236.546C461.189 236.779 466.275 237.059 471.781 237.292C471.781 245.922 471.781 254.131 471.781 262.387C471.081 262.433 470.381 262.527 469.681 262.573C469.681 255.623 469.681 248.674 469.681 240.884C463.196 240.884 458.156 240.884 452.091 240.884C452.091 229.55 452.091 219.008 452.091 207.86C443.879 207.86 436.646 207.86 428.574 207.86C428.574 215.696 428.574 223.533 428.574 229.876C424.282 232.395 421.202 234.167 418.123 235.94C421.015 237.292 423.908 238.598 427.501 240.278C427.501 246.948 427.501 254.737 427.501 262.527C426.708 262.573 425.961 262.62 425.168 262.62C424.841 256.137 424.468 249.653 424.048 240.837C416.909 242.61 410.61 244.616 404.125 245.642C399.039 246.435 393.72 246.015 388.494 246.015C379.488 246.061 370.437 246.015 360.498 246.015C360.218 251.845 359.938 257.256 359.658 262.667C358.958 262.713 358.212 262.76 357.512 262.76C356.952 260.381 356.392 258.002 355.645 254.831C336.795 254.831 317.711 254.831 298.301 254.831C297.601 251.659 297.041 249.14 296.248 245.548C286.589 245.548 276.978 245.548 267.366 245.548C267.366 244.802 267.366 244.056 267.366 243.309C278.377 243.449 289.202 243.449 300.587 243.449ZM625.571 199.744C639.102 199.744 651.56 199.744 664.018 199.744C664.671 202.776 665.185 205.295 665.745 208.047C673.117 208.047 679.976 208.187 686.788 208C692.014 207.86 697.006 207.674 696.4 214.997C704.425 214.997 711.937 214.997 720.383 214.997C720.383 203.569 720.383 192.748 720.383 181.74C726.075 181.74 730.788 181.74 736.48 181.74C736.48 193.401 736.48 204.549 736.48 216.256C743.339 216.256 749.312 216.256 755.704 216.256C756.077 220.874 756.357 224.839 756.684 229.27C762.376 229.27 767.649 229.27 773.761 229.27C773.761 220.641 773.761 212.525 773.761 204.082C787.059 204.082 799.517 204.082 812.255 204.082C812.629 207.58 812.955 210.472 813.375 214.344C819.954 214.344 826.44 214.344 833.905 214.344C833.905 224.139 833.905 233.048 833.905 241.63C849.116 241.63 863.208 241.63 877.112 241.63C877.112 232.815 877.112 224.745 877.112 215.93C873.519 215.93 870.533 215.603 867.594 215.976C858.635 217.189 851.869 214.157 846.224 207.067C842.491 202.403 837.685 198.578 832.786 193.867C832.039 198.158 831.526 200.91 831.059 203.709C830.733 203.662 830.359 203.616 830.033 203.616C829.799 199.651 829.519 195.686 829.239 190.929C819.254 190.929 809.689 190.649 800.124 191.022C788.319 191.442 785.706 178.755 775.628 174.51C775.628 180.107 775.628 185.005 775.628 189.902C773.668 183.139 775.441 174.557 771.895 170.265C768.489 166.114 759.67 166.394 752.578 164.575C752.111 170.825 751.785 174.65 751.505 178.475C750.992 178.475 750.525 178.475 750.012 178.475C749.545 174.417 749.125 170.359 748.659 166.441C725.702 165.088 725.329 165.135 722.343 169.752C713.851 162.383 704.332 167.513 694.58 166.254C694.58 174.976 694.58 182.486 694.58 189.996C693.927 189.996 693.274 189.996 692.62 189.996C692.62 182.206 692.62 174.463 692.62 166.627C686.135 166.627 680.769 166.627 675.216 166.627C674.89 170.359 674.61 173.577 674.33 176.796C675.17 164.202 666.071 158.838 656.879 151.095C656.879 164.761 656.879 176.656 656.879 188.55C656.179 188.55 655.433 188.55 654.733 188.55C654.733 175.303 654.733 162.103 654.733 149.089C645.681 149.089 637.842 149.089 629.49 149.089C629.21 155.106 628.977 160.657 628.744 166.207C628.044 166.161 627.39 166.114 626.691 166.067C626.691 160.424 626.691 154.826 626.691 148.903C615.819 148.903 605.74 148.903 594.496 148.903C594.496 161.217 594.496 173.297 594.496 185.331C593.702 185.331 592.909 185.331 592.163 185.285C592.163 173.111 592.163 160.983 592.163 148.996C582.364 148.996 573.639 148.996 563.98 148.996C563.98 159.771 563.98 170.172 563.98 180.527C563.234 180.527 562.534 180.527 561.787 180.527C561.787 170.125 561.787 159.724 561.787 149.182C551.475 149.182 542.33 149.182 533.185 149.182C532.858 154.127 532.578 158.465 532.298 162.802C531.738 162.756 531.132 162.756 530.572 162.709C530.292 158.278 530.012 153.8 529.732 149.043C521.847 149.043 514.288 149.043 505.609 149.043C505.609 163.735 505.609 177.962 505.609 192.188C504.909 192.188 504.209 192.188 503.509 192.141C503.509 177.868 503.509 163.595 503.509 149.043C496.464 149.043 490.351 149.043 483.399 149.043C483.399 156.459 483.399 163.316 483.399 170.219C482.699 170.219 481.999 170.219 481.299 170.265C481.299 163.176 481.299 156.086 481.299 149.089C473.274 149.089 466.555 149.089 458.996 149.089C458.996 161.543 458.996 173.484 458.996 185.425C458.343 185.425 457.643 185.425 456.99 185.425C456.99 173.297 456.99 161.123 456.99 149.136C451.017 149.136 446.212 149.136 440.706 149.136C440.706 154.267 440.706 158.744 440.706 163.269C440.239 163.269 439.773 163.269 439.306 163.315C438.979 158.558 438.653 153.847 438.326 148.996C431.467 148.996 425.308 148.996 417.936 148.996C417.936 161.31 417.936 173.157 417.936 185.052C417.236 185.052 416.583 185.005 415.883 185.005C415.883 174.23 415.883 163.455 415.883 152.867C410.564 155.339 405.804 157.532 399.599 160.377C399.599 164.715 399.599 170.732 399.599 176.702C399.085 176.702 398.572 176.702 398.012 176.702C397.732 170.639 397.452 164.575 397.126 157.718C379.535 164.482 383.501 179.874 380.468 192.235C380.188 186.731 379.908 181.273 379.582 174.277C371.323 183.979 364.277 192.281 359.098 198.345C360.358 208.047 361.338 215.323 362.364 223.299C370.483 223.299 378.322 223.299 386.954 223.299C386.954 230.016 386.954 235.986 386.954 243.729C396.659 241.724 405.245 239.951 414.017 238.179C414.25 235.24 414.483 232.581 414.763 229.596C418.029 229.27 420.969 228.943 424.002 228.617C424.002 225.678 424.002 223.113 424.002 219.381C414.156 219.381 404.825 219.381 395.539 219.381C395.539 218.495 395.493 217.655 395.493 216.769C405.011 216.769 414.53 216.769 424.142 216.769C424.468 211.825 424.748 208.327 425.028 204.362C435.153 204.362 445.092 204.362 455.077 204.362C455.404 209.073 455.637 213.038 455.917 217.469C463.709 217.469 470.708 217.469 477.987 217.469C478.267 220.547 478.5 223.159 478.78 226.005C484.379 226.005 492.591 228.01 494.131 225.632C499.123 217.982 505.656 221.713 511.488 221.014C516.201 220.407 521.053 220.874 526.699 220.874C526.699 210.892 526.699 202.216 526.699 193.727C544.383 193.727 561.227 193.727 578.911 193.727C578.911 209.353 578.911 224.326 578.911 239.718C586.47 239.718 593.189 239.718 600.795 239.718C600.795 231.089 600.795 223.019 600.795 213.924C609.427 213.924 617.219 213.924 625.384 213.924C625.571 208.7 625.571 204.642 625.571 199.744ZM818.134 132.671C797.418 132.671 777.028 132.671 756.171 132.671C755.704 129.592 755.331 127.353 754.958 125.021C749.872 125.021 745.346 125.021 740.82 125.021C740.26 128.053 739.793 130.618 739.233 133.883C730.181 133.883 721.549 133.883 712.591 133.883C712.591 143.539 712.591 152.401 712.591 162.103C725.375 162.103 737.74 163.082 749.872 161.87C764.849 160.33 776.794 164.202 785.146 176.796C793.545 189.436 805.583 187.71 818.134 186.497C818.134 168.773 818.134 151.561 818.134 132.671ZM654.173 214.111C654.173 225.725 654.173 236.033 654.173 246.435C658.979 246.435 662.992 246.435 667.938 246.435C667.938 239.858 667.938 233.701 667.938 227.637C681.329 227.637 693.74 227.637 706.852 227.637C706.852 234.307 706.852 240.231 706.852 246.388C711.517 246.388 715.437 246.388 719.776 246.388C719.776 237.246 719.776 228.617 719.776 219.381C710.631 219.381 701.952 219.381 692.9 219.381C692.247 216.629 691.687 214.437 690.987 211.638C681.142 211.638 671.67 211.638 661.965 211.638C661.312 208.467 660.752 205.901 660.192 203.429C649.787 203.429 639.802 203.429 629.583 203.429C629.583 207.114 629.583 210.239 629.583 214.157C637.656 214.111 645.214 214.111 654.173 214.111ZM394.979 131.831C394.979 139.481 394.979 146.524 394.979 155.246C400.392 153.893 406.644 154.127 409.537 151.141C415.043 145.498 420.875 144.565 427.968 144.705C439.912 145.031 451.811 144.798 463.616 144.798C463.616 137.522 463.616 131.644 463.616 125.674C459.23 125.674 455.497 125.674 451.671 125.674C450.971 128.473 450.364 130.991 449.851 133.137C441.359 133.137 433.52 133.137 424.795 133.137C424.795 127.773 425.075 122.875 424.701 118.024C424.468 115.133 423.255 112.287 422.462 109.442C421.389 112.334 420.362 115.226 419.289 118.118C419.009 118.864 418.682 119.564 418.402 120.263C415.603 120.637 412.99 120.963 410.284 121.336C409.91 124.694 409.631 127.586 409.257 130.851C404.591 131.178 400.252 131.458 394.979 131.831ZM616.939 144.798C627.95 144.798 638.075 145.218 648.107 144.658C654.733 144.285 660.099 145.871 663.645 151.421C671.997 164.482 684.362 162.942 697.1 161.59C697.1 153.427 697.1 145.684 697.1 137.428C680.069 137.428 663.692 137.428 647.314 137.428C644.888 137.428 642.368 137.428 639.989 137.008C632.476 135.609 625.011 133.977 616.939 132.344C616.939 137.708 616.939 140.647 616.939 144.798ZM724.536 185.098C724.536 205.995 724.536 226.098 724.536 246.388C730.181 246.388 735.267 246.388 740.68 246.388C740.96 240.837 741.193 235.8 741.473 230.389C745.299 230.016 748.472 229.69 752.065 229.363C752.065 226.285 752.065 223.439 752.065 219.568C745.486 219.568 739.327 219.568 732.374 219.568C732.374 207.487 732.374 196.433 732.374 185.098C729.341 185.098 727.242 185.098 724.536 185.098ZM568.553 124.041C563.794 124.741 556.888 124.321 556.188 126.187C554.322 131.178 551.149 129.919 547.883 130.432C542.47 131.318 535.005 126.793 532.345 135.936C532.158 136.589 529.312 136.542 527.726 136.589C524.833 136.682 521.94 136.635 518.627 136.635C518.767 139.854 518.86 141.906 519 144.285C535.658 144.285 551.895 144.285 568.553 144.285C568.553 137.895 568.553 131.924 568.553 124.041ZM822.894 173.344C822.894 178.288 822.894 182.486 822.894 186.637C823.5 186.124 824.107 185.611 824.714 185.098C829.24 187.99 834.139 190.369 838.198 193.821C843.611 198.392 848.183 203.942 853.456 208.7C855.509 210.566 858.448 211.452 861.015 212.758C862.181 209.073 861.994 205.481 861.294 205.388C851.636 203.942 849.863 196.759 849.35 188.97C845.897 188.55 843.004 188.223 839.878 187.803C839.645 182.813 839.411 178.241 839.131 173.344C833.532 173.344 828.4 173.344 822.894 173.344ZM600.375 134.07C597.668 133.93 595.242 133.697 592.862 133.65C586.377 133.603 579.891 133.65 573.032 133.65C573.032 137.568 573.032 140.693 573.032 144.332C575.692 144.471 578.071 144.751 580.451 144.751C586.937 144.798 593.422 144.751 600.141 144.751C600.421 142.606 600.701 141.3 600.701 140.04C600.701 138.221 600.515 136.355 600.375 134.07ZM612.319 127.12C603.874 127.213 603.641 128.053 604.341 139.9C604.714 146.43 608.353 144.611 612.319 144.332C612.319 138.454 612.319 133.09 612.319 127.12ZM709.325 161.077C707.831 156.645 706.525 152.587 705.172 148.529C703.912 150.628 701.719 152.681 701.532 154.873C701.019 161.45 701.299 161.496 709.325 161.077ZM796.158 127.913C796.205 127.213 796.251 126.514 796.344 125.814C791.585 125.814 786.826 125.814 782.113 125.814C782.113 126.514 782.113 127.213 782.113 127.913C786.779 127.913 791.445 127.913 796.158 127.913Z" fill="#A09F9D"/>
<path d="M0.891819 157.205C0.471882 159.584 0.0519142 161.87 -0.368023 164.388C-3.12093 164.622 -5.50053 164.855 -7.97349 165.088C-10.2131 176.982 -19.0785 169.332 -24.9576 171.711C-25.7974 168.773 -26.404 166.487 -27.0572 164.108C-31.9098 163.875 -36.4825 163.689 -41.9883 163.409C-33.263 157.019 -23.3711 159.304 -21.2248 167.607C-17.7253 167.327 -13.246 170.265 -12.0329 163.269C-11.7996 161.823 -7.27358 161.077 -4.05408 159.677C-3.72746 158.138 -3.21421 155.852 -2.65429 153.38C2.61823 153.38 7.47079 153.38 12.1834 153.38C18.3425 161.496 6.53761 174.557 20.3022 181.646C17.2226 181.973 14.1898 182.299 10.0371 182.719C10.0371 173.67 10.0371 165.601 10.0371 157.112C6.53761 157.205 3.92469 157.205 0.891819 157.205Z" fill="#A09F9D"/>
<path d="M195.23 229.596C199.663 229.596 202.883 229.596 206.895 229.596C207.082 232.302 207.269 234.867 207.502 238.085C203.489 238.085 200.083 238.085 195.884 238.085C195.697 235.66 195.51 233.094 195.23 229.596Z" fill="#A09F9D"/>
<path d="M381.727 264.159C381.727 259.448 381.727 256.79 381.727 252.918C384.106 253.291 387.326 252.872 388.165 254.084C389.332 255.81 389.519 259.075 388.632 260.988C387.932 262.48 384.899 262.853 381.727 264.159Z" fill="#A09F9D"/>
<path d="M66.87 240.744C69.2497 240.651 71.5826 240.511 74.5688 240.418C74.5688 243.356 74.5688 245.828 74.5688 248.487C67.7566 250.306 64.4437 248.767 66.87 240.744Z" fill="#A09F9D"/>
<path d="M25.8562 240.418C25.8562 243.729 25.8562 246.015 25.8562 248.767C23.1966 248.907 20.9103 249.047 17.9707 249.233C17.9707 246.295 17.9707 243.869 17.9707 240.838C20.397 240.744 22.6833 240.604 25.8562 240.418Z" fill="#A09F9D"/>
<path d="M41.9076 248.767C39.2947 248.767 37.0083 248.767 34.1621 248.767C34.1621 246.108 34.1621 243.823 34.1621 240.931C36.5884 240.744 38.9214 240.558 41.9076 240.324C41.9076 243.356 41.9076 245.875 41.9076 248.767Z" fill="#A09F9D"/>
<path d="M50.5863 240.837C53.3392 240.837 55.6721 240.837 58.425 240.837C58.425 243.543 58.425 245.875 58.425 248.347C51.8927 250.399 48.6732 248.953 50.5863 240.837Z" fill="#A09F9D"/>
</g>
<defs>
<clipPath id="clip0_156_2505">
<rect width="414" height="265" fill="white"/>
</clipPath>
</defs>
</svg>
