<svg id="Group_4713" data-name="Group 4713" xmlns="http://www.w3.org/2000/svg" width="213.784" height="187.726" viewBox="0 0 213.784 187.726">
  <path id="Path_13076" data-name="Path 13076" d="M123.686,20.091H7.848a7.848,7.848,0,0,0,0,15.7H123.686a28.065,28.065,0,0,0,27,20.091,27.689,27.689,0,0,0,26.684-20.091h28.568a7.848,7.848,0,0,0,0-15.7H177.368a27.976,27.976,0,0,0-53.685,0Zm38.927,7.848A12.243,12.243,0,1,1,150.37,15.7,12.464,12.464,0,0,1,162.613,27.939Z" transform="translate(0.001)" fill="#fff"/>
  <path id="Path_13077" data-name="Path 13077" d="M29.51,20.091H7.848a7.848,7.848,0,0,0,0,15.7H29.51a28.065,28.065,0,0,0,27,20.091A27.688,27.688,0,0,0,83.192,35.788H205.936a7.848,7.848,0,0,0,0-15.7H83.192a27.975,27.975,0,0,0-53.682,0ZM68.437,27.94A12.243,12.243,0,1,1,56.194,15.7,12.258,12.258,0,0,1,68.437,27.94Z" transform="translate(0 62.781)" fill="#fff"/>
  <path id="Path_13078" data-name="Path 13078" d="M86.015,20.091H7.848a7.848,7.848,0,0,0,0,15.7H86.015a28.065,28.065,0,0,0,27,20.092A27.688,27.688,0,0,0,139.7,35.787h66.238a7.848,7.848,0,0,0,0-15.7H139.7a27.975,27.975,0,0,0-53.682,0Zm38.927,7.849A12.243,12.243,0,1,1,112.7,15.7,12.258,12.258,0,0,1,124.942,27.94Z" transform="translate(0.001 131.847)" fill="#fff"/>
</svg>
