<svg width="5408" height="956" viewBox="0 0 5408 956" fill="none" xmlns="http://www.w3.org/2000/svg">
<path d="M316.552 946.91C315.373 935.467 314.195 924.193 312.848 910.9C298.535 909.722 284.223 908.712 266.543 907.198C266.543 882.799 266.543 859.578 266.543 835.01C181.174 835.01 99.5102 835.01 13.468 835.01C13.468 872.535 13.468 909.386 13.468 946.405C9.25852 946.573 4.88064 946.573 0.671142 946.741C-0.675898 906.357 0.502762 865.636 0.166002 821.717C88.7339 821.717 175.45 821.717 265.364 821.717C265.364 794.458 265.364 770.227 265.364 741.789C344.166 741.789 419.769 741.789 497.897 741.789C497.897 529.097 497.897 320.611 497.897 109.937C519.787 109.937 539.15 109.937 563.734 109.937C563.734 125.586 562.723 142.077 564.239 158.231C564.744 163.952 571.479 169 575.352 174.384C579.225 169 586.465 163.784 586.465 158.231C587.307 113.808 586.97 69.2162 586.97 22.4373C658.7 22.4373 728.241 22.4373 800.644 22.4373C800.644 72.245 800.644 121.212 800.644 169.505C816.809 174.889 832.131 176.404 843.244 184.144C864.965 199.288 875.405 219.481 874.9 249.264C872.543 364.024 873.89 478.952 873.721 593.712C873.721 604.313 873.721 615.082 873.721 627.534C946.293 627.534 1016.17 627.534 1086.72 627.534C1088.07 616.26 1089.25 605.827 1090.76 592.198C1168.39 592.198 1245.34 592.198 1323.63 592.198C1325.15 578.063 1326.33 566.621 1327.84 553.832C1379.87 553.832 1430.72 553.832 1484.94 553.832C1484.94 587.823 1484.94 619.962 1484.94 653.616C1502.79 653.616 1517.27 653.616 1536.3 653.616C1536.3 604.145 1536.13 555.01 1536.46 506.044C1536.63 492.414 1530.57 475.082 1555.15 473.736C1558.86 473.568 1561.89 459.601 1562.9 457.414C1580.58 447.318 1594.72 439.241 1608.7 431.164C1607.69 429.145 1606.51 427.294 1605.5 425.274C1629.92 425.274 1654.33 425.274 1680.09 425.274C1680.93 441.933 1681.61 456.404 1682.45 473.736C1697.1 474.745 1711.41 475.923 1728.25 477.101C1728.25 548.952 1728.25 619.794 1728.25 690.13C1752.16 695.515 1752.16 695.515 1758.56 655.635C1779.1 655.635 1800.32 655.635 1822.21 655.635C1832.81 602.125 1805.37 544.746 1858.58 499.145C1885.18 499.145 1920.37 499.145 1957.08 499.145C1957.08 551.645 1957.08 602.967 1957.08 654.457C1954.38 654.626 1951.69 654.794 1949 654.794C1949 608.183 1949 561.404 1949 513.616C1916.16 513.616 1888.88 513.616 1861.61 513.616C1861.27 516.981 1860.93 520.347 1860.43 523.88C1878.95 525.899 1897.47 527.75 1915.99 529.77C1916.33 532.63 1916.5 535.659 1916.84 538.52C1891.91 539.697 1866.99 540.707 1840.05 541.885C1840.05 578.736 1840.05 614.914 1840.05 653.111C1856.72 654.457 1872.89 655.803 1892.42 657.318C1892.42 697.871 1892.42 736.909 1892.42 777.63C1907.24 777.63 1918.69 777.63 1921.38 777.63C1934.85 764.337 1944.11 756.092 1952.03 746.837C1954.89 743.64 1956.4 737.919 1956.4 733.376C1955.56 708.304 1964.32 689.626 1988.06 677.847C1992.61 675.491 1995.3 664.722 1994.96 657.823C1993.95 632.414 1989.58 607.005 1990.08 581.765C1990.25 568.808 2001.87 556.02 2001.7 543.231C2001.19 492.077 1996.65 441.092 1996.31 389.938C1995.97 349.721 2000.18 309.505 2001.03 269.12C2001.36 252.63 1998.16 235.971 1996.65 219.481C1996.31 216.62 1994.79 212.077 1996.14 210.899C2021.06 188.856 2007.93 161.933 2007.59 136.019C2007.26 104.385 2012.14 72.7498 2014.83 41.2834C2017.19 41.1151 2019.55 41.1152 2022.07 40.9469C2023.42 77.6297 2024.26 114.481 2026.11 151.163C2026.96 169.337 2014.66 190.37 2036.72 204.673C2039.08 206.187 2039.25 211.909 2039.25 215.611C2039.42 272.486 2040.43 329.529 2039.42 386.404C2038.41 436.548 2034.36 486.524 2033.19 536.669C2033.02 546.26 2040.09 556.188 2043.96 565.779C2045.31 569.313 2048.34 573.015 2047.83 576.38C2044.47 603.976 2040.43 631.404 2031.17 658.664C2031.17 510.082 2031.17 361.5 2031.17 211.067C2022.07 211.067 2014.83 211.067 2004.9 211.067C2004.9 269.289 2004.06 326.837 2005.23 384.553C2006.08 429.649 2011.13 474.577 2011.3 519.674C2011.46 564.77 1996.31 609.193 2003.72 654.626C2005.23 663.88 2013.15 672.294 2019.38 680.371C2027.46 690.972 2036.72 700.563 2045.14 710.996C2048.84 715.539 2051.37 720.924 2058.78 726.813C2065.35 685.419 2064.84 637.294 2123.27 643.688C2167.72 648.568 2167.72 687.27 2168.56 723.28C2187.59 724.457 2205.78 725.635 2223.79 726.645C2223.79 729.506 2223.79 732.534 2223.79 735.395C2160.31 735.395 2097 735.395 2028.64 735.395C2028.64 768.712 2028.64 796.309 2028.64 824.073C2025.44 824.241 2022.24 824.241 2018.87 824.409C2017.36 804.722 2015.84 785.203 2014.33 763.664C1993.78 763.664 1973.41 763.664 1950.51 763.664C1948.83 771.405 1946.64 780.491 1944.28 791.26C1928.29 792.102 1912.79 792.943 1895.28 793.784C1895.28 808.424 1895.28 821.717 1895.28 837.366C1903.53 839.385 1912.63 841.573 1922.9 844.097C1923.91 855.203 1924.75 865.804 1925.93 878.592C1981.83 878.592 2037.9 878.592 2097.51 878.592C2097.51 851.164 2097.51 823.063 2097.51 790.082C2140.95 790.082 2188.6 776.116 2219.58 792.943C2285.42 828.616 2350.41 794.794 2413.05 812.799C2420.8 791.26 2416.08 783.856 2398.07 784.361C2378.2 785.034 2358.5 784.698 2338.63 784.361C2329.7 784.193 2320.78 782.679 2310.84 778.64C2329.87 770.9 2345.19 763.664 2331.72 737.751C2311.01 737.751 2288.62 737.751 2266.22 737.751C2265.89 734.217 2265.55 730.852 2265.38 727.318C2287.27 726.308 2309.16 725.131 2333.91 723.953C2334.92 716.044 2335.93 707.799 2337.45 695.347C2292.15 695.347 2249.22 695.347 2206.28 695.347C2206.11 691.981 2205.94 688.784 2205.78 685.419C2248.38 685.419 2290.98 685.419 2341.32 685.419C2321.45 634.938 2347.72 594.049 2345.87 550.635C2343.68 501.669 2338.46 452.87 2337.95 403.904C2337.45 358.808 2342.16 313.543 2343.17 268.279C2343.51 251.789 2340.14 235.13 2338.96 218.471C2338.63 213.76 2337.62 206.187 2339.97 204.505C2366.24 185.827 2351.09 160.755 2351.76 137.87C2352.94 98.9998 2355.97 60.2979 2358.33 21.5959C2362.2 21.5959 2365.9 21.7642 2369.78 21.7642C2369.78 68.3748 2369.1 114.985 2370.11 161.596C2370.45 175.731 2361.36 194.072 2382.74 202.486C2384.93 203.327 2385.94 209.385 2385.94 213.086C2386.28 276.861 2387.46 340.467 2386.11 404.241C2385.1 452.198 2379.54 500.154 2378.53 548.111C2378.2 567.462 2367.59 591.356 2392.85 606.164C2395.37 607.678 2389.14 621.981 2388.97 630.395C2388.3 651.933 2388.8 673.472 2388.8 696.356C2402.27 696.356 2414.57 696.356 2429.72 696.356C2429.72 654.457 2429.72 614.241 2429.72 573.015C2459.36 573.015 2485.96 573.015 2512.73 573.015C2512.9 575.707 2513.07 578.568 2513.41 581.26C2491.35 582.606 2469.29 583.784 2443.02 585.467C2443.02 619.457 2442.01 653.616 2444.03 687.775C2444.37 693.496 2457.17 698.544 2471.31 709.481C2440.33 709.481 2415.58 709.481 2389.14 709.481C2389.14 732.703 2389.14 750.034 2389.14 768.881C2402.61 770.227 2415.07 771.405 2429.05 772.582C2430.06 783.856 2431.07 794.458 2432.25 807.414C2445.21 807.414 2458.34 807.414 2472.66 807.414C2473.5 794.962 2474.34 783.352 2475.18 770.058C2485.29 768.544 2494.72 767.03 2506.67 765.179C2506.67 748.015 2506.67 730.515 2506.67 711.837C2517.78 709.313 2526.88 707.294 2540.01 704.265C2537.32 669.77 2534.62 635.779 2531.93 601.789C2531.59 596.909 2529.74 591.188 2531.59 587.318C2560.05 524.553 2544.56 459.938 2540.18 395.659C2539.67 388.928 2539 382.029 2539 375.298C2539 316.572 2539 257.846 2539 199.12C2539 194.24 2537.65 186.5 2539.84 184.986C2568.13 167.317 2551.29 141.909 2552.3 119.529C2553.98 79.8171 2556.68 40.2738 2559.04 0.562256C2562.91 0.562256 2566.61 0.730484 2570.49 0.730484C2570.49 42.9661 2569.81 85.0334 2570.82 127.269C2571.33 146.957 2558.03 170.683 2584.63 184.649C2586.48 185.659 2585.98 192.053 2585.98 195.923C2586.15 257.678 2587.16 319.265 2585.98 381.019C2584.97 439.072 2581.09 496.957 2579.75 554.842C2579.58 563.76 2586.82 572.678 2590.02 581.933C2592.04 587.823 2594.4 594.385 2593.89 600.443C2591.03 635.275 2587.32 669.938 2583.62 706.453C2600.46 706.453 2610.9 706.453 2624.03 706.453C2619.15 634.938 2669.33 620.635 2727.75 610.707C2727.75 594.722 2727.08 578.063 2727.92 561.573C2730.11 518.159 2762.61 486.861 2804.53 486.861C2846.63 486.861 2879.13 517.823 2881.65 561.236C2882.49 576.717 2881.82 592.366 2881.82 607.51C2963.99 618.279 2999.52 644.193 3004.74 722.606C3050.2 722.606 3096 722.606 3144.16 722.606C3144.16 800.01 3144.16 873.376 3144.16 946.741C3141.46 946.91 3138.94 947.078 3136.24 947.078C3136.24 892.895 3136.24 838.544 3136.24 780.996C3054.41 780.996 2978.13 777.799 2902.7 783.688C2887.55 784.866 2868.69 804.049 2847.47 800.179C2838.72 798.664 2831.31 789.409 2822.55 788.232C2809.42 786.381 2793.25 784.193 2783.15 790.082C2770.52 797.486 2728.43 807.751 2723.71 795.804C2716.13 776.789 2703 781.164 2690.04 780.996C2630.6 780.659 2571.16 781.333 2511.72 780.491C2492.02 780.155 2483.43 786.044 2490.67 809.433C2515.93 809.433 2542.2 809.433 2570.49 809.433C2572.17 824.409 2573.52 836.693 2574.86 848.472C2625.55 856.886 2625.55 856.885 2626.05 911.236C2626.22 923.52 2626.05 935.804 2626.05 948.088C2622.35 948.256 2618.64 948.424 2614.94 948.761C2613.59 922.679 2612.24 896.429 2610.73 867.15C2594.73 866.14 2579.41 864.962 2562.24 863.785C2560.89 851.669 2559.71 840.227 2558.19 826.092C2451.27 826.092 2344.01 826.092 2232.04 826.092C2232.04 850.323 2232.04 875.227 2232.04 900.131C2228.34 900.299 2224.63 900.636 2221.1 900.804C2221.1 869.337 2221.1 837.703 2221.1 804.722C2182.37 804.722 2150.04 804.722 2112.66 804.722C2112.66 851.838 2112.66 899.289 2112.66 946.741C2109.29 946.91 2105.93 947.246 2102.56 947.414C2100.54 930.587 2098.69 913.592 2096.67 895.588C2039.58 895.588 1983.51 895.588 1926.43 895.588C1925.09 913.761 1923.91 930.419 1922.73 947.078C1919.7 946.91 1916.5 946.91 1913.47 946.741C1913.47 917.462 1913.47 888.015 1913.47 854.193C1877.1 854.193 1845.27 854.193 1813.45 854.193C1813.28 850.491 1812.94 846.957 1812.78 843.256C1833.66 841.909 1854.53 840.563 1877.43 839.217C1877.43 783.352 1877.43 728.496 1877.43 669.097C1846.28 669.097 1814.8 668.087 1783.65 669.938C1777.42 670.275 1771.86 681.044 1765.97 687.102C1767.65 690.467 1769.33 693.664 1771.02 697.03C1798.46 697.03 1825.91 697.03 1853.36 697.03C1853.36 700.395 1853.52 703.76 1853.52 707.126C1813.45 707.126 1773.38 707.126 1731.79 707.126C1731.79 750.371 1731.79 788.4 1731.79 827.27C1742.39 829.626 1752.33 831.813 1762.26 834.169C1762.26 836.525 1762.26 839.049 1762.26 841.405C1733.81 841.405 1705.35 841.405 1675.38 841.405C1674.2 863.953 1673.36 881.284 1672.35 900.467C1662.08 902.15 1652.82 903.496 1641.87 905.179C1640.69 919.313 1639.51 933.28 1638.33 947.246C1635.98 947.246 1633.45 947.246 1631.09 947.246C1631.09 929.41 1631.09 911.573 1631.09 892.054C1638.84 890.708 1648.1 888.857 1658.54 887.006C1659.55 868.664 1660.39 851.164 1661.4 831.982C1679.59 830.972 1696.09 830.131 1714.78 829.121C1714.78 716.885 1714.78 605.491 1714.78 491.236C1701.31 490.226 1687 489.217 1670.66 488.039C1669.15 472.221 1667.8 456.909 1666.12 440.082C1650.29 440.082 1635.64 440.082 1620.99 440.082C1622 441.428 1623.01 442.606 1624.02 443.952C1610.22 452.366 1596.24 460.779 1578.22 471.717C1573.34 477.101 1564.08 487.029 1550.95 501.164C1550.95 598.087 1550.95 701.741 1550.95 807.751C1560.71 809.265 1569.97 810.611 1580.24 812.126C1581.93 821.212 1583.61 829.626 1585.13 838.376C1596.07 840.563 1606.17 842.583 1616.28 844.602C1616.28 847.126 1616.28 849.482 1616.28 852.006C1602.13 853.015 1587.99 854.193 1572.16 855.371C1570.31 844.097 1568.96 835.684 1567.11 823.232C1525.52 823.232 1483.59 823.232 1441.67 823.232C1441.5 819.866 1441.33 816.332 1441.16 812.967C1471.98 812.967 1502.96 812.967 1535.29 812.967C1535.29 762.654 1535.29 718.568 1535.29 670.948C1515.25 670.106 1495.21 669.097 1472.31 668.087C1472.31 634.602 1472.31 602.294 1472.31 567.799C1427.86 567.799 1385.93 567.799 1341.99 567.799C1341.99 644.698 1341.99 721.26 1341.99 799.169C1356.3 800.515 1368.76 801.525 1384.59 803.039C1384.59 834.842 1384.59 866.14 1384.59 899.963C1429.04 899.963 1470.29 899.963 1513.73 899.963C1513.73 917.631 1513.73 932.607 1513.73 947.583C1511.38 948.087 1508.85 948.424 1506.49 948.929C1504.64 938.833 1502.96 928.736 1500.43 914.77C1459.35 914.77 1417.25 914.77 1371.96 914.77C1371.96 880.107 1371.96 848.977 1371.96 816.164C1349.23 816.164 1330.03 816.164 1308.48 816.164C1307.47 831.645 1306.29 846.958 1305.11 865.131C1279.52 865.131 1255.1 865.131 1229 865.131C1229 877.414 1229 887.006 1229 900.131C1248.2 900.131 1267.39 900.131 1289.45 900.131C1288.61 918.64 1287.94 933.111 1287.26 947.583C1284.57 947.751 1282.04 947.751 1279.35 947.919C1277.33 938.16 1275.31 928.4 1272.28 913.087C1219.41 913.087 1165.02 913.087 1110.8 913.087C1110.8 909.722 1110.8 906.188 1110.8 902.823C1143.47 902.823 1175.96 902.823 1210.65 902.823C1212.33 884.145 1213.68 870.011 1215.36 852.679C1240.62 852.679 1265.04 852.679 1291.47 852.679C1292.48 835.011 1293.49 820.539 1294.5 804.385C1304.1 802.366 1313.36 800.515 1324.64 798.328C1324.64 735.395 1324.64 672.462 1324.64 607.847C1252.24 607.847 1180.34 607.847 1103.39 607.847C1103.39 646.549 1103.39 686.092 1103.39 725.635C1099.52 725.804 1095.65 726.14 1091.77 726.308C1090.43 699.553 1088.91 672.799 1087.56 644.866C1016.84 644.866 947.808 644.866 876.415 644.866C875.068 665.395 873.553 685.755 872.206 706.116C869.343 706.116 866.313 706.116 863.45 706.116C862.777 695.178 861.43 684.409 861.43 673.472C861.261 530.948 861.261 388.423 861.093 245.731C861.093 208.038 843.076 189.697 806.032 189.529C732.787 189.36 659.374 189.529 586.128 189.529C575.52 189.529 564.912 189.529 551.105 189.529C551.105 165.466 551.105 145.274 551.105 123.231C537.466 123.231 527.027 123.231 514.23 123.231C514.23 327.51 514.23 531.957 514.23 739.265C521.47 739.938 529.721 740.611 543.191 741.789C543.191 690.972 543.191 643.015 543.191 594.89C546.391 594.89 549.59 594.89 552.789 594.89C552.789 642.174 552.789 689.289 552.789 739.938C580.235 739.938 603.471 739.938 629.907 739.938C629.907 767.534 629.907 791.765 629.907 818.352C671.16 818.352 709.214 818.352 750.804 818.352C750.804 795.131 750.804 771.068 750.804 743.304C773.198 742.294 792.394 741.453 816.304 740.275C816.304 719.409 816.304 699.553 816.304 679.866C819.503 679.698 822.702 679.53 825.901 679.361C827.08 686.933 828.932 694.505 829.101 702.078C830.448 751.717 843.076 764.001 893.085 764.001C909.923 764.001 926.761 764.337 943.599 763.664C949.155 763.496 956.227 762.823 959.932 759.458C986.367 735.058 1001.52 736.236 1031.16 756.933C1042.44 764.842 1061.46 761.645 1079.14 763.664C1079.14 824.578 1079.14 886.164 1079.14 947.751C1076.62 947.919 1074.26 947.919 1071.74 948.088C1071.74 891.885 1071.74 835.852 1071.74 776.284C1057.42 775.611 1046.65 776.453 1036.71 774.097C1028.8 772.246 1021.56 767.03 1014.66 762.15C1000.68 752.054 988.556 748.52 975.591 764.674C970.708 770.9 961.615 776.789 954.207 777.294C926.592 778.808 898.81 778.64 871.027 777.63C857.052 777.126 844.086 781.669 832.637 761.308C826.238 750.203 791.552 755.587 767.642 753.4C767.642 777.631 767.642 796.982 767.642 820.034C793.741 820.034 819.84 820.034 847.959 820.034C847.959 838.881 847.959 854.025 847.959 870.852C749.962 870.852 652.133 870.852 554.304 870.852C553.968 868.328 553.799 865.804 553.463 863.28C563.06 862.27 572.658 860.587 582.256 860.587C659.542 860.419 736.828 860.251 814.115 860.587C831.121 860.587 842.066 857.727 833.478 835.01C750.299 835.01 666.277 835.01 580.909 835.01C578.383 824.073 576.362 814.986 574.005 805.058C543.023 805.058 512.883 805.058 480.722 805.058C480.722 822.895 480.722 839.217 480.722 857.054C490.488 859.073 499.749 860.924 510.189 862.943C510.189 891.213 510.189 919.482 510.189 947.583C507.495 947.919 504.969 948.256 502.275 948.424C502.275 924.698 502.275 900.972 502.275 875.563C474.324 875.563 452.098 875.563 427.851 875.563C426.672 900.131 425.662 924.025 424.484 947.751C421.789 947.751 419.264 947.583 416.57 947.583C416.57 919.65 416.57 891.717 416.57 862.102C431.387 860.924 446.878 859.746 463.716 858.4C463.716 824.409 463.716 792.102 463.716 757.27C404.11 757.27 344.335 757.27 282.539 757.27C282.539 802.534 282.539 847.462 282.539 894.578C297.357 895.756 310.827 896.765 324.297 897.775C324.297 914.77 324.297 931.092 324.297 947.414C320.93 946.91 318.741 946.91 316.552 946.91ZM2521.49 767.366C2580.42 767.366 2637.5 766.861 2694.75 767.703C2709.57 767.871 2728.43 759.457 2736.68 783.015C2737.69 785.876 2758.9 786.885 2765.64 781.837C2791.4 762.318 2813.79 762.823 2838.04 780.659C2846.29 786.717 2863.13 783.352 2875.42 780.996C2886.03 778.977 2895.46 768.376 2905.56 768.039C2947.15 766.525 2988.74 767.366 3030.33 767.366C3063.67 767.366 3097.01 767.366 3132.54 767.366C3131.53 755.251 3130.85 746.837 3130.01 735.227C3082.19 735.227 3036.23 735.227 2990.93 735.227C2989.08 718.063 2987.73 704.433 2986.89 695.852C2970.56 701.068 2958.43 707.967 2946.14 708.472C2905.56 709.818 2864.98 708.977 2824.4 708.977C2802.18 708.977 2779.95 708.977 2758.23 708.977C2756.55 724.289 2755.37 734.722 2754.36 743.472C2726.74 743.472 2701.15 743.472 2675.72 743.472C2675.55 740.443 2675.56 737.414 2675.39 734.385C2697.28 734.385 2719.17 734.385 2743.08 734.385C2743.08 704.265 2744.59 678.352 2742.23 652.943C2741.39 643.856 2733.81 631.741 2725.73 627.702C2701.65 615.755 2649.79 646.044 2642.05 677.847C2665.45 677.847 2688.02 677.847 2710.58 677.847C2710.58 680.034 2710.58 682.222 2710.41 684.578C2687.17 684.578 2663.94 684.578 2639.86 684.578C2638.51 697.871 2637.5 708.135 2636.15 721.429C2597.26 721.429 2560.05 721.429 2521.49 721.429C2521.49 737.078 2521.49 749.53 2521.49 767.366ZM735.65 107.413C735.818 110.947 735.818 114.481 735.986 118.014C691.703 118.014 647.419 118.014 603.303 118.014C602.966 142.245 602.966 142.245 661.057 142.245C685.978 142.245 710.898 142.245 735.818 142.245C735.65 146.62 735.481 150.995 735.313 155.37C726.052 155.37 716.623 155.37 707.362 155.37C676.717 155.37 646.072 155.033 615.426 155.875C610.375 156.043 605.66 161.933 600.777 165.298C604.818 168.495 608.691 174.384 612.732 174.384C670.655 175.058 728.409 174.721 787.174 174.721C787.174 137.702 787.174 105.394 787.174 73.0863C774.882 70.7306 763.938 68.7113 752.993 66.5238C760.907 58.2786 769.157 58.1103 776.734 55.5863C781.112 54.0719 787.174 49.0238 787.342 45.4901C787.511 41.9565 781.281 34.7208 777.745 34.7208C722.348 34.0478 666.951 34.0478 611.554 34.5526C607.849 34.5526 601.619 41.2835 601.451 44.9854C601.451 48.5191 607.176 54.0719 611.554 55.5863C619.131 58.1103 627.55 58.1105 635.632 59.2883C635.632 61.6441 635.632 63.9998 635.8 66.3556C624.856 68.3748 614.079 70.5624 602.124 72.7499C602.124 83.1826 602.124 93.6151 602.124 107.077C647.419 107.413 691.534 107.413 735.65 107.413ZM2343 770.563C2357.82 769.89 2366.07 769.554 2377.02 769.049C2377.02 737.582 2379.37 707.967 2376.34 678.856C2373.48 651.26 2386.45 624.505 2371.63 595.395C2362.37 577.39 2369.27 550.803 2369.95 528.087C2371.29 485.178 2374.32 442.101 2375 399.193C2375.84 336.596 2375.17 274.168 2375.17 210.731C2365.57 210.731 2356.48 210.731 2348.73 210.731C2350.08 225.37 2352.43 237.99 2352.27 250.611C2350.92 302.606 2347.05 354.77 2347.38 406.765C2347.72 465.659 2351.93 524.385 2353.11 583.279C2353.28 593.712 2347.05 604.313 2343.17 616.597C2343 664.553 2343 715.371 2343 770.563ZM2579.75 707.63C2576.38 619.794 2572 535.491 2570.32 451.356C2568.63 364.697 2569.98 278.039 2569.98 190.707C2566.11 190.707 2557.35 190.707 2548.6 190.707C2550.28 203.832 2552.47 214.433 2552.64 225.034C2553.48 294.361 2554.15 363.856 2554.49 433.183C2554.83 476.765 2555.16 520.347 2553.98 563.76C2553.65 574.361 2547.08 584.794 2543.38 595.563C2543.38 631.068 2543.38 668.087 2543.38 704.097C2550.95 706.116 2553.65 707.462 2556.51 707.63C2562.4 707.799 2568.3 707.63 2579.75 707.63ZM2976.96 669.433C2953.89 629.217 2896.97 612.726 2840.4 629.553C2800.49 641.332 2786.85 658.327 2789.55 695.852C2826.59 695.852 2863.97 696.188 2901.18 695.683C2928.46 695.347 2959.11 704.097 2976.96 669.433ZM2763.28 696.02C2774.23 676.5 2781.47 651.933 2797.63 637.799C2815.82 621.981 2842.42 615.755 2865.32 605.323C2865.32 594.049 2865.32 580.924 2865.32 568.303C2822.55 568.303 2782.64 568.303 2740.21 568.303C2740.21 580.755 2738.36 591.861 2740.55 602.126C2746.78 631.909 2754.69 661.188 2763.28 696.02ZM2742.91 558.712C2763.79 558.712 2784.16 558.712 2804.7 558.712C2824.91 558.712 2845.11 558.712 2865.82 558.712C2858.25 518.496 2836.69 499.481 2803.36 499.818C2770.35 500.154 2748.8 520.347 2742.91 558.712ZM616.268 756.092C569.122 756.092 524.501 756.092 477.692 756.092C478.365 768.208 478.87 778.304 479.544 790.419C516.924 790.419 551.105 790.419 585.792 790.419C590.338 806.741 586.297 832.823 616.1 814.986C616.268 796.982 616.268 778.304 616.268 756.092ZM2079.32 681.549C2095.32 682.895 2107.95 684.073 2120.57 685.251C2120.57 686.765 2120.41 688.111 2120.41 689.626C2107.1 690.635 2093.8 691.645 2079.49 692.654C2079.49 703.76 2079.49 713.183 2079.49 723.953C2104.07 723.953 2127.31 723.953 2150.21 723.953C2156.94 684.746 2150.21 665.395 2126.97 658.159C2105.59 651.597 2091.45 660.683 2079.32 681.549ZM2012.81 747.51C2014.5 741.621 2015.67 735.058 2018.37 729.169C2021.57 721.933 2030.49 710.491 2029.14 709.145C2021.06 701.741 2010.79 692.15 2001.36 692.318C1991.93 692.486 1978.97 701.236 1974.42 709.818C1969.2 719.746 1971.39 733.712 1970.38 747.51C1986.21 747.51 1998.67 747.51 2012.81 747.51Z" fill="#A09F9D"/>
<path d="M3314.72 878.256C3315.73 885.155 3317.08 893.568 3318.43 903.328C3383.76 903.328 3447.91 903.328 3513.75 903.328C3515.43 895.419 3517.12 887.006 3519.47 875.564C3548.94 875.564 3579.25 875.564 3611.24 875.564C3611.24 855.203 3611.24 838.039 3611.24 818.015C3582.28 818.015 3553.82 818.015 3520.65 818.015C3520.65 797.15 3520.65 778.809 3520.65 760.467C3520.65 740.948 3511.39 731.357 3491.35 732.03C3472.83 732.534 3454.31 732.198 3434.61 732.198C3433.26 755.419 3432.25 775.443 3431.07 795.467C3428.21 795.636 3425.35 795.972 3422.65 796.14C3420.63 781.164 3418.78 766.188 3416.26 745.996C3342.17 745.996 3268.25 745.996 3194.33 745.996C3194.33 742.799 3194.16 739.77 3194.16 736.573C3211.17 735.227 3228.18 734.049 3247.2 732.703C3247.2 705.611 3247.2 679.53 3247.2 648.4C3187.26 648.4 3126.98 648.4 3072.42 648.4C3079.5 625.179 3085.39 605.155 3091.96 583.616C3099.7 583.616 3110.31 583.616 3122.26 583.616C3123.44 600.78 3124.45 616.26 3125.63 633.592C3148.53 633.592 3170.93 633.592 3195.17 633.592C3195.17 607.847 3195.17 582.775 3195.17 555.515C3136.07 555.515 3077.14 555.515 3012.99 555.515C3012.99 583.952 3012.99 612.39 3012.99 640.828C3010.12 640.828 3007.26 640.659 3004.4 640.659C3004.4 608.52 3004.4 576.549 3004.4 542.39C3071.58 542.39 3139.27 542.39 3209.99 542.39C3209.99 572.847 3209.99 602.126 3209.99 633.424C3228.01 634.77 3243.33 635.779 3262.19 637.126C3262.19 668.929 3262.19 700.058 3262.19 733.712C3312.03 733.712 3360.52 742.126 3403.96 730.852C3435.45 722.775 3465.42 720.419 3496.57 718.232C3503.14 717.727 3510.72 711.837 3515.43 706.453C3553.65 662.366 3591.71 617.943 3628.75 572.847C3635.49 564.602 3639.19 551.813 3639.86 540.876C3641.55 515.467 3640.37 489.722 3640.37 461.957C3659.57 460.779 3675.9 459.77 3693.91 458.76C3694.92 447.149 3695.77 436.717 3696.95 424.433C3707.38 423.424 3716.81 422.414 3727.93 421.236C3729.44 408.616 3730.79 396.332 3732.3 382.702C3746.11 382.702 3758.74 382.702 3775.41 382.702C3775.41 410.635 3775.41 438.568 3775.41 467.847C3788.21 468.351 3796.79 468.856 3805.89 469.193C3823.9 404.073 3787.53 332.053 3833.67 268.952C3873.58 315.899 3852.87 367.558 3857.07 415.851C3853.03 416.188 3848.99 416.693 3844.78 417.029C3844.78 377.823 3844.78 338.447 3844.78 299.241C3840.24 298.904 3835.69 298.568 3831.14 298.231C3828.62 308.496 3824.41 318.592 3824.07 329.024C3823.23 366.548 3823.23 404.241 3824.24 441.765C3824.41 450.851 3830.13 459.77 3833.33 468.856C3838.22 460.611 3843.1 452.534 3851.18 438.904C3859.77 438.904 3874.25 439.409 3888.73 438.736C3896.31 438.4 3905.06 438.231 3911.46 434.698C3966.52 403.399 3988.58 408.952 4017.54 462.125C4019.06 464.986 4023.1 466.5 4025.79 468.688C4030.67 461.621 4035.73 454.553 4041.45 446.14C4061.82 446.14 4084.05 446.14 4106.28 446.14C4106.61 449 4106.95 451.693 4107.12 454.553C4089.27 456.068 4071.42 457.75 4052.06 459.433C4049.7 492.582 4025.96 480.972 4007.27 481.308C3997.67 435.539 3987.06 425.443 3947.16 432.342C3936.21 434.193 3923.08 448.159 3919.38 459.265C3914.49 473.4 3917.19 490.731 3918.87 506.38C3919.54 511.933 3926.62 516.981 3930.83 522.198C3935.03 516.981 3940.76 512.27 3942.95 506.38C3945.47 499.481 3945.14 491.573 3945.98 484C3948.51 483.832 3951.03 483.496 3953.39 483.327C3955.07 494.77 3956.76 506.212 3958.78 520.178C4000.2 520.178 4042.12 520.178 4086.07 520.178C4087.25 507.558 4088.26 495.275 4089.61 479.625C4101.23 479.625 4111.83 479.962 4122.27 479.457C4128 479.289 4138.44 478.448 4138.77 476.597C4143.99 446.981 4167.06 460.106 4183.23 457.414C4197.88 454.89 4211.18 460.274 4225.32 441.933C4234.92 429.649 4269.1 436.549 4293.18 434.698C4295.03 448.159 4296.38 457.414 4298.06 469.025C4326.85 469.025 4354.47 470.539 4381.91 468.183C4390 467.51 4397.24 455.731 4408.35 445.972C4422.49 449.169 4451.62 428.472 4458.19 469.193C4476.38 469.193 4495.23 465.323 4511.74 469.866C4593.06 492.078 4676.41 477.775 4752.18 483.664C4760.6 499.481 4766.66 510.755 4772.89 522.198C4778.95 506.549 4785.02 491.068 4792.93 470.371C4819.2 470.371 4851.19 470.371 4883.69 470.371C4885.71 458.255 4887.22 449.673 4889.08 438.568C4913.83 438.568 4938.92 438.568 4966.19 438.568C4967.88 445.972 4969.56 454.049 4971.58 463.303C4992.8 463.303 5013.17 463.303 5034.89 463.303C5036.74 454.385 5038.43 446.14 5040.28 437.053C5065.2 437.053 5088.77 437.053 5114.2 437.053C5116.05 445.972 5117.74 454.217 5119.59 463.977C5143.83 463.977 5167.41 463.977 5194.85 463.977C5194.85 512.606 5194.85 559.385 5194.85 609.866C5221.63 609.866 5244.86 609.866 5270.29 609.866C5271.64 630.395 5272.81 647.727 5273.82 665.227C5286.12 666.573 5296.72 667.582 5308.68 668.76C5312.72 696.357 5304.13 733.544 5352.79 725.299C5354.14 739.434 5355.32 750.876 5356.5 763.664C5374.18 764.842 5390.68 766.02 5407.52 767.198C5407.52 827.775 5407.52 887.174 5407.52 946.405C5404.82 946.573 5402.13 946.742 5399.44 947.078C5397.92 928.737 5396.57 910.395 5394.72 888.016C5339.32 888.016 5283.42 888.016 5224.99 888.016C5224.99 853.016 5224.99 821.549 5224.99 788.063C5188.29 788.063 5154.27 788.063 5115.21 788.063C5115.21 841.573 5115.21 894.578 5115.21 947.751C5112.35 947.751 5109.65 947.583 5106.79 947.583C5106.79 890.539 5106.79 833.496 5106.79 774.265C5118.58 773.424 5131.04 772.583 5144.51 771.573C5151.92 756.934 5150.57 747.847 5130.7 748.015C5100.06 748.352 5069.41 748.184 5036.58 748.184C5036.58 775.275 5036.58 800.347 5036.58 826.765C5046.85 828.616 5057.29 830.467 5068.06 832.318C5068.06 871.357 5068.06 909.218 5068.06 947.078C5065.37 947.246 5062.68 947.415 5059.81 947.751C5059.81 913.929 5059.81 880.107 5059.81 844.77C5009.97 844.77 4965.86 844.77 4919.38 844.77C4918.21 863.785 4917.2 881.958 4915.85 904.169C4864.16 904.169 4813.64 904.169 4761.61 904.169C4760.43 920.492 4759.59 934.29 4758.08 955.155C4741.91 923.352 4746.96 910.395 4759.76 888.689C4768.18 874.554 4764.98 853.52 4767.17 833.664C4727.26 833.664 4692.07 833.664 4653.18 833.664C4653.18 855.708 4653.18 877.919 4653.18 902.15C4630.44 903.328 4611.25 904.338 4590.37 905.347C4589.02 920.323 4587.68 933.953 4586.5 947.583C4583.8 947.583 4581.11 947.415 4578.25 947.415C4578.25 895.083 4578.25 842.919 4578.25 788.063C4521.17 788.063 4468.13 788.063 4410.03 788.063C4410.03 840.564 4410.03 893.737 4410.03 947.078C4406.5 947.078 4402.96 947.246 4399.43 947.246C4398.25 925.876 4397.07 904.674 4395.72 879.602C4366.09 879.602 4336.96 879.602 4304.46 879.602C4304.46 821.044 4304.46 766.02 4304.46 709.986C4249.74 709.986 4198.38 709.986 4143.15 709.986C4143.15 764.001 4143.15 817.679 4143.15 872.366C4086.74 872.366 4034.21 872.366 3981.84 872.366C3981.68 869.842 3981.51 867.318 3981.51 864.626C4029.33 864.626 4077.15 864.626 4126.99 864.626C4126.99 844.434 4126.99 829.121 4126.99 810.275C4098.36 810.275 4056.94 798.16 4042.12 812.799C4010.13 844.434 3978.31 820.371 3946.99 831.645C3944.46 818.857 3942.61 809.602 3940.42 798.328C3919.54 798.328 3898.5 798.328 3875.43 798.328C3875.43 816.669 3875.43 833.833 3875.43 853.352C3894.29 854.193 3912.64 855.203 3932.51 856.044C3932.51 887.174 3932.51 916.79 3932.51 946.573C3929.98 946.742 3927.46 947.078 3924.93 947.246C3924.93 922.174 3924.93 897.102 3924.93 869.001C3901.53 869.001 3883.34 869.001 3861.45 869.001C3861.45 828.112 3861.45 790.083 3861.45 749.866C3831.82 749.866 3805.72 749.866 3776.59 749.866C3776.59 778.135 3776.59 806.405 3776.59 829.289C3761.1 838.376 3749.99 844.77 3738.87 851.165C3749.31 856.044 3759.75 860.756 3772.72 866.813C3772.72 890.876 3772.72 918.977 3772.72 947.078C3769.85 947.246 3767.16 947.415 3764.3 947.415C3763.12 924.025 3761.77 900.636 3760.26 868.833C3734.49 875.227 3711.76 882.463 3688.36 886.164C3670 889.025 3650.81 887.511 3631.95 887.511C3599.45 887.679 3566.79 887.511 3530.92 887.511C3529.91 908.544 3528.9 928.064 3527.89 947.583C3525.37 947.751 3522.67 947.919 3520.15 947.919C3518.13 939.338 3516.11 930.756 3513.41 919.314C3445.39 919.314 3376.52 919.314 3306.47 919.314C3303.95 907.871 3301.93 898.785 3299.06 885.828C3264.21 885.828 3229.52 885.828 3194.84 885.828C3194.84 883.136 3194.84 880.443 3194.84 877.751C3234.57 878.256 3273.64 878.256 3314.72 878.256ZM4487.49 720.587C4536.32 720.587 4581.28 720.587 4626.23 720.587C4628.59 731.525 4630.44 740.611 4632.46 750.539C4659.07 750.539 4683.82 751.044 4708.4 750.371C4727.26 749.866 4745.28 749.193 4743.09 775.612C4772.05 775.612 4799.16 775.612 4829.64 775.612C4829.64 734.385 4829.64 695.347 4829.64 655.635C4850.18 655.635 4867.19 655.635 4887.73 655.635C4887.73 697.703 4887.73 737.919 4887.73 780.155C4912.48 780.155 4934.03 780.155 4957.1 780.155C4958.45 796.813 4959.46 811.116 4960.64 827.102C4981.18 827.102 5000.21 827.102 5022.26 827.102C5022.26 795.972 5022.26 766.693 5022.26 736.236C5070.25 736.236 5115.21 736.236 5161.18 736.236C5162.52 748.857 5163.7 759.289 5165.22 773.256C5188.96 773.256 5212.36 773.256 5239.31 773.256C5239.31 808.592 5239.31 840.732 5239.31 871.693C5294.2 871.693 5345.05 871.693 5395.23 871.693C5395.23 839.89 5395.23 810.78 5395.23 778.977C5382.26 778.977 5371.48 777.799 5360.88 779.145C5328.55 783.52 5304.13 772.583 5283.76 747.006C5270.29 730.179 5252.94 716.381 5235.26 699.385C5232.57 714.866 5230.72 724.794 5229.03 734.89C5227.86 734.722 5226.51 734.554 5225.33 734.554C5224.49 720.251 5223.48 705.948 5222.47 688.784C5186.43 688.784 5151.92 687.775 5117.4 689.121C5074.8 690.635 5065.37 644.866 5029 629.554C5029 649.746 5029 667.414 5029 685.082C5021.93 660.683 5028.33 629.722 5015.53 614.241C5003.24 599.265 4971.41 600.275 4945.82 593.712C4944.14 616.26 4942.96 630.058 4941.95 643.856C4940.09 643.856 4938.41 643.856 4936.56 643.856C4934.87 629.217 4933.36 614.578 4931.68 600.443C4848.83 595.563 4847.49 595.731 4836.71 612.39C4806.06 585.804 4771.71 604.313 4736.52 599.77C4736.52 631.236 4736.52 658.328 4736.52 685.419C4734.17 685.419 4731.81 685.419 4729.45 685.419C4729.45 657.318 4729.45 629.385 4729.45 601.116C4706.05 601.116 4686.68 601.116 4666.65 601.116C4665.47 614.578 4664.46 626.188 4663.45 637.799C4666.48 592.366 4633.64 573.015 4600.47 545.082C4600.47 594.385 4600.47 637.294 4600.47 680.203C4597.95 680.203 4595.25 680.203 4592.73 680.203C4592.73 632.414 4592.73 584.794 4592.73 537.847C4560.06 537.847 4531.77 537.847 4501.63 537.847C4500.62 559.553 4499.78 579.578 4498.94 599.602C4496.41 599.433 4494.06 599.265 4491.53 599.097C4491.53 578.736 4491.53 558.544 4491.53 537.174C4452.3 537.174 4415.93 537.174 4375.35 537.174C4375.35 581.597 4375.35 625.179 4375.35 668.592C4372.49 668.592 4369.62 668.592 4366.93 668.424C4366.93 624.506 4366.93 580.755 4366.93 537.51C4331.57 537.51 4300.08 537.51 4265.23 537.51C4265.23 576.38 4265.23 613.905 4265.23 651.26C4262.53 651.26 4260.01 651.26 4257.31 651.26C4257.31 613.736 4257.31 576.212 4257.31 538.183C4220.1 538.183 4187.1 538.183 4154.1 538.183C4152.92 556.02 4151.91 571.669 4150.9 587.318C4148.88 587.15 4146.69 587.15 4144.67 586.981C4143.66 570.996 4142.65 554.842 4141.64 537.678C4113.18 537.678 4085.9 537.678 4054.58 537.678C4054.58 590.683 4054.58 642.005 4054.58 693.328C4052.06 693.328 4049.53 693.328 4047.01 693.159C4047.01 641.669 4047.01 590.178 4047.01 537.678C4021.58 537.678 3999.52 537.678 3974.44 537.678C3974.44 564.433 3974.44 589.169 3974.44 614.073C3971.91 614.073 3969.38 614.073 3966.86 614.241C3966.86 588.664 3966.86 563.087 3966.86 537.847C3937.9 537.847 3913.65 537.847 3886.37 537.847C3886.37 582.775 3886.37 625.852 3886.37 668.929C3884.02 668.929 3881.49 668.929 3879.13 668.929C3879.13 625.179 3879.13 581.26 3879.13 538.015C3857.58 538.015 3840.24 538.015 3820.37 538.015C3820.37 556.525 3820.37 572.678 3820.37 589.001C3818.68 589.001 3817 589.001 3815.32 589.169C3814.14 572.005 3812.96 555.01 3811.78 537.51C3787.03 537.51 3764.8 537.51 3738.2 537.51C3738.2 581.933 3738.2 624.674 3738.2 667.583C3735.67 667.583 3733.32 667.414 3730.79 667.414C3730.79 628.544 3730.79 589.674 3730.79 551.477C3711.59 560.395 3694.42 568.304 3672.02 578.568C3672.02 594.217 3672.02 615.924 3672.02 637.462C3670.17 637.462 3668.32 637.462 3666.3 637.462C3665.29 615.587 3664.28 593.712 3663.1 568.977C3599.62 593.376 3613.93 648.905 3602.99 693.496C3601.98 673.64 3600.97 653.953 3599.79 628.712C3569.99 663.712 3544.56 693.664 3525.87 715.539C3530.42 750.539 3533.95 776.789 3537.66 805.564C3566.96 805.564 3595.24 805.564 3626.39 805.564C3626.39 829.794 3626.39 851.333 3626.39 879.265C3661.42 872.03 3692.4 865.636 3724.05 859.241C3724.9 848.64 3725.74 839.049 3726.75 828.28C3738.53 827.102 3749.14 825.924 3760.09 824.746C3760.09 814.145 3760.09 804.89 3760.09 791.429C3724.56 791.429 3690.88 791.429 3657.38 791.429C3657.38 788.232 3657.21 785.203 3657.21 782.006C3691.56 782.006 3725.91 782.006 3760.59 782.006C3761.77 764.169 3762.78 751.549 3763.79 737.246C3800.33 737.246 3836.2 737.246 3872.23 737.246C3873.41 754.241 3874.25 768.544 3875.26 784.53C3903.38 784.53 3928.64 784.53 3954.9 784.53C3955.91 795.636 3956.76 805.059 3957.77 815.323C3977.97 815.323 4007.61 822.559 4013.16 813.977C4031.18 786.381 4054.75 799.842 4075.8 797.318C4092.81 795.131 4110.32 796.813 4130.69 796.813C4130.69 760.804 4130.69 729.506 4130.69 698.881C4194.51 698.881 4255.29 698.881 4319.11 698.881C4319.11 755.251 4319.11 809.265 4319.11 864.794C4346.39 864.794 4370.63 864.794 4398.08 864.794C4398.08 833.664 4398.08 804.554 4398.08 771.741C4429.23 771.741 4457.35 771.741 4486.82 771.741C4487.49 752.895 4487.49 738.256 4487.49 720.587ZM5182.39 478.616C5107.63 478.616 5034.05 478.616 4958.78 478.616C4957.1 467.51 4955.75 459.433 4954.41 451.02C4936.05 451.02 4919.72 451.02 4903.39 451.02C4901.37 461.957 4899.68 471.212 4897.66 482.991C4865 482.991 4833.85 482.991 4801.52 482.991C4801.52 517.823 4801.52 549.794 4801.52 584.794C4847.65 584.794 4892.27 588.328 4936.05 583.953C4990.1 578.4 5033.21 592.366 5063.35 637.799C5093.66 683.4 5137.1 677.174 5182.39 672.799C5182.39 608.857 5182.39 546.765 5182.39 478.616ZM4590.71 772.414C4590.71 814.313 4590.71 851.501 4590.71 889.025C4608.05 889.025 4622.53 889.025 4640.38 889.025C4640.38 865.299 4640.38 843.088 4640.38 821.213C4688.7 821.213 4733.49 821.213 4780.81 821.213C4780.81 845.275 4780.81 866.645 4780.81 888.857C4797.65 888.857 4811.79 888.857 4827.45 888.857C4827.45 855.876 4827.45 824.746 4827.45 791.429C4794.45 791.429 4763.13 791.429 4730.46 791.429C4728.1 781.501 4726.08 773.592 4723.56 763.496C4688.03 763.496 4653.85 763.496 4618.83 763.496C4616.47 752.054 4614.45 742.799 4612.43 733.881C4574.88 733.881 4538.85 733.881 4501.97 733.881C4501.97 747.174 4501.97 758.448 4501.97 772.583C4531.1 772.414 4558.38 772.414 4590.71 772.414ZM3655.36 475.587C3655.36 503.183 3655.36 528.592 3655.36 560.058C3674.89 555.179 3697.45 556.02 3707.89 545.251C3727.76 524.89 3748.81 521.525 3774.4 522.029C3817.51 523.207 3860.44 522.366 3903.04 522.366C3903.04 496.116 3903.04 474.914 3903.04 453.375C3887.21 453.375 3873.74 453.375 3859.94 453.375C3857.41 463.472 3855.22 472.558 3853.37 480.299C3822.73 480.299 3794.44 480.299 3762.95 480.299C3762.95 460.948 3763.96 443.279 3762.61 425.779C3761.77 415.347 3757.39 405.082 3754.53 394.818C3750.66 405.25 3746.95 415.683 3743.08 426.116C3742.07 428.808 3740.89 431.332 3739.88 433.856C3729.78 435.202 3720.35 436.38 3710.58 437.726C3709.24 449.842 3708.23 460.274 3706.88 472.053C3690.04 473.231 3674.38 474.241 3655.36 475.587ZM4456.34 522.366C4496.08 522.366 4532.61 523.88 4568.82 521.861C4592.73 520.515 4612.09 526.236 4624.89 546.26C4655.03 593.376 4699.65 587.823 4745.62 582.943C4745.62 553.496 4745.62 525.563 4745.62 495.779C4684.16 495.779 4625.06 495.779 4565.95 495.779C4557.2 495.779 4548.11 495.779 4539.52 494.265C4512.41 489.217 4485.47 483.327 4456.34 477.438C4456.34 496.789 4456.34 507.39 4456.34 522.366ZM4844.62 667.751C4844.62 743.136 4844.62 815.66 4844.62 888.857C4865 888.857 4883.35 888.857 4902.88 888.857C4903.89 868.833 4904.73 850.66 4905.75 831.14C4919.55 829.794 4931 828.616 4943.97 827.439C4943.97 816.333 4943.97 806.068 4943.97 792.102C4920.23 792.102 4898 792.102 4872.91 792.102C4872.91 748.52 4872.91 708.64 4872.91 667.751C4861.97 667.751 4854.39 667.751 4844.62 667.751ZM4281.73 447.486C4264.55 450.01 4239.63 448.496 4237.11 455.226C4230.37 473.231 4218.92 468.688 4207.14 470.539C4187.6 473.736 4160.66 457.414 4151.07 490.395C4150.39 492.751 4140.12 492.582 4134.4 492.751C4123.96 493.087 4113.52 492.919 4101.56 492.919C4102.07 504.529 4102.4 511.933 4102.91 520.515C4163.02 520.515 4221.62 520.515 4281.73 520.515C4281.73 497.462 4281.73 475.924 4281.73 447.486ZM5199.57 625.347C5199.57 643.183 5199.57 658.328 5199.57 673.304C5201.76 671.453 5203.95 669.602 5206.14 667.751C5222.47 678.184 5240.15 686.765 5254.8 699.217C5274.33 715.708 5290.83 735.732 5309.86 752.895C5317.27 759.626 5327.87 762.823 5337.13 767.534C5341.34 754.241 5340.67 741.285 5338.14 740.948C5303.29 735.732 5296.89 709.818 5295.04 681.717C5282.58 680.203 5272.14 679.025 5260.86 677.51C5260.02 659.505 5259.17 643.015 5258.16 625.347C5237.96 625.347 5219.44 625.347 5199.57 625.347ZM4396.56 483.664C4386.8 483.159 4378.04 482.318 4369.45 482.149C4346.05 481.981 4322.65 482.149 4297.89 482.149C4297.89 496.284 4297.89 507.558 4297.89 520.683C4307.49 521.188 4316.08 522.198 4324.67 522.198C4348.07 522.366 4371.48 522.198 4395.72 522.198C4396.73 514.457 4397.74 509.746 4397.74 505.203C4397.74 498.64 4397.07 491.909 4396.56 483.664ZM4439.67 458.592C4409.19 458.928 4408.35 461.957 4410.88 504.698C4412.22 528.255 4425.36 521.693 4439.67 520.683C4439.67 499.481 4439.67 480.13 4439.67 458.592ZM4789.73 581.092C4784.34 565.106 4779.63 550.467 4774.75 535.828C4770.2 543.4 4762.29 550.803 4761.61 558.712C4759.76 582.438 4760.77 582.606 4789.73 581.092ZM5103.09 461.452C5103.25 458.928 5103.42 456.404 5103.76 453.88C5086.58 453.88 5069.41 453.88 5052.4 453.88C5052.4 456.404 5052.4 458.928 5052.4 461.452C5069.24 461.452 5086.08 461.452 5103.09 461.452Z" fill="#A09F9D"/>
<path d="M633.102 226.548C633.102 393.471 633.102 552.991 633.102 713.352C620.137 698.039 617.611 260.707 633.102 226.548Z" fill="#A09F9D"/>
<path d="M736.826 811.116C739.058 811.116 740.867 659.84 740.867 473.231C740.867 286.622 739.058 135.346 736.826 135.346C734.594 135.346 732.785 286.622 732.785 473.231C732.785 659.84 734.594 811.116 736.826 811.116Z" fill="#A09F9D"/>
<path d="M2233.22 567.125C2231.7 575.707 2230.19 583.952 2228.67 593.039C2218.74 593.88 2210.15 594.721 2201.23 595.563C2193.14 638.471 2161.15 610.875 2139.94 619.457C2136.9 608.856 2134.72 600.611 2132.36 592.029C2114.85 591.188 2098.35 590.515 2078.48 589.505C2109.96 566.452 2145.66 574.697 2153.41 604.649C2166.03 603.64 2182.2 614.241 2186.58 589C2187.42 583.784 2203.75 581.092 2215.37 576.044C2216.55 570.491 2218.4 562.245 2220.42 553.327C2239.45 553.327 2256.96 553.327 2273.97 553.327C2296.19 582.606 2253.59 629.721 2303.26 655.298C2292.15 656.476 2281.21 657.654 2266.22 659.169C2266.22 626.524 2266.22 597.414 2266.22 566.789C2253.59 567.125 2244.16 567.125 2233.22 567.125Z" fill="#A09F9D"/>
<path d="M550.934 248.591C550.934 344.505 550.934 440.25 550.934 536.164C548.745 536.164 546.557 536.164 544.199 536.164C544.199 440.418 544.199 344.673 544.199 248.928C546.388 248.759 548.745 248.76 550.934 248.591Z" fill="#A09F9D"/>
<path d="M817.986 635.106C817.986 548.279 817.986 461.284 817.986 374.457C820.007 374.457 821.859 374.457 823.88 374.289C823.88 461.116 823.88 548.111 823.88 634.938C821.859 635.106 820.007 635.106 817.986 635.106Z" fill="#A09F9D"/>
<path d="M990.744 913.761C990.744 896.934 989.734 880.107 991.249 863.448C991.754 857.895 998.658 852.847 1002.7 847.631C1006.57 853.184 1013.14 858.232 1013.81 864.121C1015.5 876.741 1016 890.035 1013.64 902.487C1012.46 909.217 1004.55 914.77 999.837 920.828C996.806 918.472 993.775 916.116 990.744 913.761Z" fill="#A09F9D"/>
<path d="M962.12 884.313C955.553 897.102 949.996 907.703 944.608 918.304C940.567 907.198 933.158 896.092 933.158 884.986C933.158 872.534 940.062 860.251 943.935 847.799C949.491 859.241 955.216 870.683 962.12 884.313Z" fill="#A09F9D"/>
<path d="M2934.52 828.28C2950.52 828.28 2962.13 828.28 2976.61 828.28C2977.29 838.039 2977.96 847.294 2978.8 858.905C2964.32 858.905 2952.03 858.905 2936.88 858.905C2936.2 850.155 2935.53 840.9 2934.52 828.28Z" fill="#A09F9D"/>
<path d="M657.352 263.062C677.389 263.062 690.859 263.062 708.371 263.062C706.013 272.822 705.677 286.284 702.141 287.125C690.186 289.985 676.884 290.154 664.929 287.63C661.393 286.788 660.382 273.495 657.352 263.062Z" fill="#A09F9D"/>
<path d="M710.052 611.38C690.015 611.38 676.545 611.38 659.033 611.38C660.717 601.62 660.549 587.991 663.748 587.149C675.703 583.952 689.173 583.111 701.128 585.635C705.001 586.476 706.348 599.938 710.052 611.38Z" fill="#A09F9D"/>
<path d="M657.352 649.914C675.873 649.914 689.344 649.914 707.529 649.914C705.34 659.674 705.34 673.808 701.299 675.154C690.691 678.688 677.389 679.025 666.781 675.491C661.898 673.808 661.056 660.347 657.352 649.914Z" fill="#A09F9D"/>
<path d="M656.51 714.529C676.715 714.529 690.186 714.529 707.697 714.529C706.013 723.952 706.35 737.582 703.151 738.424C691.364 741.621 677.894 742.462 665.939 740.106C661.898 739.265 660.551 726.14 656.51 714.529Z" fill="#A09F9D"/>
<path d="M657.014 327.51C677.219 327.51 690.521 327.51 708.033 327.51C706.012 337.101 705.844 350.395 702.476 351.236C690.521 354.097 677.388 354.601 665.433 352.077C661.728 351.404 660.55 338.279 657.014 327.51Z" fill="#A09F9D"/>
<path d="M711.063 482.149C690.521 482.149 677.219 482.149 659.539 482.149C660.718 473.399 660.213 459.769 663.075 459.096C674.862 455.899 688.164 454.721 700.119 457.077C704.328 457.75 706.349 470.37 711.063 482.149Z" fill="#A09F9D"/>
<path d="M709.21 546.429C689.173 546.429 675.871 546.429 658.359 546.429C660.548 536.669 661.053 523.207 664.421 522.534C676.376 519.674 689.678 519.337 701.465 521.861C705.169 522.702 706.179 535.996 709.21 546.429Z" fill="#A09F9D"/>
<path d="M825.059 247.414C825.059 273.495 825.059 299.577 825.059 325.659C822.87 325.659 820.513 325.827 818.324 325.827C818.324 300.082 818.324 274.337 818.324 248.423C820.513 248.255 822.87 247.75 825.059 247.414Z" fill="#A09F9D"/>
<path d="M3607.54 952.967C3607.54 935.972 3607.54 926.381 3607.54 912.415C3616.12 913.761 3627.74 912.246 3630.77 916.621C3634.98 922.847 3635.65 934.626 3632.46 941.525C3629.93 946.91 3618.98 948.256 3607.54 952.967Z" fill="#A09F9D"/>
<path d="M711.907 386.909C705.509 402.894 703.488 416.188 699.278 416.861C687.323 418.88 674.358 416.524 662.235 414.168C660.551 413.832 659.541 398.856 660.383 398.688C674.358 394.481 688.671 391.789 711.907 386.909Z" fill="#A09F9D"/>
<path d="M2471.31 868.496C2479.9 868.16 2488.32 867.655 2499.09 867.318C2499.09 877.919 2499.09 886.838 2499.09 896.429C2474.51 902.992 2462.56 897.439 2471.31 868.496Z" fill="#A09F9D"/>
<path d="M2323.3 867.318C2323.3 879.265 2323.3 887.511 2323.3 897.439C2313.71 897.943 2305.46 898.448 2294.85 899.121C2294.85 888.52 2294.85 879.77 2294.85 868.833C2303.6 868.496 2311.85 867.991 2323.3 867.318Z" fill="#A09F9D"/>
<path d="M2381.22 897.438C2371.8 897.438 2363.54 897.438 2353.27 897.438C2353.27 887.847 2353.27 879.602 2353.27 869.169C2362.03 868.496 2370.45 867.823 2381.22 866.981C2381.22 877.919 2381.22 887.005 2381.22 897.438Z" fill="#A09F9D"/>
<path d="M2412.54 868.833C2422.48 868.833 2430.9 868.833 2440.83 868.833C2440.83 878.592 2440.83 887.006 2440.83 895.924C2417.26 903.328 2405.64 898.111 2412.54 868.833Z" fill="#A09F9D"/>
</svg>
