<svg width="18" height="15" viewBox="0 0 18 15" fill="none" xmlns="http://www.w3.org/2000/svg">
<path d="M16.7405 9.86187L12.8145 13.7878C12.616 13.9863 12.3734 14.0746 12.1088 14.0746C11.8661 14.0746 11.6015 13.9863 11.403 13.7878C11.028 13.4129 11.006 12.7733 11.403 12.3983L13.6527 10.1486H1.1028C0.838129 10.1486 0.5514 10.0383 0.374952 9.86187C0.176448 9.68542 0 9.42075 0 9.17813V4.14936C0 3.59796 0.44112 3.15684 0.992521 3.15684C1.54392 3.15684 1.98504 3.59796 1.98504 4.14936V8.18561H13.5865L11.403 5.9359C11.028 5.56094 11.028 4.92132 11.403 4.54637C11.7779 4.17142 12.4175 4.17142 12.7925 4.54637L16.7185 8.47234C17.1375 8.86935 17.1375 9.48691 16.7405 9.86187ZM1.14691 2.38488C1.43364 2.38488 1.72037 2.2746 1.91887 2.07609C2.11738 1.87759 2.24971 1.59086 2.24971 1.30413C2.24971 1.01741 2.13943 0.730677 1.91887 0.532173C1.72037 0.333669 1.43364 0.223389 1.14691 0.223389C0.860185 0.223389 0.573456 0.333669 0.374952 0.532173C0.176448 0.730677 0.044112 1.01741 0.044112 1.30413C0.044112 1.59086 0.154392 1.87759 0.374952 2.07609C0.573456 2.25254 0.860185 2.38488 1.14691 2.38488Z" fill="#797979"/>
</svg>
