<svg width="19" height="36" viewBox="0 0 19 36" fill="none" xmlns="http://www.w3.org/2000/svg">
<path d="M14.2642 31.5562C14.2507 31.5607 13.0063 31.9747 11.9263 31.9747C11.33 31.9747 11.0892 31.8509 11.0127 31.7969C10.6347 31.5337 9.93264 31.0409 11.1342 28.6467L13.3844 24.1599C14.7187 21.4958 14.9167 18.9194 13.9356 16.9032C13.1346 15.2539 11.5977 14.1221 9.61537 13.717C8.90208 13.5708 8.17753 13.4988 7.45974 13.4988C3.29923 13.4988 0.497803 15.9289 0.380796 16.0324C-0.0219795 16.388 -0.116486 16.9775 0.151281 17.441C0.421298 17.9046 0.977082 18.1161 1.49011 17.9406C1.50136 17.9361 2.74794 17.5198 3.82801 17.5198C4.4198 17.5198 4.65831 17.6435 4.73257 17.6953C5.11284 17.9608 5.81714 18.4603 4.61781 20.85L2.36767 25.339C1.03109 28.0054 0.835324 30.5818 1.81639 32.5957C2.61744 34.2451 4.15203 35.3769 6.1389 35.7819C6.84545 35.9237 7.57 36.0002 8.28554 36.0002C12.4483 36.0002 15.252 33.57 15.369 33.4665C15.7718 33.1133 15.8663 32.5215 15.5985 32.0579C15.3285 31.5967 14.7682 31.3896 14.2642 31.5562Z" fill="#222223"/>
<path d="M12.3763 11.2507C15.4831 11.2507 18.0017 8.73215 18.0017 5.62535C18.0017 2.51856 15.4831 0 12.3763 0C9.26953 0 6.75098 2.51856 6.75098 5.62535C6.75098 8.73215 9.26953 11.2507 12.3763 11.2507Z" fill="#222223"/>
</svg>
