<svg width="172" height="172" viewBox="0 0 172 172" fill="none" xmlns="http://www.w3.org/2000/svg">
<g clip-path="url(#clip0_156_2810)">
<path d="M158.652 172H13.3476C5.99442 172 0 166.006 0 158.652V13.3476C0 5.99442 5.99442 0 13.3476 0H158.652C166.006 0 172 5.99442 172 13.3476V158.652C172 166.006 166.006 172 158.652 172Z" fill="#D0A153"/>
<g clip-path="url(#clip1_156_2810)">
<path d="M45.1749 143.224C51.0679 143.213 56.9609 143.189 62.854 143.197C64.5105 143.201 64.5493 143.248 64.5726 144.82C64.6036 146.934 64.5687 149.052 64.592 151.17C64.5998 151.822 64.4872 152.43 64.1808 153C54.8272 153 45.4736 153 36.1084 153C36.2248 152.704 36.1123 153.055 36.0308 152.785C36.0114 152.727 35.9881 152.633 36.0153 152.598C38.9133 149.321 42.1062 146.333 45.1749 143.224Z" fill="#DEE0E0"/>
<path d="M45.7881 28.7757C51.6812 28.7874 57.5742 28.8108 63.4672 28.803C65.1238 28.7991 65.1626 28.7523 65.1859 27.1802C65.2169 25.0659 65.182 22.9477 65.2053 20.8295C65.213 20.1781 65.0966 19.5734 64.794 19C55.4404 19 46.0869 19 36.7178 19C36.8342 19.2965 36.7217 18.9454 36.6402 19.2145C36.6208 19.277 36.5975 19.3706 36.6247 19.4018C39.5266 22.6786 42.7194 25.6666 45.7881 28.7757Z" fill="#DEE0E0"/>
<path d="M89.549 81.8747L92.7613 85.1047C93.2501 85.5962 93.2501 86.4037 92.7613 86.8991L89.549 90.1291C89.0602 90.6206 88.2571 90.6206 87.7644 90.1291L84.5522 86.8991C84.0633 86.4076 84.0633 85.6001 84.5522 85.1047L87.7644 81.8747C88.2571 81.3793 89.0602 81.3793 89.549 81.8747Z" fill="#797979"/>
<path d="M65.0266 81.8747L68.2388 85.1047C68.7276 85.5962 68.7276 86.4037 68.2388 86.8991L65.0266 90.1291C64.5377 90.6206 63.7347 90.6206 63.242 90.1291L60.0297 86.8991C59.5409 86.4076 59.5409 85.6001 60.0297 85.1047L63.242 81.8747C63.7347 81.3793 64.5339 81.3793 65.0266 81.8747Z" fill="#797979"/>
<path d="M91.0782 143.224C95.819 143.213 121.602 143.189 126.347 143.197C127.682 143.201 127.713 143.248 127.732 144.82C127.755 146.934 127.728 149.052 127.748 151.17C127.752 151.822 127.662 152.43 127.418 153C119.892 153 101.759 153 94.2207 153C94.3138 152.704 94.2245 153.055 94.1586 152.785C94.1431 152.727 94.1237 152.633 94.1469 152.598C92.6417 147.944 88.6108 146.333 91.0782 143.224Z" fill="#DEE0E0"/>
<path d="M126.622 52.38C123.961 55.5749 121.265 58.7385 118.654 61.9724C116.924 64.114 115.465 66.4428 114.305 68.9589C111.492 75.0443 111.659 81.118 114.301 87.1956C114.495 87.6481 115.034 88.9393 115.17 89.1032L115.185 89.1383C115.426 89.5284 115.442 89.8053 115.201 89.9497C114.976 90.0862 114.677 90.0121 114.507 89.8092C114.289 89.5518 113.956 89.1929 113.793 89.1617C105.867 84.1373 103.846 73.7375 104.765 65.7992C105.188 62.1401 106.647 58.6839 108.885 55.7699C112.175 51.4867 122.06 39.3159 122.06 39.3159C124.395 36.4253 125.695 33.0433 126.684 29.5129C127.782 29.6924 127.666 30.6325 127.678 31.3308C127.767 37.619 127.786 43.9073 127.674 50.1955C127.654 51.0459 127.464 51.8885 126.622 52.38Z" fill="#DEE0E0"/>
<path d="M107.617 28.7757C101.724 28.7874 95.8306 28.8108 89.9376 28.803C88.2811 28.7991 88.2423 28.7523 88.219 27.1802C88.188 25.0659 88.2229 22.9477 88.1996 20.8295C88.1918 20.1781 88.3043 19.5695 88.6108 19C97.9644 19 107.318 19 116.683 19C116.567 19.2965 116.679 18.9454 116.761 19.2145C116.78 19.2731 116.803 19.3667 116.776 19.4018C113.882 22.6786 110.689 25.6666 107.617 28.7757Z" fill="#DEE0E0"/>
<path d="M126.622 52.38C126.874 51.5062 127.076 50.6402 127.068 49.704C127.037 43.6381 127.06 37.5761 127.045 31.5102C127.045 30.8314 127.266 30.0824 126.676 29.509C127.239 26.0333 126.925 22.5069 127.091 19.0078C127.949 18.9336 128.248 19.4837 128.612 19.8543C131.111 22.3976 133.57 24.9761 136.077 27.5078C136.713 28.1515 137.081 28.8263 136.984 29.7548C136.946 30.1058 136.98 30.4647 136.98 30.8197C136.98 57.4746 136.98 115.508 136.98 145.963C136.98 147.929 127.002 153.866 127.057 152.895C127.084 152.399 127.06 151.904 127.06 151.404C127.06 131.046 127.064 75.134 127.045 54.7752C127.045 53.9716 127.382 53.0549 126.622 52.38Z" fill="white"/>
<path d="M107.007 143.224C101.114 143.213 95.2213 143.189 89.3283 143.197C87.6717 143.201 87.6329 143.248 87.6096 144.82C87.5786 146.934 87.6135 149.052 87.5902 151.17C87.5825 151.822 87.695 152.43 88.0014 153C97.355 153 106.709 153 116.074 153C115.957 152.704 116.07 153.055 116.151 152.785C116.171 152.727 116.194 152.633 116.167 152.598C113.269 149.321 110.076 146.333 107.007 143.224Z" fill="#DEE0E0"/>
<path d="M78.4341 26.0373C78.4341 56.4955 78.4341 114.525 78.4341 141.18C78.4341 141.535 78.4651 141.894 78.4302 142.245C78.3293 143.174 78.7095 143.849 79.3613 144.492C81.9295 147.024 84.4551 149.602 87.0117 152.146C87.3842 152.516 87.6906 153.07 88.5713 152.992C88.7381 149.497 88.6256 128.362 88.5946 122.3C88.5907 121.36 88.6217 118.028 88.6179 117.229C88.6101 111.214 88.6062 102.093 88.6062 91.7051C88.1911 91.7441 87.7644 91.6115 87.4501 91.2955L83.2059 87.0279C82.6434 86.4623 82.6434 85.5378 83.2059 84.976L87.4501 80.7085C87.7644 80.3925 88.1911 80.2598 88.6023 80.2989C88.5985 57.8413 88.6023 32.817 88.6023 20.5994C88.6023 20.104 88.5791 19.6047 88.6101 19.1093C88.6644 18.134 78.4341 24.0751 78.4341 26.0373Z" fill="white"/>
<path d="M64.224 19.0078C64.0571 22.503 64.1697 43.6381 64.2007 49.7001C64.2046 50.6402 64.1735 53.9716 64.1774 54.7713C64.1852 60.7202 64.1891 69.704 64.1891 79.9477C64.546 79.9594 64.899 80.096 65.1667 80.369L69.7446 84.9721C70.3071 85.5377 70.3071 86.4622 69.7446 87.024L65.1667 91.627C64.899 91.9001 64.546 92.0366 64.1891 92.0444C64.1929 114.416 64.1891 139.245 64.1891 151.401C64.1891 151.896 64.2123 152.395 64.1813 152.891C64.1231 153.866 74.3535 147.925 74.3535 145.959C74.3535 115.501 74.3535 57.4707 74.3535 30.8158C74.3535 30.4609 74.3224 30.102 74.3573 29.7509C74.4582 28.8225 74.078 28.1476 73.4262 27.504C70.858 24.9723 68.3324 22.3938 65.7758 19.8504C65.4072 19.4837 65.1046 18.9298 64.224 19.0078Z" fill="white"/>
</g>
</g>
<defs>
<clipPath id="clip0_156_2810">
<rect width="172" height="172" fill="white"/>
</clipPath>
<clipPath id="clip1_156_2810">
<rect width="101" height="134" fill="white" transform="translate(36 19)"/>
</clipPath>
</defs>
</svg>
