<svg width="63" height="82" viewBox="0 0 63 82" fill="none" xmlns="http://www.w3.org/2000/svg">
<g clip-path="url(#clip0_583_10753)">
<path d="M6.21132 76.0179C9.8175 76.0107 13.4237 75.9964 17.0299 76.0012C18.0436 76.0036 18.0673 76.0322 18.0816 76.9942C18.1006 78.288 18.0792 79.5842 18.0934 80.8804C18.0982 81.2791 18.0293 81.6515 17.8418 82C12.118 82 6.39413 82 0.663174 82C0.734396 81.8186 0.665548 82.0334 0.615693 81.8687C0.603823 81.8329 0.589579 81.7756 0.606197 81.7541C2.37961 79.7489 4.33345 77.9204 6.21132 76.0179Z" fill="#DEE0E0"/>
<path d="M6.58675 5.98213C10.1929 5.98929 13.7991 6.00361 17.4053 5.99884C18.419 5.99645 18.4427 5.9678 18.457 5.00579C18.476 3.71197 18.4546 2.41577 18.4689 1.11956C18.4736 0.720911 18.4024 0.350907 18.2172 0C12.4934 0 6.76955 0 1.03622 0C1.10744 0.181421 1.0386 -0.0334197 0.98874 0.131292C0.97687 0.169486 0.962626 0.226776 0.979244 0.245873C2.75503 2.25106 4.70887 4.07959 6.58675 5.98213Z" fill="#DEE0E0"/>
<path d="M33.3661 38.4756L35.3318 40.4522C35.6309 40.7529 35.6309 41.2471 35.3318 41.5502L33.3661 43.5268C33.067 43.8275 32.5755 43.8275 32.274 43.5268L30.3083 41.5502C30.0092 41.2495 30.0092 40.7553 30.3083 40.4522L32.274 38.4756C32.5755 38.1725 33.067 38.1725 33.3661 38.4756Z" fill="#797979"/>
<path d="M18.3593 38.4756L20.325 40.4522C20.6241 40.7529 20.6241 41.2471 20.325 41.5502L18.3593 43.5268C18.0601 43.8275 17.5687 43.8275 17.2672 43.5268L15.3015 41.5502C15.0024 41.2495 15.0024 40.7553 15.3015 40.4522L17.2672 38.4756C17.5687 38.1725 18.0578 38.1725 18.3593 38.4756Z" fill="#797979"/>
<path d="M34.3014 76.0179C37.2025 76.0107 52.9804 75.9964 55.8839 76.0012C56.7005 76.0036 56.7195 76.0322 56.7314 76.9942C56.7456 78.288 56.729 79.5842 56.7409 80.8804C56.7433 81.2791 56.6887 81.6515 56.5391 82C51.9334 82 40.8371 82 36.2244 82C36.2813 81.8186 36.2267 82.0334 36.1864 81.8687C36.1769 81.8329 36.165 81.7756 36.1793 81.7541C35.2581 78.9063 32.7915 77.9204 34.3014 76.0179Z" fill="#DEE0E0"/>
<path d="M56.0519 20.4266C54.4233 22.3816 52.7733 24.3176 51.1756 26.2965C50.1168 27.6071 49.2241 29.0322 48.5143 30.5719C46.7931 34.2958 46.8952 38.0125 48.5119 41.7317C48.6306 42.0086 48.9606 42.7987 49.0437 42.899L49.0532 42.9204C49.2004 43.1591 49.2099 43.3286 49.0627 43.417C48.925 43.5005 48.7422 43.4552 48.6377 43.331C48.5048 43.1735 48.3006 42.9539 48.2009 42.9348C43.3507 39.8601 42.1139 33.4961 42.6765 28.6383C42.9353 26.3992 43.8279 24.2842 45.1977 22.501C47.2109 19.8799 53.26 12.4321 53.26 12.4321C54.6892 10.6633 55.4845 8.59363 56.0899 6.43329C56.7617 6.5431 56.6905 7.11839 56.6976 7.54569C56.7522 11.3937 56.7641 15.2418 56.6953 19.0898C56.6834 19.6102 56.5671 20.1258 56.0519 20.4266Z" fill="#DEE0E0"/>
<path d="M44.4214 5.98213C40.8152 5.98929 37.209 6.00361 33.6029 5.99884C32.5891 5.99645 32.5654 5.9678 32.5512 5.00579C32.5322 3.71197 32.5535 2.41577 32.5393 1.11956C32.5345 0.720911 32.6034 0.34852 32.7909 0C38.5148 0 44.2386 0 49.9696 0C49.8983 0.181421 49.9672 -0.0334197 50.017 0.131292C50.0289 0.167098 50.0431 0.224389 50.0265 0.245873C48.2555 2.25106 46.3016 4.07959 44.4214 5.98213Z" fill="#DEE0E0"/>
<path d="M56.0518 20.4266C56.2061 19.8919 56.3295 19.3619 56.3248 18.789C56.3058 15.0771 56.32 11.3675 56.3105 7.6555C56.3105 7.24014 56.4458 6.78181 56.085 6.4309C56.4292 4.30398 56.2369 2.14602 56.339 0.0047744C56.8637 -0.0405809 57.0465 0.296003 57.2696 0.52278C58.7985 2.07918 60.3037 3.65707 61.8373 5.20631C62.2267 5.60019 62.4522 6.01316 62.3928 6.58129C62.3691 6.79613 62.3905 7.01575 62.3905 7.23298C62.3905 23.5442 62.3905 59.0574 62.3905 77.6936C62.3905 78.8967 56.2844 82.5299 56.3177 81.9355C56.3343 81.6324 56.32 81.3292 56.32 81.0237C56.32 68.5653 56.3224 34.3507 56.3105 21.8923C56.3105 21.4005 56.5171 20.8396 56.0518 20.4266Z" fill="white"/>
<path d="M44.0493 76.0179C40.4432 76.0107 36.837 75.9964 33.2308 76.0012C32.2171 76.0036 32.1933 76.0322 32.1791 76.9942C32.1601 78.288 32.1815 79.5842 32.1672 80.8804C32.1625 81.2791 32.2313 81.6515 32.4189 82C38.1427 82 43.8665 82 49.5975 82C49.5263 81.8186 49.5951 82.0334 49.645 81.8687C49.6568 81.8329 49.6711 81.7756 49.6545 81.7541C47.881 79.7489 45.9272 77.9204 44.0493 76.0179Z" fill="#DEE0E0"/>
<path d="M26.564 4.30637C26.564 22.945 26.564 58.4558 26.564 74.767C26.564 74.9842 26.583 75.2039 26.5616 75.4187C26.4999 75.9868 26.7325 76.3998 27.1314 76.7937C28.703 78.3429 30.2485 79.9208 31.813 81.4772C32.0409 81.704 32.2285 82.043 32.7674 81.9952C32.8695 79.8564 32.8006 66.9229 32.7816 63.2134C32.7793 62.6381 32.7982 60.5995 32.7959 60.1101C32.7911 56.4292 32.7887 50.8481 32.7887 44.4912C32.5347 44.515 32.2736 44.4339 32.0813 44.2405L29.4841 41.629C29.1398 41.2829 29.1398 40.7171 29.4841 40.3734L32.0813 37.7619C32.2736 37.5685 32.5347 37.4874 32.7864 37.5112C32.784 23.7686 32.7864 8.45518 32.7864 0.978722C32.7864 0.675558 32.7721 0.370006 32.7911 0.0668421C32.8244 -0.529938 26.564 3.10565 26.564 4.30637Z" fill="white"/>
<path d="M17.8681 0.00477509C17.766 2.14364 17.8348 15.0771 17.8538 18.7866C17.8562 19.3619 17.8372 21.4005 17.8396 21.8899C17.8443 25.5303 17.8467 31.0278 17.8467 37.2964C18.0651 37.3035 18.2811 37.3871 18.445 37.5542L21.2463 40.371C21.5906 40.7171 21.5906 41.2829 21.2463 41.6266L18.445 44.4434C18.2811 44.6105 18.0651 44.6941 17.8467 44.6988C17.8491 58.389 17.8467 73.583 17.8467 81.0213C17.8467 81.3244 17.8609 81.63 17.8419 81.9332C17.8063 82.5299 24.0667 78.8943 24.0667 77.6912C24.0667 59.0526 24.0667 23.5418 24.0667 7.23059C24.0667 7.01336 24.0477 6.79375 24.0691 6.57891C24.1308 6.01077 23.8981 5.5978 23.4993 5.20392C21.9277 3.65468 20.3822 2.0768 18.8177 0.520393C18.5921 0.296004 18.407 -0.0429673 17.8681 0.00477509Z" fill="white"/>
</g>
<defs>
<clipPath id="clip0_583_10753">
<rect width="61.806" height="82" fill="white" transform="translate(0.59668)"/>
</clipPath>
</defs>
</svg>
