<svg width="13" height="18" viewBox="0 0 13 18" fill="none" xmlns="http://www.w3.org/2000/svg">
<path d="M11.038 1.64831C12.0725 1.8351 12.7751 2.78677 12.6662 3.81331L12.6451 3.9604L10.5145 15.7071C10.3273 16.7392 9.37354 17.4402 8.34468 17.3316L8.19727 17.3106L2.31082 16.2476C1.27641 16.0609 0.573811 15.1092 0.682649 14.0826L0.70377 13.9356L2.83436 2.18886C3.02156 1.15676 3.97536 0.455722 5.00419 0.564314L5.1516 0.585386L11.038 1.64831ZM10.8605 2.6272L4.97405 1.56428C4.47093 1.47343 3.98771 1.77644 3.84274 2.25305L3.81543 2.36601L1.68484 14.1127C1.59379 14.6147 1.89748 15.0969 2.37515 15.2415L2.48837 15.2687L8.37482 16.3317C8.87796 16.4225 9.36116 16.1195 9.50613 15.6429L9.53344 15.5299L11.664 3.78324C11.7551 3.28124 11.4514 2.7991 10.9737 2.65445L10.8605 2.6272ZM6.94531 13.0407C7.21619 13.0896 7.3961 13.3484 7.34708 13.6187C7.3035 13.859 7.09369 14.0275 6.85736 14.0276L6.76776 14.0196L4.80562 13.6653C4.5347 13.6164 4.35483 13.3575 4.40385 13.0873C4.44743 12.847 4.65721 12.6785 4.89356 12.6783L4.98316 12.6864L6.94531 13.0407Z" fill="#D0A153"/>
</svg>
