<svg width="24" height="24" viewBox="0 0 24 24" fill="none" xmlns="http://www.w3.org/2000/svg">
<path d="M9.16078 10.87C9.05101 10.86 8.94055 10.86 8.83078 10.87C7.66699 10.8267 6.56664 10.3285 5.7664 9.48239C4.96615 8.63629 4.52993 7.50991 4.55155 6.34552C4.57317 5.18112 5.0509 4.07172 5.882 3.2559C6.7131 2.44009 7.83119 1.98303 8.99578 1.98303C10.1604 1.98303 11.2785 2.44009 12.1096 3.2559C12.9407 4.07172 13.4184 5.18112 13.44 6.34552C13.4616 7.50991 13.0254 8.63629 12.2252 9.48239C11.4249 10.3285 10.3246 10.8267 9.16078 10.87Z" stroke="#797979" stroke-width="1.5" stroke-linecap="round" stroke-linejoin="round"/>
<path d="M16.4093 4C17.3376 4 18.2278 4.36875 18.8842 5.02513C19.5405 5.6815 19.9093 6.57174 19.9093 7.5C19.9099 8.40617 19.5591 9.27726 18.9306 9.93002C18.302 10.5828 17.4448 10.9663 16.5393 11C16.4529 10.99 16.3657 10.99 16.2793 11" stroke="#797979" stroke-width="1.5" stroke-linecap="round" stroke-linejoin="round"/>
<path d="M4.1607 14.561C1.7407 16.181 1.7407 18.821 4.1607 20.431C5.67397 21.3341 7.40342 21.811 9.1657 21.811C10.928 21.811 12.6574 21.3341 14.1707 20.431C16.5907 18.811 16.5907 16.171 14.1707 14.561C12.6558 13.6626 10.927 13.1885 9.1657 13.1885C7.40442 13.1885 5.67562 13.6626 4.1607 14.561V14.561Z" stroke="#797979" stroke-width="1.5" stroke-linecap="round" stroke-linejoin="round"/>
<path d="M18.3398 20C19.05 19.8603 19.7198 19.563 20.2998 19.13C20.6585 18.901 20.9537 18.5854 21.1581 18.2123C21.3626 17.8391 21.4698 17.4205 21.4698 16.995C21.4698 16.5695 21.3626 16.1509 21.1581 15.7777C20.9537 15.4046 20.6585 15.089 20.2998 14.86C19.7255 14.4384 19.0674 14.1451 18.3698 14" stroke="#797979" stroke-width="1.5" stroke-linecap="round" stroke-linejoin="round"/>
</svg>
