<svg width="17" height="16" viewBox="0 0 17 16" fill="none" xmlns="http://www.w3.org/2000/svg">
<path d="M14.6579 0.264759C14.8521 0.0751118 15.1671 0.0749764 15.3615 0.264469L16.854 1.71942C16.9473 1.81039 16.9998 1.93387 16.9999 2.0626C17 2.19133 16.9475 2.31482 16.8543 2.40588L15.3618 3.86336C15.1675 4.05296 14.8525 4.05315 14.6582 3.86365C14.4638 3.67415 14.4637 3.36679 14.6579 3.17719L15.3007 2.54946H6.75763L7.40126 3.1769C7.59564 3.3664 7.59577 3.67366 7.40156 3.86336C7.20736 4.05296 6.89235 4.05315 6.69798 3.86365L5.20544 2.4087C5.1121 2.31773 5.05963 2.19424 5.05957 2.06551C5.05951 1.93679 5.11188 1.8133 5.20514 1.72224L6.69768 0.264759C6.89188 0.0751118 7.20689 0.0749764 7.40126 0.264469C7.59564 0.453971 7.59577 0.761329 7.40156 0.950928L6.75873 1.57865H15.3018L14.6582 0.951219C14.4638 0.761717 14.4637 0.454359 14.6579 0.264759Z" fill="#D0A153"/>
<path d="M4.38873 13.5211C4.56367 13.7069 4.5638 14.0083 4.389 14.1941L3.04688 15.6218C2.96297 15.7111 2.84906 15.7612 2.73031 15.7613C2.61156 15.7614 2.49765 15.7113 2.41365 15.6221L1.0692 14.1944C0.894307 14.0086 0.894128 13.7073 1.06893 13.5214C1.24374 13.3356 1.52726 13.3354 1.70216 13.5211L2.28121 14.136L2.28121 5.96432L1.70243 6.57997C1.52762 6.7659 1.24419 6.76602 1.0692 6.58026C0.894307 6.3945 0.894128 6.09318 1.06893 5.90726L2.41106 4.4796C2.49497 4.39032 2.60888 4.34013 2.72762 4.34007C2.84637 4.34002 2.96028 4.39011 3.04428 4.47932L4.38873 5.90697C4.56367 6.09273 4.5638 6.39405 4.389 6.57997C4.2142 6.7659 3.93067 6.76602 3.75578 6.58026L3.17673 5.96538L3.17673 14.137L3.75551 13.5214C3.93031 13.3356 4.21384 13.3354 4.38873 13.5211Z" fill="#D0A153"/>
<path fill-rule="evenodd" clip-rule="evenodd" d="M14.4398 5.20353H7.39984C6.51619 5.20353 5.79984 5.88874 5.79984 6.73398V13.468C5.79984 14.3132 6.51619 14.9984 7.39984 14.9984H14.4398C15.3235 14.9984 16.0398 14.3132 16.0398 13.468V6.73398C16.0398 5.88874 15.3235 5.20353 14.4398 5.20353ZM7.39984 4.28526C5.98599 4.28526 4.83984 5.38159 4.83984 6.73398V13.468C4.83984 14.8203 5.98599 15.9167 7.39984 15.9167H14.4398C15.8537 15.9167 16.9998 14.8203 16.9998 13.468V6.73398C16.9998 5.38159 15.8537 4.28526 14.4398 4.28526H7.39984Z" fill="#D0A153"/>
<path d="M16.04 6.73398H17V9.1827H16.04V6.73398Z" fill="white"/>
<path d="M16.04 10.4071H17V12.8558H16.04V10.4071Z" fill="white"/>
</svg>
