<svg width="24" height="24" viewBox="0 0 24 24" fill="none" xmlns="http://www.w3.org/2000/svg">
<path d="M9.5 3L3.63 7.04006C3.15049 7.45666 2.75923 7.96504 2.47928 8.53523C2.19934 9.10543 2.03638 9.72589 2 10.3601L2 17.7701C2.00131 18.8871 2.44497 19.9582 3.23393 20.7491C4.02289 21.5399 5.09293 21.9861 6.21 21.9901H17.79C18.9055 21.9866 19.9743 21.542 20.7631 20.7532C21.5519 19.9644 21.9966 18.8956 22 17.7801V10.5001C21.9623 9.83014 21.7822 9.17595 21.4718 8.58106C21.1614 7.98618 20.7279 7.46426 20.2 7.05006L14.5 2.877C13.7485 2.39893 12.8717 2.15533 11.9813 2.17724C11.0909 2.19914 10.2271 2.48555 9.5 3Z" stroke="#797979" stroke-width="1.5" stroke-linecap="round" stroke-linejoin="round"/>
<path d="M12 18V15" stroke="#797979" stroke-width="1.5" stroke-linecap="round" stroke-linejoin="round"/>
</svg>
