<svg width="24" height="24" viewBox="0 0 24 24" fill="none" xmlns="http://www.w3.org/2000/svg">
<path d="M2.29004 7.78002V17.51C2.29004 19.41 3.64004 20.19 5.28004 19.25L7.63004 17.91C7.92222 17.7639 8.24291 17.6837 8.56948 17.675C8.89606 17.6664 9.22054 17.7295 9.52004 17.86L14.77 20.49C15.0701 20.6181 15.3943 20.68 15.7205 20.6713C16.0467 20.6627 16.3671 20.5838 16.66 20.44L20.99 17.96C21.2824 17.7688 21.526 17.5119 21.7014 17.2098C21.8767 16.9077 21.979 16.5687 22 16.22V6.49002C22 4.59002 20.65 3.81002 19.01 4.75002L16.66 6.09002C16.3679 6.23616 16.0472 6.31638 15.7206 6.32502C15.394 6.33366 15.0695 6.27051 14.77 6.14002L9.52004 3.52002C9.21995 3.39191 8.89576 3.33005 8.56958 3.33868C8.24341 3.34731 7.92293 3.42622 7.63004 3.57002L3.30004 6.05002C3.00733 6.23845 2.76328 6.49337 2.58776 6.79401C2.41225 7.09464 2.31024 7.43248 2.29004 7.78002V7.78002Z" stroke="#D0A153" stroke-width="1.5" stroke-linecap="round" stroke-linejoin="round"/>
<path d="M8.55957 4V17" stroke="#D0A153" stroke-width="1.5" stroke-linecap="round" stroke-linejoin="round"/>
<path d="M8 4V17" stroke="#D0A153" stroke-width="1.5" stroke-linecap="round" stroke-linejoin="round"/>
<path d="M7 4V17" stroke="#D0A153" stroke-width="1.5" stroke-linecap="round" stroke-linejoin="round"/>
<path d="M6 5V18" stroke="#D0A153" stroke-width="1.5" stroke-linecap="round" stroke-linejoin="round"/>
<path d="M5 6V19" stroke="#D0A153" stroke-width="1.5" stroke-linecap="round" stroke-linejoin="round"/>
<path d="M4 6V19" stroke="#D0A153" stroke-width="1.5" stroke-linecap="round" stroke-linejoin="round"/>
<path d="M3 7V19" stroke="#D0A153" stroke-width="1.5" stroke-linecap="round" stroke-linejoin="round"/>
<path d="M15.7305 6.62V20" stroke="#D0A153" stroke-width="1.5" stroke-linecap="round" stroke-linejoin="round"/>
<path d="M17 6V19.38" stroke="#D0A153" stroke-width="1.5" stroke-linecap="round" stroke-linejoin="round"/>
<path d="M18 6V19.38" stroke="#D0A153" stroke-width="1.5" stroke-linecap="round" stroke-linejoin="round"/>
<path d="M19 6V19" stroke="#D0A153" stroke-width="1.5" stroke-linecap="round" stroke-linejoin="round"/>
<path d="M20 5V18" stroke="#D0A153" stroke-width="1.5" stroke-linecap="round" stroke-linejoin="round"/>
<path d="M21 5V18" stroke="#D0A153" stroke-width="1.5" stroke-linecap="round" stroke-linejoin="round"/>
</svg>
