<svg width="154" height="184" viewBox="0 0 154 184" fill="none" xmlns="http://www.w3.org/2000/svg">
<path fill-rule="evenodd" clip-rule="evenodd" d="M98.6317 178.346L92.848 178.262C91.6786 178.228 92.0964 178.278 91.2267 178.56C90.3407 178.827 36.9966 178.643 34.741 178.643L35.593 143.747C36.095 143.265 41.1097 140.722 42.2126 140.108C44.4024 138.878 46.6264 137.765 48.8161 136.553C53.212 134.11 57.7759 131.867 62.1395 129.391C67.3888 126.384 73.4578 123.459 78.7556 120.436C79.5573 119.97 81.2806 118.957 82.0662 118.657C82.9862 118.309 89.455 119.738 90.793 120.036C96.2595 121.232 101.509 122.827 105.955 125.22C108.279 126.483 110.384 127.979 111.788 129.574C114.412 132.565 113.962 132.897 113.912 137.683L113.745 168.075C113.761 171.232 113.996 175.27 113.761 178.311C111.905 178.411 105.119 178.677 103.664 178.345C103.547 174.889 103.162 171.582 102.527 168.325C102.21 166.73 100.47 160.034 100.621 159.086C101.372 154.5 103.178 144.978 104.548 140.807C103.462 140.159 101.824 138.762 100.486 138.032C98.7807 139.61 96.4905 154.15 95.8054 157.655C95.6386 158.47 95.3033 159.284 95.4717 160.114L97.2437 167.509C97.9952 171.049 98.5135 174.572 98.6317 178.343L98.6317 178.346ZM30.6441 140.793L29.7241 178.646H18.1728C18.6749 171.915 20.8971 164.206 22.6189 157.908C23.0028 156.529 22.2351 154.219 21.9662 152.724C21.6326 150.929 21.3313 149.184 20.9636 147.356C20.3109 143.982 19.71 140.311 18.2394 137.568C17.7713 137.768 14.5449 139.961 14.127 140.359C14.4283 141.756 15.013 143.35 15.3644 144.929C15.7321 146.557 16.0172 148.12 16.3346 149.747C16.6359 151.359 16.9193 153.02 17.2044 154.633C17.6887 157.225 17.7227 156.793 17.0699 159.302C15.4811 165.483 13.6087 171.947 13.1422 178.627L5.80363 178.644L5.76962 177.231C5.7356 167.643 5.56877 158.089 5.31774 148.518C5.20113 143.964 4.86588 138.964 5.00029 134.444C5.10071 130.955 9.31332 127.864 11.6378 126.451C18.4581 122.314 28.2716 120.203 37.0648 119.106C38.8707 118.874 38.5533 118.956 39.8069 119.788L48.6502 125.637C50.0885 126.601 51.6094 127.664 53.0296 128.594L30.6441 140.793ZM50.9885 101.594C57.9594 103.471 61.3366 102.973 67.9724 101.726C67.9724 106.91 67.5707 112.012 67.8218 117.28L73.9231 117.246L73.1214 117.795C72.7877 117.977 72.5189 118.143 72.2192 118.293L59.6152 125.056C57.759 126.102 58.3955 126.136 56.1539 124.64C54.1472 123.311 51.3566 121.665 49.7855 120.004C49.0502 119.206 47.5958 118.293 47.0273 117.361L51.1558 117.345V109.42C51.1558 107.277 50.5209 103.737 50.989 101.593L50.9885 101.594ZM33.6191 71.5023C51.0889 71.0363 68.3899 71.154 85.8423 71.4023C85.8423 79.6937 82.1819 86.224 78.1861 90.1955C64.8286 103.423 43.0135 98.6206 35.74 82.3186C34.888 80.3917 32.8813 73.8436 33.6166 71.5006L33.6191 71.5023ZM19.3432 70.272L19.8453 70.7202C22.0189 73.2131 24.9942 74.6079 28.4378 75.1078C29.0403 82.1203 32.4335 89.1815 37.3151 94.0174C33.1688 95.7121 31.2801 95.9443 26.6333 98.4532C25.5627 99.0176 24.3593 99.7658 23.3567 100.232C22.738 99.3014 21.0325 88.0189 20.7491 85.9583C20.0477 81.0225 19.395 75.34 19.3448 70.2722L19.3432 70.272ZM97.5309 98.9189L94.3207 96.992C91.4118 95.2973 86.3294 93.3526 83.0704 92.6044C83.2874 92.1384 83.0542 92.5544 83.3717 92.1223C87.5342 86.5884 89.6235 82.8828 90.6763 75.2234L94.2703 74.2592C96.6448 73.3126 99.2347 71.368 100.572 69.2574C100.856 68.7752 101.091 68.177 101.525 67.7787C101.842 71.0359 100.723 80.3916 100.205 83.947C99.8872 86.1899 98.1153 97.7722 97.5306 98.9189L97.5309 98.9189ZM33.3206 45.8298C33.3206 44.5172 33.0695 43.3546 33.6882 43.3546H44.4542C45.1069 43.3546 45.3402 44.7172 46.9453 46.2957C47.9316 47.2923 48.5666 47.9243 49.9206 48.8209C56.5581 53.2245 66.3538 51.6298 71.2676 44.7833C71.5511 44.385 71.9025 43.3547 72.471 43.3547H85.5772C85.7942 44.4511 85.6436 64.7232 85.6436 66.3855L65.8175 66.1695C54.969 66.0856 44.1851 66.3194 33.3188 66.4678L33.3206 45.8298ZM90.8594 68.3446C90.8594 66.916 90.6585 66.3178 90.6585 64.9553V54.4373C97.9972 55.5999 98.0473 66.9325 90.8594 68.3447V68.3446ZM28.2869 68.3108C25.3942 67.8625 23.0036 64.8553 22.9875 61.4481C22.9534 58.0087 25.4121 55.0016 28.3031 54.5017L28.2869 68.3108ZM20.5142 51.3298C20.7474 49.419 21.852 44.9493 22.6035 43.3546H28.3048L28.2546 47.7422C25.9303 48.0905 23.9755 48.7564 22.1354 50.1012C21.5507 50.5172 20.9984 51.0977 20.5141 51.3315L20.5142 51.3298ZM97.6652 43.4368L97.7818 43.6529C98.752 46.5779 99.9716 49.9174 100.373 53.1904L99.8388 52.6583C99.3545 52.0939 99.2703 51.844 98.5852 51.2457C96.7792 49.6671 93.7037 47.8064 91.13 47.8064L90.7284 47.6564C90.5437 47.3081 90.5939 47.1743 90.6118 46.676L90.6458 43.3366L96.964 43.2705C97.5827 43.2866 97.5487 43.2705 97.6653 43.4366L97.6652 43.4368ZM56.7088 27.8006C62.3922 26.9041 67.6755 30.5418 68.8286 35.3774C69.5299 38.3024 68.3945 41.3097 66.9223 42.9885C65.518 44.6009 63.4448 46.0618 60.6704 46.76C57.2594 47.5905 54.9692 46.4118 52.8475 44.9315C50.9087 43.569 49.187 41.6743 48.5183 39.249C47.6663 36.1757 48.6349 33.2829 50.24 31.4559C51.7446 29.7274 53.4162 28.3148 56.7091 27.8004L56.7088 27.8006ZM22.856 32.5866H43.8859C43.3838 34.9295 43.1003 35.6938 43.3174 38.3689H22.89V37.8046L22.856 32.5866ZM73.6778 38.3689C73.8446 35.6439 73.5109 34.9457 73.0429 32.5866H97.2667V38.2191L97.1662 38.3691L73.6778 38.3689ZM23.507 27.5848C23.6236 21.8346 28.2218 17.5651 32.4005 14.4415C39.3713 9.20727 50.037 4.78751 59.8667 5.3357C69.5799 5.86782 80.5789 8.72509 87.2487 14.5253C87.9501 15.1396 88.5526 15.5395 89.2377 16.22C91.5619 18.4968 95.4394 24.0791 96.1244 27.6023L70.2147 27.5684C69.5798 27.4362 69.3287 26.8203 68.8266 26.3881C63.0267 21.4862 53.7654 21.3203 48.0804 26.5042C46.5093 27.9506 47.1604 27.6007 44.0183 27.6007C37.1979 27.6007 30.327 27.6506 23.5067 27.5845L23.507 27.5848ZM18.4082 27.5348L17.8413 27.5364V41.1779L15.8524 48.7712C15.1997 51.9623 14.4319 55.8836 14.4481 59.3395C14.4481 60.2361 14.2975 60.6021 14.2975 61.5825C14.3137 63.3272 14.1631 64.5574 14.1631 66.2181C14.1631 67.9289 14.2975 69.1254 14.2975 70.8703C14.2975 72.565 14.5145 73.9114 14.581 75.5059C15.1155 86.6224 17.5061 98.0885 19.9629 108.573C20.6642 108.407 24.9273 105.183 25.813 104.667C26.8658 104.053 27.8522 103.455 28.973 102.889C31.2129 101.792 33.3689 100.812 35.7269 99.9137C37.0146 99.4154 38.0673 99.0494 39.4376 98.6672C41.6274 98.0352 41.561 97.5869 42.9474 98.5173C43.984 99.2316 45.0529 99.6976 46.1397 100.262V113.073C45.0529 113.323 43.5985 113.405 42.4615 113.489C34.1024 114.219 25.5278 115.632 17.8537 118.158C13.9423 119.437 10.013 121.216 6.71998 123.675C4.01192 125.702 0 129.823 0 133.611C0 141.388 0.434083 148.948 0.434083 156.674C0.417887 158.484 0.568515 159.865 0.568515 161.741V167.092C0.568515 168.022 0.719143 168.454 0.702948 169.485V183.41C1.53868 183.41 1.20503 183.56 1.85613 183.676C3.29441 183.908 16.1822 183.826 17.6869 183.842C19.1252 183.842 20.2443 183.692 21.7992 183.692H97.5281C98.3298 183.692 98.7817 183.842 99.3664 183.842C99.9349 183.842 100.387 183.692 101.205 183.692H118.189V182.994H118.891L118.762 161.182C118.762 158.623 118.896 156.496 118.896 154.021V139.381C118.896 137.104 119.248 134.579 119.047 132.202C118.862 130.257 116.305 126.834 114.768 125.339C114.384 124.973 114.149 124.873 113.765 124.509C112.813 123.595 111.759 122.88 110.639 122.132C106.828 119.589 102.23 117.845 97.7841 116.616C93.9049 115.552 89.9433 114.639 85.7646 113.941L76.0352 112.628C75.6336 112.578 74.9144 112.496 74.3978 112.429C73.6964 112.329 72.8931 112.578 72.8931 111.946V100.548C72.8931 100.05 73.7952 99.7837 74.1807 99.5676L77.1739 97.7729C77.3585 97.6568 78.562 96.7587 78.562 96.7587C79.7492 96.7587 84.213 98.0874 85.2981 98.5034L92.6869 101.843C93.1712 102.141 93.5567 102.375 93.9907 102.657C96.1141 104.07 98.0188 105.748 99.8246 107.543C100.226 107.941 100.494 108.423 101.062 108.573C101.797 105.466 102.133 102.077 102.75 98.9854L104.471 89.4478C105.625 83.7476 106.577 74.6761 106.577 69.0419C106.577 59.47 106.159 52.6251 103.166 43.734C102.899 42.9197 102.33 41.9555 102.33 41.0428L102.329 27.535C100.89 27.535 101.358 26.8707 100.44 24.4939C98.0835 18.4118 94.138 13.3613 88.9551 9.47201C87.2334 8.1756 85.3611 7.0791 83.4724 6.04873C80.4971 4.47013 77.0199 3.22367 73.6928 2.40939C66.0868 0.53247 57.36 -0.647825 49.5192 1.19682C48.3822 1.46287 47.2792 1.74505 46.2767 2.04498C38.7208 4.35405 32.3507 7.82737 26.3659 12.8131C25.9821 13.1291 25.6646 13.4951 25.3131 13.8596L23.3242 15.9703C21.9863 17.3667 20.8995 19.1114 20.0476 20.8722C19.0774 22.8991 18.4101 25.1099 18.4101 27.5351L18.4082 27.5348Z" fill="#D0A153"/>
<path fill-rule="evenodd" clip-rule="evenodd" d="M125.678 111.598C122.803 109.671 122.854 98.4205 122.267 96.6422C120.763 92.0065 119.041 87.569 117.553 82.9007C116.817 80.5917 115.847 77.8329 116.182 75.2236C116.5 72.8146 117.687 70.1719 118.907 68.7593C120.528 66.8985 121.498 65.902 124.005 64.5393C126.012 63.459 128.519 62.6947 131.177 62.4948C136.945 62.0787 141.943 64.5055 144.786 67.2146C146.073 68.4272 147.644 70.604 148.38 72.9309C149.3 75.9059 148.982 78.1313 148.48 81.1562C147.628 86.3566 146.357 91.3922 145.455 96.5422C144.836 100.015 145.203 107.094 142.646 110.932C142.363 111.33 142.345 111.33 142.044 111.514C140.406 109.703 139.486 104.585 139.219 101.412C138.918 97.9722 139.536 97.4239 138.283 95.9116C137.497 94.9812 135.691 93.9508 133.752 94.0008C131.579 94.0508 130.291 95.1472 129.356 96.1776C128.571 97.0258 128.838 97.4402 128.772 98.8688C128.738 99.8153 128.655 100.763 128.555 101.726C128.203 105.049 127.685 109.037 125.68 111.596L125.678 111.598ZM125.678 116.732C131.028 116.732 132.599 108.889 133.252 104.835C133.403 103.871 133.553 102.908 133.62 101.96C133.654 101.328 133.754 101.08 133.754 100.415C133.754 99.6512 133.587 99.3351 134.038 99.0029C134.038 104.221 135.627 116.732 142.246 116.732C143.984 116.732 145.473 115.419 146.308 114.439C147.278 113.309 147.946 111.798 148.498 110.285C149.35 107.909 149.818 104.985 150.037 102.393L150.338 97.8889C150.372 97.5407 150.505 96.9747 150.589 96.6102C150.774 95.6637 150.89 94.8317 151.107 93.8852C151.893 90.528 154 80.5759 154 77.617C154 74.1938 153.783 72.117 152.212 68.9934L150.623 66.3345C147.831 62.1632 142.7 59.1395 137.784 58.0093C132.719 56.8467 127.353 57.5271 123.374 59.288C121.586 60.0861 119.529 61.1649 118.074 62.4613C114.697 65.4863 112.708 68.0773 111.505 72.8133C109.95 78.8776 113.16 85.6243 115.083 91.3906C115.935 93.8835 117.323 96.8407 117.608 99.4495C117.674 100.148 117.608 100.746 117.708 101.46C118.042 103.737 117.925 104.251 118.477 107.01C119.279 111.016 121.051 116.73 125.682 116.73L125.678 116.732Z" fill="#D0A153"/>
<path fill-rule="evenodd" clip-rule="evenodd" d="M46.3574 154.718C46.0237 154.286 45.622 154.036 45.7888 153.239C45.9055 152.691 46.3914 152.143 47.0765 152.359C48.0467 152.641 48.3301 154.868 46.3574 154.718V154.718ZM45.9557 147.389C37.8475 148.668 39.9207 161.031 47.828 159.652C50.8033 159.138 53.3285 156.146 52.7601 152.507C52.292 149.516 49.4835 146.824 45.9559 147.389H45.9557Z" fill="#D0A153"/>
<path fill-rule="evenodd" clip-rule="evenodd" d="M46.3909 169.009C47.8616 168.444 48.2471 170.803 47.1927 171.268C45.8046 171.882 45.2199 169.473 46.3909 169.009ZM40.8402 171.169C41.3083 174.144 44.1168 176.902 47.7269 176.287C50.7864 175.773 53.3439 172.814 52.7415 169.108C52.2572 166.067 49.4811 163.376 45.837 163.99C42.7953 164.505 40.2361 167.464 40.8386 171.169H40.8402Z" fill="#D0A153"/>
<path fill-rule="evenodd" clip-rule="evenodd" d="M123.489 78.4133C124.708 78.4956 125.311 78.2811 126.665 78.6294C128.471 79.0776 130.124 80.0258 131.546 81.0723C132.199 81.5544 132.951 82.1365 133.619 82.5187C134.138 81.9704 134.556 80.8739 134.907 80.1758C135.877 78.2811 140.307 77.0347 142.431 76.7525L141.679 71.8345C137.969 72.3005 134.475 73.8114 132.284 75.5899C129.091 73.9775 126.952 73.0309 122.57 73.5792L123.489 78.4133Z" fill="#D0A153"/>
<path fill-rule="evenodd" clip-rule="evenodd" d="M90.7242 47.6561L91.1259 47.8061L90.7242 47.6561L90.7404 43.4184L97.661 43.4345C97.6449 43.6844 97.5606 43.6506 97.7777 43.6506L97.661 43.4345C97.5444 43.2684 97.5768 43.2846 96.9597 43.2684L90.6415 43.3346L90.6075 46.674C90.5913 47.1722 90.5411 47.306 90.7241 47.6543L90.7242 47.6561Z" fill="#D0A153"/>
</svg>
