<svg width="180" height="180" viewBox="0 0 180 180" fill="none" xmlns="http://www.w3.org/2000/svg">
<path d="M89.744 109.443C68.3204 109.443 59.2003 78.9545 58.2989 58.384C58.2252 56.719 59.5152 55.3115 61.1777 55.2377C62.8227 55.194 64.2502 56.454 64.3239 58.1202C65.0952 75.6665 72.6826 103.41 89.754 103.41H89.9165C107.351 103.23 114.875 76.1049 115.678 57.9186C115.752 56.2524 117.187 55.0111 118.824 55.0361C120.488 55.1099 121.777 56.5199 121.703 58.1824C120.928 75.8099 113.295 109.203 89.9789 109.443C89.9027 109.442 89.8214 109.446 89.7439 109.446L89.744 109.443Z" fill="#D0A153"/>
<path d="M118.585 62.7007C118.575 62.7007 118.56 62.7007 118.55 62.6995C110.294 62.602 105.03 58.6732 99.459 54.5158C98.4965 53.7958 97.5103 53.0571 96.4741 52.3171C81.3854 41.5657 68.4891 54.222 63.6516 60.1609C62.5979 61.4471 60.7029 61.6459 59.4053 60.5909C58.1115 59.5371 57.9215 57.6359 58.9715 56.3445C71.3014 41.237 86.6365 37.8994 99.9827 47.4069C101.054 48.1756 102.075 48.9382 103.069 49.6794C108.241 53.5418 112.325 56.5908 118.619 56.6669C120.285 56.6857 121.622 58.0532 121.6 59.7182C121.584 61.372 120.234 62.7007 118.585 62.7007L118.585 62.7007Z" fill="#D0A153"/>
<path d="M61.315 61.2704C60.1763 61.2704 59.085 60.6241 58.5738 59.5229C52.3613 46.1466 52.0688 33.8803 57.7463 24.9821C63.4826 15.9946 74.9175 11.0458 89.9511 11.0458C91.6173 11.0458 92.9673 12.397 92.9673 14.0633C92.9673 15.7295 91.6173 17.0808 89.9511 17.0808C77.0548 17.0808 67.4237 21.0395 62.8362 28.2283C58.305 35.3272 58.7386 45.5371 64.0525 56.9797C64.7537 58.4909 64.0987 60.2846 62.5862 60.9861C62.1725 61.1798 61.74 61.2698 61.3162 61.2698L61.315 61.2704Z" fill="#D0A153"/>
<path d="M118.688 61.0656C118.265 61.0656 117.832 60.9756 117.419 60.7831C115.908 60.0818 115.252 58.2881 115.953 56.7767C121.235 45.4004 121.668 35.2592 117.175 28.2205C112.592 21.0381 102.922 17.0816 89.9479 17.0816C88.2817 17.0816 86.9316 15.7304 86.9316 14.0641C86.9316 12.3979 88.2817 11.0466 89.9479 11.0466C105.054 11.0466 116.53 15.9942 122.265 24.974C127.902 33.8114 127.607 46.0089 121.43 59.3164C120.918 60.4176 119.826 61.0639 118.688 61.0639L118.688 61.0656Z" fill="#D0A153"/>
<path d="M74.195 19.4361C72.8425 19.4361 71.6125 18.5198 71.27 17.1486C70.995 16.0486 70.875 15.0974 70.875 14.0636C70.875 6.17722 79.2539 0.0012207 89.9486 0.0012207C100.644 0.0012207 109.022 6.17882 109.022 14.0636C109.022 14.7736 108.902 15.4836 108.761 16.1899C108.43 17.8249 106.847 18.8861 105.208 18.5561C103.573 18.2299 102.516 16.6411 102.841 15.006C102.905 14.691 102.988 14.3785 102.988 14.0635C102.988 9.71217 97.0159 6.03601 89.9471 6.03601C82.8783 6.03601 76.9058 9.71089 76.9058 14.0635C76.9058 14.5985 76.9695 15.0698 77.1245 15.686C77.5258 17.3035 76.5433 18.9423 74.9258 19.3449C74.6845 19.4062 74.437 19.4362 74.1945 19.4362L74.195 19.4361Z" fill="#D0A153"/>
<path d="M66.9341 153.834C62.2266 153.834 58.3965 150.004 58.3965 145.296C58.3965 140.585 62.2266 136.755 66.9341 136.755C71.6416 136.755 75.4717 140.585 75.4717 145.296C75.4717 150.002 71.6416 153.834 66.9341 153.834ZM66.9341 142.786C65.5278 142.786 64.4291 143.889 64.4291 145.295C64.4291 146.701 65.5291 147.8 66.9341 147.8C68.3403 147.8 69.4391 146.7 69.4391 145.295C69.4391 143.889 68.3391 142.786 66.9341 142.786Z" fill="#D0A153"/>
<path d="M32.5661 179.2C30.8998 179.2 29.5498 177.85 29.5498 176.184C29.5498 156.736 33.9434 138.91 41.6048 127.269C46.0023 120.564 52.5773 119.566 58.3773 118.681L60.3048 118.381C61.9611 118.098 63.5011 119.223 63.7723 120.868C64.0436 122.513 62.9298 124.065 61.2849 124.336L59.2873 124.65C53.8573 125.475 49.5725 126.126 46.6473 130.584C39.72 141.109 35.5824 158.156 35.5824 176.183C35.5824 177.852 34.2336 179.201 32.5661 179.201L32.5661 179.2ZM72.2493 118.954C71.523 118.954 70.7943 118.692 70.2155 118.167C68.9855 117.044 68.898 115.134 70.018 113.904C72.2943 111.409 72.1818 106.109 71.7943 99.4425C71.6993 97.7763 72.968 96.3488 74.6305 96.2538C76.283 96.1625 77.7205 97.4275 77.8193 99.09C78.2067 105.795 78.6467 113.396 74.4791 117.97C73.8841 118.623 73.0666 118.954 72.2491 118.954L72.2493 118.954Z" fill="#D0A153"/>
<path d="M147.328 179.2H32.57C30.9037 179.2 29.5537 177.85 29.5537 176.184C29.5537 174.518 30.9037 173.167 32.57 173.167H147.328C148.995 173.167 150.345 174.518 150.345 176.184C150.345 177.851 148.996 179.2 147.328 179.2Z" fill="#D0A153"/>
<path d="M64.3779 143.401C63.1617 143.401 62.0129 142.658 61.5554 141.453C57.0978 129.694 56.6191 120.87 60.0892 114.479C62.6929 109.676 67.4642 106.49 74.2716 105.01C75.8991 104.654 77.5103 105.69 77.8629 107.318C78.2155 108.945 77.1829 110.553 75.5555 110.909C70.4703 112.012 67.1481 114.123 65.3929 117.358C62.8454 122.048 63.4554 129.434 67.2004 139.31C67.7891 140.872 67.0066 142.611 65.4491 143.204C65.0966 143.339 64.7341 143.402 64.3779 143.402L64.3779 143.401Z" fill="#D0A153"/>
<path d="M123.603 165.082C123.361 165.082 123.113 165.053 122.871 164.994C121.253 164.589 120.271 162.95 120.672 161.336C122.3 154.818 123.318 149.215 123.698 147.104C124.731 141.699 121.873 136.381 117.331 135.225C115.101 134.679 113.23 135.469 112.073 136.229C109.952 137.618 108.451 140.031 107.955 142.85C107.035 147.91 106.323 152.794 105.833 157.375C105.661 159.031 104.212 160.293 102.515 160.053C100.858 159.876 99.6572 158.393 99.8372 156.734C100.337 152.005 101.073 146.976 102.018 141.786C102.797 137.35 105.26 133.478 108.77 131.18C111.807 129.189 115.366 128.541 118.785 129.369C126.4 131.306 131.249 139.752 129.635 148.21C129.247 150.345 128.204 156.089 126.531 162.795C126.187 164.169 124.954 165.081 123.604 165.081L123.603 165.082Z" fill="#D0A153"/>
<path d="M106.009 160.787C105.787 160.787 105.566 160.766 105.343 160.713L102.172 159.998C100.544 159.632 99.5257 158.018 99.8919 156.393C100.258 154.766 101.907 153.73 103.497 154.113L106.668 154.828C108.296 155.195 109.315 156.808 108.948 158.433C108.635 159.836 107.387 160.787 106.01 160.787L106.009 160.787Z" fill="#D0A153"/>
<path d="M123.603 165.082C123.381 165.082 123.159 165.06 122.937 165.008L119.766 164.293C118.138 163.927 117.119 162.313 117.486 160.688C117.852 159.06 119.491 158.034 121.091 158.408L124.262 159.123C125.89 159.489 126.908 161.103 126.542 162.728C126.228 164.13 124.981 165.082 123.603 165.082H123.603Z" fill="#D0A153"/>
<path d="M147.328 179.2C145.661 179.2 144.311 177.85 144.311 176.184C144.311 157.786 140.315 141.169 133.353 130.587C130.439 126.147 125.949 125.457 120.749 124.657L118.705 124.336C117.06 124.061 115.95 122.503 116.224 120.862C116.499 119.217 118.031 118.088 119.699 118.381L121.665 118.695C127.455 119.582 134.012 120.591 138.395 127.271C145.988 138.811 150.344 156.637 150.344 176.183C150.344 177.85 148.995 179.199 147.327 179.199L147.328 179.2ZM107.747 118.954C106.929 118.954 106.112 118.622 105.517 117.971C101.348 113.397 101.789 105.796 102.177 99.0911C102.275 97.4273 103.738 96.1698 105.365 96.2548C107.029 96.3498 108.297 97.7773 108.202 99.4435C107.814 106.11 107.702 111.41 109.978 113.905C111.098 115.135 111.01 117.045 109.78 118.168C109.202 118.693 108.473 118.953 107.747 118.953L107.747 118.954Z" fill="#D0A153"/>
<path d="M118.077 135.421C117.844 135.421 117.608 135.396 117.372 135.34C115.751 134.952 114.751 133.325 115.138 131.703C116.686 125.231 116.372 120.21 114.208 116.781C112.387 113.891 109.071 111.918 104.352 110.911C102.724 110.566 101.684 108.962 102.033 107.331C102.378 105.703 103.989 104.663 105.613 105.012C111.977 106.368 116.586 109.247 119.31 113.561C122.376 118.417 122.946 124.992 121.008 133.107C120.678 134.491 119.441 135.421 118.077 135.421L118.077 135.421Z" fill="#D0A153"/>
<path d="M89.9519 152.096C88.8731 152.096 87.8306 151.518 87.2881 150.5L69.5918 117.357C68.8056 115.887 69.3593 114.058 70.8318 113.277C72.2943 112.485 74.1269 113.045 74.9118 114.517L92.6081 147.657C93.3944 149.127 92.8406 150.955 91.3681 151.737C90.9182 151.982 90.4319 152.094 89.9519 152.094V152.096Z" fill="#D0A153"/>
<path d="M89.9457 152.096C89.4632 152.096 88.977 151.983 88.522 151.736C87.052 150.95 86.5032 149.118 87.292 147.652L105.091 114.513C105.877 113.043 107.706 112.487 109.175 113.283C110.645 114.069 111.193 115.9 110.405 117.367L92.6058 150.506C92.0633 151.521 91.0196 152.096 89.9458 152.096H89.9457Z" fill="#D0A153"/>
<path d="M89.9489 179.2C88.2826 179.2 86.9326 177.85 86.9326 176.184V149.08C86.9326 147.414 88.2826 146.064 89.9489 146.064C91.6151 146.064 92.9651 147.414 92.9651 149.08V176.184C92.9651 177.851 91.6164 179.2 89.9489 179.2Z" fill="#D0A153"/>
<path d="M49.6481 179.2C47.9819 179.2 46.6318 177.85 46.6318 176.184V165.852C46.6318 164.186 47.9819 162.836 49.6481 162.836C51.3143 162.836 52.6644 164.186 52.6644 165.852V176.184C52.6644 177.851 51.3143 179.2 49.6481 179.2Z" fill="#D0A153"/>
<path d="M130.352 179.2C128.686 179.2 127.336 177.85 127.336 176.184V165.852C127.336 164.186 128.686 162.836 130.352 162.836C132.018 162.836 133.368 164.186 133.368 165.852V176.184C133.368 177.851 132.018 179.2 130.352 179.2Z" fill="#D0A153"/>
<path d="M164.103 151.376C163.909 151.376 163.715 151.358 163.522 151.32L152.067 149.071C150.432 148.75 149.368 147.165 149.688 145.53C150.009 143.895 151.587 142.837 153.229 143.151L161.718 144.815L173.046 86.4117L163.324 84.5317C161.689 84.2167 160.617 82.6329 160.935 80.9979C161.252 79.3629 162.849 78.2841 164.472 78.6092L177.158 81.0629C177.944 81.2142 178.634 81.6729 179.085 82.3354C179.533 82.9992 179.698 83.8142 179.546 84.5992L167.065 148.932C166.91 149.718 166.451 150.412 165.786 150.859C165.286 151.198 164.698 151.374 164.103 151.374L164.103 151.376ZM120.944 108.621C120.751 108.621 120.553 108.603 120.359 108.565C118.724 108.243 117.661 106.658 117.981 105.023L124.12 73.826C124.437 72.1947 126.012 71.1197 127.653 71.4472L140.335 73.901C141.97 74.216 143.041 75.7997 142.723 77.4347C142.406 79.0735 140.827 80.1572 139.186 79.8235L129.457 77.9422L123.9 106.185C123.62 107.627 122.357 108.621 120.945 108.621L120.944 108.621Z" fill="#D0A153"/>
<path d="M162.979 89.2927C162.789 89.2927 162.595 89.2752 162.398 89.2365L138.26 84.5341C137.474 84.3803 136.78 83.9203 136.333 83.2553C135.885 82.5891 135.723 81.7741 135.878 80.9878L137.718 71.6803C138.041 70.049 139.593 68.9703 141.255 69.3041L165.396 74.0077C166.183 74.1615 166.876 74.6202 167.324 75.2865C167.771 75.9527 167.934 76.7677 167.779 77.5552L165.936 86.8615C165.65 88.299 164.389 89.2927 162.979 89.2927H162.979ZM142.383 79.1903L160.6 82.7391L161.27 79.3516L143.053 75.8028L142.383 79.1903Z" fill="#D0A153"/>
<path d="M160.115 102.896C159.925 102.896 159.731 102.878 159.537 102.843L135.809 98.2409C134.174 97.9234 133.102 96.3384 133.42 94.7033C133.741 93.0721 135.322 92.0183 136.958 92.3146L160.686 96.9172C162.321 97.2347 163.392 98.8197 163.075 100.455C162.794 101.896 161.532 102.896 160.115 102.896L160.115 102.896Z" fill="#D0A153"/>
<path d="M158.07 113.225C157.88 113.225 157.686 113.208 157.492 113.173L133.764 108.57C132.129 108.253 131.058 106.668 131.375 105.033C131.696 103.398 133.281 102.358 134.913 102.644L158.641 107.247C160.276 107.564 161.348 109.149 161.03 110.784C160.749 112.224 159.488 113.226 158.07 113.226L158.07 113.225Z" fill="#D0A153"/>
<path d="M156.026 123.658C155.836 123.658 155.642 123.64 155.444 123.601L131.818 118.999C130.183 118.681 129.116 117.096 129.436 115.461C129.749 113.826 131.311 112.747 132.973 113.079L156.599 117.681C158.234 117.999 159.302 119.584 158.982 121.219C158.703 122.66 157.438 123.658 156.026 123.658L156.026 123.658Z" fill="#D0A153"/>
<path d="M153.981 134.093C153.783 134.093 153.586 134.075 153.386 134.037L145.204 132.398C143.569 132.07 142.511 130.48 142.836 128.845C143.167 127.21 144.75 126.17 146.389 126.478L154.571 128.116C156.206 128.444 157.264 130.034 156.939 131.669C156.649 133.103 155.39 134.093 153.981 134.093H153.981Z" fill="#D0A153"/>
<path d="M37.44 110.822C37.3275 110.822 37.2112 110.819 37.0987 110.815C31.9474 110.6 27.3026 105.747 22.475 95.5435C20.3225 90.8885 20.0925 86.861 21.7876 83.5474C23.7363 79.7387 27.9437 77.2536 34.6525 75.9499C36.2913 75.6224 37.8701 76.7024 38.1901 78.3349C38.5076 79.9712 37.4401 81.556 35.8014 81.8725C31.1678 82.7725 28.1803 84.3025 27.1614 86.2924C26.3539 87.8711 26.6151 90.1224 27.9401 92.9874C33.0464 103.78 36.4326 104.746 37.3488 104.785C38.78 104.816 40.5488 103.181 42.3312 100.105C43.1662 98.6636 45.0087 98.1736 46.4537 99.0048C47.8987 99.8399 48.3887 101.686 47.5537 103.127C44.5925 108.236 41.1925 110.822 37.4401 110.822L37.44 110.822Z" fill="#D0A153"/>
<path d="M49.4209 105.21C47.8709 105.21 46.1508 104.995 44.266 104.557C42.641 104.183 41.6273 102.566 42.0035 100.942C42.3773 99.3171 43.9948 98.3033 45.6186 98.6796C49.1136 99.4796 51.5597 99.3321 52.4973 98.2458C53.0898 97.5583 54.6923 94.4407 50.316 83.2858C49.1748 80.3595 47.7473 78.6259 46.0735 78.1283C43.9485 77.4946 40.8085 78.6183 36.9861 81.361C35.6336 82.3297 33.7512 82.0197 32.7749 80.6697C31.8062 79.3147 32.1162 77.4297 33.4687 76.4585C39.0188 72.4736 43.6975 71.1312 47.7887 72.3411C51.3413 73.3948 54.0824 76.3372 55.9349 81.0873C60.0536 91.5948 60.4175 98.3011 57.0662 102.187C55.3312 104.201 52.7724 105.21 49.4211 105.21L49.4209 105.21Z" fill="#D0A153"/>
<path d="M35.2256 81.9295C33.7243 81.9295 32.4243 80.812 32.2343 79.2845C31.7481 75.3869 32.6505 71.562 34.9118 67.912C35.7856 66.497 37.653 66.0545 39.0667 66.9395C40.4829 67.817 40.9204 69.677 40.0429 71.0944C38.5242 73.5419 37.9117 76.0458 38.2242 78.5382C38.4292 80.1908 37.2554 81.6995 35.6029 81.9056C35.4754 81.9206 35.3479 81.9293 35.2254 81.9293L35.2256 81.9295Z" fill="#D0A153"/>
<path d="M9.4989 151.747C7.34888 151.747 5.09762 151.505 2.7789 151.003C1.51765 150.732 0.570161 149.69 0.421393 148.406C0.270142 147.127 0.946385 145.893 2.10888 145.333C14.0615 139.593 19.0052 131.852 17.2225 121.675C16.9862 120.328 17.6837 118.99 18.925 118.414C20.165 117.841 21.635 118.168 22.5125 119.222C29.2987 127.375 30.8639 136.347 26.6987 143.222C23.3637 148.723 17.0674 151.747 9.49874 151.747L9.4989 151.747ZM22.6976 132.437C21.2851 137.3 18.2576 141.595 13.6314 145.295C17.1376 144.533 19.9213 142.757 21.5351 140.097C22.8738 137.885 23.2476 135.252 22.6976 132.437H22.6976Z" fill="#D0A153"/>
<path d="M20.1885 124.17C18.716 124.17 17.4297 123.095 17.2072 121.593C16.7522 118.535 16.8297 115.966 17.4322 114.166C17.9572 112.583 19.6697 111.731 21.2485 112.26C22.8273 112.784 23.6835 114.493 23.1548 116.076C23.0773 116.305 22.7173 117.616 23.176 120.713C23.4198 122.358 22.281 123.896 20.6323 124.138C20.4848 124.159 20.3373 124.169 20.1885 124.169L20.1885 124.17Z" fill="#D0A153"/>
<path d="M12.7292 54.5184C11.6404 54.5184 10.5867 53.9259 10.0479 52.8934C9.2792 51.4146 9.85419 49.5936 11.3342 48.8233C13.6104 47.6371 15.9006 45.7633 18.1454 43.2508C19.2629 42.0071 21.1654 41.9008 22.4091 43.0108C23.6491 44.1209 23.7591 46.0283 22.6491 47.2707C19.914 50.3294 17.0465 52.6518 14.1179 54.1756C13.6741 54.4094 13.1979 54.5181 12.7291 54.5181L12.7292 54.5184Z" fill="#D0A153"/>
<path d="M25.6161 64.1312C25.4399 64.1312 25.2599 64.1149 25.0836 64.0837C23.4411 63.7912 22.3486 62.2237 22.6411 60.5826C23.2124 57.3813 24.5786 53.9438 26.7 50.3675C27.5462 48.9388 29.3963 48.4563 30.8338 49.3125C32.2675 50.1638 32.74 52.0138 31.8875 53.4476C30.14 56.3988 29.0263 59.1563 28.5826 61.6437C28.3226 63.1037 27.0513 64.1312 25.6163 64.1312L25.6161 64.1312Z" fill="#D0A153"/>
<path d="M25.1715 64.1407C17.9228 64.1407 11.5103 59.2018 9.79386 52.2194C9.39885 50.6019 10.3889 48.9669 12.0064 48.5708C13.5951 48.1695 15.2589 49.1595 15.6563 50.782C16.7313 55.1808 20.9389 58.3084 25.5088 58.0995C27.1613 58.082 28.5675 59.347 28.6275 61.0132C28.6838 62.6782 27.38 64.0757 25.7138 64.132C25.535 64.137 25.3513 64.1407 25.1713 64.1407L25.1715 64.1407Z" fill="#D0A153"/>
<path d="M20.3964 48.2783C20.3789 48.2783 20.3614 48.2783 20.3476 48.2771C16.1825 48.2071 13.3313 47.0033 11.8702 44.6982C10.454 42.4657 10.5377 39.5532 12.1202 36.0419C14.499 30.9292 17.4415 28.0032 21.1301 27.0656C26.6553 25.6593 32.4101 29.2343 36.8213 32.5043C38.1601 33.4968 38.4426 35.3868 37.4488 36.7254C36.4588 38.0629 34.5626 38.3429 33.2277 37.3529C28.404 33.7779 24.9266 32.3327 22.6178 32.9129C20.8203 33.3691 19.1365 35.2667 17.6066 38.5542C16.7678 40.4204 16.8666 41.3042 16.9653 41.4642C17.0953 41.6667 17.9691 42.2004 20.4466 42.2429C22.1128 42.2717 23.4416 43.6442 23.4141 45.3104C23.3841 46.9604 22.0378 48.2779 20.3966 48.2779L20.3964 48.2783Z" fill="#D0A153"/>
<path d="M34.0388 60.1631C33.485 60.1631 32.9425 60.0931 32.4075 59.9481C29.7362 59.2281 27.7851 56.9106 26.435 52.863C25.9063 51.283 26.7588 49.5731 28.3413 49.0454C29.9163 48.5104 31.6325 49.3729 32.1576 50.9529C33.1126 53.8141 33.9726 54.1166 33.9788 54.1204C34.1626 54.1491 35.0363 53.9941 36.6113 52.6103C39.2889 50.2303 40.6113 48.0791 40.5262 46.2254C40.42 43.8191 38.035 40.9166 33.2286 37.3505C31.8899 36.358 31.6111 34.468 32.6011 33.1303C33.5949 31.7928 35.4874 31.5078 36.8223 32.5053C41.2197 35.7665 46.3048 40.2455 46.5547 45.9591C46.7235 49.7678 44.7785 53.4228 40.6098 57.129C38.316 59.1503 36.1135 60.1628 34.0386 60.1628L34.0388 60.1631Z" fill="#D0A153"/>
</svg>
