<svg width="140" height="180" viewBox="0 0 140 180" fill="none" xmlns="http://www.w3.org/2000/svg">
<path d="M33.7915 50.8351C29.764 50.8351 26.1903 49.3126 23.1602 46.3087C17.3675 40.565 14.7275 30.0223 14.7275 22.6549C14.7275 20.8262 14.9775 19.0824 15.475 17.4712C15.965 15.8825 17.6463 14.99 19.2449 15.475C20.8375 15.965 21.7324 17.655 21.24 19.2475C20.9225 20.2812 20.7612 21.4287 20.7612 22.6548C20.7612 29.0049 23.0449 37.6974 27.4098 42.0235C29.3123 43.9122 31.3887 44.8235 33.8799 44.7985C43.1862 44.7197 47.0486 30.3374 47.0486 22.6548C47.0486 21.4286 46.8861 20.281 46.5698 19.2474C46.0761 17.6549 46.9711 15.9649 48.5648 15.475C50.1648 14.9875 51.8448 15.8787 52.3347 17.4712C52.831 19.0812 53.0822 20.8261 53.0822 22.6549C53.0822 34.2863 47.1411 50.7173 33.9309 50.8347L33.7915 50.8351Z" fill="#D0A153"/>
<path d="M18.354 21.3787C16.8641 21.3787 15.5666 20.2737 15.3653 18.7575C15.1466 17.105 16.3091 15.5875 17.9628 15.37C24.7955 14.465 30.9267 13.0675 36.174 11.2186C37.7703 10.6561 39.4729 11.4911 40.0252 13.0611C40.579 14.6324 39.754 16.3561 38.1827 16.9085C32.5376 18.8959 26.0016 20.3923 18.7526 21.3523C18.6176 21.3698 18.484 21.3787 18.354 21.3787Z" fill="#D0A153"/>
<path d="M18.3581 21.3787C17.2093 21.3787 16.1093 20.7175 15.6056 19.5987C13.1218 14.0838 14.4856 10.0125 16.0631 7.56864C19.1268 2.82976 25.7968 0 33.9056 0C35.5719 0 36.9219 1.35126 36.9219 3.0175C36.9219 4.68374 35.5719 6.03501 33.9056 6.03501C28.0356 6.03501 23.0205 7.9225 21.1357 10.8436C20.0182 12.5686 20.012 14.6811 21.1107 17.1211C21.7945 18.6398 21.1182 20.426 19.5994 21.1099C19.197 21.2924 18.7743 21.3787 18.3581 21.3787Z" fill="#D0A153"/>
<path d="M49.4521 21.3788C49.0358 21.3788 48.6133 21.2925 48.2121 21.1113C46.6933 20.4275 46.0171 18.6412 46.7008 17.1225C47.8008 14.6825 47.7933 12.5698 46.6758 10.845C44.7908 7.92377 39.776 6.03638 33.9059 6.03638C32.2397 6.03638 30.8896 4.68511 30.8896 3.01887C30.8896 1.35139 32.2381 0 33.9056 0C42.0144 0 48.6848 2.83014 51.7472 7.56876C53.3259 10.0125 54.6897 14.0836 52.2047 19.5988C51.7009 20.7163 50.6009 21.3788 49.4521 21.3788Z" fill="#D0A153"/>
<path d="M49.4555 21.3787C49.413 21.3787 49.3705 21.3775 49.3318 21.375C43.6905 21.15 38.9507 19.47 35.2467 16.3813C33.9642 15.3139 33.7917 13.4114 34.8592 12.1301C35.9304 10.8477 37.8292 10.6839 39.1091 11.7439C41.7691 13.9627 45.2902 15.174 49.5715 15.3452C51.2377 15.4127 52.5315 16.8152 52.4678 18.479C52.4015 20.1052 51.0655 21.3787 49.4555 21.3787Z" fill="#D0A153"/>
<path d="M3.01723 83.0558C1.35099 83.0558 0.000976562 81.7046 0.000976562 80.0383V67.5596C0.000976562 59.0723 6.90337 52.166 15.3923 52.166C17.0586 52.166 18.4086 53.5173 18.4086 55.1835C18.4086 56.8498 17.0586 58.201 15.3923 58.201C10.2336 58.201 6.03361 62.3972 6.03361 67.5585V80.0372C6.03361 81.7047 4.68347 83.0558 3.01723 83.0558Z" fill="#D0A153"/>
<path d="M15.3913 58.2014C13.725 58.2014 12.375 56.8502 12.375 55.1839C12.375 53.5177 13.725 52.1664 15.3913 52.1664C23.1887 52.1664 23.5349 50.9951 24.9977 46.0602L25.1877 45.4227C25.6602 43.8264 27.3339 42.9152 28.9403 43.3952C30.5366 43.8727 31.4453 45.5539 30.9665 47.1501L30.7828 47.7738C28.8703 54.2375 27.1001 58.2014 15.3913 58.2014Z" fill="#D0A153"/>
<path d="M52.4184 58.2014C40.7057 58.2014 38.9396 54.235 37.0296 47.7678L36.8433 47.1453C36.3671 45.5491 37.2771 43.8679 38.8733 43.3927C40.4796 42.9139 42.1508 43.8264 42.6295 45.4227L42.8157 46.0565C44.2745 50.9928 44.6195 52.1653 52.4183 52.1653C54.0845 52.1653 55.4346 53.5165 55.4346 55.1828C55.4346 56.8502 54.0846 58.2014 52.4184 58.2014Z" fill="#D0A153"/>
<path d="M30.223 179.2H21.0192C17.3267 179.2 14.3203 176.24 14.3203 172.604V72.5685C14.3203 70.9023 15.6703 69.551 17.3366 69.551C19.0028 69.551 20.3528 70.9023 20.3528 72.5685V172.604C20.3528 172.871 20.6278 173.167 21.0191 173.167H30.2229C30.6142 173.167 30.8891 172.871 30.8891 172.604V124.018C30.8891 122.352 32.2392 121.002 33.9054 121.002C35.5716 121.002 36.9217 122.352 36.9217 124.018V172.604C36.9217 176.24 33.9157 179.2 30.223 179.2Z" fill="#D0A153"/>
<path d="M46.8957 179.2H37.5856C33.8931 179.2 30.8867 176.24 30.8867 172.604L30.888 124.018C30.888 122.352 32.238 121.002 33.9042 121.002C35.5705 121.002 36.9205 122.352 36.9205 124.018V172.604C36.9205 172.867 37.2055 173.167 37.5867 173.167H46.8968C47.1681 173.167 47.4568 172.879 47.4568 172.604V72.5685C47.4568 70.9023 48.8068 69.551 50.4731 69.551C52.1393 69.551 53.4893 70.9023 53.4893 72.5685V172.604C53.4893 176.24 50.533 179.2 46.8957 179.2Z" fill="#D0A153"/>
<path d="M17.3373 120.793H6.90365C3.09725 120.793 0.00125 117.696 0.00125 113.891L0 80.0351C0 78.3688 1.35002 77.0176 3.01626 77.0176C4.6825 77.0176 6.03251 78.3688 6.03251 80.0351V113.888C6.03251 114.367 6.42378 114.758 6.90253 114.758H17.3361C19.0024 114.758 20.3524 116.108 20.3524 117.774C20.3536 119.442 19.0037 120.792 17.3374 120.792L17.3373 120.793Z" fill="#D0A153"/>
<path d="M17.3366 132.765H12.8368C7.90048 132.765 3.88672 128.706 3.88672 123.712V117.778C3.88672 116.112 5.23673 114.762 6.90297 114.762C8.56921 114.762 9.91923 116.112 9.91923 117.778V123.712C9.91923 125.347 11.2542 126.732 12.8367 126.732H17.3366C19.0028 126.732 20.3528 128.082 20.3528 129.748C20.3528 131.416 19.0029 132.765 17.3366 132.765Z" fill="#D0A153"/>
<path d="M33.9031 65.8719C33.2306 65.8719 32.5531 65.6481 31.9894 65.1881L21.2495 56.3907C19.9633 55.3357 19.7733 53.4344 20.8308 52.1443C21.8883 50.8543 23.7833 50.6718 25.0772 51.7218L35.817 60.5192C37.1033 61.5742 37.2933 63.4755 36.2358 64.7656C35.6408 65.4944 34.7732 65.8719 33.9031 65.8719Z" fill="#D0A153"/>
<path d="M33.9031 65.8719C33.0331 65.8719 32.1656 65.4943 31.5706 64.7655C30.5131 63.4756 30.7044 61.5743 31.9894 60.5191L42.7292 51.7217C44.023 50.6679 45.9217 50.8517 46.9756 52.1442C48.0331 53.4342 47.8419 55.3355 46.5569 56.3906L35.817 65.188C35.2533 65.648 34.5757 65.8719 33.9031 65.8719Z" fill="#D0A153"/>
<path d="M74.3063 58.2014L52.4184 58.2014C50.7521 58.2014 49.4014 56.8501 49.4014 55.1839C49.4014 53.5176 50.7514 52.1664 52.4176 52.1664H74.3075C75.9738 52.1664 77.3238 53.5176 77.3238 55.1839C77.3238 56.8501 75.9737 58.2014 74.3063 58.2014Z" fill="#D0A153"/>
<path d="M50.4692 75.5871C48.8867 75.5871 47.5592 74.352 47.4605 72.752C47.3617 71.0871 48.6267 69.6583 50.2905 69.5583L77.2969 67.922C78.9182 67.7795 80.3907 69.0845 80.4932 70.7495C80.5919 72.4133 79.3269 73.8433 77.6631 73.9433L50.6567 75.5795C50.593 75.5858 50.533 75.5871 50.4692 75.5871Z" fill="#D0A153"/>
<path d="M102.025 135.523C91.3904 135.523 78.8353 134.791 66.3517 129.342C65.1892 128.834 64.4705 127.658 64.5443 126.393C65.9117 103.782 72.0354 87.1292 84.358 72.6172C83.3993 64.2447 81.5255 56.397 78.6431 48.6684C78.2869 47.7171 78.4356 46.6496 79.0381 45.8296C82.738 40.787 86.7517 38.2046 90.9655 38.1534H91.0993C94.8068 38.1534 98.4042 40.0322 102.027 43.876C105.649 40.0309 109.246 38.1534 112.954 38.1534H113.088C117.303 38.2047 121.315 40.7872 125.015 45.8296C125.61 46.6383 125.763 47.6896 125.424 48.6358C122.456 56.8845 120.625 64.5421 119.694 72.6182C132.016 87.1318 138.14 103.786 139.508 126.394C139.581 127.659 138.863 128.837 137.7 129.343C125.215 134.79 112.66 135.524 102.027 135.524L102.025 135.523ZM70.7127 124.621C81.5591 128.888 92.5815 129.491 102.025 129.491C111.469 129.489 122.49 128.887 133.337 124.621C131.772 104.003 125.852 88.8094 114.28 75.5806C113.727 74.9493 113.463 74.1181 113.548 73.2844C114.429 64.7519 116.225 56.7269 119.189 48.1618C117.019 45.5455 114.947 44.2082 113.012 44.1855H112.963C109.852 44.1855 106.599 47.5468 104.414 50.3781C103.273 51.8581 100.778 51.8581 99.6351 50.3781C97.4501 47.5469 94.1977 44.1855 91.0863 44.1855H91.0376C89.1063 44.208 87.0376 45.5405 84.875 48.148C87.75 56.2456 89.5963 64.4856 90.5025 73.2844C90.5875 74.1181 90.3225 74.9493 89.77 75.5806C78.1975 88.8043 72.2778 103.999 70.7127 124.621Z" fill="#D0A153"/>
<path d="M101.529 79.011C96.3355 79.011 91.3102 78.151 86.4904 76.4335C84.9191 75.8747 84.1016 74.1485 84.6578 72.5784C85.2178 71.011 86.9416 70.1897 88.5129 70.7497C96.9804 73.7647 105.86 73.7535 115.657 70.7097C117.26 70.2235 118.94 71.106 119.434 72.6972C119.928 74.2885 119.039 75.9798 117.447 76.4748C111.998 78.1661 106.681 79.011 101.529 79.011Z" fill="#D0A153"/>
<path d="M85.2476 46.4382C83.9126 46.4382 82.6926 45.5432 82.3338 44.1895L77.5239 25.9821C77.0977 24.3722 78.0589 22.721 79.6702 22.2948C81.2839 21.8848 82.9326 22.8298 83.3588 24.4423L88.1687 42.6496C88.595 44.2596 87.6337 45.9108 86.0225 46.337C85.7625 46.4045 85.5051 46.4382 85.2476 46.4382Z" fill="#D0A153"/>
<path d="M122.786 179.2C121.12 179.2 119.77 177.85 119.77 176.184C119.77 170.852 115.433 166.515 110.104 166.515H94.0464C88.719 166.515 84.3802 170.852 84.3802 176.184C84.3802 177.85 83.0302 179.2 81.3639 179.2C79.6977 179.2 78.3477 177.85 78.3477 176.184C78.3477 167.526 85.3877 160.482 94.0465 160.482H110.104C118.762 160.482 125.803 167.526 125.803 176.184C125.803 177.85 124.454 179.2 122.786 179.2Z" fill="#D0A153"/>
<path d="M102.025 179.2C100.359 179.2 99.0088 177.85 99.0088 176.184V141.816C99.0088 140.149 100.359 138.799 102.025 138.799C103.691 138.799 105.041 140.149 105.041 141.816V176.184C105.041 177.85 103.691 179.2 102.025 179.2Z" fill="#D0A153"/>
<path d="M128.412 30.3788C127.968 30.3788 127.513 30.28 127.087 30.0688C111.16 22.2524 92.8917 22.2524 76.9653 30.0688C75.4678 30.81 73.6604 30.1838 72.9266 28.6913C72.1941 27.1938 72.8104 25.3863 74.3079 24.6525C91.9165 16.0087 112.122 16.0052 129.741 24.6525C131.239 25.385 131.855 27.1938 131.123 28.6887C130.599 29.7574 129.528 30.3787 128.41 30.3787L128.412 30.3788Z" fill="#D0A153"/>
<path d="M102.025 39.0719C100.359 39.0719 99.0088 37.7206 99.0088 36.0544V15.3932C99.0088 13.727 100.359 12.3757 102.025 12.3757C103.691 12.3757 105.041 13.727 105.041 15.3932V36.0544C105.041 37.7206 103.691 39.0719 102.025 39.0719Z" fill="#D0A153"/>
<path d="M118.802 46.4382C118.545 46.4382 118.288 46.407 118.028 46.3382C116.418 45.912 115.455 44.2607 115.881 42.6509L120.691 24.4435C121.121 22.831 122.774 21.8748 124.38 22.296C125.99 22.7223 126.952 24.3735 126.526 25.9834L121.716 44.1907C121.357 45.5433 120.138 46.4382 118.802 46.4382Z" fill="#D0A153"/>
</svg>
