<svg width="180" height="180" viewBox="0 0 180 180" fill="none" xmlns="http://www.w3.org/2000/svg">
<path d="M89.7278 105.76C63.9454 105.76 51.9966 72.3648 51.7502 48.5664C51.7327 46.9002 53.0677 45.5339 54.7352 45.519C54.7452 45.5177 54.7564 45.5177 54.7664 45.5177C56.4189 45.5177 57.7652 46.8477 57.7827 48.5039C57.9589 65.2515 66.0038 99.7263 89.7251 99.7263H89.9263C113.922 99.5326 122.045 65.1311 122.221 48.5039C122.238 46.8477 123.584 45.5177 125.237 45.5177C125.247 45.5177 125.258 45.5177 125.268 45.519C126.934 45.5352 128.271 46.9002 128.253 48.5664C128.024 70.5613 117.428 105.539 89.9748 105.757C89.8923 105.757 89.809 105.76 89.7278 105.76Z" fill="#D0A153"/>
<path d="M19.4782 179.197C17.8119 179.197 16.4619 177.847 16.4619 176.181C16.4619 155.514 21.8706 136.648 31.3032 124.424C36.5256 117.63 44.2744 116.566 51.1096 115.632C56.8245 114.85 62.2197 114.11 66.061 110.392C68.936 107.669 68.7985 102.13 68.3234 95.1701C68.2072 93.5101 69.4647 92.0688 71.1284 91.9563C72.6934 91.8013 74.2297 93.0976 74.3422 94.7613C74.8284 101.848 75.3785 109.877 70.2372 114.751C65.0011 119.821 58.0561 120.77 51.9284 121.612C45.4196 122.499 39.7998 123.272 36.0859 128.105C27.4497 139.3 22.4945 156.82 22.4945 176.179C22.4945 177.848 21.1457 179.197 19.4782 179.197Z" fill="#D0A153"/>
<path d="M160.521 179.197C158.855 179.197 157.505 177.847 157.505 176.181C157.505 156.822 152.551 139.301 143.917 128.11C140.196 123.269 134.568 122.5 128.046 121.609C121.911 120.77 114.952 119.823 109.648 114.738C104.624 109.847 105.149 102.074 105.656 94.5579C105.765 92.8941 107.213 91.5941 108.87 91.7529C110.533 91.8654 111.787 93.3029 111.675 94.9666C111.167 102.518 111.041 107.673 113.838 110.4C117.711 114.108 123.131 114.848 128.863 115.629C135.71 116.567 143.472 117.627 148.698 124.428C158.128 136.648 163.537 155.514 163.537 176.181C163.537 177.849 162.189 179.197 160.521 179.197Z" fill="#D0A153"/>
<path d="M160.521 179.197L19.4782 179.197C17.8119 179.197 16.4619 177.847 16.4619 176.181C16.4619 174.514 17.8119 173.164 19.4782 173.164H160.521C162.188 173.164 163.538 174.514 163.538 176.181C163.538 177.848 162.189 179.197 160.521 179.197Z" fill="#D0A153"/>
<path d="M90.0033 54.1825C75.2421 54.1825 60.4821 52.845 46.1345 50.1713C44.4958 49.865 43.4183 48.29 43.7208 46.6513C44.027 45.0125 45.5983 43.94 47.2408 44.2375C75.212 49.4526 104.793 49.4526 132.764 44.2375C134.391 43.9438 135.978 45.0125 136.284 46.6513C136.586 48.29 135.509 49.865 133.87 50.1713C119.521 52.8463 104.76 54.1825 90.0046 54.1825H90.0033Z" fill="#D0A153"/>
<path d="M95.8817 25.0599H84.1166C82.2978 25.0599 80.7127 24.4349 79.5329 23.2536C78.1691 21.8899 77.6404 19.9324 78.1516 18.1448L81.7065 4.21364C82.3978 1.67489 84.8003 -0.00012207 87.6966 -0.00012207H92.3017C95.198 -0.00012207 97.6015 1.67489 98.278 4.16852L101.872 18.2261C102.358 19.9336 101.829 21.8911 100.465 23.2549C99.2866 24.4349 97.7004 25.0599 95.8817 25.0599ZM84.1629 18.9885L95.8481 19.0235L92.5354 6.0584C92.4754 6.0459 92.3979 6.0359 92.3029 6.0359H87.6978C87.6028 6.0359 87.5253 6.0459 87.4653 6.0584L84.1629 18.9885Z" fill="#D0A153"/>
<path d="M71.8458 18.2064C71.6021 18.2064 71.3558 18.1764 71.1096 18.1152C69.4921 17.7114 68.5121 16.0727 68.9146 14.4563L70.962 6.27389C71.6633 3.70013 74.1233 1.94397 76.9595 1.94397H84.6308C86.2971 1.94397 87.6471 3.29523 87.6471 4.96147C87.6471 6.62771 86.2971 7.97898 84.6308 7.97898H76.9595L74.7707 15.9214C74.4258 17.2926 73.1958 18.2064 71.8458 18.2064Z" fill="#D0A153"/>
<path d="M52.819 49.1968C51.1527 49.1968 49.8027 47.8456 49.8027 46.1793C49.8027 25.372 57.3227 12.1281 72.1602 6.82254C73.7277 6.26254 75.4552 7.08004 76.0152 8.64753C76.579 10.2175 75.7615 11.9438 74.1902 12.5064C61.8401 16.924 55.8353 27.9391 55.8353 46.18C55.8353 47.8463 54.4852 49.1968 52.819 49.1968Z" fill="#D0A153"/>
<path d="M108.154 18.2064C106.804 18.2064 105.575 17.2914 105.229 15.9214L103.181 7.74032L95.3688 7.98032C93.7026 7.98032 92.3525 6.62906 92.3525 4.96282C92.3525 3.29658 93.7026 1.94531 95.3688 1.94531H103.04C105.876 1.94531 108.336 3.70157 109.02 6.21667L111.085 14.4592C111.487 16.0767 110.508 17.7156 108.89 18.1181C108.644 18.1769 108.398 18.2064 108.154 18.2064Z" fill="#D0A153"/>
<path d="M127.181 49.1968C125.514 49.1968 124.164 47.8455 124.164 46.1793C124.164 27.9307 118.128 16.9169 105.711 12.5089C104.143 11.9501 103.322 10.2252 103.878 8.65514C104.438 7.08515 106.158 6.2664 107.733 6.82138C122.638 12.1151 130.197 25.3577 130.197 46.1782C130.197 47.8444 128.848 49.1957 127.181 49.1957L127.181 49.1968Z" fill="#D0A153"/>
<path d="M48.8316 179.2C48.5491 179.2 48.2641 179.158 47.9791 179.074C46.3791 178.605 45.4665 176.924 45.9391 175.328L56.6789 138.915C57.0564 137.632 58.2327 136.751 59.5714 136.751H120.429C122.095 136.751 123.445 138.101 123.445 139.767C123.445 141.433 122.095 142.783 120.429 142.783H61.8274L51.725 177.033C51.3375 178.348 50.1363 179.201 48.8325 179.201L48.8316 179.2Z" fill="#D0A153"/>
<path d="M131.168 179.2C129.864 179.2 128.663 178.348 128.276 177.033L117.536 140.62C117.063 139.023 117.976 137.342 119.576 136.874C121.179 136.401 122.849 137.314 123.322 138.914L134.062 175.326C134.534 176.923 133.622 178.604 132.022 179.073C131.736 179.158 131.451 179.2 131.168 179.2Z" fill="#D0A153"/>
<path d="M120.428 142.787C120.029 142.787 119.624 142.706 119.237 142.541C117.708 141.882 116.999 140.11 117.654 138.577L126.654 117.611C127.309 116.082 129.093 115.383 130.618 116.028C132.147 116.687 132.856 118.46 132.201 119.992L123.201 140.959C122.712 142.101 121.598 142.787 120.428 142.787Z" fill="#D0A153"/>
<path d="M59.5708 142.787C58.4008 142.787 57.287 142.1 56.797 140.958L47.797 119.992C47.142 118.46 47.8495 116.687 49.3795 116.028C50.902 115.379 52.6883 116.081 53.3433 117.611L62.3446 138.577C62.9996 140.11 62.2921 141.882 60.7621 142.541C60.3746 142.706 59.9695 142.787 59.5708 142.787Z" fill="#D0A153"/>
<path d="M107.542 159.763H72.3551C70.6889 159.763 69.3389 158.413 69.3389 156.747C69.3389 155.081 70.6889 153.731 72.3551 153.731H107.542C109.209 153.731 110.559 155.081 110.559 156.747C110.559 158.413 109.21 159.763 107.542 159.763Z" fill="#D0A153"/>
<path d="M147.635 117.526C147.303 117.526 146.968 117.47 146.637 117.354C145.066 116.804 144.237 115.081 144.787 113.51L157.195 78.0925L138.632 71.5149L125.626 108.35C125.072 109.925 123.342 110.76 121.778 110.189C120.207 109.635 119.382 107.913 119.938 106.342L133.948 66.6551C134.212 65.8988 134.769 65.2813 135.492 64.9376C136.218 64.5889 137.046 64.5501 137.799 64.8164L162.042 73.4077C163.609 73.9627 164.431 75.6802 163.881 77.249L150.481 115.505C150.048 116.747 148.882 117.523 147.635 117.526Z" fill="#D0A153"/>
<path d="M157.149 129.389C156.818 129.389 156.479 129.333 156.151 129.216C154.576 128.666 153.748 126.944 154.301 125.372L172.737 72.7741L154.132 66.2077C153.441 67.3914 152.015 67.9927 150.644 67.5789C149.047 67.0939 148.149 65.4102 148.635 63.8151L149.35 61.4626C149.59 60.6751 150.139 60.0201 150.876 59.6476C151.612 59.2763 152.459 59.2226 153.241 59.4938L177.586 68.0852C179.154 68.6389 179.979 70.3577 179.429 71.929L159.995 127.363C159.559 128.608 158.395 129.386 157.149 129.386L157.149 129.389Z" fill="#D0A153"/>
<path d="M34.816 117.008C34.3997 117.008 33.9772 116.923 33.5722 116.741L31.3209 115.719C30.2809 115.247 29.5985 114.229 29.5522 113.091L29.4222 109.743L26.1173 108.256C25.0535 107.777 24.3585 106.729 24.3372 105.563L24.2735 102.268L18.8684 99.8755C17.8071 99.4068 17.1096 98.3668 17.0746 97.208C17.0396 96.0455 17.6734 94.9705 18.7059 94.4342L45.8096 80.4243C46.5146 80.0581 47.3421 79.9868 48.1108 80.2293C48.8721 80.4731 49.5058 81.0081 49.8758 81.7193L62.4556 106.063C63.2206 107.543 62.6394 109.364 61.1594 110.129C59.6756 110.894 57.8583 110.315 57.0931 108.833L45.8983 87.1693L27.0682 96.9056L28.4744 97.5294C29.5457 98.0056 30.2469 99.0581 30.2682 100.228L30.3357 103.533L33.6019 105.002C34.6444 105.471 35.3357 106.492 35.3819 107.634L35.5119 110.992L36.0682 111.242C37.5869 111.933 38.2569 113.719 37.5694 115.238C37.0607 116.352 35.9647 117.008 34.816 117.008Z" fill="#D0A153"/>
<path d="M43.4138 97.3697C42.3251 97.3697 41.2713 96.7809 40.7363 95.7484L36.9513 88.486C36.1801 87.006 36.7538 85.1849 38.2301 84.4147C39.7176 83.6497 41.5312 84.2197 42.3002 85.6972L46.0851 92.9573C46.8564 94.4373 46.2826 96.2584 44.8064 97.0274C44.3589 97.2599 43.8826 97.3697 43.4138 97.3697Z" fill="#D0A153"/>
<path d="M33.696 97.7793C32.611 97.7793 31.5647 97.1943 31.0247 96.1693L29.0835 92.4867C28.3047 91.0142 28.8685 89.1878 30.3447 88.4131C31.821 87.6244 33.6459 88.2019 34.4183 89.6744L36.3596 93.3569C37.1383 94.8294 36.5746 96.6558 35.0983 97.4305C34.6509 97.6693 34.1672 97.7793 33.696 97.7793Z" fill="#D0A153"/>
<path d="M17.3305 101.562C17.0243 101.562 16.7143 101.515 16.4143 101.42C15.653 101.177 15.0155 100.642 14.6493 99.9304L3.4992 78.3502C2.73421 76.8702 3.31545 75.0504 4.79546 74.2853L37.4227 57.4104C38.1277 57.0442 38.9589 56.9729 39.7239 57.2154C40.4852 57.4592 41.1227 57.9942 41.4889 58.7054L52.6377 80.2865C53.4027 81.7665 52.8215 83.5863 51.3414 84.3515L18.7142 101.228C18.2855 101.449 17.8093 101.562 17.3305 101.562ZM10.248 78.2605L18.6269 94.4807L45.8931 80.377L37.5142 64.1568L10.248 78.2605Z" fill="#D0A153"/>
<path d="M21.9362 85.5072C20.8436 85.5072 19.7861 84.9122 19.2512 83.8734C18.4862 82.3934 19.0674 80.5736 20.5474 79.8072L32.8201 73.4661C34.31 72.7048 36.1212 73.2823 36.8863 74.7623C37.6514 76.2423 37.07 78.0622 35.59 78.8286L23.3174 85.1697C22.8737 85.3972 22.4011 85.5072 21.9362 85.5072Z" fill="#D0A153"/>
<path d="M6.18335 79.9841C5.09084 79.9841 4.04086 79.3916 3.5021 78.3578L0.739608 73.0404C-0.0291275 71.5604 0.549609 69.7393 2.02585 68.9703C3.50585 68.2041 5.32697 68.7778 6.09593 70.2565L8.85842 75.574C9.62716 77.054 9.04842 78.8751 7.57218 79.6441C7.12844 79.8753 6.65209 79.9841 6.18335 79.9841Z" fill="#D0A153"/>
<path d="M38.8123 63.1073C37.7197 63.1073 36.6698 62.5148 36.131 61.4798L33.3685 56.1611C32.5998 54.6823 33.1785 52.8612 34.6548 52.0936C36.1348 51.3273 37.9536 51.9011 38.7248 53.3811L41.4873 58.6998C42.2561 60.1785 41.6773 61.9996 40.2011 62.7673C39.7561 62.9985 39.281 63.1073 38.8123 63.1073Z" fill="#D0A153"/>
</svg>
