<svg width="181" height="180" viewBox="0 0 181 180" fill="none" xmlns="http://www.w3.org/2000/svg">
<path d="M90.3556 110.973C82.9126 110.973 76.3083 108.158 70.7058 102.604C59.6027 91.6003 54.5488 71.263 54.5488 57.0234C54.5488 55.3571 55.9049 54.0059 57.5785 54.0059C59.2522 54.0059 60.6083 55.3571 60.6083 57.0234C60.6083 70.4685 65.5451 88.976 74.9809 98.3322C79.408 102.718 84.5762 104.942 90.3443 104.942H90.4397C112.775 104.752 120.3 71.9565 120.3 57.0253C120.3 55.359 121.656 54.0078 123.329 54.0078C125.003 54.0078 126.359 55.359 126.359 57.0253C126.359 74.5277 117.589 110.747 90.4781 110.974H90.3551L90.3556 110.973Z" fill="#D0A153"/>
<path d="M24.7075 179.19C23.0338 179.19 21.6777 177.84 21.6777 176.174C21.6777 156.951 26.7351 139.393 35.5583 128.001C40.4778 121.578 47.7575 120.588 54.1812 119.714C59.4935 118.992 64.5084 118.312 68.1258 114.877C70.7487 112.337 70.4335 107.027 70.0657 100.874C69.9665 99.2116 71.2409 97.7803 72.9108 97.6815C74.6623 97.6115 76.0184 98.8515 76.1176 100.514C76.5533 107.829 76.9638 114.738 72.3308 119.22C67.277 124.027 60.7543 124.91 54.9988 125.693C48.9784 126.51 43.779 127.219 40.3673 131.672C32.3368 142.042 27.7362 158.257 27.7362 176.174C27.7374 177.842 26.3826 179.192 24.7077 179.192L24.7075 179.19Z" fill="#D0A153"/>
<path d="M156.306 179.19C154.633 179.19 153.277 177.84 153.277 176.174C153.277 158.257 148.676 142.043 140.655 131.688C137.236 127.224 132.02 126.515 125.981 125.694C120.216 124.912 113.683 124.028 108.688 119.229C104.207 114.895 104.306 108.363 104.898 100.273C105.018 98.6105 106.515 97.3343 108.14 97.483C109.81 97.603 111.063 99.0505 110.942 100.711C110.467 107.212 110.308 112.384 112.906 114.895C116.463 118.317 121.482 118.997 126.798 119.719C133.239 120.593 140.537 121.583 145.463 128.017C154.276 139.394 159.333 156.952 159.333 176.177C159.336 177.843 157.98 179.193 156.306 179.193L156.306 179.19Z" fill="#D0A153"/>
<path d="M156.306 179.19L24.7075 179.19C23.0338 179.19 21.6777 177.84 21.6777 176.174C21.6777 174.508 23.0338 173.158 24.7075 173.158H156.307C157.98 173.158 159.336 174.508 159.336 176.174C159.336 177.84 157.98 179.19 156.306 179.19Z" fill="#D0A153"/>
<path d="M57.5796 60.0384C56.4182 60.0384 55.307 59.3672 54.8085 58.2384C54.133 56.7147 54.8261 54.9335 56.3554 54.2608C78.0795 44.7232 102.934 44.721 124.559 54.2621C126.089 54.9383 126.778 56.7196 126.102 58.2432C125.423 59.7657 123.629 60.4507 122.104 59.7794C102.039 50.9231 78.9678 50.9244 58.8046 59.7807C58.4041 59.9557 57.9901 60.0384 57.5796 60.0384Z" fill="#D0A153"/>
<path d="M59.3311 179.19C59.2457 179.19 59.1616 179.187 59.0725 179.18C57.4051 179.043 56.167 177.584 56.3089 175.922C57.5758 160.855 61.4756 147.537 67.8929 136.328C68.6613 134.989 70.3249 134.447 71.7362 135.055C83.6667 140.228 97.3525 140.228 109.276 135.055C110.794 134.389 112.599 135.087 113.265 136.617C113.934 138.145 113.23 139.922 111.697 140.588C99.0792 146.053 84.7316 146.409 71.8909 141.624C66.6638 151.582 63.4533 163.273 62.346 176.431C62.2154 178.001 60.8883 179.192 59.3301 179.192L59.3311 179.19Z" fill="#D0A153"/>
<path d="M121.682 179.19C120.121 179.19 118.798 177.999 118.666 176.428C117.47 162.243 113.832 149.755 107.854 139.314C107.026 137.866 107.532 136.023 108.987 135.199C110.438 134.374 112.293 134.879 113.12 136.327C119.536 147.536 123.437 160.854 124.704 175.921C124.846 177.583 123.607 179.042 121.941 179.179C121.851 179.186 121.766 179.189 121.682 179.189L121.682 179.19Z" fill="#D0A153"/>
<path d="M70.5274 140.838C69.2429 140.838 68.0463 140.017 67.6395 138.731C64.6914 129.478 63.1093 123.943 62.5143 120.786C62.203 119.147 63.2853 117.568 64.9276 117.262C66.5837 116.931 68.1595 118.027 68.4671 119.665C69.0196 122.575 70.5451 127.892 73.4155 136.905C73.9215 138.493 73.0401 140.188 71.4443 140.692C71.1404 140.793 70.8325 140.838 70.5274 140.838Z" fill="#D0A153"/>
<path d="M110.487 140.838C110.183 140.838 109.874 140.792 109.57 140.693C107.974 140.19 107.093 138.495 107.599 136.906C110.82 126.79 112.012 121.948 112.444 119.666C112.752 118.027 114.345 116.932 115.984 117.263C117.626 117.57 118.708 119.148 118.397 120.787C117.735 124.293 115.997 130.499 113.375 138.732C112.968 140.015 111.771 140.838 110.487 140.838Z" fill="#D0A153"/>
<path d="M119.735 12.175C119.324 12.175 118.906 12.0925 118.511 11.9163C100.712 4.08365 80.296 4.08749 62.5017 11.9163C60.9875 12.595 59.1858 11.9038 58.5063 10.3763C57.8308 8.85255 58.5202 7.07133 60.0532 6.39869C79.4055 -2.12131 101.608 -2.11747 120.958 6.39869C122.491 7.0712 123.18 8.85245 122.504 10.3763C122.003 11.5038 120.892 12.175 119.732 12.175L119.735 12.175Z" fill="#D0A153"/>
<path d="M57.5796 60.0384C55.9122 60.0384 54.5573 58.6971 54.5498 57.0359C54.4468 38.3245 55.7074 22.0247 58.3015 8.58469C58.6204 6.94844 60.2125 5.88969 61.851 6.19093C63.4933 6.50594 64.5693 8.08719 64.2542 9.72341C61.7343 22.7759 60.5102 38.6834 60.6092 57.0034C60.6193 58.6684 59.272 60.0272 57.5971 60.0372H57.5795L57.5796 60.0384Z" fill="#D0A153"/>
<path d="M123.331 60.0384C123.321 60.0384 123.309 60.0384 123.299 60.0371C121.626 60.0196 120.283 58.6546 120.301 56.9871C120.499 38.8409 119.31 22.9391 116.758 9.72314C116.443 8.08688 117.519 6.50554 119.161 6.19066C120.807 5.88816 122.393 6.94817 122.711 8.58442C125.337 22.1943 126.565 38.5006 126.36 57.0516C126.343 58.7066 124.991 60.0366 123.331 60.0366L123.331 60.0384Z" fill="#D0A153"/>
<path d="M90.4553 23.5274C89.6906 23.5274 88.9298 23.2424 88.3384 22.6699C83.6738 18.1399 80.545 12.0612 78.7646 4.08362C78.403 2.45738 79.4339 0.846184 81.0649 0.484904C82.6996 0.131144 84.3167 1.1474 84.6822 2.77742C86.1964 9.5723 88.7766 14.6673 92.571 18.3512C93.7676 19.5162 93.7915 21.4249 92.6238 22.6187C92.0299 23.2237 91.2438 23.5274 90.4553 23.5274Z" fill="#D0A153"/>
<path d="M90.4553 23.5274C89.6655 23.5274 88.8809 23.2224 88.2858 22.6161C87.1181 21.4236 87.1432 19.5136 88.3385 18.3486C92.2207 14.5787 94.8323 9.48494 96.3302 2.77486C96.6943 1.14484 98.3052 0.116104 99.9476 0.482344C101.579 0.843592 102.609 2.4561 102.248 4.08106C100.514 11.8622 97.2582 18.1172 92.5712 22.6673C91.981 23.2423 91.2199 23.5274 90.4553 23.5274Z" fill="#D0A153"/>
<path d="M147.059 119.971C146.522 119.971 145.979 119.83 145.491 119.537L117.754 102.867C116.997 102.412 116.476 101.649 116.331 100.777C116.186 99.9074 116.43 99.0186 117 98.3424C123.165 91.0387 128.843 83.0835 133.875 74.7011C139.067 66.1497 143.414 57.4611 146.804 48.8598C147.129 48.0348 147.802 47.3936 148.645 47.1073C149.487 46.8235 150.418 46.9173 151.179 47.3736L179.021 63.9422C180.302 64.7034 180.833 66.2759 180.281 67.6523C176.486 77.0923 171.989 86.1185 166.91 94.4798C161.841 102.919 155.942 111.139 149.377 118.897C148.783 119.601 147.927 119.971 147.059 119.971ZM123.892 99.5062L146.395 113.029C152.089 106.109 157.239 98.8326 161.717 91.3738C166.204 83.9837 170.222 76.0662 173.679 67.7926L151.106 54.359C147.811 62.1939 143.772 70.0666 139.072 77.809C134.498 85.4301 129.399 92.7162 123.892 99.5062Z" fill="#D0A153"/>
<path d="M154.764 90.208C154.229 90.208 153.691 90.0705 153.199 89.7742C151.765 88.9104 151.309 87.0579 152.173 85.6305C157.082 77.5454 161.432 68.8168 165.102 59.6856C165.725 58.1355 167.491 57.3818 169.041 58.0043C170.594 58.6231 171.352 60.3793 170.73 61.9256C166.939 71.3617 162.44 80.3867 157.361 88.7518C156.791 89.6906 155.789 90.208 154.764 90.208Z" fill="#D0A153"/>
<path d="M122.399 114.858C121.858 114.858 121.309 114.713 120.814 114.41C119.387 113.536 118.945 111.679 119.823 110.259C122.045 106.661 124.664 104.346 127.821 103.18C129.389 102.606 131.133 103.399 131.717 104.959C132.297 106.52 131.497 108.256 129.93 108.838C128.09 109.518 126.469 111.019 124.982 113.421C124.409 114.35 123.419 114.858 122.399 114.858ZM115.622 109.434C115.091 109.434 114.553 109.296 114.065 109.004C112.631 108.148 112.164 106.294 113.028 104.864L116.727 98.73C117.59 97.3 119.449 96.8375 120.885 97.6975C122.322 98.5575 122.786 100.41 121.922 101.838L118.223 107.971C117.657 108.913 116.651 109.434 115.622 109.434Z" fill="#D0A153"/>
<path d="M47.9241 117.722C47.1845 117.722 46.4412 117.454 45.8574 116.914C42.4033 113.708 39.4413 109.787 36.3087 105.635C31.216 98.8878 25.949 91.9115 18.4469 88.268C8.09465 83.2504 5.62126 76.0731 5.3699 70.9381C4.92794 61.9406 10.867 53.4654 16.9577 49.7445C27.2749 43.4443 43.0838 48.1907 52.1992 60.3294C53.2011 61.6632 52.9249 63.5531 51.5865 64.5518C50.2417 65.5494 48.3445 65.2719 47.3426 63.9406C40.0513 54.2318 27.8422 50.1742 20.1266 54.8894C15.6041 57.6519 11.1128 64.3006 11.4243 70.6443C11.6716 75.7479 14.9285 79.8507 21.1034 82.843C29.9164 87.1281 35.8866 95.0344 41.1526 102.01C44.122 105.943 46.9245 109.657 49.9893 112.497C51.2135 113.634 51.2813 115.544 50.1412 116.764C49.5435 117.402 48.7337 117.722 47.9226 117.722L47.9241 117.722Z" fill="#D0A153"/>
<path d="M35.4942 78.7424C32.7445 78.7424 29.5944 77.2886 26.9435 74.5626C24.4411 72.07 22.9482 68.8726 22.9871 66.0451C23.0122 64.2001 23.6701 62.6202 24.8842 61.4787C27.9629 58.59 33.5088 59.7387 37.7777 64.1325C40.3014 66.735 41.7705 69.9376 41.7065 72.6976C41.6676 74.4751 41.016 76.0026 39.8345 77.1165C38.6655 78.2127 37.1503 78.7424 35.4942 78.7424ZM29.1347 65.9299C29.0355 65.9299 28.9614 65.9399 28.9049 65.9599C28.8798 66.2399 29.2239 68.2974 31.2654 70.3324C33.3359 72.4624 35.282 72.8662 35.7214 72.6936C35.803 72.3662 35.4238 70.3912 33.4174 68.325C31.6546 66.5075 29.8566 65.9299 29.1347 65.9299Z" fill="#D0A153"/>
<path d="M39.6055 121.61C38.7919 121.61 37.9808 121.286 37.3831 120.645C34.8317 117.907 32.5241 114.848 30.0818 111.611C24.9718 104.842 19.6868 97.8411 12.1834 94.2046C3.76712 90.1172 1.28248 83.9121 0.681083 79.427C-0.558185 70.2132 4.84326 60.8145 10.3853 55.9819C11.6346 54.8843 13.5532 55.0056 14.6607 56.2619C15.7643 57.5156 15.6375 59.4219 14.3769 60.5195C9.9849 64.3508 5.79765 71.9994 6.6864 78.627C7.27776 83.0244 10.0199 86.4382 14.8375 88.7783C23.6543 93.0519 29.6422 100.987 34.9255 107.985C37.2722 111.096 39.4869 114.031 41.8275 116.543C42.9639 117.762 42.8923 119.672 41.6643 120.807C41.0805 121.346 40.345 121.61 39.6055 121.61Z" fill="#D0A153"/>
<path d="M47.9243 179.19C46.2506 179.19 44.8945 177.84 44.8945 176.174V164C44.8945 162.334 46.2506 160.984 47.9243 160.984C49.5979 160.984 50.954 162.334 50.954 164V176.174C50.954 177.84 49.5992 179.19 47.9243 179.19Z" fill="#D0A153"/>
<path d="M133.089 179.19C131.416 179.19 130.06 177.84 130.06 176.174V164C130.06 162.334 131.416 160.984 133.089 160.984C134.763 160.984 136.119 162.334 136.119 164V176.174C136.119 177.84 134.763 179.19 133.089 179.19Z" fill="#D0A153"/>
</svg>
