<svg width="180" height="180" viewBox="0 0 180 180" fill="none" xmlns="http://www.w3.org/2000/svg">
<path d="M176.968 179.197H170.905C169.231 179.197 167.875 177.847 167.875 176.181C167.875 174.515 169.231 173.165 170.905 173.165H173.938V125.296H155.494C153.82 125.296 152.464 123.946 152.464 122.279C152.464 120.613 153.82 119.263 155.494 119.263H176.968C178.642 119.263 179.998 120.613 179.998 122.279V176.18C179.998 177.848 178.641 179.197 176.968 179.197Z" fill="#D0A153"/>
<path d="M176.968 125.296C175.294 125.296 173.938 123.946 173.938 122.28V68.2735C173.938 66.6072 175.294 65.256 176.968 65.256C178.642 65.256 179.998 66.6072 179.998 68.2735L179.998 122.279C179.998 123.946 178.642 125.296 176.968 125.296ZM142.858 116.191C141.184 116.191 139.828 114.841 139.828 113.175V68.2725C139.828 66.6063 141.184 65.255 142.858 65.255C144.532 65.255 145.888 66.6063 145.888 68.2725V113.172C145.888 114.839 144.533 116.189 142.858 116.189V116.191Z" fill="#D0A153"/>
<path d="M176.968 71.293H142.858C141.184 71.293 139.828 69.9418 139.828 68.2755V14.3715C139.828 12.7053 141.184 11.354 142.858 11.354H176.968C178.642 11.354 179.998 12.7053 179.998 14.3715V68.2723C179.999 69.9398 178.643 71.2911 176.969 71.2911L176.968 71.293ZM145.887 65.2569H173.937L173.938 17.3913H145.887L145.887 65.2569Z" fill="#D0A153"/>
<path d="M142.857 17.389H131.351C129.677 17.389 128.321 16.0377 128.321 14.3715C128.321 12.7053 129.677 11.354 131.351 11.354H142.858C144.532 11.354 145.887 12.7053 145.887 14.3715C145.887 16.0377 144.532 17.389 142.857 17.389Z" fill="#D0A153"/>
<path d="M142.858 71.293L133.301 71.2929C131.628 71.2929 130.271 69.9417 130.271 68.2754C130.271 66.6092 131.628 65.2579 133.301 65.2579H142.857C144.531 65.2579 145.887 66.6092 145.887 68.2754C145.887 69.9417 144.533 71.293 142.858 71.293Z" fill="#D0A153"/>
<path d="M89.7254 105.76C63.8279 105.76 51.8258 72.365 51.5783 48.5666C51.5607 46.9003 52.9017 45.534 54.5766 45.5191C54.5867 45.5178 54.598 45.5178 54.608 45.5178C56.2679 45.5178 57.6201 46.8478 57.6377 48.5041C57.8148 65.2516 65.8956 99.7265 89.7227 99.7265H89.9249C114.028 99.5327 122.187 65.1313 122.363 48.5041C122.381 46.8478 123.733 45.5178 125.393 45.5178C125.403 45.5178 125.415 45.5178 125.425 45.5191C127.098 45.5353 128.44 46.9003 128.423 48.5666C128.193 70.5614 117.55 105.539 89.9736 105.757C89.8907 105.757 89.8058 105.76 89.7254 105.76Z" fill="#D0A153"/>
<path d="M19.1625 179.197C17.4889 179.197 16.1328 177.847 16.1328 176.181C16.1328 155.515 21.5656 136.648 31.0403 124.424C36.2861 117.63 44.0695 116.566 50.9352 115.633C56.6756 114.85 62.0948 114.11 65.9533 110.393C68.8524 107.725 68.7206 102.404 68.2259 95.1702C68.1091 93.5102 69.3722 92.0689 71.0434 91.9564C72.6154 91.8014 74.1585 93.0977 74.2715 94.7614C74.7888 102.249 75.3187 109.998 70.1193 114.776C64.8887 119.823 57.9114 120.77 51.7564 121.613C45.2185 122.5 39.5736 123.273 35.8431 128.106C27.1684 139.301 22.1911 156.821 22.1911 176.18C22.1923 177.847 20.8375 179.197 19.1625 179.197Z" fill="#D0A153"/>
<path d="M160.835 179.197C159.161 179.197 157.805 177.847 157.805 176.181C157.805 156.822 152.829 139.301 144.157 128.11C142.189 125.549 139.588 123.959 135.715 122.944C134.098 122.521 133.131 120.871 133.556 119.258C133.984 117.644 135.661 116.693 137.259 117.108C142.448 118.464 146.167 120.794 148.963 124.434C158.432 136.646 163.864 155.513 163.864 176.178C163.864 177.847 162.508 179.195 160.835 179.195L160.835 179.197ZM109.261 111.184C107.973 111.184 106.777 110.357 106.37 109.07C105.092 105.022 105.393 100.086 105.708 94.8554C105.807 93.1954 107.148 91.7579 108.922 91.8879C110.594 91.9867 111.874 93.2792 111.775 94.943C111.478 99.8767 111.213 104.274 112.154 107.258C112.657 108.85 111.769 110.542 110.172 111.043C109.867 111.138 109.563 111.184 109.261 111.184Z" fill="#D0A153"/>
<path d="M75.3579 179.197L19.1625 179.197C17.4889 179.197 16.1328 177.847 16.1328 176.181C16.1328 174.515 17.4889 173.164 19.1625 173.164H75.3579C77.0316 173.164 78.3876 174.514 78.3876 176.181C78.3876 177.848 77.0329 179.197 75.3579 179.197Z" fill="#D0A153"/>
<path d="M89.9983 54.1826C75.1711 54.1826 60.3452 52.8451 45.9336 50.1714C44.2876 49.8652 43.2053 48.2902 43.5091 46.6514C43.8167 45.0127 45.395 43.9401 47.0448 44.2376C75.1409 49.4527 104.854 49.4527 132.95 44.2376C134.585 43.9439 136.178 45.0127 136.486 46.6514C136.789 48.2902 135.707 49.8652 134.061 50.1714C119.651 52.8464 104.824 54.1826 89.9996 54.1826H89.9983Z" fill="#D0A153"/>
<path d="M95.907 25.06H84.0893C82.2625 25.06 80.6703 24.435 79.4852 23.2538C78.1154 21.89 77.5842 19.9325 78.0978 18.145L81.6685 4.21376C82.3616 1.67501 84.7761 0 87.6854 0H92.311C95.2202 0 97.6345 1.67501 98.314 4.16864L101.924 18.2262C102.412 19.9337 101.881 21.8912 100.511 23.255C99.3259 24.435 97.7338 25.06 95.907 25.06ZM84.1347 18.9886L95.8719 19.0236L92.5445 6.05852C92.4843 6.04602 92.4064 6.03602 92.311 6.03602H87.6853C87.5899 6.03602 87.512 6.04602 87.4518 6.05852L84.1347 18.9886Z" fill="#D0A153"/>
<path d="M71.7636 18.2065C71.5188 18.2065 71.2714 18.1765 71.0241 18.1153C69.3993 17.7115 68.415 16.0728 68.8193 14.4564L70.8759 6.27401C71.5803 3.70025 74.0512 1.94409 76.9001 1.94409H84.6057C86.2794 1.94409 87.6354 3.29536 87.6354 4.9616C87.6354 6.62784 86.2794 7.9791 84.6057 7.9791H76.9001L74.7016 15.9215C74.3551 17.2928 73.1196 18.2065 71.7636 18.2065Z" fill="#D0A153"/>
<path d="M52.6518 49.197C50.9781 49.197 49.6221 47.8457 49.6221 46.1795C49.6221 25.3721 57.1756 12.1315 72.0793 6.82266C73.6538 6.26266 75.3891 7.08016 75.9516 8.64765C76.5178 10.2176 75.6967 11.944 74.1184 12.5065C61.7132 16.9241 55.6816 27.9392 55.6816 46.1801C55.6816 47.8464 54.3255 49.197 52.6518 49.197Z" fill="#D0A153"/>
<path d="M108.233 18.2066C106.877 18.2066 105.643 17.2916 105.295 15.9216L103.238 7.73922L95.3911 7.97922C93.7174 7.97922 92.3613 6.62796 92.3613 4.96172C92.3613 3.29548 93.7174 1.94421 95.3911 1.94421H103.097C105.946 1.94421 108.417 3.70047 109.104 6.21557L111.178 14.4569C111.581 16.0744 110.598 17.7132 108.973 18.1157C108.726 18.1782 108.477 18.2066 108.233 18.2066Z" fill="#D0A153"/>
<path d="M127.345 49.1969C125.671 49.1969 124.315 47.8457 124.315 46.1794C124.315 27.9308 118.252 16.917 105.779 12.509C104.205 11.9503 103.38 10.2253 103.938 8.65526C104.501 7.08528 106.229 6.26652 107.811 6.8215C122.782 12.1153 130.375 25.3578 130.375 46.1783C130.375 47.8445 129.019 49.1958 127.345 49.1958L127.345 49.1969Z" fill="#D0A153"/>
<path d="M48.6468 179.2C48.363 179.2 48.0768 179.158 47.7905 179.074C46.1833 178.605 45.2668 176.924 45.7414 175.328L56.5292 138.915C56.9083 137.632 58.0899 136.751 59.4346 136.751H83.6799C85.3536 136.751 86.7097 138.101 86.7097 139.767C86.7097 141.434 85.3536 142.784 83.6799 142.784H61.6997L51.5522 177.033C51.163 178.348 49.9564 179.2 48.6468 179.2Z" fill="#D0A153"/>
<path d="M69.5045 142.787C68.3017 142.787 67.1654 142.069 66.6908 140.885L57.5451 118.076C56.9224 116.529 57.6795 114.775 59.2364 114.158C60.7833 113.53 62.55 114.287 63.1726 115.841L72.3182 138.65C72.941 140.197 72.1839 141.951 70.627 142.569C70.2578 142.717 69.8799 142.787 69.5045 142.787Z" fill="#D0A153"/>
<path d="M131.35 179.2C130.044 179.2 128.84 178.354 128.447 177.048L123.927 162.013C123.447 160.413 124.356 158.733 125.959 158.257C127.572 157.763 129.251 158.687 129.732 160.279L134.252 175.314C134.733 176.914 133.824 178.594 132.22 179.07C131.93 179.158 131.637 179.2 131.35 179.2Z" fill="#D0A153"/>
<path d="M119.744 157.92C119.294 157.92 118.845 157.821 118.43 157.624L92.1298 145.045C91.4041 144.696 90.8491 144.076 90.5829 143.319C90.318 142.561 90.3632 141.73 90.7173 141.008C99.1699 123.657 112.003 110.398 125.049 105.542C125.828 105.253 126.688 105.292 127.427 105.651C128.17 106.007 128.737 106.652 128.992 107.433C133.282 120.579 130.846 138.814 122.475 156.208C122.129 156.93 121.506 157.483 120.748 157.751C120.422 157.864 120.084 157.92 119.744 157.92ZM97.5452 140.94L118.276 150.855C124.24 137.293 126.371 123.149 124.095 112.529C114.297 117.379 104.489 127.85 97.5452 140.94Z" fill="#D0A153"/>
<path d="M99.1885 166.919C98.749 166.919 98.3033 166.824 97.8789 166.622C96.371 165.9 95.7344 164.096 96.4601 162.595L109.408 135.797C110.137 134.292 111.935 133.666 113.453 134.385C114.961 135.107 115.598 136.911 114.872 138.412L101.924 165.21C101.401 166.291 100.319 166.919 99.1885 166.919Z" fill="#D0A153"/>
<path d="M101.863 179.197C101.413 179.197 100.96 179.098 100.528 178.887C99.0277 178.154 98.4075 176.343 99.1483 174.848L104.061 164.901L95.3361 160.746L86.905 177.53C86.158 179.017 84.3462 179.626 82.8383 178.88C81.3417 178.132 80.7365 176.321 81.4823 174.831L91.2444 155.398C91.9839 153.93 93.7568 153.32 95.261 154.025L109.44 160.772C110.173 161.121 110.732 161.745 110.997 162.506C111.262 163.271 111.209 164.106 110.851 164.828L104.584 177.513C104.056 178.581 102.98 179.197 101.863 179.197Z" fill="#D0A153"/>
<path d="M9.09283 179.197H3.02972C1.35604 179.197 0 177.847 0 176.181V122.28C0 120.614 1.35604 119.264 3.02972 119.264H24.4009C26.0745 119.264 27.4306 120.614 27.4306 122.28C27.4306 123.946 26.0745 125.296 24.4009 125.296H6.05951V173.165H9.09299C10.7667 173.165 12.1227 174.515 12.1227 176.181C12.1227 177.849 10.7678 179.197 9.09283 179.197Z" fill="#D0A153"/>
<path d="M3.02972 125.296C1.35604 125.296 0 123.946 0 122.28V68.2735C0 66.6072 1.35604 65.256 3.02972 65.256C4.7034 65.256 6.05944 66.6072 6.05944 68.2735V122.28C6.05944 123.946 4.70468 125.296 3.02972 125.296ZM37.1397 116.191C35.466 116.191 34.11 114.841 34.11 113.175V68.2725C34.11 66.6063 35.466 65.255 37.1397 65.255C38.8134 65.255 40.1694 66.6063 40.1694 68.2725V113.172C40.1694 114.839 38.8134 116.189 37.1397 116.189V116.191Z" fill="#D0A153"/>
<path d="M37.1397 71.293H3.02972C1.35604 71.293 0 69.9418 0 68.2755V14.3715C0 12.7053 1.35604 11.354 3.02972 11.354H37.1397C38.8134 11.354 40.1694 12.7053 40.1694 14.3715V68.2725C40.1707 69.94 38.8147 71.2911 37.141 71.2911L37.1397 71.293ZM6.05919 65.2569H34.109L34.1102 17.3913H6.05915L6.05919 65.2569Z" fill="#D0A153"/>
<path d="M48.6472 17.389H37.141C35.4674 17.389 34.1113 16.0377 34.1113 14.3715C34.1113 12.7053 35.4674 11.354 37.141 11.354H48.6472C50.3209 11.354 51.677 12.7053 51.677 14.3715C51.677 16.0377 50.3209 17.389 48.6472 17.389Z" fill="#D0A153"/>
<path d="M46.6961 71.2929L37.1397 71.293C35.466 71.293 34.1104 69.9417 34.1104 68.2754C34.1104 66.6092 35.4664 65.2579 37.1401 65.2579H46.6961C48.3698 65.2579 49.7259 66.6092 49.7259 68.2754C49.7259 69.9417 48.3698 71.2929 46.6961 71.2929Z" fill="#D0A153"/>
<path d="M160.835 179.197L112.756 179.197C111.083 179.197 109.727 177.847 109.727 176.181C109.727 174.514 111.083 173.164 112.756 173.164H160.836C162.509 173.164 163.865 174.514 163.865 176.181C163.867 177.848 162.511 179.197 160.837 179.197L160.835 179.197Z" fill="#D0A153"/>
<path d="M59.434 142.787C58.2588 142.787 57.14 142.1 56.6478 140.959L47.6077 119.992C46.9497 118.46 47.6604 116.687 49.1972 116.028C50.7265 115.38 52.5208 116.081 53.1787 117.611L62.2189 138.577C62.8769 140.11 62.1662 141.882 60.6294 142.541C60.2414 142.706 59.8345 142.787 59.434 142.787Z" fill="#D0A153"/>
</svg>
