<svg width="114" height="180" viewBox="0 0 114 180" fill="none" xmlns="http://www.w3.org/2000/svg">
<path d="M56.5658 109.261C51.2937 109.261 46.5061 107.178 42.3374 103.068C30.1331 91.0485 26.9102 65.7755 26.9102 54.0923C26.9102 52.4261 28.2649 51.0748 29.9386 51.0748C31.6123 51.0748 32.9671 52.4261 32.9671 54.0923C32.9671 66.6574 36.597 88.9275 46.5976 98.7803C49.6336 101.772 52.8957 103.227 56.5693 103.227H56.7149C73.0274 103.058 80.6276 73.8066 80.6276 54.0939C80.6276 52.4277 81.9824 51.0764 83.6561 51.0764C85.3297 51.0764 86.6845 52.4277 86.6845 54.0939C86.6845 75.3026 78.5672 109.032 56.7779 109.259C56.7075 109.257 56.6372 109.261 56.5657 109.261L56.5658 109.261Z" fill="#D0A153"/>
<path d="M3.02847 179.2C1.35479 179.2 0 177.851 0 176.185C0 156.68 4.09082 138.777 11.2236 127.071C15.3534 120.343 21.5068 119.325 26.9348 118.426C31.3116 117.7 35.0949 117.074 37.8759 113.727C40.0555 111.11 39.9426 105.95 39.5458 98.9464C39.4504 97.2839 40.731 95.8601 42.401 95.7651C44.0458 95.6739 45.501 96.9451 45.5964 98.6076C45.9932 105.65 46.4063 112.931 42.5466 117.574C38.3214 122.658 32.7983 123.57 27.929 124.377C22.9857 125.198 19.0797 125.842 16.4003 130.21C9.83 140.99 6.05803 157.75 6.05803 176.185C6.05677 177.851 4.70199 179.2 3.02831 179.2L3.02847 179.2Z" fill="#D0A153"/>
<path d="M110.565 179.2C108.891 179.2 107.537 177.851 107.537 176.185C107.537 157.751 103.765 140.991 97.1906 130.201C94.5149 125.844 90.6087 125.199 85.6657 124.379C80.7967 123.572 75.2733 122.66 71.0481 117.576C67.4571 113.254 67.5163 106.903 67.9983 98.4062C68.0937 96.7437 69.5025 95.465 71.1938 95.5637C72.8637 95.6587 74.1444 97.0825 74.049 98.745C73.6597 105.632 73.5354 111.106 75.7189 113.73C78.5 117.076 82.2831 117.704 86.66 118.429C92.0879 119.328 98.2414 120.345 102.367 127.062C109.504 138.779 113.595 156.681 113.595 176.186C113.595 177.852 112.239 179.201 110.565 179.201L110.565 179.2Z" fill="#D0A153"/>
<path d="M110.565 179.2H3.03139C1.35772 179.2 0.00292969 177.851 0.00292969 176.185C0.00292969 174.519 1.35768 173.17 3.03139 173.17H110.569C112.242 173.17 113.597 174.519 113.597 176.185C113.597 177.851 112.241 179.2 110.567 179.2H110.565Z" fill="#D0A153"/>
<path d="M79.2612 57.5297C72.1069 57.5297 66.5159 54.3047 62.7931 48.0286C56.1235 53.6647 45.338 56.6436 30.0299 57.1086C28.2533 57.2073 26.9588 55.8473 26.9086 54.1848C26.8596 52.5198 28.1717 51.1286 29.8453 51.0773C45.7924 50.5948 56.3558 47.1986 61.2425 40.9861C61.9117 40.1336 63.0016 39.7061 64.0625 39.8612C65.1348 40.0162 66.0438 40.7312 66.4444 41.7374C69.5871 49.6411 74.8767 52.6273 83.1111 51.1249C84.7496 50.8149 86.334 51.9124 86.6355 53.5499C86.9369 55.1874 85.8471 56.7611 84.201 57.06C82.4808 57.3737 80.8311 57.53 79.2603 57.53L79.2612 57.5297Z" fill="#D0A153"/>
<path d="M29.0162 41.4657C27.7606 41.4657 26.5891 40.6832 26.1535 39.437C25.6048 37.862 26.4435 36.1445 28.0255 35.5996C46.7902 29.1247 66.6902 29.1196 85.5677 35.5983C87.1497 36.1408 87.9909 37.8583 87.446 39.4332C86.9011 41.0057 85.1747 41.8482 83.5927 41.3019C66.0109 35.2693 47.4835 35.2706 30.0074 41.3007C29.6822 41.4107 29.3457 41.4657 29.0167 41.4657L29.0162 41.4657Z" fill="#D0A153"/>
<path d="M29.0091 41.4658C27.6681 41.4658 26.4401 40.5708 26.0823 39.2183C22.3634 25.177 20.5377 15.7357 20.3316 9.5082C20.2789 7.84321 21.5872 6.4482 23.2609 6.39444C23.2923 6.39444 23.3287 6.39319 23.3638 6.39319C24.9886 6.39319 26.3358 7.68068 26.3898 9.31194C26.5769 15.0758 28.3435 24.0895 31.9419 37.6819C32.37 39.2918 31.4045 40.942 29.7835 41.367C29.5261 41.4332 29.2675 41.4657 29.0088 41.4657L29.0091 41.4658Z" fill="#D0A153"/>
<path d="M84.5844 41.4657C84.3257 41.4657 84.0683 41.4345 83.8096 41.3657C82.1887 40.9407 81.2231 39.2907 81.6513 37.6806C85.2497 24.0879 87.0153 15.0732 87.2033 9.31067C87.2561 7.64443 88.6222 6.40318 90.331 6.39441C92.0047 6.44941 93.3143 7.84439 93.2603 9.50817C93.0556 15.737 91.2288 25.177 87.5096 39.2183C87.153 40.5708 85.9251 41.4657 84.5841 41.4657L84.5844 41.4657Z" fill="#D0A153"/>
<path d="M90.2292 12.4264C89.8575 12.4264 89.4796 12.3576 89.1104 12.2139C68.2651 3.97258 45.319 3.97642 24.4808 12.2139C22.9238 12.8289 21.1649 12.0726 20.5458 10.5226C19.9306 8.97386 20.6877 7.2202 22.2447 6.60516C44.5187 -2.19996 69.0639 -2.20348 91.3454 6.60516C92.9023 7.22017 93.6594 8.9739 93.0442 10.5226C92.5708 11.7063 91.432 12.4263 90.2279 12.4263L90.2292 12.4264Z" fill="#D0A153"/>
<path d="M35.2778 88.4033C34.9174 88.4033 34.5483 88.3358 34.1917 88.2021C19.8014 82.7045 12.0131 75.8196 10.3822 67.1521C8.65579 57.9758 14.0838 47.8545 26.9811 36.2132C28.2229 35.097 30.1376 35.1895 31.259 36.4232C32.384 37.6558 32.2923 39.5632 31.0506 40.6844C20.0002 50.6594 15.0495 59.1906 16.3378 66.0431C17.5344 72.3906 24.2707 77.9493 36.3657 82.5682C37.9264 83.1657 38.7086 84.9095 38.1097 86.4658C37.6464 87.6633 36.4963 88.4033 35.2784 88.4033L35.2778 88.4033Z" fill="#D0A153"/>
<path d="M78.3163 88.4034C77.0996 88.4034 75.9495 87.6634 75.4849 86.4659C74.8873 84.9084 75.6695 83.1647 77.2289 82.5683C89.3227 77.9494 96.0602 72.3907 97.2568 66.0431C98.5451 59.1919 93.5942 50.6595 82.5441 40.6844C81.3023 39.5644 81.2107 37.6569 82.3357 36.4233C83.4569 35.1908 85.3716 35.0971 86.6135 36.2133C99.5109 47.8546 104.939 57.9746 103.212 67.1522C101.581 75.8197 93.793 82.7048 79.4029 88.2021C79.0451 88.3358 78.6772 88.4033 78.3169 88.4033L78.3163 88.4034Z" fill="#D0A153"/>
<path d="M56.7453 26.1275C55.0716 26.1275 53.7168 24.7763 53.7168 23.11V14.4201C53.7168 12.7539 55.0716 11.4026 56.7453 11.4026C58.4189 11.4026 59.7737 12.7539 59.7737 14.4201V23.11C59.7737 24.7775 58.419 26.1275 56.7453 26.1275Z" fill="#D0A153"/>
<path d="M61.1615 21.8337H52.4328C50.7591 21.8337 49.4043 20.4824 49.4043 18.8162C49.4043 17.15 50.7591 15.7987 52.4328 15.7987H61.1615C62.8352 15.7987 64.1899 17.15 64.1899 18.8162C64.1912 20.4824 62.8352 21.8337 61.1615 21.8337Z" fill="#D0A153"/>
<path d="M56.797 125.824C49.8046 125.824 42.8161 123.939 36.582 120.17C35.1494 119.304 34.6961 117.45 35.5625 116.028C36.4288 114.602 38.2971 114.147 39.7234 115.013C50.2576 121.378 63.3384 121.372 73.8655 115.013C75.2956 114.151 77.1602 114.604 78.0264 116.028C78.8928 117.452 78.4408 119.304 77.0069 120.17C70.7741 123.939 63.7856 125.824 56.7971 125.824H56.797Z" fill="#D0A153"/>
<path d="M56.7423 179.2C55.3901 179.2 54.1596 178.295 53.8093 176.931C47.9242 153.991 41.7117 134.41 35.3461 118.723C34.7196 117.177 35.4704 115.42 37.0198 114.796C38.5591 114.176 40.3356 114.916 40.9647 116.462C47.4334 132.399 53.7276 152.238 59.6827 175.438C60.0971 177.052 59.1165 178.697 57.4955 179.11C57.2444 179.171 56.9933 179.2 56.7421 179.2L56.7423 179.2Z" fill="#D0A153"/>
<path d="M56.7491 179.2C56.4942 179.2 56.2394 179.171 55.9845 179.105C54.3635 178.686 53.3904 177.038 53.8123 175.428C59.9233 152.009 66.2538 132.173 72.6297 116.461C73.26 114.915 75.0253 114.175 76.5746 114.795C78.124 115.419 78.8748 117.176 78.2483 118.722C71.9717 134.191 65.7225 153.778 59.6784 176.943C59.3256 178.302 58.0938 179.201 56.7491 179.201V179.2Z" fill="#D0A153"/>
<path d="M92.2824 156.806H80.3683C78.6946 156.806 77.3398 155.458 77.3398 153.791C77.3398 152.125 78.6946 150.776 80.3683 150.776H92.2824C93.9561 150.776 95.3108 152.125 95.3108 153.791C95.3108 155.458 93.9561 156.806 92.2824 156.806Z" fill="#D0A153"/>
</svg>
