<svg width="25" height="26" viewBox="0 0 25 26" fill="none" xmlns="http://www.w3.org/2000/svg">
<path d="M24.8565 16.2713C25.1899 17.0528 24.9423 18.0359 24.1146 18.5183L13.398 24.7647C12.843 25.0882 12.157 25.0882 11.6019 24.7647L0.885364 18.5183C0.0576108 18.0359 -0.189897 17.0528 0.143573 16.2713L11.6255 22.7317C12.1685 23.0372 12.8316 23.0372 13.3745 22.7317L24.8565 16.2713ZM24.8565 11.8966C25.1899 12.6782 24.9423 13.6612 24.1146 14.1437L13.398 20.3899C12.843 20.7134 12.157 20.7134 11.6019 20.3899L0.885364 14.1437C0.0576108 13.6612 -0.189897 12.6782 0.143573 11.8966L11.6255 18.3571C12.1685 18.6626 12.8316 18.6626 13.3745 18.3571L24.8565 11.8966ZM13.4014 0.244538L24.118 6.52134C25.2954 7.21106 25.2936 8.91386 24.1146 9.60108L13.398 15.8472C12.843 16.1707 12.157 16.1707 11.6019 15.8472L0.885364 9.60108C-0.293676 8.91386 -0.295477 7.21106 0.882101 6.52134L11.5986 0.244538C12.1553 -0.0815127 12.8446 -0.0815127 13.4014 0.244538ZM11.5986 2.31138L1.78346 8.06025L11.6019 13.7831C12.157 14.1066 12.843 14.1066 13.398 13.7831L23.2166 8.06025L13.4014 2.31138C12.8446 1.98533 12.1553 1.98533 11.5986 2.31138Z" fill="#D0A153"/>
</svg>
