<svg width="414" height="195" viewBox="0 0 414 195" fill="none" xmlns="http://www.w3.org/2000/svg">
<g clip-path="url(#clip0_646_11162)">
<path d="M-2.32952 193.012C-2.56282 190.68 -2.7961 188.347 -3.07606 185.689C-5.96895 185.455 -8.90852 185.222 -12.548 184.942C-12.548 179.952 -12.548 175.241 -12.548 170.203C-29.952 170.203 -46.656 170.203 -64.2467 170.203C-64.2467 177.853 -64.2467 185.409 -64.2467 192.965C-65.1332 193.012 -65.9731 193.012 -66.8596 193.058C-67.1395 184.802 -66.9063 176.5 -66.9529 167.544C-48.849 167.544 -31.1651 167.544 -12.7813 167.544C-12.7813 161.947 -12.7813 157.003 -12.7813 151.219C3.31627 151.219 18.7606 151.219 34.6715 151.219C34.6715 107.747 34.6715 65.1613 34.6715 22.1558C39.1508 22.1558 43.0702 22.1558 48.1094 22.1558C48.1094 25.3742 47.9228 28.6859 48.2028 31.9976C48.2961 33.1637 49.6958 34.1899 50.4424 35.3093C51.2356 34.1899 52.682 33.117 52.7287 31.9976C52.9153 22.9021 52.8221 13.8532 52.8221 4.29122C67.4731 4.29122 81.7043 4.29122 96.4487 4.29122C96.4487 14.4596 96.4487 24.488 96.4487 34.3298C99.7149 35.4026 102.888 35.7757 105.127 37.315C109.56 40.3935 111.706 44.5448 111.566 50.6085C111.1 74.0702 111.333 97.5321 111.333 120.994C111.333 123.186 111.333 125.332 111.333 127.897C126.171 127.897 140.402 127.897 154.82 127.897C155.1 125.612 155.333 123.466 155.66 120.714C171.524 120.714 187.201 120.714 203.206 120.714C203.532 117.822 203.766 115.49 204.046 112.878C214.684 112.878 225.089 112.878 236.147 112.878C236.147 119.828 236.147 126.405 236.147 133.261C239.787 133.261 242.726 133.261 246.646 133.261C246.646 123.139 246.599 113.158 246.692 103.129C246.692 100.331 245.479 96.8324 250.518 96.5525C251.265 96.5059 251.918 93.6606 252.105 93.2408C255.698 91.1885 258.59 89.5093 261.483 87.8768C261.25 87.457 261.063 87.0839 260.83 86.6641C265.823 86.6641 270.769 86.6641 276.088 86.6641C276.274 90.0691 276.414 93.0076 276.554 96.5525C279.541 96.7857 282.48 96.9723 285.886 97.2522C285.886 111.945 285.886 126.405 285.886 140.771C290.786 141.844 290.786 141.844 292.092 133.728C296.291 133.728 300.631 133.728 305.063 133.728C307.256 122.813 301.611 111.059 312.482 101.777C317.941 101.777 325.127 101.777 332.592 101.777C332.592 112.505 332.592 123 332.592 133.494C332.033 133.541 331.519 133.541 330.959 133.588C330.959 124.072 330.959 114.51 330.959 104.762C324.287 104.762 318.688 104.762 313.135 104.762C313.042 105.461 312.995 106.161 312.902 106.861C316.682 107.281 320.461 107.654 324.24 108.074C324.287 108.68 324.334 109.286 324.38 109.846C319.295 110.079 314.209 110.312 308.703 110.546C308.703 118.102 308.703 125.472 308.703 133.261C312.109 133.541 315.422 133.821 319.388 134.101C319.388 142.357 319.388 150.379 319.388 158.682C322.421 158.682 324.754 158.682 325.267 158.682C328.02 155.977 329.886 154.297 331.519 152.432C332.126 151.779 332.406 150.613 332.406 149.68C332.266 144.549 334.039 140.724 338.845 138.345C339.778 137.879 340.338 135.64 340.245 134.287C340.058 129.11 339.171 123.932 339.265 118.755C339.311 116.143 341.691 113.531 341.644 110.919C341.551 100.471 340.618 90.069 340.571 79.6208C340.525 71.4116 341.364 63.2023 341.551 54.9463C341.644 51.588 340.991 48.183 340.665 44.8246C340.618 44.2183 340.291 43.332 340.571 43.0522C345.657 38.5277 342.951 33.0704 342.904 27.753C342.811 21.3162 343.837 14.8327 344.397 8.39587C344.911 8.39587 345.377 8.34923 345.844 8.34923C346.124 15.8589 346.31 23.3685 346.637 30.8782C346.824 34.6096 344.304 38.8542 348.83 41.8394C349.297 42.1659 349.343 43.2854 349.343 44.0783C349.39 55.6926 349.577 67.3536 349.343 78.9678C349.157 89.1828 348.317 99.3978 348.083 109.659C348.037 111.618 349.483 113.624 350.276 115.63C350.556 116.329 351.163 117.122 351.07 117.775C350.37 123.419 349.576 129.017 347.663 134.567C347.663 104.202 347.663 73.837 347.663 43.1455C345.844 43.1455 344.351 43.1455 342.298 43.1455C342.298 55.0396 342.111 66.7938 342.344 78.5947C342.531 87.7835 343.557 96.9723 343.557 106.208C343.604 115.397 340.478 124.492 342.018 133.774C342.344 135.64 343.977 137.412 345.19 139.045C346.824 141.191 348.737 143.196 350.463 145.295C351.21 146.228 351.723 147.301 353.216 148.514C354.569 140.071 354.476 130.229 366.421 131.535C375.519 132.515 375.519 140.444 375.659 147.767C379.532 148.001 383.265 148.234 386.951 148.467C386.951 149.073 386.951 149.68 386.951 150.239C373.979 150.239 361.055 150.239 347.104 150.239C347.104 157.049 347.104 162.693 347.104 168.337C346.45 168.337 345.797 168.384 345.097 168.384C344.771 164.373 344.491 160.361 344.164 155.977C339.965 155.977 335.812 155.977 331.146 155.977C330.773 157.563 330.353 159.428 329.886 161.621C326.62 161.807 323.447 161.947 319.854 162.134C319.854 165.119 319.854 167.871 319.854 171.043C321.534 171.462 323.401 171.882 325.5 172.395C325.687 174.634 325.873 176.826 326.107 179.438C337.538 179.438 348.97 179.438 361.148 179.438C361.148 173.841 361.148 168.104 361.148 161.341C370.013 161.341 379.719 158.495 386.064 161.947C399.502 169.223 412.753 162.32 425.585 166.005C427.171 161.621 426.191 160.081 422.552 160.221C418.493 160.361 414.48 160.315 410.421 160.221C408.601 160.175 406.781 159.895 404.775 159.055C408.647 157.469 411.82 156.023 409.021 150.706C404.775 150.706 400.249 150.706 395.676 150.706C395.629 150.006 395.536 149.307 395.489 148.56C399.969 148.327 404.448 148.141 409.487 147.861C409.674 146.228 409.907 144.596 410.187 142.03C400.949 142.03 392.177 142.03 383.405 142.03C383.358 141.377 383.358 140.678 383.311 140.024C391.99 140.024 400.715 140.024 410.98 140.024C406.921 129.716 412.287 121.367 411.914 112.505C411.494 102.523 410.374 92.5412 410.28 82.5594C410.187 73.3239 411.12 64.0885 411.354 54.853C411.447 51.4947 410.747 48.0897 410.467 44.6847C410.374 43.7052 410.187 42.2126 410.701 41.8394C416.066 38.0146 412.987 32.8838 413.127 28.2195C413.36 20.29 414.013 12.3606 414.48 4.4778C415.273 4.4778 416.02 4.52444 416.813 4.52444C416.813 14.0398 416.673 23.5551 416.906 33.0704C416.953 35.9623 415.133 39.6938 419.472 41.4196C419.892 41.6062 420.126 42.8189 420.126 43.5652C420.172 56.5788 420.452 69.5924 420.172 82.606C419.986 92.4012 418.819 102.196 418.633 111.992C418.539 115.956 416.393 120.807 421.572 123.839C422.085 124.119 420.825 127.058 420.779 128.783C420.639 133.168 420.732 137.599 420.732 142.263C423.485 142.263 426.005 142.263 429.084 142.263C429.084 133.681 429.084 125.472 429.084 117.076C435.103 117.076 440.563 117.076 446.022 117.076C446.068 117.635 446.115 118.195 446.162 118.755C441.682 119.035 437.156 119.268 431.791 119.595C431.791 126.544 431.604 133.541 431.977 140.491C432.024 141.657 434.637 142.683 437.53 144.922C431.184 144.922 426.145 144.922 420.732 144.922C420.732 149.68 420.732 153.178 420.732 157.049C423.485 157.329 426.051 157.563 428.851 157.796C429.084 160.081 429.271 162.274 429.504 164.886C432.164 164.886 434.823 164.886 437.763 164.886C437.95 162.32 438.09 159.988 438.276 157.236C440.329 156.91 442.289 156.63 444.715 156.257C444.715 152.758 444.715 149.167 444.715 145.342C447.002 144.829 448.821 144.409 451.528 143.756C450.968 136.713 450.408 129.763 449.848 122.813C449.754 121.833 449.381 120.667 449.754 119.828C455.587 107.001 452.367 93.8005 451.528 80.6936C451.434 79.2943 451.294 77.9417 451.294 76.5424C451.294 64.5549 451.294 52.5675 451.294 40.58C451.294 39.6005 451.014 38.0146 451.481 37.6881C457.267 34.0966 453.814 28.8725 454 24.3014C454.374 16.1854 454.887 8.11601 455.4 0C456.194 0 456.94 -7.1153e-07 457.733 0.046643C457.733 8.67573 457.593 17.2582 457.78 25.8873C457.873 29.8986 455.167 34.7496 460.579 37.6415C460.953 37.8281 460.859 39.1341 460.859 39.927C460.906 52.5208 461.093 65.1146 460.859 77.7085C460.626 89.556 459.833 101.403 459.6 113.204C459.553 115.023 461.046 116.843 461.699 118.708C462.119 119.921 462.586 121.274 462.492 122.486C461.886 129.576 461.139 136.666 460.393 144.129C463.799 144.129 465.992 144.129 468.652 144.129C467.672 129.53 477.89 126.591 489.835 124.539C489.835 121.274 489.695 117.869 489.882 114.51C490.302 105.648 496.974 99.2579 505.513 99.2579C514.098 99.2579 520.724 105.601 521.237 114.464C521.423 117.636 521.284 120.854 521.284 123.886C538.081 126.078 545.313 131.349 546.386 147.394C555.672 147.394 565.003 147.394 574.849 147.394C574.849 163.206 574.849 178.179 574.849 193.198C574.289 193.245 573.775 193.245 573.216 193.292C573.216 182.19 573.216 171.136 573.216 159.382C556.511 159.382 540.927 158.729 525.529 159.941C522.45 160.175 518.577 164.093 514.238 163.3C512.465 162.973 510.925 161.107 509.152 160.828C506.492 160.454 503.18 159.988 501.08 161.201C498.514 162.74 489.928 164.792 488.948 162.367C487.409 158.495 484.702 159.382 482.09 159.335C469.958 159.288 457.827 159.428 445.695 159.242C441.682 159.195 439.909 160.408 441.402 165.165C446.535 165.165 451.901 165.165 457.687 165.165C458.013 168.244 458.293 170.716 458.573 173.142C468.931 174.867 468.932 174.867 469.025 185.969C469.025 188.487 469.025 191.006 469.025 193.478C468.278 193.525 467.532 193.571 466.738 193.618C466.459 188.301 466.179 182.937 465.899 176.92C462.633 176.686 459.506 176.5 456.007 176.267C455.727 173.795 455.494 171.462 455.214 168.57C433.377 168.57 411.494 168.57 388.631 168.57C388.631 173.515 388.631 178.599 388.631 183.683C387.884 183.73 387.137 183.776 386.391 183.823C386.391 177.386 386.391 170.949 386.391 164.233C378.505 164.233 371.88 164.233 364.274 164.233C364.274 173.841 364.274 183.543 364.274 193.245C363.574 193.292 362.874 193.338 362.221 193.385C361.801 189.933 361.428 186.482 361.008 182.797C349.343 182.797 337.912 182.797 326.247 182.797C325.967 186.528 325.733 189.933 325.5 193.338C324.847 193.292 324.24 193.292 323.587 193.245C323.587 187.275 323.587 181.258 323.587 174.354C316.168 174.354 309.683 174.354 303.197 174.354C303.15 173.608 303.104 172.862 303.057 172.115C307.303 171.836 311.596 171.602 316.262 171.276C316.262 159.895 316.262 148.654 316.262 136.526C309.869 136.526 303.477 136.34 297.131 136.713C295.871 136.806 294.705 138.998 293.538 140.211C293.865 140.864 294.238 141.564 294.565 142.217C300.164 142.217 305.763 142.217 311.362 142.217C311.362 142.916 311.409 143.569 311.409 144.269C303.244 144.269 295.032 144.269 286.539 144.269C286.539 153.085 286.539 160.874 286.539 168.804C288.686 169.27 290.739 169.737 292.792 170.203C292.792 170.716 292.792 171.182 292.792 171.696C286.959 171.696 281.174 171.696 275.061 171.696C274.828 176.313 274.641 179.858 274.455 183.776C272.355 184.103 270.442 184.383 268.249 184.756C268.016 187.648 267.782 190.493 267.549 193.385C267.036 193.385 266.569 193.385 266.056 193.385C266.056 189.747 266.056 186.109 266.056 182.097C267.642 181.817 269.555 181.444 271.655 181.071C271.842 177.293 272.028 173.748 272.262 169.83C275.994 169.643 279.354 169.457 283.18 169.223C283.18 146.275 283.18 123.559 283.18 100.191C280.427 100.004 277.534 99.771 274.175 99.5377C273.848 96.3193 273.568 93.1942 273.242 89.7425C270.022 89.7425 267.036 89.7425 264.05 89.7425C264.236 90.0224 264.47 90.2556 264.656 90.5355C261.81 92.2613 259.01 93.9871 255.278 96.226C254.251 97.2988 252.385 99.3512 249.725 102.243C249.725 122.02 249.725 143.243 249.725 164.886C251.732 165.165 253.598 165.492 255.698 165.772C256.024 167.638 256.351 169.363 256.724 171.136C258.964 171.602 261.017 171.975 263.07 172.395C263.07 172.908 263.07 173.421 263.07 173.888C260.177 174.121 257.331 174.354 254.064 174.587C253.691 172.302 253.411 170.576 253.038 168.011C244.546 168.011 235.961 168.011 227.422 168.011C227.375 167.311 227.329 166.611 227.329 165.912C233.628 165.912 239.927 165.912 246.552 165.912C246.552 155.65 246.552 146.601 246.552 136.899C242.493 136.713 238.34 136.526 233.721 136.293C233.721 129.436 233.721 122.86 233.721 115.816C224.622 115.816 216.084 115.816 207.125 115.816C207.125 131.489 207.125 147.161 207.125 163.066C210.065 163.346 212.584 163.58 215.804 163.859C215.804 170.343 215.804 176.733 215.804 183.636C224.902 183.636 233.301 183.636 242.166 183.636C242.166 187.275 242.166 190.306 242.166 193.338C241.653 193.432 241.187 193.525 240.673 193.618C240.3 191.566 239.927 189.513 239.413 186.668C231.061 186.668 222.429 186.668 213.191 186.668C213.191 179.578 213.191 173.235 213.191 166.518C208.571 166.518 204.605 166.518 200.219 166.518C199.986 169.69 199.799 172.815 199.52 176.5C194.294 176.5 189.301 176.5 183.982 176.5C183.982 179.019 183.982 180.978 183.982 183.636C187.901 183.636 191.821 183.636 196.347 183.636C196.16 187.415 196.02 190.353 195.88 193.338C195.32 193.338 194.807 193.385 194.247 193.385C193.827 191.379 193.454 189.42 192.801 186.248C181.976 186.248 170.917 186.248 159.859 186.248C159.859 185.549 159.859 184.849 159.859 184.149C166.531 184.149 173.204 184.149 180.249 184.149C180.622 180.371 180.902 177.433 181.229 173.888C186.408 173.888 191.354 173.888 196.767 173.888C197 170.296 197.187 167.311 197.373 163.999C199.333 163.58 201.246 163.206 203.532 162.74C203.532 149.866 203.532 137.039 203.532 123.839C188.741 123.839 174.09 123.839 158.366 123.839C158.366 131.769 158.366 139.838 158.366 147.907C157.573 147.954 156.779 148.001 155.986 148.047C155.706 142.59 155.426 137.133 155.1 131.442C140.682 131.442 126.591 131.442 111.986 131.442C111.706 135.64 111.426 139.791 111.146 143.943C110.54 143.943 109.933 143.943 109.327 143.943C109.187 141.704 108.907 139.511 108.907 137.273C108.86 108.167 108.86 79.0145 108.86 49.9088C108.86 42.2126 105.174 38.4344 97.6152 38.4344C82.6375 38.4344 67.6597 38.4344 52.7287 38.4344C50.5357 38.4344 48.3894 38.4344 45.5898 38.4344C45.5898 33.5368 45.5898 29.3855 45.5898 24.9078C42.7903 24.9078 40.6439 24.9078 38.031 24.9078C38.031 66.6539 38.031 108.4 38.031 150.706C39.5241 150.846 41.2038 150.986 43.9567 151.219C43.9567 140.864 43.9567 131.022 43.9567 121.227C44.61 121.227 45.2632 121.227 45.9164 121.227C45.9164 130.882 45.9164 140.538 45.9164 150.846C51.5156 150.846 56.2749 150.846 61.6874 150.846C61.6874 156.49 61.6874 161.434 61.6874 166.845C70.1327 166.845 77.8782 166.845 86.3702 166.845C86.3702 162.087 86.3702 157.189 86.3702 151.499C90.9428 151.266 94.8623 151.126 99.7615 150.892C99.7615 146.601 99.7615 142.59 99.7615 138.532C100.415 138.485 101.068 138.439 101.721 138.392C101.954 139.931 102.328 141.47 102.374 143.056C102.654 153.178 105.221 155.697 115.439 155.697C118.892 155.697 122.298 155.743 125.751 155.65C126.871 155.604 128.364 155.51 129.11 154.811C134.523 149.82 137.602 150.053 143.621 154.297C145.908 155.883 149.78 155.23 153.42 155.697C153.42 168.104 153.42 180.698 153.42 193.292C152.907 193.292 152.393 193.338 151.927 193.338C151.927 181.864 151.927 170.39 151.927 158.262C148.987 158.122 146.794 158.309 144.788 157.842C143.202 157.469 141.662 156.396 140.309 155.37C137.462 153.318 134.943 152.572 132.33 155.883C131.35 157.143 129.484 158.355 127.944 158.449C122.298 158.775 116.606 158.729 110.96 158.542C108.114 158.449 105.454 159.335 103.121 155.23C101.815 152.991 94.7222 154.064 89.8697 153.598C89.8697 158.542 89.8697 162.507 89.8697 167.218C95.1888 167.218 100.555 167.218 106.294 167.218C106.294 171.043 106.294 174.168 106.294 177.619C86.2769 177.619 66.3066 177.619 46.3364 177.619C46.2897 177.106 46.1964 176.593 46.1497 176.08C48.1094 175.894 50.0691 175.52 52.0288 175.52C67.7997 175.474 83.5706 175.474 99.3416 175.52C102.794 175.52 105.034 174.914 103.308 170.296C86.3236 170.296 69.1529 170.296 51.7489 170.296C51.2356 168.057 50.8157 166.192 50.3491 164.186C44.05 164.186 37.8443 164.186 31.312 164.186C31.312 167.824 31.312 171.136 31.312 174.821C33.3183 175.241 35.2314 175.614 37.3311 176.033C37.3311 181.817 37.3311 187.554 37.3311 193.338C36.7711 193.385 36.2579 193.478 35.698 193.525C35.698 188.674 35.698 183.823 35.698 178.646C29.9589 178.646 25.4329 178.646 20.487 178.646C20.2537 183.683 20.0204 188.534 19.7871 193.385C19.2272 193.385 18.7139 193.385 18.154 193.338C18.154 187.648 18.154 181.911 18.154 175.894C21.1869 175.66 24.3597 175.38 27.7659 175.147C27.7659 168.197 27.7659 161.574 27.7659 154.484C15.5877 154.484 3.36298 154.484 -9.23509 154.484C-9.23509 163.72 -9.23509 172.908 -9.23509 182.517C-6.20222 182.75 -3.496 182.983 -0.743088 183.17C-0.743088 186.622 -0.743088 189.98 -0.743088 193.292C-1.39632 193.012 -1.86293 193.012 -2.32952 193.012ZM447.935 156.35C459.973 156.35 471.638 156.257 483.303 156.396C486.335 156.443 490.162 154.717 491.888 159.522C492.075 160.128 496.414 160.315 497.767 159.288C502.993 155.324 507.612 155.37 512.558 159.055C514.238 160.315 517.691 159.615 520.164 159.102C522.31 158.682 524.27 156.536 526.323 156.443C534.815 156.117 543.307 156.303 551.799 156.303C558.611 156.303 565.423 156.303 572.656 156.303C572.469 153.831 572.329 152.105 572.142 149.726C562.344 149.726 553.012 149.726 543.727 149.726C543.353 146.228 543.074 143.429 542.887 141.704C539.574 142.776 537.101 144.176 534.581 144.269C526.323 144.549 518.017 144.362 509.712 144.362C505.186 144.362 500.66 144.362 496.181 144.362C495.854 147.487 495.574 149.633 495.387 151.406C489.742 151.406 484.516 151.406 479.337 151.406C479.337 150.799 479.29 150.193 479.29 149.54C483.769 149.54 488.248 149.54 493.101 149.54C493.101 143.383 493.381 138.112 492.961 132.888C492.821 131.022 491.235 128.55 489.602 127.757C484.656 125.285 474.111 131.489 472.524 137.972C477.284 137.972 481.903 137.972 486.522 137.972C486.522 138.439 486.522 138.858 486.522 139.325C481.763 139.325 477.004 139.325 472.104 139.325C471.824 142.03 471.638 144.129 471.358 146.834C463.379 146.834 455.82 146.834 447.935 146.834C447.935 150.146 447.935 152.712 447.935 156.35ZM83.2907 21.5494C83.2907 22.2957 83.3373 22.9954 83.3373 23.7417C74.2854 23.7417 65.2801 23.7417 56.2748 23.7417C56.2282 28.6859 56.2282 28.6859 68.033 28.6859C73.1189 28.6859 78.2048 28.6859 83.2907 28.6859C83.244 29.5721 83.1974 30.4584 83.1974 31.3446C81.2843 31.3446 79.3713 31.3446 77.4582 31.3446C71.2059 31.3446 64.9535 31.2513 58.6545 31.4379C57.628 31.4845 56.6481 32.6973 55.6683 33.3503C56.5081 34.0033 57.3013 35.216 58.1412 35.216C69.946 35.3559 81.7509 35.3093 93.7424 35.3093C93.7424 27.753 93.7424 21.1763 93.7424 14.5528C91.2228 14.0864 88.9832 13.6666 86.7435 13.2468C88.3299 11.5676 90.0563 11.521 91.5961 11.0079C92.4826 10.7281 93.7424 9.7019 93.7424 8.9556C93.7891 8.2093 92.4826 6.76334 91.7827 6.76334C80.4911 6.62341 69.1528 6.62341 57.8612 6.76334C57.1147 6.76334 55.8082 8.16265 55.8082 8.90895C55.8082 9.65525 56.9747 10.7747 57.8612 11.0546C59.401 11.5676 61.1274 11.5676 62.7605 11.8009C62.7605 12.2673 62.7605 12.7337 62.7605 13.2468C60.5208 13.6666 58.3279 14.0864 55.9016 14.5528C55.9016 16.6985 55.9016 18.7974 55.9016 21.5494C65.2801 21.5494 74.2854 21.5494 83.2907 21.5494ZM411.494 156.956C414.527 156.816 416.206 156.723 418.446 156.63C418.446 150.193 418.913 144.176 418.306 138.205C417.746 132.561 420.359 127.104 417.326 121.134C415.46 117.449 416.813 112.038 416.953 107.374C417.233 98.6048 417.839 89.8358 417.979 81.0668C418.166 68.2864 418.026 55.506 418.026 42.5857C416.066 42.5857 414.2 42.5857 412.613 42.5857C412.893 45.5709 413.407 48.183 413.313 50.7484C413.033 61.3832 412.24 72.0179 412.287 82.6527C412.333 94.6868 413.22 106.674 413.453 118.708C413.5 120.854 412.194 123 411.4 125.518C411.494 135.36 411.494 145.715 411.494 156.956ZM459.833 144.129C459.133 126.171 458.246 108.96 457.92 91.7949C457.593 74.0702 457.827 56.3923 457.827 38.5744C457.033 38.5744 455.214 38.5744 453.44 38.5744C453.767 41.2331 454.234 43.4253 454.28 45.5709C454.467 59.7506 454.607 73.9303 454.654 88.0634C454.7 96.9723 454.794 105.835 454.56 114.744C454.514 116.936 453.161 119.035 452.414 121.227C452.414 128.457 452.414 136.013 452.414 143.383C453.954 143.803 454.514 144.036 455.074 144.083C456.287 144.176 457.5 144.129 459.833 144.129ZM540.927 136.34C536.214 128.13 524.596 124.772 513.025 128.177C504.859 130.602 502.106 134.054 502.62 141.704C510.179 141.704 517.831 141.75 525.436 141.704C531.035 141.657 537.288 143.429 540.927 136.34ZM497.3 141.75C499.54 137.739 500.987 132.748 504.346 129.856C508.079 126.638 513.491 125.378 518.157 123.233C518.157 120.901 518.157 118.242 518.157 115.676C509.432 115.676 501.267 115.676 492.635 115.676C492.635 118.242 492.261 120.481 492.681 122.58C493.941 128.643 495.527 134.66 497.3 141.75ZM493.148 113.717C497.394 113.717 501.593 113.717 505.746 113.717C509.852 113.717 514.005 113.717 518.251 113.717C516.711 105.508 512.325 101.59 505.513 101.683C498.747 101.73 494.361 105.881 493.148 113.717ZM58.9344 154.064C49.3226 154.064 40.1773 154.064 30.6121 154.064C30.7521 156.536 30.8454 158.589 30.9854 161.061C38.5909 161.061 45.5898 161.061 52.6821 161.061C53.6152 164.419 52.8221 169.69 58.8878 166.098C58.9344 162.367 58.9344 158.589 58.9344 154.064ZM357.649 138.812C360.915 139.092 363.481 139.325 366.047 139.558C366.047 139.838 366.047 140.164 366.001 140.444C363.294 140.631 360.542 140.864 357.649 141.097C357.649 143.383 357.649 145.295 357.649 147.487C362.688 147.487 367.4 147.487 372.066 147.487C373.466 139.511 372.066 135.5 367.307 134.054C363.014 132.655 360.122 134.567 357.649 138.812ZM344.071 152.292C344.444 151.079 344.677 149.773 345.19 148.56C345.844 147.068 347.664 144.736 347.384 144.456C345.75 142.916 343.651 140.957 341.691 141.004C339.778 141.051 337.118 142.823 336.185 144.596C335.112 146.648 335.579 149.447 335.345 152.292C338.658 152.292 341.178 152.292 344.071 152.292Z" fill="#A9A9A9"/>
<path d="M609.89 178.972C610.123 180.371 610.357 182.097 610.636 184.056C623.981 184.056 637.046 184.056 650.53 184.056C650.857 182.424 651.23 180.744 651.697 178.366C657.716 178.366 663.875 178.366 670.454 178.366C670.454 174.214 670.454 170.716 670.454 166.611C664.528 166.611 658.742 166.611 651.977 166.611C651.977 162.32 651.977 158.589 651.977 154.857C651.977 150.892 650.064 148.933 646.004 149.027C642.225 149.12 638.446 149.027 634.433 149.027C634.153 153.784 633.966 157.842 633.733 161.947C633.173 161.994 632.566 162.04 632.007 162.087C631.633 159.008 631.213 155.977 630.7 151.825C615.582 151.825 600.511 151.825 585.394 151.825C585.394 151.172 585.394 150.566 585.347 149.913C588.847 149.633 592.299 149.4 596.172 149.12C596.172 143.616 596.172 138.252 596.172 131.908C583.947 131.908 571.629 131.908 560.477 131.908C561.924 127.151 563.137 123.093 564.49 118.662C566.077 118.662 568.223 118.662 570.696 118.662C570.929 122.16 571.116 125.332 571.349 128.877C576.062 128.877 580.588 128.877 585.534 128.877C585.534 123.606 585.534 118.475 585.534 112.924C573.449 112.924 561.411 112.924 548.346 112.924C548.346 118.708 548.346 124.539 548.346 130.323C547.739 130.323 547.18 130.323 546.573 130.276C546.573 123.699 546.573 117.169 546.573 110.219C560.291 110.219 574.102 110.219 588.566 110.219C588.566 116.423 588.566 122.44 588.566 128.83C592.253 129.11 595.379 129.296 599.251 129.576C599.251 136.06 599.251 142.403 599.251 149.307C609.423 149.307 619.315 151.032 628.18 148.747C634.619 147.068 640.732 146.601 647.077 146.181C648.431 146.088 649.97 144.875 650.95 143.756C658.742 134.754 666.535 125.705 674.093 116.469C675.493 114.79 676.24 112.178 676.38 109.939C676.706 104.715 676.473 99.4911 676.473 93.8005C680.392 93.5673 683.752 93.3808 687.438 93.1475C687.625 90.7687 687.811 88.6231 688.045 86.151C690.144 85.9178 692.104 85.7312 694.39 85.498C694.67 82.9326 694.95 80.4138 695.277 77.6152C698.123 77.6152 700.689 77.6152 704.095 77.6152C704.095 83.3057 704.095 89.0429 704.095 95.0133C706.708 95.1532 708.481 95.1999 710.348 95.2932C714.034 81.9997 706.615 67.2603 716.04 54.3866C724.206 63.9952 719.96 74.5367 720.799 84.4252C719.96 84.5184 719.12 84.5651 718.28 84.6584C718.28 76.6356 718.28 68.6129 718.28 60.5902C717.347 60.5436 716.414 60.4503 715.48 60.4036C714.967 62.5026 714.081 64.5549 714.034 66.7005C713.847 74.3968 713.847 82.0463 714.081 89.7426C714.127 91.6083 715.294 93.4274 715.9 95.2932C716.88 93.614 717.907 91.9348 719.54 89.1828C721.313 89.1828 724.252 89.2761 727.239 89.1362C728.778 89.0895 730.598 89.0429 731.858 88.2966C743.103 81.9064 747.582 83.0258 753.508 93.8938C753.834 94.4536 754.628 94.7801 755.188 95.1999C756.214 93.7539 757.194 92.3079 758.407 90.5821C762.56 90.5821 767.132 90.5821 771.658 90.5821C771.705 91.1419 771.798 91.7016 771.845 92.308C768.206 92.6345 764.566 92.961 760.6 93.3341C760.134 100.097 755.281 97.7653 751.455 97.8119C749.495 88.4365 747.349 86.3842 739.183 87.8302C736.944 88.2033 734.284 91.0486 733.491 93.3341C732.511 96.226 733.024 99.7243 733.398 102.943C733.538 104.109 734.984 105.088 735.824 106.161C736.664 105.088 737.83 104.155 738.297 102.943C738.81 101.543 738.717 99.9109 738.903 98.3716C739.417 98.325 739.93 98.2783 740.443 98.2317C740.77 100.564 741.143 102.896 741.516 105.741C749.962 105.741 758.547 105.741 767.506 105.741C767.739 103.176 767.972 100.657 768.252 97.4854C770.632 97.4854 772.778 97.5321 774.924 97.4388C776.091 97.3921 778.237 97.2522 778.331 96.8324C779.404 90.7687 784.116 93.474 787.429 92.9143C790.416 92.4012 793.122 93.4741 796.015 89.7426C797.974 87.2238 804.927 88.6231 809.873 88.2966C810.246 91.0486 810.526 92.961 810.852 95.2932C816.731 95.2932 822.377 95.6197 827.977 95.1066C829.656 94.9667 831.103 92.5412 833.342 90.5355C836.235 91.1885 842.208 86.9906 843.514 95.2932C847.247 95.2932 851.073 94.5002 854.432 95.4331C871.043 99.9575 888.074 97.0656 903.565 98.2784C905.291 101.497 906.551 103.829 907.764 106.114C908.977 102.943 910.237 99.7709 911.87 95.5264C917.236 95.5264 923.768 95.5264 930.394 95.5264C930.814 93.0542 931.094 91.2818 931.514 88.9962C936.553 88.9962 941.686 88.9962 947.285 88.9962C947.611 90.4888 947.985 92.168 948.405 94.0804C952.744 94.0804 956.897 94.0804 961.329 94.0804C961.702 92.2613 962.076 90.5821 962.449 88.7164C967.535 88.7164 972.341 88.7164 977.52 88.7164C977.893 90.5355 978.22 92.2147 978.64 94.2203C983.586 94.2203 988.392 94.2203 993.991 94.2203C993.991 104.155 993.991 113.717 993.991 124.026C999.497 124.026 1004.21 124.026 1009.39 124.026C1009.67 128.224 1009.9 131.769 1010.14 135.36C1012.65 135.64 1014.8 135.827 1017.23 136.106C1018.07 141.75 1016.29 149.353 1026.23 147.674C1026.51 150.566 1026.75 152.898 1026.98 155.51C1030.62 155.743 1033.98 155.977 1037.38 156.257C1037.38 168.617 1037.38 180.744 1037.38 192.872C1036.82 192.918 1036.31 192.965 1035.75 193.012C1035.47 189.28 1035.14 185.502 1034.77 180.978C1023.43 180.978 1012.05 180.978 1000.15 180.978C1000.15 173.795 1000.15 167.404 1000.15 160.594C992.685 160.594 985.732 160.594 977.754 160.594C977.754 171.509 977.754 182.377 977.754 193.198C977.194 193.198 976.634 193.152 976.074 193.152C976.074 181.491 976.074 169.83 976.074 157.749C978.5 157.563 981.02 157.376 983.773 157.189C985.312 154.204 985.032 152.338 980.973 152.385C974.721 152.432 968.468 152.385 961.749 152.385C961.749 157.889 961.749 163.02 961.749 168.431C963.849 168.804 965.995 169.177 968.188 169.55C968.188 177.526 968.188 185.269 968.188 193.012C967.628 193.058 967.068 193.105 966.509 193.152C966.509 186.248 966.509 179.345 966.509 172.115C956.337 172.115 947.331 172.115 937.86 172.115C937.626 175.987 937.393 179.718 937.16 184.243C926.615 184.243 916.303 184.243 905.665 184.243C905.431 187.601 905.245 190.4 904.918 194.644C901.605 188.161 902.678 185.502 905.245 181.071C906.971 178.179 906.318 173.888 906.738 169.83C898.619 169.83 891.387 169.83 883.455 169.83C883.455 174.354 883.455 178.879 883.455 183.823C878.835 184.056 874.869 184.289 870.623 184.476C870.343 187.508 870.063 190.306 869.83 193.105C869.27 193.105 868.71 193.058 868.15 193.058C868.15 182.377 868.15 171.696 868.15 160.548C856.485 160.548 845.66 160.548 833.809 160.548C833.809 171.276 833.809 182.144 833.809 193.012C833.062 193.012 832.362 193.058 831.616 193.058C831.383 188.721 831.149 184.336 830.869 179.252C824.804 179.252 818.878 179.252 812.206 179.252C812.206 167.311 812.206 156.07 812.206 144.596C801.007 144.596 790.555 144.596 779.264 144.596C779.264 155.604 779.264 166.611 779.264 177.759C767.739 177.759 757.054 177.759 746.322 177.759C746.276 177.246 746.276 176.733 746.229 176.173C755.981 176.173 765.733 176.173 775.951 176.173C775.951 172.022 775.951 168.897 775.951 165.072C770.119 165.072 761.673 162.6 758.64 165.585C752.108 172.069 745.622 167.125 739.23 169.457C738.717 166.845 738.344 164.932 737.924 162.647C733.678 162.647 729.338 162.647 724.626 162.647C724.626 166.378 724.626 169.923 724.626 173.888C728.498 174.074 732.231 174.261 736.291 174.448C736.291 180.791 736.291 186.855 736.291 192.918C735.777 192.965 735.264 193.012 734.751 193.058C734.751 187.928 734.751 182.797 734.751 177.06C729.991 177.06 726.259 177.06 721.779 177.06C721.779 168.71 721.779 160.921 721.779 152.712C715.714 152.712 710.394 152.712 704.469 152.712C704.469 158.495 704.469 164.279 704.469 168.944C701.296 170.763 699.056 172.115 696.77 173.421C698.916 174.401 701.016 175.38 703.675 176.64C703.675 181.537 703.675 187.275 703.675 193.058C703.116 193.105 702.556 193.105 701.949 193.152C701.716 188.394 701.436 183.59 701.109 177.106C695.837 178.412 691.217 179.905 686.411 180.651C682.632 181.211 678.759 180.931 674.887 180.931C668.214 180.978 661.589 180.931 654.263 180.931C654.03 185.222 653.843 189.234 653.656 193.198C653.143 193.245 652.583 193.245 652.07 193.292C651.65 191.519 651.23 189.793 650.717 187.461C636.812 187.461 622.768 187.461 608.443 187.461C607.93 185.129 607.51 183.263 606.904 180.651C599.811 180.651 592.719 180.651 585.627 180.651C585.627 180.091 585.627 179.532 585.627 179.019C593.559 178.972 601.538 178.972 609.89 178.972ZM849.393 146.788C859.332 146.788 868.524 146.788 877.715 146.788C878.182 149.027 878.555 150.892 879.022 152.898C884.434 152.898 889.474 152.991 894.56 152.852C898.432 152.758 902.072 152.618 901.652 157.982C907.578 157.982 913.13 157.982 919.336 157.982C919.336 149.586 919.336 141.61 919.336 133.494C923.535 133.494 927.035 133.494 931.187 133.494C931.187 142.123 931.187 150.286 931.187 158.915C936.273 158.915 940.659 158.915 945.325 158.915C945.605 162.32 945.792 165.259 946.072 168.477C950.271 168.477 954.144 168.477 958.67 168.477C958.67 162.134 958.67 156.163 958.67 149.913C968.468 149.913 977.66 149.913 987.039 149.913C987.319 152.478 987.552 154.624 987.879 157.469C992.731 157.469 997.49 157.469 1003 157.469C1003 164.699 1003 171.229 1003 177.573C1014.19 177.573 1024.6 177.573 1034.82 177.573C1034.82 171.089 1034.82 165.119 1034.82 158.635C1032.16 158.635 1029.97 158.402 1027.82 158.682C1021.24 159.568 1016.25 157.329 1012.05 152.105C1009.3 148.654 1005.75 145.855 1002.11 142.357C1001.55 145.528 1001.18 147.581 1000.8 149.586C1000.57 149.54 1000.29 149.54 1000.06 149.493C999.87 146.555 999.683 143.663 999.45 140.164C992.078 140.164 985.032 139.978 977.987 140.211C969.308 140.538 967.395 131.162 959.929 128.037C959.929 132.188 959.929 135.78 959.929 139.371C958.483 134.381 959.79 128.084 957.177 124.912C954.657 121.833 948.171 122.067 942.945 120.714C942.572 125.332 942.386 128.13 942.152 130.929C941.779 130.929 941.406 130.929 941.032 130.929C940.706 127.944 940.379 124.959 940.053 122.067C923.115 121.04 922.882 121.087 920.642 124.539C914.39 119.081 907.391 122.906 900.205 121.927C900.205 128.364 900.205 133.868 900.205 139.418C899.739 139.418 899.272 139.418 898.759 139.418C898.759 133.681 898.759 127.99 898.759 122.207C894 122.207 890.034 122.207 885.928 122.207C885.694 124.959 885.508 127.337 885.274 129.67C885.881 120.387 879.209 116.423 872.396 110.732C872.396 120.807 872.396 129.576 872.396 138.345C871.883 138.345 871.323 138.345 870.81 138.345C870.81 128.597 870.81 118.848 870.81 109.24C864.138 109.24 858.352 109.24 852.239 109.24C852.053 113.671 851.866 117.775 851.679 121.88C851.166 121.833 850.7 121.833 850.186 121.787C850.186 117.635 850.186 113.484 850.186 109.146C842.161 109.146 834.742 109.146 826.437 109.146C826.437 118.242 826.437 127.104 826.437 136.013C825.877 136.013 825.27 136.013 824.71 136.013C824.71 127.058 824.71 118.102 824.71 109.24C817.478 109.24 811.086 109.24 803.947 109.24C803.947 117.169 803.947 124.819 803.947 132.468C803.387 132.468 802.874 132.468 802.314 132.468C802.314 124.819 802.314 117.169 802.314 109.38C794.708 109.38 787.989 109.38 781.27 109.38C781.037 113.018 780.804 116.236 780.617 119.408C780.197 119.408 779.777 119.361 779.357 119.361C779.171 116.096 778.937 112.831 778.751 109.286C772.918 109.286 767.366 109.286 760.973 109.286C760.973 120.108 760.973 130.602 760.973 141.097C760.46 141.097 759.947 141.097 759.434 141.097C759.434 130.602 759.434 120.061 759.434 109.333C754.254 109.333 749.728 109.333 744.596 109.333C744.596 114.79 744.596 119.874 744.596 124.959C744.083 124.959 743.569 124.959 743.056 124.959C743.056 119.734 743.056 114.51 743.056 109.333C737.13 109.333 732.184 109.333 726.585 109.333C726.585 118.522 726.585 127.291 726.585 136.106C726.072 136.106 725.606 136.106 725.092 136.106C725.092 127.151 725.092 118.195 725.092 109.38C720.706 109.38 717.16 109.38 713.101 109.38C713.101 113.158 713.101 116.469 713.101 119.781C712.774 119.781 712.401 119.781 712.074 119.828C711.841 116.329 711.608 112.831 711.374 109.286C706.335 109.286 701.762 109.286 696.35 109.286C696.35 118.335 696.35 127.104 696.35 135.827C695.837 135.827 695.37 135.78 694.857 135.78C694.857 127.85 694.857 119.921 694.857 112.085C690.937 113.904 687.438 115.49 682.865 117.635C682.865 120.854 682.865 125.238 682.865 129.67C682.492 129.67 682.119 129.67 681.699 129.67C681.512 125.192 681.279 120.714 681.046 115.676C668.074 120.667 671.014 132.002 668.774 141.097C668.588 137.039 668.354 133.028 668.121 127.85C662.009 135.034 656.829 141.144 653.05 145.575C653.983 152.712 654.683 158.076 655.476 163.953C661.449 163.953 667.234 163.953 673.58 163.953C673.58 168.897 673.58 173.281 673.58 179.019C680.766 177.526 687.065 176.22 693.504 174.914C693.69 172.768 693.877 170.809 694.064 168.57C696.49 168.337 698.636 168.104 700.876 167.871C700.876 165.679 700.876 163.813 700.876 161.061C693.597 161.061 686.738 161.061 679.926 161.061C679.926 160.408 679.926 159.755 679.879 159.148C686.878 159.148 693.877 159.148 700.969 159.148C701.249 155.51 701.389 152.945 701.622 150.006C709.088 150.006 716.414 150.006 723.786 150.006C724.019 153.458 724.206 156.396 724.392 159.662C730.132 159.662 735.264 159.662 740.677 159.662C740.91 161.947 741.05 163.859 741.283 165.958C745.436 165.958 751.455 167.404 752.575 165.679C756.261 160.035 761.067 162.787 765.359 162.274C768.859 161.854 772.405 162.18 776.558 162.18C776.558 154.811 776.558 148.42 776.558 142.17C789.576 142.17 801.987 142.17 815.005 142.17C815.005 153.691 815.005 164.699 815.005 176.08C820.604 176.08 825.55 176.08 831.149 176.08C831.149 169.737 831.149 163.766 831.149 157.096C837.495 157.096 843.234 157.096 849.3 157.096C849.393 153.365 849.393 150.379 849.393 146.788ZM991.285 97.3455C976.027 97.3455 961.003 97.3455 945.605 97.3455C945.232 95.1066 944.999 93.4274 944.719 91.7016C940.986 91.7016 937.626 91.7016 934.313 91.7016C933.894 93.9405 933.567 95.8529 933.147 98.2317C926.475 98.2317 920.082 98.2317 913.503 98.2317C913.503 105.368 913.503 111.898 913.503 119.035C922.928 119.035 932.027 119.781 940.986 118.848C952.044 117.729 960.816 120.574 966.975 129.856C973.181 139.185 982.046 137.926 991.285 136.993C991.285 123.979 991.285 111.292 991.285 97.3455ZM870.437 157.376C870.437 165.958 870.437 173.515 870.437 181.164C873.983 181.164 876.922 181.164 880.562 181.164C880.562 176.313 880.562 171.789 880.562 167.311C890.454 167.311 899.599 167.311 909.211 167.311C909.211 172.209 909.211 176.593 909.211 181.118C912.617 181.118 915.556 181.118 918.729 181.118C918.729 174.401 918.729 168.011 918.729 161.201C912.01 161.201 905.571 161.201 898.945 161.201C898.432 159.195 898.059 157.563 897.546 155.51C890.313 155.51 883.315 155.51 876.176 155.51C875.662 153.178 875.289 151.266 874.869 149.447C867.217 149.447 859.845 149.447 852.333 149.447C852.333 152.152 852.333 154.484 852.333 157.376C858.305 157.376 863.858 157.376 870.437 157.376ZM679.459 96.7391C679.459 102.383 679.459 107.56 679.459 113.997C683.425 112.971 688.045 113.204 690.191 110.965C694.25 106.814 698.543 106.115 703.769 106.254C712.541 106.488 721.359 106.301 730.038 106.301C730.038 100.937 730.038 96.5992 730.038 92.2147C726.819 92.2147 724.066 92.2147 721.219 92.2147C720.706 94.3136 720.286 96.1327 719.866 97.7186C713.614 97.7186 707.828 97.7186 701.436 97.7186C701.436 93.7539 701.622 90.1623 701.343 86.5708C701.156 84.4252 700.269 82.3728 699.709 80.2739C698.916 82.4195 698.17 84.5185 697.376 86.6641C697.19 87.2238 696.91 87.7369 696.723 88.2499C694.67 88.5298 692.71 88.763 690.751 89.0429C690.471 91.515 690.238 93.6606 690.004 96.0395C686.551 96.2727 683.332 96.4593 679.459 96.7391ZM843.001 106.254C851.12 106.254 858.585 106.534 865.957 106.161C870.857 105.881 874.776 107.047 877.389 111.152C883.548 120.761 892.693 119.641 902.025 118.662C902.025 112.645 902.025 106.954 902.025 100.844C889.474 100.844 877.389 100.844 865.351 100.844C863.531 100.844 861.711 100.844 859.938 100.517C854.386 99.4911 848.88 98.2783 842.954 97.0656C843.001 101.077 843.001 103.223 843.001 106.254ZM922.275 135.966C922.275 151.359 922.275 166.192 922.275 181.118C926.428 181.118 930.161 181.118 934.173 181.118C934.36 177.013 934.547 173.281 934.733 169.317C937.533 169.037 939.866 168.804 942.526 168.57C942.526 166.285 942.526 164.186 942.526 161.341C937.673 161.341 933.147 161.341 928.014 161.341C928.014 152.432 928.014 144.269 928.014 135.966C925.821 135.966 924.282 135.966 922.275 135.966ZM807.353 91.0019C803.853 91.515 798.768 91.1885 798.254 92.5878C796.854 96.2727 794.568 95.3398 792.142 95.7129C788.129 96.366 782.67 93.0543 780.71 99.771C780.57 100.237 778.471 100.237 777.304 100.284C775.158 100.377 773.012 100.284 770.585 100.284C770.679 102.663 770.772 104.155 770.865 105.928C783.137 105.928 795.128 105.928 807.4 105.928C807.353 101.17 807.353 96.8324 807.353 91.0019ZM994.738 127.337C994.738 130.976 994.738 134.054 994.738 137.133C995.204 136.759 995.624 136.386 996.091 136.013C999.45 138.112 1003.04 139.931 1006.03 142.45C1010 145.808 1013.4 149.913 1017.27 153.411C1018.77 154.764 1020.96 155.417 1022.83 156.396C1023.71 153.644 1023.57 151.032 1023.01 150.939C1015.87 149.866 1014.61 144.596 1014.19 138.812C1011.63 138.485 1009.53 138.252 1007.24 137.972C1007.06 134.287 1006.87 130.929 1006.68 127.337C1002.58 127.337 998.844 127.337 994.738 127.337ZM830.823 98.3716C828.816 98.2784 827.043 98.0918 825.317 98.0918C820.558 98.0451 815.752 98.0918 810.712 98.0918C810.712 100.984 810.712 103.269 810.712 105.975C812.672 106.068 814.445 106.254 816.172 106.301C820.931 106.348 825.737 106.301 830.683 106.301C830.869 104.715 831.056 103.782 831.103 102.803C831.056 101.45 830.916 100.051 830.823 98.3716ZM839.595 93.2408C833.389 93.2875 833.202 93.9405 833.716 102.663C833.995 107.514 836.655 106.161 839.595 105.928C839.595 101.59 839.595 97.672 839.595 93.2408ZM911.077 118.289C910.004 115.023 908.977 112.038 907.998 109.053C907.064 110.592 905.478 112.085 905.338 113.717C904.965 118.568 905.198 118.615 911.077 118.289ZM975.047 93.8472C975.094 93.3341 975.141 92.821 975.187 92.308C971.688 92.308 968.188 92.308 964.689 92.308C964.689 92.821 964.689 93.3341 964.689 93.8472C968.142 93.8472 971.594 93.8472 975.047 93.8472Z" fill="#A9A9A9"/>
<path d="M62.3405 45.8508C62.3405 79.9474 62.3405 112.551 62.3405 145.295C59.6809 142.17 59.2143 52.8474 62.3405 45.8508Z" fill="#A9A9A9"/>
<path d="M83.524 165.259C83.9878 165.259 84.3639 134.373 84.3639 96.2727C84.3639 58.1727 83.9878 27.2866 83.524 27.2866C83.0601 27.2866 82.6841 58.1727 82.6841 96.2727C82.6841 134.373 83.0601 165.259 83.524 165.259Z" fill="#A9A9A9"/>
<path d="M389.05 115.443C388.724 117.169 388.444 118.895 388.117 120.761C386.111 120.947 384.338 121.087 382.518 121.274C380.885 130.043 374.306 124.399 370.013 126.171C369.407 124.026 368.94 122.347 368.474 120.574C364.881 120.387 361.521 120.248 357.462 120.061C363.854 115.35 371.18 117.029 372.766 123.186C375.379 122.953 378.645 125.145 379.532 120.014C379.719 118.942 383.031 118.382 385.411 117.402C385.644 116.283 386.018 114.604 386.438 112.738C390.31 112.738 393.903 112.738 397.356 112.738C401.882 118.708 393.203 128.364 403.328 133.588C401.089 133.821 398.802 134.054 395.769 134.381C395.769 127.711 395.769 121.74 395.769 115.49C393.203 115.443 391.29 115.443 389.05 115.443Z" fill="#A9A9A9"/>
<path d="M45.5431 50.3752C45.5431 69.9656 45.5431 89.556 45.5431 109.1C45.0765 109.1 44.6567 109.1 44.1901 109.1C44.1901 89.556 44.1901 69.9656 44.1901 50.4219C44.6567 50.4219 45.1232 50.3752 45.5431 50.3752Z" fill="#A9A9A9"/>
<path d="M100.088 129.343C100.088 111.618 100.088 93.8472 100.088 76.1226C100.508 76.1226 100.881 76.1226 101.301 76.1226C101.301 93.8472 101.301 111.618 101.301 129.343C100.881 129.296 100.508 129.296 100.088 129.343Z" fill="#A9A9A9"/>
<path d="M135.363 186.202C135.363 182.797 135.176 179.345 135.456 175.94C135.549 174.821 136.996 173.795 137.789 172.722C138.582 173.841 139.889 174.867 140.075 176.08C140.449 178.645 140.495 181.351 140.029 183.916C139.795 185.316 138.162 186.435 137.182 187.648C136.622 187.228 136.016 186.715 135.363 186.202Z" fill="#A9A9A9"/>
<path d="M129.53 180.231C128.177 182.843 127.057 185.036 125.937 187.181C125.098 184.896 123.605 182.61 123.605 180.371C123.605 177.853 125.004 175.334 125.797 172.768C126.964 175.101 128.13 177.433 129.53 180.231Z" fill="#A9A9A9"/>
<path d="M532.295 168.804C535.561 168.804 537.941 168.804 540.88 168.804C541.02 170.763 541.16 172.675 541.347 175.054C538.361 175.054 535.888 175.054 532.762 175.054C532.622 173.235 532.482 171.369 532.295 168.804Z" fill="#A9A9A9"/>
<path d="M67.3332 53.3138C71.4392 53.3138 74.1921 53.3138 77.7382 53.3138C77.2716 55.3195 77.1783 58.0714 76.4784 58.2114C74.0521 58.8177 71.3458 58.8644 68.8729 58.3047C68.1263 58.1647 67.9397 55.4594 67.3332 53.3138Z" fill="#A9A9A9"/>
<path d="M78.0648 124.492C73.9588 124.492 71.2059 124.492 67.6597 124.492C67.9864 122.533 67.9864 119.688 68.6396 119.548C71.0659 118.895 73.8188 118.755 76.2917 119.221C77.0383 119.361 77.3183 122.16 78.0648 124.492Z" fill="#A9A9A9"/>
<path d="M67.3332 132.328C71.1126 132.328 73.8655 132.328 77.5983 132.328C77.1317 134.287 77.1783 137.179 76.2918 137.459C74.0988 138.159 71.3925 138.252 69.2462 137.552C68.2197 137.226 68.0331 134.474 67.3332 132.328Z" fill="#A9A9A9"/>
<path d="M67.0999 145.528C71.2525 145.528 74.0055 145.528 77.5516 145.528C77.225 147.441 77.2716 150.239 76.6184 150.426C74.1921 151.079 71.4858 151.266 69.0129 150.753C68.2197 150.566 67.9397 147.907 67.0999 145.528Z" fill="#A9A9A9"/>
<path d="M67.2398 66.4673C71.3458 66.4673 74.0988 66.4673 77.6449 66.4673C77.225 68.4264 77.1783 71.1317 76.5251 71.3183C74.0988 71.9246 71.3925 72.0179 68.9662 71.5048C68.173 71.3649 67.9397 68.7062 67.2398 66.4673Z" fill="#A9A9A9"/>
<path d="M78.2515 98.0451C74.0521 98.0451 71.3458 98.0451 67.7064 98.0451C67.9397 96.2727 67.8464 93.474 68.4063 93.3341C70.8326 92.6811 73.5389 92.4479 75.9652 92.9143C76.8984 93.1009 77.2716 95.6663 78.2515 98.0451Z" fill="#A9A9A9"/>
<path d="M77.8782 111.199C73.7722 111.199 71.0659 111.199 67.4731 111.199C67.9397 109.193 68.0331 106.488 68.6863 106.301C71.1126 105.695 73.8188 105.648 76.2451 106.161C77.085 106.348 77.2716 109.1 77.8782 111.199Z" fill="#A9A9A9"/>
<path d="M101.535 50.142C101.535 55.4594 101.535 60.7768 101.535 66.1408C101.068 66.1408 100.601 66.1875 100.135 66.1875C100.135 60.9167 100.135 55.646 100.135 50.3752C100.601 50.2819 101.068 50.2353 101.535 50.142Z" fill="#A9A9A9"/>
<path d="M669.707 194.271C669.707 190.82 669.707 188.86 669.707 186.015C671.48 186.295 673.813 185.969 674.42 186.901C675.26 188.161 675.446 190.586 674.747 191.986C674.233 193.012 672.04 193.245 669.707 194.271Z" fill="#A9A9A9"/>
<path d="M78.4381 78.5947C77.1316 81.8597 76.7117 84.5651 75.8252 84.705C73.3989 85.1248 70.7393 84.6117 68.2663 84.1453C67.9397 84.0987 67.7064 81.0202 67.8931 80.9735C70.7393 80.1806 73.6788 79.6209 78.4381 78.5947Z" fill="#A9A9A9"/>
<path d="M437.67 177.013C439.396 176.92 441.122 176.873 443.315 176.733C443.315 178.879 443.315 180.698 443.315 182.704C438.323 184.056 435.897 182.89 437.67 177.013Z" fill="#A9A9A9"/>
<path d="M407.481 176.733C407.481 179.205 407.481 180.884 407.481 182.89C405.521 183.03 403.841 183.123 401.648 183.263C401.648 181.118 401.648 179.299 401.648 177.106C403.422 176.966 405.101 176.873 407.481 176.733Z" fill="#A9A9A9"/>
<path d="M419.333 182.89C417.419 182.89 415.693 182.89 413.64 182.89C413.64 180.931 413.64 179.252 413.64 177.106C415.413 176.966 417.14 176.826 419.333 176.686C419.333 178.925 419.333 180.744 419.333 182.89Z" fill="#A9A9A9"/>
<path d="M425.678 177.06C427.684 177.06 429.411 177.06 431.464 177.06C431.464 179.065 431.464 180.744 431.464 182.61C426.658 184.103 424.278 183.03 425.678 177.06Z" fill="#A9A9A9"/>
</g>
<defs>
<clipPath id="clip0_646_11162">
<rect width="414" height="195" fill="white"/>
</clipPath>
</defs>
</svg>
