<svg width="101" height="134" viewBox="0 0 101 134" fill="none" xmlns="http://www.w3.org/2000/svg">
<g clip-path="url(#clip0_99_4206)">
<path d="M9.17489 124.224C15.0679 124.213 20.9609 124.189 26.854 124.197C28.5105 124.201 28.5493 124.248 28.5726 125.82C28.6036 127.934 28.5687 130.052 28.592 132.171C28.5998 132.822 28.4872 133.431 28.1808 134C18.8272 134 9.47361 134 0.1084 134C0.224786 133.704 0.11228 134.055 0.0308092 133.786C0.0114115 133.727 -0.0118658 133.633 0.015291 133.598C2.91331 130.322 6.10617 127.333 9.17489 124.224Z" fill="#DEE0E0"/>
<path d="M9.78815 9.77567C15.6812 9.78737 21.5742 9.81078 27.4672 9.80297C29.1238 9.79907 29.1626 9.75226 29.1859 8.1802C29.2169 6.06591 29.182 3.94772 29.2053 1.82952C29.213 1.17807 29.0966 0.573433 28.794 0C19.4404 0 10.0869 0 0.717775 0C0.834161 0.296469 0.721655 -0.0546127 0.640184 0.21455C0.620786 0.276964 0.597509 0.370586 0.624666 0.401793C3.52656 3.67855 6.71943 6.66665 9.78815 9.77567Z" fill="#DEE0E0"/>
<path d="M53.549 62.8747L56.7613 66.1047C57.2501 66.5962 57.2501 67.4037 56.7613 67.8991L53.549 71.1291C53.0602 71.6206 52.2571 71.6206 51.7644 71.1291L48.5522 67.8991C48.0633 67.4076 48.0633 66.6001 48.5522 66.1047L51.7644 62.8747C52.2571 62.3793 53.0602 62.3793 53.549 62.8747Z" fill="#797979"/>
<path d="M29.0266 62.8747L32.2388 66.1047C32.7276 66.5962 32.7276 67.4037 32.2388 67.8991L29.0266 71.1291C28.5377 71.6206 27.7347 71.6206 27.242 71.1291L24.0297 67.8991C23.5409 67.4076 23.5409 66.6001 24.0297 66.1047L27.242 62.8747C27.7347 62.3793 28.5339 62.3793 29.0266 62.8747Z" fill="#797979"/>
<path d="M55.0782 124.224C59.819 124.213 85.6025 124.189 90.3471 124.197C91.6817 124.201 91.7127 124.248 91.7321 125.82C91.7554 127.934 91.7283 130.052 91.7477 132.171C91.7515 132.822 91.6623 133.431 91.4179 134C83.8916 134 65.7586 134 58.2207 134C58.3138 133.704 58.2245 134.055 58.1586 133.786C58.1431 133.727 58.1237 133.633 58.1469 133.598C56.6417 128.945 52.6108 127.333 55.0782 124.224Z" fill="#DEE0E0"/>
<path d="M90.6224 33.38C87.961 36.5749 85.2647 39.7385 82.6538 42.9724C80.9235 45.114 79.4648 47.4428 78.3048 49.9589C75.4921 56.0443 75.659 62.118 78.3009 68.1956C78.4949 68.6481 79.0342 69.9393 79.1699 70.1032L79.1855 70.1383C79.426 70.5284 79.4415 70.8053 79.201 70.9497C78.976 71.0862 78.6772 71.0121 78.5065 70.8092C78.2893 70.5518 77.9557 70.1929 77.7927 70.1617C69.8668 65.1373 67.8456 54.7375 68.765 46.7992C69.1879 43.1401 70.6466 39.6839 72.8851 36.7699C76.1749 32.4867 86.06 20.3159 86.06 20.3159C88.3955 17.4253 89.6951 14.0433 90.6844 10.5129C91.7823 10.6924 91.666 11.6325 91.6776 12.3308C91.7668 18.619 91.7862 24.9073 91.6737 31.1955C91.6543 32.0459 91.4642 32.8885 90.6224 33.38Z" fill="#DEE0E0"/>
<path d="M71.6167 9.77567C65.7237 9.78737 59.8306 9.81078 53.9376 9.80297C52.2811 9.79907 52.2423 9.75226 52.219 8.1802C52.188 6.06591 52.2229 3.94772 52.1996 1.82952C52.1918 1.17807 52.3043 0.569532 52.6108 0C61.9644 0 71.318 0 80.6832 0C80.5668 0.296469 80.6793 -0.0546127 80.7608 0.21455C80.7802 0.273063 80.8035 0.366685 80.7763 0.401793C77.8822 3.67855 74.6893 6.66665 71.6167 9.77567Z" fill="#DEE0E0"/>
<path d="M90.6221 33.38C90.8742 32.5062 91.076 31.6402 91.0682 30.704C91.0372 24.6381 91.0605 18.5761 91.0449 12.5102C91.0449 11.8314 91.2661 11.0824 90.6764 10.509C91.2389 7.03329 90.9247 3.50687 91.0915 0.00775629C91.9489 -0.0663609 92.2476 0.483667 92.6123 0.854253C95.1107 3.39764 97.5703 5.97614 100.077 8.50783C100.713 9.15148 101.081 9.82633 100.984 10.7548C100.946 11.1058 100.98 11.4647 100.98 11.8197C100.98 38.4746 100.98 96.5083 100.98 126.963C100.98 128.929 91.0023 134.866 91.0566 133.895C91.0837 133.399 91.0605 132.904 91.0605 132.404C91.0605 112.046 91.0643 56.134 91.0449 35.7752C91.0449 34.9716 91.3825 34.0549 90.6221 33.38Z" fill="white"/>
<path d="M71.0073 124.224C65.1143 124.213 59.2213 124.189 53.3283 124.197C51.6717 124.201 51.6329 124.248 51.6096 125.82C51.5786 127.934 51.6135 130.052 51.5902 132.171C51.5825 132.822 51.695 133.431 52.0014 134C61.355 134 70.7086 134 80.0738 134C79.9574 133.704 80.0699 134.055 80.1514 133.786C80.1708 133.727 80.1941 133.633 80.1669 133.598C77.2689 130.322 74.076 127.333 71.0073 124.224Z" fill="#DEE0E0"/>
<path d="M42.4341 7.03727C42.4341 37.4955 42.4341 95.5254 42.4341 122.18C42.4341 122.535 42.4651 122.894 42.4302 123.245C42.3293 124.174 42.7095 124.849 43.3613 125.492C45.9295 128.024 48.4551 130.602 51.0117 133.146C51.3842 133.516 51.6906 134.07 52.5713 133.992C52.7381 130.497 52.6256 109.362 52.5946 103.3C52.5907 102.36 52.6217 99.0284 52.6179 98.2287C52.6101 92.2135 52.6062 83.0932 52.6062 72.7051C52.1911 72.7441 51.7644 72.6115 51.4501 72.2955L47.2059 68.0279C46.6434 67.4623 46.6434 66.5378 47.2059 65.976L51.4501 61.7085C51.7644 61.3925 52.1911 61.2598 52.6023 61.2989C52.5985 38.8413 52.6023 13.817 52.6023 1.59941C52.6023 1.10399 52.5791 0.604678 52.6101 0.109263C52.6644 -0.865963 42.4341 5.07511 42.4341 7.03727Z" fill="white"/>
<path d="M28.224 0.00791745C28.0571 3.50313 28.1697 24.6382 28.2007 30.7002C28.2046 31.6404 28.1735 34.9717 28.1774 35.7714C28.1852 41.7203 28.1891 50.7041 28.1891 60.9479C28.546 60.9596 28.899 61.0961 29.1667 61.3692L33.7446 65.9722C34.3071 66.5378 34.3071 67.4624 33.7446 68.0241L29.1667 72.6272C28.899 72.9002 28.546 73.0368 28.1891 73.0446C28.1929 95.4163 28.1891 120.246 28.1891 132.401C28.1891 132.896 28.2123 133.395 28.1813 133.891C28.1231 134.866 38.3535 128.925 38.3535 126.959C38.3535 96.5007 38.3535 38.4708 38.3535 11.816C38.3535 11.461 38.3224 11.1021 38.3573 10.751C38.4582 9.82259 38.078 9.14774 37.4262 8.50409C34.858 5.9724 32.3324 3.3939 29.7758 0.850513C29.4072 0.483828 29.1046 -0.0701007 28.224 0.00791745Z" fill="white"/>
</g>
<defs>
<clipPath id="clip0_99_4206">
<rect width="101" height="134" fill="white"/>
</clipPath>
</defs>
</svg>
