<svg xmlns="http://www.w3.org/2000/svg" version="1.1" xmlns:xlink="http://www.w3.org/1999/xlink" xmlns:svgjs="http://svgjs.com/svgjs" width="512" height="512" x="0" y="0" viewBox="0 0 512 512" style="enable-background:new 0 0 512 512" xml:space="preserve"><g><g><path d="m194.688 84.76c3.389 8.473-1.477 17.989-10.329 20.202-.419.105-1.45.394-3.004.884-2.729.861-5.806 1.956-9.14 3.298-9.564 3.852-19.13 8.874-27.981 15.144-24.533 17.378-38.822 40.597-38.822 71.476 0 28.27 6.603 63.825 18.781 104.81 7.778 26.173 17.632 53.912 29.083 82.538 10.584 26.459 21.933 52.213 33.28 76.216 3.962 8.382 7.639 15.943 10.935 22.553h117.018c3.296-6.611 6.973-14.172 10.935-22.553 11.347-24.003 22.696-49.757 33.28-76.216 11.45-28.626 21.305-56.365 29.083-82.538 12.178-40.985 18.781-76.54 18.781-104.81 0-30.879-14.289-54.099-38.822-71.476-8.851-6.269-18.417-11.291-27.981-15.144-3.334-1.343-6.411-2.437-9.14-3.298-1.554-.49-2.585-.78-3.004-.884-8.853-2.213-13.719-11.729-10.329-20.202l21.857-54.643h-166.339zm-58.081-64.108c-3.957-9.892 3.328-20.652 13.981-20.652h210.824c10.653 0 17.938 10.76 13.982 20.652l-24.241 60.603c11.574 4.671 23.144 10.752 34.022 18.457 31.938 22.622 51.531 54.462 51.531 96.053 0 31.658-7.095 69.86-20.029 113.389-8.061 27.128-18.218 55.716-29.989 85.145-10.828 27.07-22.42 53.375-34.014 77.902-4.061 8.591-7.835 16.35-11.226 23.152-1.191 2.389-2.251 4.49-3.167 6.287-.556 1.091-.945 1.846-1.155 2.249-2.591 4.984-7.743 8.111-13.36 8.111h-135.531c-5.618 0-10.769-3.127-13.36-8.111-.21-.403-.599-1.158-1.155-2.249-.916-1.797-1.976-3.898-3.167-6.287-3.391-6.801-7.165-14.561-11.226-23.152-11.594-24.526-23.186-50.832-34.014-77.902-11.772-29.429-21.928-58.017-29.989-85.145-12.934-43.529-20.029-81.731-20.029-113.389 0-41.591 19.593-73.431 51.531-96.053 10.878-7.705 22.448-13.786 34.022-18.457z" fill="#000000" data-original="#000000"></path></g></g></svg>