<svg width="108" height="107" viewBox="0 0 108 107" fill="none" xmlns="http://www.w3.org/2000/svg">
<path d="M43.5633 85.7391C42.2736 84.4555 42.2765 82.3346 43.5696 81.0474C44.8627 79.7603 46.9935 79.7574 48.2832 81.0411C57.3753 90.0909 72.2263 90.071 81.3429 80.9968C90.4594 71.9225 90.4794 57.1405 81.3872 48.0907C72.2951 39.041 57.4441 39.0609 48.3276 48.1351C47.0344 49.4222 44.9036 49.4251 43.614 48.1414C42.3243 46.8578 42.3272 44.7369 43.6203 43.4497C55.3554 31.7691 74.4358 31.7114 86.1717 43.3927C97.9076 55.0739 97.8498 74.0014 86.1147 85.682C74.3796 97.3627 55.2992 97.4204 43.5633 85.7391Z" fill="#E8BD70"/>
<path d="M63.8233 21.1483C65.113 22.4319 65.1101 24.5528 63.817 25.8399C62.5239 27.1271 60.3931 27.1299 59.1034 25.8463C50.0113 16.7965 35.1603 16.8164 26.0437 25.8906C16.9272 34.9648 16.9073 49.7468 25.9994 58.7966C35.0915 67.8464 49.9425 67.8265 59.0591 58.7523C60.3522 57.4652 62.483 57.4623 63.7726 58.746C65.0623 60.0296 65.0594 62.1505 63.7663 63.4376C52.0312 75.1183 32.9508 75.176 21.2149 63.4947C9.47898 51.8134 9.53678 32.886 21.2719 21.2054C33.007 9.52471 52.0874 9.46698 63.8233 21.1483Z" fill="#E8BD70"/>
</svg>
