<svg width="130" height="130" viewBox="0 0 130 130" fill="none" xmlns="http://www.w3.org/2000/svg">
<path d="M51.7117 24.0779C51.7119 24.0776 51.7121 24.0773 51.7122 24.0769L52.9672 19.1956C53.522 17.0375 51.6135 15.068 49.488 15.7371C33.4425 20.7881 20.7885 33.4419 15.7374 49.4878C15.0683 51.6133 17.0378 53.5218 19.1959 52.9669L22.4777 52.1232C23.4738 51.8671 24.2621 51.1152 24.6162 50.1495C29.1553 37.7683 39.2355 28.15 51.7108 24.0783C51.7112 24.0782 51.7114 24.0781 51.7117 24.0779Z" fill="#BEABA1"/>
<path d="M105.883 51.7107C105.883 51.7109 105.884 51.7111 105.884 51.7112L110.758 52.9643C112.918 53.5196 114.887 51.6079 114.213 49.4821C109.155 33.5316 96.5076 20.8023 80.4724 15.7386C78.3475 15.0676 76.4391 17.0368 76.9939 19.1949L77.8377 22.4767C78.0938 23.4729 78.8456 24.2613 79.8115 24.6146C92.1927 29.1439 101.811 39.1035 105.882 51.7099C105.883 51.7102 105.883 51.7105 105.883 51.7107Z" fill="#BEABA1"/>
<path d="M24.0781 78.2506C24.0778 78.2504 24.0775 78.2502 24.0772 78.2501L19.1959 76.9951C17.0377 76.4403 15.0682 78.3488 15.7373 80.4743C20.7883 96.5198 33.4422 109.174 49.488 114.225C51.6135 114.894 53.522 112.925 52.9671 110.766L52.1219 107.479C51.8666 106.486 51.1188 105.699 50.157 105.344C37.8902 100.813 28.1494 90.8552 24.0786 78.2514C24.0785 78.2511 24.0783 78.2509 24.0781 78.2506Z" fill="#BEABA1"/>
<path d="M78.2514 105.883C78.2511 105.884 78.2509 105.884 78.2508 105.884L76.9978 110.758C76.4425 112.918 78.3541 114.888 80.48 114.214C96.4304 109.156 109.16 96.5081 114.223 80.4729C114.894 78.348 112.925 76.4395 110.767 76.9944L107.485 77.8381C106.489 78.0942 105.701 78.846 105.347 79.812C100.818 92.1931 90.8585 101.811 78.2522 105.883C78.2519 105.883 78.2516 105.883 78.2514 105.883Z" fill="#BEABA1"/>
<path d="M128.729 63.4753C128.729 63.4755 128.729 63.4757 128.729 63.4757L106.568 57.8668L88.3192 53.2481C86.3698 52.7547 85.4482 50.5208 86.4828 48.7964L90.9723 41.3135C91.7929 39.8087 90.1516 38.1673 88.6468 38.988L81.1639 43.4775C79.4396 44.512 77.2056 43.5904 76.7122 41.641L66.4854 1.23098C66.0751 -0.410327 63.886 -0.410327 63.4758 1.23098L53.2481 41.6411C52.7547 43.5905 50.5208 44.5121 48.7964 43.4775L41.3135 38.988C39.8086 38.1674 38.1673 39.8087 38.988 41.3135L43.4775 48.7964C44.512 50.5207 43.5904 52.7547 41.641 53.2481L1.23098 63.4749C-0.410327 63.8852 -0.410327 66.0743 1.23098 66.4845L41.6411 76.7122C43.5905 77.2056 44.5121 79.4395 43.4775 81.1639L38.988 88.6468C38.1674 90.1516 39.8087 91.793 41.3135 90.9723L48.7964 86.4828C50.5208 85.4482 52.7547 86.3698 53.2481 88.3192L63.4758 128.729C63.8862 130.371 66.0753 130.371 66.4854 128.729L76.7131 88.3192C77.2065 86.3698 79.4405 85.4482 81.1648 86.4828L88.6478 90.9723C90.1526 91.7929 91.7939 90.1516 90.9732 88.6468L86.4837 81.1639C85.4492 79.4395 86.3708 77.2056 88.3202 76.7122L128.73 66.4845C130.369 66.0742 130.37 63.8856 128.729 63.475C128.729 63.475 128.729 63.4752 128.729 63.4753ZM64.9805 75.3772C59.2349 75.3772 54.584 70.7262 54.584 64.9806C54.584 59.235 59.2349 54.5841 64.9805 54.5841C70.7261 54.5841 75.3771 59.235 75.3771 64.9806C75.3771 70.7262 70.7261 75.3772 64.9805 75.3772Z" fill="#BEABA1"/>
</svg>
