<svg width="24" height="24" viewBox="0 0 24 24" fill="none" xmlns="http://www.w3.org/2000/svg">
<path d="M20.9099 11.12C20.9099 16.01 17.3599 20.59 12.5099 21.93C12.1799 22.02 11.8198 22.02 11.4898 21.93C6.63984 20.59 3.08984 16.01 3.08984 11.12V6.72997C3.08984 5.90997 3.70986 4.97998 4.47986 4.66998L10.0498 2.39001C11.2998 1.88001 12.7098 1.88001 13.9598 2.39001L19.5298 4.66998C20.2898 4.97998 20.9199 5.90997 20.9199 6.72997L20.9099 11.12Z" stroke="#797979" stroke-width="1.5" stroke-linecap="round" stroke-linejoin="round"/>
<path d="M12 12.5C13.1046 12.5 14 11.6046 14 10.5C14 9.39543 13.1046 8.5 12 8.5C10.8954 8.5 10 9.39543 10 10.5C10 11.6046 10.8954 12.5 12 12.5Z" stroke="#797979" stroke-width="1.5" stroke-miterlimit="10" stroke-linecap="round" stroke-linejoin="round"/>
<path d="M12 12.5V15.5" stroke="#797979" stroke-width="1.5" stroke-miterlimit="10" stroke-linecap="round" stroke-linejoin="round"/>
</svg>
