<svg width="24" height="23" viewBox="0 0 24 23" fill="none" xmlns="http://www.w3.org/2000/svg">
<path d="M15.293 11.3749C15.293 12.0272 15.0995 12.6649 14.7371 13.2073C14.3747 13.7497 13.8596 14.1725 13.2569 14.4221C12.6542 14.6718 11.991 14.7371 11.3512 14.6098C10.7113 14.4826 10.1236 14.1684 9.66236 13.7071C9.20107 13.2459 8.88694 12.6582 8.75967 12.0183C8.6324 11.3785 8.69772 10.7153 8.94736 10.1126C9.19701 9.50994 9.61976 8.99481 10.1622 8.63238C10.7046 8.26995 11.3423 8.07651 11.9946 8.07651C12.8694 8.07651 13.7084 8.42401 14.3269 9.04257C14.9455 9.66113 15.293 10.5001 15.293 11.3749Z" stroke="#797979" stroke-width="1.5" stroke-linecap="round" stroke-linejoin="round"/>
<path d="M1 12.3424V10.4073C1.00174 9.85384 1.22238 9.32352 1.61376 8.93214C2.00514 8.54076 2.53547 8.32012 3.08896 8.31838C5.07896 8.31838 5.89255 6.91108 4.89205 5.18495C4.61735 4.70508 4.54411 4.13588 4.68837 3.60211C4.83264 3.06833 5.18264 2.61352 5.66167 2.33737L7.56372 1.24891C7.98374 1.00454 8.48355 0.936754 8.95349 1.06042C9.42343 1.18409 9.82513 1.48912 10.0705 1.90858L10.1914 2.11748C11.1809 3.84362 12.8081 3.84362 13.8086 2.11748L13.9295 1.90858C14.1749 1.48912 14.5766 1.18409 15.0465 1.06042C15.5164 0.936754 16.0163 1.00454 16.4363 1.24891L18.3383 2.33737C18.8174 2.61352 19.1674 3.06833 19.3116 3.60211C19.4559 4.13588 19.3826 4.70508 19.1079 5.18495C18.1074 6.91108 18.921 8.31838 20.911 8.31838C21.4645 8.32012 21.9949 8.54076 22.3862 8.93214C22.7776 9.32352 22.9983 9.85384 23 10.4073V12.3424C22.9983 12.8959 22.7776 13.4262 22.3862 13.8176C21.9949 14.2089 21.4645 14.4296 20.911 14.4313C18.921 14.4313 18.1074 15.8386 19.1079 17.5648C19.3826 18.0446 19.4559 18.6138 19.3116 19.1476C19.1674 19.6814 18.8174 20.1362 18.3383 20.4123L16.4363 21.5008C16.0163 21.7452 15.5164 21.8129 15.0465 21.6893C14.5766 21.5656 14.1749 21.2606 13.9295 20.8411L13.8086 20.6322C12.8191 18.9061 11.1919 18.9061 10.1914 20.6322L10.0705 20.8411C9.82513 21.2606 9.42343 21.5656 8.95349 21.6893C8.48355 21.8129 7.98374 21.7452 7.56372 21.5008L5.66167 20.4123C5.18264 20.1362 4.83264 19.6814 4.68837 19.1476C4.54411 18.6138 4.61735 18.0446 4.89205 17.5648C5.89255 15.8386 5.07896 14.4313 3.08896 14.4313C2.53547 14.4296 2.00514 14.2089 1.61376 13.8176C1.22238 13.4262 1.00174 12.8959 1 12.3424H1Z" stroke="#797979" stroke-width="1.5" stroke-linecap="round" stroke-linejoin="round"/>
</svg>
