<svg width="24" height="24" viewBox="0 0 24 24" fill="none" xmlns="http://www.w3.org/2000/svg">
<path d="M21.9995 6.25V11.35C22.0207 11.9156 21.9281 12.4797 21.7271 13.0087C21.5261 13.5378 21.2209 14.0211 20.8295 14.43C20.4207 14.8214 19.9373 15.1266 19.4083 15.3276C18.8792 15.5286 18.3151 15.6212 17.7495 15.6V17.41C17.7502 17.564 17.7089 17.7152 17.6302 17.8476C17.5515 17.9799 17.4383 18.0884 17.3027 18.1613C17.1671 18.2343 17.0142 18.269 16.8604 18.2617C16.7066 18.2544 16.5576 18.2054 16.4295 18.12L15.4595 17.48C15.5501 17.1511 15.5939 16.8111 15.5895 16.47V12.4C15.6169 11.9464 15.5478 11.492 15.3866 11.0671C15.2255 10.6422 14.976 10.2563 14.6546 9.93491C14.3332 9.61355 13.9473 9.36405 13.5224 9.20288C13.0975 9.04172 12.6432 8.97257 12.1895 9H5.39951C5.25951 9 5.12951 9.01 4.99951 9.02V6.25C4.96522 5.68294 5.05166 5.11506 5.25312 4.58389C5.45457 4.05272 5.76645 3.57034 6.16815 3.16864C6.56986 2.76694 7.05223 2.45506 7.5834 2.2536C8.11457 2.05215 8.68245 1.96571 9.24951 2H17.7495C18.3166 1.96571 18.8844 2.05215 19.4156 2.2536C19.9468 2.45506 20.4292 2.76694 20.8309 3.16864C21.2326 3.57034 21.5444 4.05272 21.7459 4.58389C21.9474 5.11506 22.0338 5.68294 21.9995 6.25Z" stroke="#797979" stroke-width="1.5" stroke-linecap="round" stroke-linejoin="round"/>
<path d="M15.5896 12.4V16.47C15.5939 16.8111 15.5502 17.1511 15.4596 17.48C15.2816 18.1988 14.8565 18.8321 14.2587 19.269C13.6609 19.7059 12.9284 19.9187 12.1896 19.87H9.46957L6.44957 21.88C6.34834 21.9493 6.23004 21.9895 6.10754 21.9963C5.98504 22.003 5.86303 21.9761 5.75478 21.9184C5.64653 21.8606 5.55618 21.7743 5.49355 21.6688C5.43092 21.5633 5.39842 21.4427 5.39957 21.32V19.87C4.94832 19.8861 4.49838 19.8122 4.07601 19.6525C3.65365 19.4928 3.26732 19.2506 2.93957 18.94C2.62595 18.6119 2.38121 18.2243 2.21976 17.8001C2.05832 17.3759 1.98345 16.9236 1.99957 16.47V12.4C1.97292 11.9807 2.02954 11.5603 2.16617 11.163C2.30279 10.7657 2.51672 10.3994 2.79561 10.0852C3.0745 9.77096 3.41283 9.51506 3.7911 9.33225C4.16937 9.14943 4.58009 9.0433 4.99957 9.02C5.12957 9.01 5.25957 9 5.39957 9H12.1896C12.6432 8.97257 13.0975 9.04172 13.5225 9.20288C13.9474 9.36405 14.3333 9.61355 14.6547 9.93491C14.976 10.2563 15.2255 10.6422 15.3867 11.0671C15.5479 11.4921 15.617 11.9464 15.5896 12.4V12.4Z" stroke="#797979" stroke-width="1.5" stroke-linecap="round" stroke-linejoin="round"/>
</svg>
