<svg width="27" height="23" viewBox="0 0 27 23" fill="none" xmlns="http://www.w3.org/2000/svg">
<g clip-path="url(#clip0_583_10681)">
<path d="M13.024 22.362C5.844 22.362 0 17.285 0 11.032C0.0157572 9.59343 0.326108 8.17334 0.911905 6.85933C1.4977 5.54533 2.34652 4.36529 3.406 3.39201C3.45582 3.34064 3.51554 3.2999 3.58153 3.27223C3.64753 3.24456 3.71845 3.23055 3.79001 3.23103C3.86157 3.23151 3.93229 3.24648 3.99791 3.27503C4.06353 3.30359 4.12268 3.34513 4.17181 3.39717C4.22094 3.4492 4.25902 3.51065 4.28376 3.5778C4.3085 3.64495 4.31939 3.71641 4.31576 3.78788C4.31213 3.85935 4.29407 3.92934 4.26266 3.99365C4.23125 4.05795 4.18714 4.11522 4.133 4.16201C3.17831 5.03616 2.41284 6.09664 1.8838 7.27803C1.35476 8.45942 1.07337 9.73668 1.057 11.031C1.057 16.692 6.426 21.298 13.024 21.298C19.622 21.298 24.991 16.692 24.991 11.031C24.9746 9.73861 24.694 8.46322 24.1664 7.28331C23.6388 6.10339 22.8753 5.0439 21.923 4.17001C21.8284 4.07086 21.7756 3.93907 21.7756 3.80201C21.7756 3.66495 21.8284 3.53316 21.923 3.43401C22.0166 3.33435 22.1453 3.27498 22.2819 3.26845C22.4185 3.26192 22.5523 3.30874 22.655 3.39901C23.7127 4.37167 24.56 5.55061 25.1448 6.86318C25.7295 8.17576 26.0393 9.59417 26.055 11.031C26.055 17.29 20.211 22.361 13.031 22.361L13.024 22.362Z" fill="#797979"/>
<path d="M9.22138 21.839C9.15178 21.8389 9.08289 21.825 9.01864 21.7983C8.95438 21.7715 8.89603 21.7324 8.84691 21.683C8.79779 21.6337 8.75886 21.5752 8.73234 21.5109C8.70583 21.4465 8.69225 21.3776 8.69238 21.308V6.07899C8.69238 5.93869 8.74812 5.80414 8.84733 5.70493C8.94653 5.60572 9.08108 5.54999 9.22138 5.54999C9.36168 5.54999 9.49624 5.60572 9.59544 5.70493C9.69465 5.80414 9.75038 5.93869 9.75038 6.07899V21.308C9.75051 21.3776 9.73694 21.4465 9.71042 21.5109C9.68391 21.5752 9.64498 21.6337 9.59586 21.683C9.54673 21.7324 9.48838 21.7715 9.42413 21.7983C9.35988 21.825 9.29098 21.8389 9.22138 21.839Z" fill="#797979"/>
<path d="M16.8269 21.839C16.7573 21.8389 16.6884 21.825 16.6241 21.7983C16.5599 21.7715 16.5015 21.7324 16.4524 21.683C16.4033 21.6337 16.3643 21.5752 16.3378 21.5109C16.3113 21.4465 16.2977 21.3776 16.2979 21.308V6.07899C16.2979 5.93869 16.3536 5.80414 16.4528 5.70493C16.552 5.60572 16.6866 5.54999 16.8269 5.54999C16.9672 5.54999 17.1017 5.60572 17.2009 5.70493C17.3001 5.80414 17.3559 5.93869 17.3559 6.07899V21.308C17.356 21.3776 17.3424 21.4465 17.3159 21.5109C17.2894 21.5752 17.2505 21.6337 17.2013 21.683C17.1522 21.7324 17.0939 21.7715 17.0296 21.7983C16.9654 21.825 16.8965 21.8389 16.8269 21.839Z" fill="#797979"/>
<path d="M16.8279 7.141H9.22193C9.08097 7.141 8.94578 7.08501 8.8461 6.98533C8.74643 6.88566 8.69043 6.75047 8.69043 6.6095C8.69043 6.46854 8.74643 6.33335 8.8461 6.23368C8.94578 6.134 9.08097 6.078 9.22193 6.078H16.8279C16.9689 6.078 17.1041 6.134 17.2038 6.23368C17.3034 6.33335 17.3594 6.46854 17.3594 6.6095C17.3594 6.75047 17.3034 6.88566 17.2038 6.98533C17.1041 7.08501 16.9689 7.141 16.8279 7.141Z" fill="#797979"/>
<path d="M14.0824 8.90199H12.2444C12.1034 8.90199 11.9682 8.84599 11.8686 8.74632C11.7689 8.64664 11.7129 8.51145 11.7129 8.37049C11.7129 8.22953 11.7689 8.09434 11.8686 7.99466C11.9682 7.89499 12.1034 7.83899 12.2444 7.83899H14.0824C14.2234 7.83899 14.3585 7.89499 14.4582 7.99466C14.5579 8.09434 14.6139 8.22953 14.6139 8.37049C14.6139 8.51145 14.5579 8.64664 14.4582 8.74632C14.3585 8.84599 14.2234 8.90199 14.0824 8.90199Z" fill="#797979"/>
<path d="M14.0818 9.385C14.0122 9.38487 13.9434 9.37103 13.8791 9.34428C13.8148 9.31752 13.7565 9.27837 13.7074 9.22906C13.6582 9.17976 13.6193 9.12126 13.5928 9.0569C13.5663 8.99255 13.5527 8.9236 13.5528 8.854V7.14H12.7728V8.857C12.7728 8.9973 12.7171 9.13186 12.6179 9.23106C12.5187 9.33027 12.3841 9.38601 12.2438 9.38601C12.1035 9.38601 11.969 9.33027 11.8698 9.23106C11.7706 9.13186 11.7148 8.9973 11.7148 8.857V6.609C11.7147 6.5394 11.7283 6.47046 11.7548 6.40611C11.7813 6.34175 11.8202 6.28325 11.8694 6.23394C11.9185 6.18464 11.9768 6.14548 12.0411 6.11873C12.1054 6.09197 12.1742 6.07813 12.2438 6.078H14.0818C14.1514 6.07813 14.2203 6.09197 14.2846 6.11873C14.3488 6.14548 14.4072 6.18464 14.4563 6.23394C14.5054 6.28325 14.5444 6.34175 14.5709 6.40611C14.5974 6.47046 14.611 6.5394 14.6108 6.609V8.857C14.611 8.9266 14.5974 8.99555 14.5709 9.0599C14.5444 9.12426 14.5054 9.18276 14.4563 9.23206C14.4072 9.28137 14.3488 9.32052 14.2846 9.34728C14.2203 9.37403 14.1514 9.38787 14.0818 9.388V9.385Z" fill="#797979"/>
<path d="M11.3083 7.14001C11.2387 7.13988 11.1698 7.12604 11.1055 7.09929C11.0413 7.07253 10.9829 7.03338 10.9338 6.98407C10.8847 6.93476 10.8458 6.87626 10.8193 6.81191C10.7927 6.74756 10.7792 6.67861 10.7793 6.60901V6.07801C10.7793 5.93771 10.835 5.80316 10.9342 5.70395C11.0334 5.60474 11.168 5.54901 11.3083 5.54901C11.4486 5.54901 11.5831 5.60474 11.6824 5.70395C11.7816 5.80316 11.8373 5.93771 11.8373 6.07801V6.60901C11.8374 6.67861 11.8238 6.74756 11.7973 6.81191C11.7708 6.87626 11.7319 6.93476 11.6828 6.98407C11.6336 7.03338 11.5753 7.07253 11.511 7.09929C11.4468 7.12604 11.3779 7.13988 11.3083 7.14001Z" fill="#797979"/>
<path d="M15.0056 7.14001C14.936 7.13988 14.8671 7.12604 14.8028 7.09929C14.7386 7.07253 14.6802 7.03338 14.6311 6.98407C14.582 6.93476 14.543 6.87626 14.5165 6.81191C14.49 6.74756 14.4764 6.67861 14.4766 6.60901V6.07801C14.4766 5.93771 14.5323 5.80316 14.6315 5.70395C14.7307 5.60474 14.8653 5.54901 15.0056 5.54901C15.1459 5.54901 15.2804 5.60474 15.3796 5.70395C15.4788 5.80316 15.5346 5.93771 15.5346 6.07801V6.60901C15.5347 6.67861 15.5211 6.74756 15.4946 6.81191C15.4681 6.87626 15.4292 6.93476 15.38 6.98407C15.3309 7.03338 15.2726 7.07253 15.2083 7.09929C15.1441 7.12604 15.0752 7.13988 15.0056 7.14001Z" fill="#797979"/>
<path d="M11.3366 19.379C11.267 19.3789 11.1981 19.365 11.1339 19.3383C11.0696 19.3115 11.0113 19.2724 10.9621 19.2231C10.913 19.1738 10.8741 19.1152 10.8476 19.0509C10.8211 18.9865 10.8075 18.9176 10.8076 18.848V17.055C10.8076 16.9147 10.8633 16.7801 10.9626 16.6809C11.0618 16.5817 11.1963 16.526 11.3366 16.526C11.4769 16.526 11.6115 16.5817 11.7107 16.6809C11.8099 16.7801 11.8656 16.9147 11.8656 17.055V18.848C11.8657 18.9176 11.8522 18.9865 11.8257 19.0509C11.7991 19.1152 11.7602 19.1738 11.7111 19.2231C11.662 19.2724 11.6036 19.3115 11.5394 19.3383C11.4751 19.365 11.4062 19.3789 11.3366 19.379Z" fill="#797979"/>
<path d="M14.7116 19.379C14.642 19.3789 14.5731 19.365 14.5089 19.3383C14.4446 19.3115 14.3863 19.2724 14.3371 19.2231C14.288 19.1738 14.2491 19.1152 14.2226 19.0509C14.1961 18.9865 14.1825 18.9176 14.1826 18.848V17.055C14.1826 16.9147 14.2384 16.7801 14.3376 16.6809C14.4368 16.5817 14.5713 16.526 14.7116 16.526C14.8519 16.526 14.9865 16.5817 15.0857 16.6809C15.1849 16.7801 15.2406 16.9147 15.2406 17.055V18.848C15.2407 18.9176 15.2272 18.9865 15.2007 19.0509C15.1741 19.1152 15.1352 19.1738 15.0861 19.2231C15.037 19.2724 14.9786 19.3115 14.9144 19.3383C14.8501 19.365 14.7812 19.3789 14.7116 19.379Z" fill="#797979"/>
<path d="M14.4048 18.654H11.6438C11.5028 18.654 11.3677 18.598 11.268 18.4983C11.1683 18.3987 11.1123 18.2635 11.1123 18.1225C11.1123 17.9815 11.1683 17.8463 11.268 17.7467C11.3677 17.647 11.5028 17.591 11.6438 17.591H14.4048C14.5458 17.591 14.681 17.647 14.7806 17.7467C14.8803 17.8463 14.9363 17.9815 14.9363 18.1225C14.9363 18.2635 14.8803 18.3987 14.7806 18.4983C14.681 18.598 14.5458 18.654 14.4048 18.654Z" fill="#797979"/>
<path d="M15.4786 20.702H10.5696C10.4286 20.702 10.2934 20.646 10.1938 20.5463C10.0941 20.4467 10.0381 20.3115 10.0381 20.1705C10.0381 20.0295 10.0941 19.8944 10.1938 19.7947C10.2934 19.695 10.4286 19.639 10.5696 19.639H15.4786C15.6195 19.639 15.7547 19.695 15.8544 19.7947C15.9541 19.8944 16.0101 20.0295 16.0101 20.1705C16.0101 20.3115 15.9541 20.4467 15.8544 20.5463C15.7547 20.646 15.6195 20.702 15.4786 20.702Z" fill="#797979"/>
<path d="M14.3459 16.268C14.2763 16.2679 14.2074 16.254 14.1431 16.2273C14.0789 16.2005 14.0205 16.1614 13.9714 16.1121C13.9223 16.0627 13.8833 16.0042 13.8568 15.9399C13.8303 15.8755 13.8167 15.8066 13.8169 15.737V11.711H12.2309V15.736C12.2309 15.8763 12.1751 16.0108 12.0759 16.1101C11.9767 16.2093 11.8422 16.265 11.7019 16.265C11.5616 16.265 11.427 16.2093 11.3278 16.1101C11.2286 16.0108 11.1729 15.8763 11.1729 15.736V11.181C11.1727 11.1114 11.1863 11.0424 11.2128 10.9781C11.2393 10.9137 11.2783 10.8552 11.3274 10.8059C11.3765 10.7566 11.4349 10.7175 11.4991 10.6907C11.5634 10.664 11.6323 10.6501 11.7019 10.65H14.3459C14.4153 10.65 14.4841 10.6636 14.5483 10.6902C14.6125 10.7168 14.6708 10.7558 14.7199 10.805C14.8192 10.9049 14.8749 11.0401 14.8749 11.181V15.737C14.875 15.8066 14.8614 15.8755 14.8349 15.9399C14.8084 16.0042 14.7694 16.0627 14.7203 16.1121C14.6712 16.1614 14.6128 16.2005 14.5486 16.2273C14.4843 16.254 14.4155 16.2679 14.3459 16.268Z" fill="#797979"/>
<path d="M14.1414 13.386H11.9094C11.7685 13.386 11.6333 13.33 11.5336 13.2303C11.4339 13.1306 11.3779 12.9955 11.3779 12.8545C11.3779 12.7135 11.4339 12.5784 11.5336 12.4787C11.6333 12.379 11.7685 12.323 11.9094 12.323H14.1414C14.2824 12.323 14.4176 12.379 14.5173 12.4787C14.6169 12.5784 14.6729 12.7135 14.6729 12.8545C14.6729 12.9955 14.6169 13.1306 14.5173 13.2303C14.4176 13.33 14.2824 13.386 14.1414 13.386Z" fill="#797979"/>
<path d="M10.0169 14.223H9.22388C9.08292 14.223 8.94773 14.167 8.84806 14.0673C8.74838 13.9677 8.69238 13.8325 8.69238 13.6915C8.69238 13.5505 8.74838 13.4154 8.84806 13.3157C8.94773 13.216 9.08292 13.16 9.22388 13.16H10.0169C10.1578 13.16 10.293 13.216 10.3927 13.3157C10.4924 13.4154 10.5484 13.5505 10.5484 13.6915C10.5484 13.8325 10.4924 13.9677 10.3927 14.0673C10.293 14.167 10.1578 14.223 10.0169 14.223Z" fill="#797979"/>
<path d="M16.8284 14.223H16.0354C15.8944 14.223 15.7593 14.167 15.6596 14.0673C15.5599 13.9677 15.5039 13.8325 15.5039 13.6915C15.5039 13.5505 15.5599 13.4154 15.6596 13.3157C15.7593 13.216 15.8944 13.16 16.0354 13.16H16.8284C16.9694 13.16 17.1046 13.216 17.2042 13.3157C17.3039 13.4154 17.3599 13.5505 17.3599 13.6915C17.3599 13.8325 17.3039 13.9677 17.2042 14.0673C17.1046 14.167 16.9694 14.223 16.8284 14.223Z" fill="#797979"/>
<path d="M10.0169 9.693H9.22388C9.08292 9.693 8.94773 9.63701 8.84806 9.53733C8.74838 9.43766 8.69238 9.30247 8.69238 9.16151C8.69238 9.02054 8.74838 8.88535 8.84806 8.78568C8.94773 8.686 9.08292 8.63 9.22388 8.63H10.0169C10.1578 8.63 10.293 8.686 10.3927 8.78568C10.4924 8.88535 10.5484 9.02054 10.5484 9.16151C10.5484 9.30247 10.4924 9.43766 10.3927 9.53733C10.293 9.63701 10.1578 9.693 10.0169 9.693Z" fill="#797979"/>
<path d="M16.8284 9.693H16.0354C15.8944 9.693 15.7593 9.63701 15.6596 9.53733C15.5599 9.43766 15.5039 9.30247 15.5039 9.16151C15.5039 9.02054 15.5599 8.88535 15.6596 8.78568C15.7593 8.686 15.8944 8.63 16.0354 8.63H16.8284C16.9694 8.63 17.1046 8.686 17.2042 8.78568C17.3039 8.88535 17.3599 9.02054 17.3599 9.16151C17.3599 9.30247 17.3039 9.43766 17.2042 9.53733C17.1046 9.63701 16.9694 9.693 16.8284 9.693Z" fill="#797979"/>
<path d="M9.22059 15.697H1.63159C1.49076 15.697 1.35569 15.6411 1.25611 15.5415C1.15653 15.4419 1.10059 15.3068 1.10059 15.166C1.10059 15.0252 1.15653 14.8901 1.25611 14.7905C1.35569 14.691 1.49076 14.635 1.63159 14.635H9.22159C9.36242 14.635 9.49748 14.691 9.59706 14.7905C9.69664 14.8901 9.75259 15.0252 9.75259 15.166C9.75259 15.3068 9.69664 15.4419 9.59706 15.5415C9.49748 15.6411 9.36242 15.697 9.22159 15.697H9.22059Z" fill="#797979"/>
<path d="M24.5729 15.697H16.8269C16.6861 15.697 16.551 15.6411 16.4514 15.5415C16.3518 15.4419 16.2959 15.3068 16.2959 15.166C16.2959 15.0252 16.3518 14.8901 16.4514 14.7905C16.551 14.691 16.6861 14.635 16.8269 14.635H24.5729C24.7137 14.635 24.8488 14.691 24.9484 14.7905C25.048 14.8901 25.1039 15.0252 25.1039 15.166C25.1039 15.3068 25.048 15.4419 24.9484 15.5415C24.8488 15.6411 24.7137 15.697 24.5729 15.697Z" fill="#797979"/>
<path d="M22.1302 1.86H3.92017C3.77921 1.86 3.64402 1.804 3.54434 1.70432C3.44467 1.60465 3.38867 1.46946 3.38867 1.3285C3.38867 1.18753 3.44467 1.05235 3.54434 0.95267C3.64402 0.852995 3.77921 0.796997 3.92017 0.796997H22.1302C22.2711 0.796997 22.4063 0.852995 22.506 0.95267C22.6057 1.05235 22.6617 1.18753 22.6617 1.3285C22.6617 1.46946 22.6057 1.60465 22.506 1.70432C22.4063 1.804 22.2711 1.86 22.1302 1.86Z" fill="#797979"/>
<path d="M8.99662 15.7H3.91963C3.85002 15.6999 3.78113 15.686 3.71688 15.6593C3.65263 15.6325 3.59427 15.5934 3.54515 15.5441C3.49603 15.4948 3.4571 15.4363 3.43059 15.3719C3.40407 15.3076 3.39049 15.2386 3.39063 15.169V0.531014C3.39063 0.390715 3.44636 0.256161 3.54557 0.156955C3.64477 0.0577479 3.77933 0.00201416 3.91963 0.00201416C4.05992 0.00201416 4.19448 0.0577479 4.29368 0.156955C4.39289 0.256161 4.44862 0.390715 4.44862 0.531014V14.631H8.99763C9.13846 14.631 9.27352 14.687 9.3731 14.7865C9.47268 14.8861 9.52863 15.0212 9.52863 15.162C9.52863 15.3028 9.47268 15.4379 9.3731 15.5375C9.27352 15.6371 9.13846 15.693 8.99763 15.693L8.99662 15.7Z" fill="#797979"/>
<path d="M22.1291 15.698H17.0701C16.9292 15.698 16.7942 15.642 16.6946 15.5425C16.595 15.4429 16.5391 15.3078 16.5391 15.167C16.5391 15.0262 16.595 14.8911 16.6946 14.7915C16.7942 14.6919 16.9292 14.636 17.0701 14.636H21.6001V0.531991C21.6001 0.391691 21.6558 0.257138 21.755 0.157931C21.8542 0.0587245 21.9888 0.00299072 22.1291 0.00299072C22.2694 0.00299072 22.4039 0.0587245 22.5031 0.157931C22.6023 0.257138 22.6581 0.391691 22.6581 0.531991V15.166C22.6581 15.3069 22.6024 15.4421 22.5031 15.542C22.454 15.5912 22.3957 15.6302 22.3315 15.6568C22.2673 15.6834 22.1985 15.697 22.1291 15.697V15.698Z" fill="#797979"/>
<path d="M13.0241 1.86C12.9545 1.85987 12.8856 1.84603 12.8214 1.81927C12.7571 1.79252 12.6988 1.75337 12.6496 1.70406C12.6005 1.65475 12.5616 1.59625 12.5351 1.5319C12.5086 1.46755 12.495 1.3986 12.4951 1.329V0.529C12.4951 0.3887 12.5509 0.254147 12.6501 0.154941C12.7493 0.0557338 12.8838 0 13.0241 0C13.1644 0 13.299 0.0557338 13.3982 0.154941C13.4974 0.254147 13.5531 0.3887 13.5531 0.529V1.329C13.5532 1.3986 13.5397 1.46755 13.5132 1.5319C13.4866 1.59625 13.4477 1.65475 13.3986 1.70406C13.3495 1.75337 13.2911 1.79252 13.2269 1.81927C13.1626 1.84603 13.0937 1.85987 13.0241 1.86Z" fill="#797979"/>
<path d="M6.3747 1.86C6.3051 1.85987 6.23621 1.84603 6.17196 1.81927C6.10771 1.79252 6.04935 1.75337 6.00023 1.70406C5.95111 1.65475 5.91218 1.59625 5.88567 1.5319C5.85915 1.46755 5.84557 1.3986 5.8457 1.329V0.529C5.8457 0.3887 5.90144 0.254147 6.00065 0.154941C6.09985 0.0557338 6.2344 0 6.3747 0C6.515 0 6.64956 0.0557338 6.74876 0.154941C6.84797 0.254147 6.90371 0.3887 6.90371 0.529V1.329C6.90384 1.3986 6.89026 1.46755 6.86374 1.5319C6.83723 1.59625 6.7983 1.65475 6.74918 1.70406C6.70006 1.75337 6.6417 1.79252 6.57745 1.81927C6.5132 1.84603 6.4443 1.85987 6.3747 1.86Z" fill="#797979"/>
<path d="M8.67158 1.86C8.60198 1.85987 8.53308 1.84603 8.46883 1.81927C8.40458 1.79252 8.34623 1.75337 8.2971 1.70406C8.24798 1.65475 8.20905 1.59625 8.18254 1.5319C8.15602 1.46755 8.14245 1.3986 8.14258 1.329V0.529C8.14258 0.3887 8.19831 0.254147 8.29752 0.154941C8.39673 0.0557338 8.53128 0 8.67158 0C8.81188 0 8.94643 0.0557338 9.04564 0.154941C9.14485 0.254147 9.20058 0.3887 9.20058 0.529V1.329C9.20071 1.3986 9.18713 1.46755 9.16062 1.5319C9.13411 1.59625 9.09517 1.65475 9.04605 1.70406C8.99693 1.75337 8.93858 1.79252 8.87433 1.81927C8.81007 1.84603 8.74118 1.85987 8.67158 1.86Z" fill="#797979"/>
<path d="M10.8503 1.86C10.7807 1.85987 10.7118 1.84603 10.6475 1.81927C10.5833 1.79252 10.5249 1.75337 10.4758 1.70406C10.4267 1.65475 10.3878 1.59625 10.3613 1.5319C10.3347 1.46755 10.3212 1.3986 10.3213 1.329V0.529C10.3213 0.3887 10.377 0.254147 10.4762 0.154941C10.5754 0.0557338 10.71 0 10.8503 0C10.9906 0 11.1251 0.0557338 11.2244 0.154941C11.3236 0.254147 11.3793 0.3887 11.3793 0.529V1.329C11.3794 1.3986 11.3658 1.46755 11.3393 1.5319C11.3128 1.59625 11.2739 1.65475 11.2248 1.70406C11.1756 1.75337 11.1173 1.79252 11.053 1.81927C10.9888 1.84603 10.9199 1.85987 10.8503 1.86Z" fill="#797979"/>
<path d="M15.3854 1.86C15.3158 1.85987 15.247 1.84603 15.1827 1.81927C15.1184 1.79252 15.0601 1.75337 15.011 1.70406C14.9618 1.65475 14.9229 1.59625 14.8964 1.5319C14.8699 1.46755 14.8563 1.3986 14.8564 1.329V0.529C14.8564 0.3887 14.9122 0.254147 15.0114 0.154941C15.1106 0.0557338 15.2451 0 15.3854 0C15.5257 0 15.6603 0.0557338 15.7595 0.154941C15.8587 0.254147 15.9144 0.3887 15.9144 0.529V1.329C15.9146 1.3986 15.901 1.46755 15.8745 1.5319C15.848 1.59625 15.809 1.65475 15.7599 1.70406C15.7108 1.75337 15.6524 1.79252 15.5882 1.81927C15.5239 1.84603 15.455 1.85987 15.3854 1.86Z" fill="#797979"/>
<path d="M17.6813 1.86C17.6117 1.85987 17.5428 1.84603 17.4786 1.81927C17.4143 1.79252 17.356 1.75337 17.3069 1.70406C17.2577 1.65475 17.2188 1.59625 17.1923 1.5319C17.1658 1.46755 17.1522 1.3986 17.1523 1.329V0.529C17.1523 0.3887 17.2081 0.254147 17.3073 0.154941C17.4065 0.0557338 17.541 0 17.6813 0C17.8216 0 17.9562 0.0557338 18.0554 0.154941C18.1546 0.254147 18.2103 0.3887 18.2103 0.529V1.329C18.2105 1.3986 18.1969 1.46755 18.1704 1.5319C18.1439 1.59625 18.1049 1.65475 18.0558 1.70406C18.0067 1.75337 17.9483 1.79252 17.8841 1.81927C17.8198 1.84603 17.7509 1.85987 17.6813 1.86Z" fill="#797979"/>
<path d="M19.8581 1.86C19.7885 1.85987 19.7196 1.84603 19.6554 1.81927C19.5911 1.79252 19.5328 1.75337 19.4836 1.70406C19.4345 1.65475 19.3956 1.59625 19.3691 1.5319C19.3425 1.46755 19.329 1.3986 19.3291 1.329V0.529C19.3291 0.3887 19.3848 0.254147 19.484 0.154941C19.5832 0.0557338 19.7178 0 19.8581 0C19.9984 0 20.1329 0.0557338 20.2322 0.154941C20.3314 0.254147 20.3871 0.3887 20.3871 0.529V1.329C20.3872 1.3986 20.3737 1.46755 20.3471 1.5319C20.3206 1.59625 20.2817 1.65475 20.2326 1.70406C20.1835 1.75337 20.1251 1.79252 20.0608 1.81927C19.9966 1.84603 19.9277 1.85987 19.8581 1.86Z" fill="#797979"/>
<path d="M7.29119 8.90199H5.46119C5.32022 8.90199 5.18504 8.84599 5.08536 8.74632C4.98568 8.64664 4.92969 8.51145 4.92969 8.37049C4.92969 8.22953 4.98568 8.09434 5.08536 7.99466C5.18504 7.89499 5.32022 7.83899 5.46119 7.83899H7.29119C7.43215 7.83899 7.56734 7.89499 7.66702 7.99466C7.76669 8.09434 7.82269 8.22953 7.82269 8.37049C7.82269 8.51145 7.76669 8.64664 7.66702 8.74632C7.56734 8.84599 7.43215 8.90199 7.29119 8.90199Z" fill="#797979"/>
<path d="M7.29064 9.385C7.22104 9.38487 7.15215 9.37103 7.0879 9.34428C7.02364 9.31752 6.96529 9.27837 6.91617 9.22906C6.86705 9.17976 6.82812 9.12126 6.8016 9.0569C6.77509 8.99255 6.76151 8.9236 6.76164 8.854V7.14H5.98964V8.857C5.98964 8.9973 5.93391 9.13186 5.8347 9.23106C5.73549 9.33027 5.60094 9.38601 5.46064 9.38601C5.32034 9.38601 5.18579 9.33027 5.08658 9.23106C4.98737 9.13186 4.93164 8.9973 4.93164 8.857V6.609C4.93151 6.5394 4.94509 6.47046 4.9716 6.40611C4.99812 6.34175 5.03705 6.28325 5.08617 6.23394C5.13529 6.18464 5.19364 6.14548 5.2579 6.11873C5.32215 6.09197 5.39104 6.07813 5.46064 6.078H7.29064C7.36024 6.07813 7.42914 6.09197 7.49339 6.11873C7.55764 6.14548 7.61599 6.18464 7.66511 6.23394C7.71424 6.28325 7.75317 6.34175 7.77968 6.40611C7.80619 6.47046 7.81977 6.5394 7.81964 6.609V8.857C7.81977 8.9266 7.80619 8.99555 7.77968 9.0599C7.75317 9.12426 7.71424 9.18276 7.66511 9.23206C7.61599 9.28137 7.55764 9.32052 7.49339 9.34728C7.42914 9.37403 7.36024 9.38787 7.29064 9.388V9.385Z" fill="#797979"/>
<path d="M20.3049 8.90199H18.4749C18.3339 8.90199 18.1987 8.84599 18.099 8.74632C17.9994 8.64664 17.9434 8.51145 17.9434 8.37049C17.9434 8.22953 17.9994 8.09434 18.099 7.99466C18.1987 7.89499 18.3339 7.83899 18.4749 7.83899H20.3049C20.4458 7.83899 20.581 7.89499 20.6807 7.99466C20.7804 8.09434 20.8364 8.22953 20.8364 8.37049C20.8364 8.51145 20.7804 8.64664 20.6807 8.74632C20.581 8.84599 20.4458 8.90199 20.3049 8.90199Z" fill="#797979"/>
<path d="M20.3053 9.385C20.2357 9.38487 20.1668 9.37103 20.1025 9.34428C20.0383 9.31752 19.9799 9.27837 19.9308 9.22906C19.8817 9.17976 19.8428 9.12126 19.8163 9.0569C19.7897 8.99255 19.7762 8.9236 19.7763 8.854V7.14H19.0043V8.857C19.0043 8.9973 18.9486 9.13186 18.8494 9.23106C18.7501 9.33027 18.6156 9.38601 18.4753 9.38601C18.335 9.38601 18.2004 9.33027 18.1012 9.23106C18.002 9.13186 17.9463 8.9973 17.9463 8.857V6.609C17.9462 6.5394 17.9597 6.47046 17.9863 6.40611C18.0128 6.34175 18.0517 6.28325 18.1008 6.23394C18.1499 6.18464 18.2083 6.14548 18.2725 6.11873C18.3368 6.09197 18.4057 6.07813 18.4753 6.078H20.3053C20.3749 6.07813 20.4438 6.09197 20.508 6.11873C20.5723 6.14548 20.6306 6.18464 20.6798 6.23394C20.7289 6.28325 20.7678 6.34175 20.7943 6.40611C20.8208 6.47046 20.8344 6.5394 20.8343 6.609V8.857C20.8344 8.9266 20.8208 8.99555 20.7943 9.0599C20.7678 9.12426 20.7289 9.18276 20.6798 9.23206C20.6306 9.28137 20.5723 9.32052 20.508 9.34728C20.4438 9.37403 20.3749 9.38787 20.3053 9.388V9.385Z" fill="#797979"/>
<path d="M9.22065 11.911H5.42065C5.27982 11.911 5.14476 11.8551 5.04518 11.7555C4.94559 11.6559 4.88965 11.5208 4.88965 11.38C4.88965 11.2392 4.94559 11.1041 5.04518 11.0045C5.14476 10.9049 5.27982 10.849 5.42065 10.849H9.22065C9.36148 10.849 9.49654 10.9049 9.59612 11.0045C9.6957 11.1041 9.75165 11.2392 9.75165 11.38C9.75165 11.5208 9.6957 11.6559 9.59612 11.7555C9.49654 11.8551 9.36148 11.911 9.22065 11.911Z" fill="#797979"/>
<path d="M20.622 11.911H16.822C16.6812 11.911 16.5461 11.8551 16.4465 11.7555C16.347 11.6559 16.291 11.5208 16.291 11.38C16.291 11.2392 16.347 11.1041 16.4465 11.0045C16.5461 10.9049 16.6812 10.849 16.822 10.849H20.622C20.7628 10.849 20.8979 10.9049 20.9975 11.0045C21.0971 11.1041 21.153 11.2392 21.153 11.38C21.153 11.5208 21.0971 11.6559 20.9975 11.7555C20.8979 11.8551 20.7628 11.911 20.622 11.911Z" fill="#797979"/>
<path d="M13.8468 5.16H12.2019C12.1323 5.15987 12.0634 5.14603 11.9991 5.11927C11.9349 5.09252 11.8765 5.05337 11.8274 5.00406C11.7783 4.95475 11.7393 4.89625 11.7128 4.8319C11.6863 4.76754 11.6727 4.6986 11.6729 4.629V2.893C11.6727 2.8234 11.6863 2.75445 11.7128 2.6901C11.7393 2.62575 11.7783 2.56725 11.8274 2.51794C11.8765 2.46863 11.9349 2.42948 11.9991 2.40273C12.0634 2.37597 12.1323 2.36213 12.2019 2.362H13.8468C13.9164 2.36213 13.9853 2.37597 14.0496 2.40273C14.1139 2.42948 14.1722 2.46863 14.2213 2.51794C14.2704 2.56725 14.3094 2.62575 14.3359 2.6901C14.3624 2.75445 14.376 2.8234 14.3758 2.893V4.624C14.376 4.6936 14.3624 4.76254 14.3359 4.8269C14.3094 4.89125 14.2704 4.94975 14.2213 4.99906C14.1722 5.04837 14.1139 5.08752 14.0496 5.11427C13.9853 5.14103 13.9164 5.15487 13.8468 5.155V5.16ZM12.7309 4.097H13.3178V3.424H12.7309V4.097Z" fill="#797979"/>
<path d="M6.88637 4.67501C6.74615 4.67422 6.61197 4.61789 6.51319 4.51837C6.41442 4.41885 6.35911 4.28423 6.35938 4.14401V3.21201C6.35938 3.07171 6.41511 2.93716 6.51431 2.83795C6.61352 2.73875 6.74808 2.68301 6.88838 2.68301C7.02867 2.68301 7.16323 2.73875 7.26243 2.83795C7.36164 2.93716 7.41737 3.07171 7.41737 3.21201V4.15001C7.41632 4.28971 7.36015 4.42334 7.26109 4.52184C7.16203 4.62035 7.02808 4.67575 6.88838 4.67601L6.88637 4.67501Z" fill="#797979"/>
<path d="M9.22138 4.67501C9.15178 4.67488 9.08289 4.66104 9.01864 4.63429C8.95438 4.60753 8.89603 4.56838 8.84691 4.51907C8.79779 4.46977 8.75886 4.41127 8.73234 4.34691C8.70583 4.28256 8.69225 4.21361 8.69238 4.14401V3.21201C8.69238 3.07171 8.74812 2.93716 8.84733 2.83795C8.94653 2.73875 9.08108 2.68301 9.22138 2.68301C9.36168 2.68301 9.49624 2.73875 9.59544 2.83795C9.69465 2.93716 9.75038 3.07171 9.75038 3.21201V4.15001C9.74933 4.28971 9.69316 4.42334 9.5941 4.52184C9.49503 4.62035 9.36108 4.67575 9.22138 4.67601V4.67501Z" fill="#797979"/>
<path d="M16.8269 4.67501C16.7573 4.67488 16.6884 4.66104 16.6241 4.63429C16.5599 4.60753 16.5015 4.56838 16.4524 4.51907C16.4033 4.46977 16.3643 4.41127 16.3378 4.34691C16.3113 4.28256 16.2977 4.21361 16.2979 4.14401V3.21201C16.2979 3.07171 16.3536 2.93716 16.4528 2.83795C16.552 2.73875 16.6866 2.68301 16.8269 2.68301C16.9672 2.68301 17.1017 2.73875 17.2009 2.83795C17.3001 2.93716 17.3559 3.07171 17.3559 3.21201V4.15001C17.3548 4.28971 17.2986 4.42334 17.1996 4.52184C17.1005 4.62035 16.9666 4.67575 16.8269 4.67601V4.67501Z" fill="#797979"/>
<path d="M19.1628 4.67501C19.0932 4.67488 19.0243 4.66104 18.96 4.63429C18.8958 4.60753 18.8374 4.56838 18.7883 4.51907C18.7392 4.46977 18.7003 4.41127 18.6738 4.34691C18.6472 4.28256 18.6337 4.21361 18.6338 4.14401V3.21201C18.6338 3.07171 18.6895 2.93716 18.7887 2.83795C18.8879 2.73875 19.0225 2.68301 19.1628 2.68301C19.3031 2.68301 19.4376 2.73875 19.5369 2.83795C19.6361 2.93716 19.6918 3.07171 19.6918 3.21201V4.15001C19.6907 4.28971 19.6346 4.42334 19.5355 4.52184C19.4364 4.62035 19.3025 4.67575 19.1628 4.67601V4.67501Z" fill="#797979"/>
</g>
<defs>
<clipPath id="clip0_583_10681">
<rect width="26.049" height="22.362" fill="white"/>
</clipPath>
</defs>
</svg>
