<svg width="24" height="24" viewBox="0 0 24 24" fill="none" xmlns="http://www.w3.org/2000/svg">
<g clip-path="url(#clip0_583_10629)">
<path d="M18.1404 21.62C17.1171 21.8952 16.0598 22.0232 15.0004 22H9.00035C7.94095 22.0232 6.88365 21.8952 5.86035 21.62C6.08035 19.02 8.75035 16.97 12.0004 16.97C15.2504 16.97 17.9204 19.02 18.1404 21.62Z" stroke="#797979" stroke-width="1.5" stroke-linecap="round" stroke-linejoin="round"/>
<path d="M15 2H9C4 2 2 4 2 9V15C2 18.78 3.14 20.85 5.86 21.62C6.08 19.02 8.75 16.97 12 16.97C15.25 16.97 17.92 19.02 18.14 21.62C20.86 20.85 22 18.78 22 15V9C22 4 20 2 15 2ZM12 14.17C11.291 14.171 10.5975 13.9617 10.0074 13.5686C9.41734 13.1755 8.95706 12.6162 8.68481 11.9615C8.41256 11.3068 8.34056 10.5861 8.47792 9.89051C8.61527 9.19489 8.95582 8.55563 9.45649 8.05356C9.95716 7.55149 10.5955 7.20917 11.2907 7.06987C11.9859 6.93057 12.7069 7.00056 13.3623 7.27098C14.0178 7.54141 14.5783 8.00013 14.973 8.58913C15.3678 9.17813 15.579 9.87095 15.58 10.58C15.5807 11.0508 15.4886 11.5171 15.309 11.9523C15.1295 12.3875 14.8659 12.7831 14.5335 13.1164C14.2011 13.4498 13.8062 13.7144 13.3715 13.8952C12.9368 14.076 12.4708 14.1693 12 14.17Z" stroke="#797979" stroke-width="1.5" stroke-linecap="round" stroke-linejoin="round"/>
<path d="M15.5799 10.58C15.5799 11.2881 15.37 11.9802 14.9766 12.5689C14.5832 13.1577 14.0241 13.6165 13.3699 13.8875C12.7158 14.1585 11.996 14.2293 11.3015 14.0912C10.607 13.9531 9.96915 13.6121 9.46848 13.1114C8.96781 12.6108 8.62685 11.9729 8.48871 11.2784C8.35058 10.584 8.42147 9.86415 8.69243 9.20999C8.9634 8.55583 9.42225 7.99671 10.011 7.60334C10.5997 7.20996 11.2919 7 11.9999 7C12.949 7.00132 13.8588 7.37892 14.5299 8.05002C15.201 8.72111 15.5786 9.63093 15.5799 10.58V10.58Z" stroke="#797979" stroke-width="1.5" stroke-linecap="round" stroke-linejoin="round"/>
</g>
<defs>
<clipPath id="clip0_583_10629">
<rect width="24" height="24" fill="white"/>
</clipPath>
</defs>
</svg>
