<svg width="24" height="24" viewBox="0 0 24 24" fill="none" xmlns="http://www.w3.org/2000/svg">
<g clip-path="url(#clip0_583_10685)">
<path d="M8.6724 14.33C8.66469 14.6289 8.71604 14.9264 8.82353 15.2054C8.93101 15.4844 9.09249 15.7394 9.29873 15.9559C9.50497 16.1723 9.75191 16.3459 10.0254 16.4668C10.2989 16.5876 10.5935 16.6533 10.8924 16.66H13.4024C13.9286 16.6474 14.4284 16.4267 14.7921 16.0461C15.1558 15.6655 15.3537 15.1563 15.3424 14.63C15.3991 14.2022 15.2957 13.7685 15.052 13.4122C14.8084 13.056 14.4417 12.8023 14.0224 12.7L9.9924 11.3C9.5731 11.1977 9.20641 10.9441 8.96276 10.5878C8.71911 10.2316 8.6157 9.79788 8.6724 9.37003C8.66112 8.84376 8.85903 8.3345 9.22271 7.95395C9.58639 7.5734 10.0862 7.35262 10.6124 7.34003H13.1224C13.4213 7.34677 13.7159 7.41244 13.9894 7.53328C14.2629 7.65412 14.5098 7.82774 14.7161 8.0442C14.9223 8.26066 15.0838 8.5157 15.1913 8.79469C15.2987 9.07368 15.3501 9.37115 15.3424 9.67003" stroke="#797979" stroke-width="1.5" stroke-linecap="round" stroke-linejoin="round"/>
<path d="M12 6V18" stroke="#797979" stroke-width="1.5" stroke-linecap="round" stroke-linejoin="round"/>
<path d="M15 22H9C4 22 2 20 2 15V9C2 4 4 2 9 2H15C20 2 22 4 22 9V15C22 20 20 22 15 22Z" stroke="#797979" stroke-width="1.5" stroke-linecap="round" stroke-linejoin="round"/>
</g>
<defs>
<clipPath id="clip0_583_10685">
<rect width="24" height="24" fill="white"/>
</clipPath>
</defs>
</svg>
