<svg width="22" height="22" viewBox="0 0 22 22" fill="none" xmlns="http://www.w3.org/2000/svg">
<path d="M14 21H8C3 21 1 19 1 14V8C1 3 3 1 8 1H14C19 1 21 3 21 8V14C21 19 19 21 14 21Z" stroke="#797979" stroke-width="1.5" stroke-linecap="round" stroke-linejoin="round"/>
<path d="M15.3334 11.4333V13.9C15.3334 15.98 13.3934 17.6667 11.0001 17.6667C8.60675 17.6667 6.66675 15.98 6.66675 13.9V11.4333C6.66675 13.5133 8.60675 15 11.0001 15C13.3934 15 15.3334 13.5133 15.3334 11.4333Z" stroke="#797979" stroke-width="1.5" stroke-linecap="round" stroke-linejoin="round"/>
<path d="M15.3334 8.09992C15.3334 8.70659 15.1667 9.26658 14.8734 9.74658C14.1601 10.9199 12.6934 11.6666 11.0001 11.6666C9.30675 11.6666 7.84008 10.9199 7.12675 9.74658C6.83342 9.26658 6.66675 8.70659 6.66675 8.09992C6.66675 7.05992 7.15341 6.11992 7.93341 5.43992C8.72008 4.75325 9.80008 4.33325 11.0001 4.33325C12.2001 4.33325 13.2801 4.75325 14.0668 5.43325C14.8468 6.11992 15.3334 7.05992 15.3334 8.09992Z" stroke="#797979" stroke-width="1.5" stroke-linecap="round" stroke-linejoin="round"/>
<path d="M15.3334 8.09992V11.4333C15.3334 13.5133 13.3934 14.9999 11.0001 14.9999C8.60675 14.9999 6.66675 13.5133 6.66675 11.4333V8.09992C6.66675 6.01992 8.60675 4.33325 11.0001 4.33325C12.2001 4.33325 13.2801 4.75325 14.0668 5.43325C14.8468 6.11992 15.3334 7.05992 15.3334 8.09992Z" stroke="#797979" stroke-width="1.5" stroke-linecap="round" stroke-linejoin="round"/>
</svg>
