<svg width="24" height="24" viewBox="0 0 24 24" fill="none" xmlns="http://www.w3.org/2000/svg">
<path d="M13.0002 22H5.00022C4.59272 22.0581 4.17727 22.0206 3.78678 21.8904C3.39628 21.7602 3.04145 21.5409 2.75039 21.2498C2.45932 20.9588 2.24 20.6039 2.1098 20.2135C1.9796 19.823 1.94208 19.4075 2.00022 19V11C1.94208 10.5925 1.9796 10.1771 2.1098 9.78656C2.24 9.39607 2.45932 9.04124 2.75039 8.75017C3.04145 8.45911 3.39628 8.23979 3.78678 8.10959C4.17727 7.97938 4.59272 7.94187 5.00022 8.00001H10.0002V19C9.94208 19.4075 9.97959 19.823 10.1098 20.2135C10.24 20.6039 10.4593 20.9588 10.7504 21.2498C11.0415 21.5409 11.3963 21.7602 11.7868 21.8904C12.1773 22.0206 12.5927 22.0581 13.0002 22V22Z" stroke="#797979" stroke-width="1.5" stroke-linecap="round" stroke-linejoin="round"/>
<path d="M10.11 4C10.0301 4.32715 9.9931 4.6633 10 5V8H5V6C5.00158 5.47005 5.2128 4.96227 5.58753 4.58753C5.96227 4.2128 6.47005 4.00158 7 4H10.11Z" stroke="#797979" stroke-width="1.5" stroke-linecap="round" stroke-linejoin="round"/>
<path d="M14 8V13" stroke="#797979" stroke-width="1.5" stroke-linecap="round" stroke-linejoin="round"/>
<path d="M18 8V13" stroke="#797979" stroke-width="1.5" stroke-linecap="round" stroke-linejoin="round"/>
<path d="M17 17H15C14.7348 17 14.4804 17.1054 14.2929 17.2929C14.1054 17.4804 14 17.7348 14 18V22H18V18C18 17.7348 17.8946 17.4804 17.7071 17.2929C17.5196 17.1054 17.2652 17 17 17V17Z" stroke="#797979" stroke-width="1.5" stroke-linecap="round" stroke-linejoin="round"/>
<path d="M6 13V17" stroke="#797979" stroke-width="1.5" stroke-linecap="round" stroke-linejoin="round"/>
<path d="M10.0002 19V5.00001C9.94208 4.5925 9.9796 4.17706 10.1098 3.78656C10.24 3.39607 10.4593 3.04124 10.7504 2.75017C11.0415 2.45911 11.3963 2.23979 11.7868 2.10959C12.1773 1.97938 12.5927 1.94187 13.0002 2.00001H19.0002C19.4077 1.94187 19.8232 1.97938 20.2137 2.10959C20.6042 2.23979 20.959 2.45911 21.2501 2.75017C21.5411 3.04124 21.7604 3.39607 21.8906 3.78656C22.0208 4.17706 22.0584 4.5925 22.0002 5.00001V19C22.0584 19.4075 22.0208 19.823 21.8906 20.2135C21.7604 20.6039 21.5411 20.9588 21.2501 21.2498C20.959 21.5409 20.6042 21.7602 20.2137 21.8904C19.8232 22.0206 19.4077 22.0581 19.0002 22H13.0002C12.5927 22.0581 12.1773 22.0206 11.7868 21.8904C11.3963 21.7602 11.0415 21.5409 10.7504 21.2498C10.4593 20.9588 10.24 20.6039 10.1098 20.2135C9.9796 19.823 9.94208 19.4075 10.0002 19V19Z" stroke="#797979" stroke-width="1.5" stroke-linecap="round" stroke-linejoin="round"/>
</svg>
