<svg width="457" height="334" viewBox="0 0 457 334" fill="none" xmlns="http://www.w3.org/2000/svg">
<g opacity="0.7">
<path opacity="0.1" d="M278.012 79.8398C277.524 82.0477 276.413 84.1018 274.83 85.7241C273.246 87.3463 271.267 88.4584 269.159 88.9097C262.291 90.4583 249.401 91.8274 239.853 83.7802C226.258 72.3331 250.495 58.0044 268.522 66.0571C277.564 70.1056 278.896 75.5026 278.012 79.8398Z" fill="#32324C"/>
<path opacity="0.1" d="M225.18 79.6969C224.319 80.5037 223.265 81.0326 222.16 81.2119C221.055 81.3912 219.953 81.2122 219.003 80.6992C215.885 79.0616 210.502 75.3195 209.284 68.5903C207.535 58.9783 221.24 60.8437 225.729 70.4548C227.971 75.2651 226.858 78.0865 225.18 79.6969Z" fill="#32324C"/>
<path opacity="0.1" d="M231.332 92.88C231.332 92.88 253.504 114.104 291.724 91.0324C329.943 67.961 381.161 70.729 395.677 127.937C410.193 185.145 412.874 274.851 342.928 277.451C279.705 279.802 259.221 292.339 235.504 312.642C211.787 332.946 124.574 340.632 80.8357 273.756C45.8012 220.216 37.5529 163.572 72.1588 106.162C115.292 34.6641 177.058 43.042 231.332 92.88Z" fill="#C4A747"/>
<path opacity="0.07" d="M282 306C346.617 306 399 301.971 399 297C399 292.029 346.617 288 282 288C217.383 288 165 292.029 165 297C165 301.971 217.383 306 282 306Z" fill="black"/>
<g clip-path="url(#clip0_1439_13651)">
<path opacity="0.1" d="M111.202 302.15C135.983 302.15 156.071 299.251 156.071 295.675C156.071 292.099 135.983 289.2 111.202 289.2C86.4223 289.2 66.334 292.099 66.334 295.675C66.334 299.251 86.4223 302.15 111.202 302.15Z" fill="black"/>
</g>
</g>
<g clip-path="url(#clip1_1439_13651)">
<path d="M122.908 276.297L125.156 289.899H130.406L128.648 275.105L122.908 276.297Z" fill="#33343D"/>
<path d="M131.998 283.456C131.998 283.456 134.987 287.373 139.531 288.744C144.075 290.116 148.183 291.873 147.848 294.622C147.848 294.622 141.086 297.955 130.114 294.249V295.416L122.939 295.097V285.471L128.918 285.893L128.47 284.942L131.998 283.456Z" fill="#705543"/>
<path d="M134.885 294.382C144.721 296.926 147.214 294.105 147.794 293.906C147.856 294.139 147.875 294.382 147.848 294.622C147.848 294.622 141.086 297.955 130.114 294.249V295.416L122.939 295.098V293.178C125.481 293.335 127.633 292.511 134.885 294.382Z" fill="#543D31"/>
<path d="M97.7965 276.297L95.5484 289.899H90.2988L92.0566 275.105L97.7965 276.297Z" fill="#33343D"/>
<path d="M88.7096 283.456C88.7096 283.456 85.7201 287.373 81.1701 288.744C76.6201 290.116 72.0223 291.873 72.3571 294.598C72.3571 294.598 79.6215 297.931 90.593 294.225V295.392L97.7677 295.073V285.447L91.7888 285.869L92.2312 284.918L88.7096 283.456Z" fill="#705543"/>
<path d="M84.3156 294.887C77.4158 295.976 72.9555 294.105 72.4055 293.906C72.348 294.132 72.3318 294.367 72.3576 294.598C72.3576 294.598 79.6221 297.931 90.5935 294.225V295.392L97.7683 295.073V292.667C95.2272 292.829 90.9522 293.834 84.3156 294.887Z" fill="#543D31"/>
<path d="M122.049 163.03L127.693 233.293L132.572 281.423C132.572 281.423 129.917 285.099 119.956 283.426L114.725 232.992L108.303 191.541H103.191L99.7712 283.402C99.7712 283.402 95.4544 286.777 87.4844 283.769L89.0987 165.484L122.049 163.03Z" fill="#DDCEA6"/>
<path d="M107.453 102.663L107.005 121.319L95.8301 116.29L96.1828 97.0801L107.453 102.663Z" fill="#DDBCA6"/>
<path d="M125.449 116.519C125.449 116.519 124.373 149.897 122.226 166.844C122.226 166.844 114.005 170.544 100.923 170.009C91.6739 169.63 89.0132 167.638 89.0132 167.638L75.7578 112.723C75.7578 112.723 82.4244 109.468 96.5108 109.486C96.5108 109.486 96.5108 109.035 99.6737 110.737C102.125 112.043 102.962 120.965 102.962 120.965C102.962 120.965 103.44 112.001 104.822 111.267C105.891 110.59 107.081 110.128 108.325 109.907C113.635 110.274 119.153 111.898 125.341 112.915L125.449 116.519Z" fill="white"/>
<path d="M112.134 109.534L108.703 117.156L104.828 111.266L110.927 107.175L112.134 109.534Z" fill="#EFEFED"/>
<path d="M92.207 109.329L96.8168 116.814L100.057 110.749L93.3191 106.357L92.207 109.329Z" fill="#EFEFED"/>
<path d="M98.1448 56.2003C87.5261 58.6369 87.8072 65.9827 87.8072 65.9827C87.8072 65.9827 88.142 71.6499 88.3512 78.4001C87.8846 77.7136 87.1911 77.2159 86.3941 76.9956C85.5971 76.7753 84.7482 76.8466 83.9985 77.1969C80.4112 78.7551 83.0539 90.2099 88.5485 89.2293C88.7877 92.4299 89.0986 94.9206 89.5052 95.7869C91.0478 99.0417 97.8339 104.011 103.855 104.811C109.876 105.611 117.427 101.55 117.427 94.4152C117.427 87.28 117.523 60.8388 117.523 60.8388C117.523 60.8388 115.723 52.1454 98.1448 56.2003Z" fill="#F7CEB2"/>
<path d="M101.499 77.8465C101.499 79.4047 100.812 80.6681 99.9625 80.6681C99.1135 80.6681 98.4199 79.4047 98.4199 77.8465C98.4199 76.2883 99.1075 75.0068 99.9625 75.0068C100.817 75.0068 101.499 76.2943 101.499 77.8465Z" fill="#222228"/>
<path d="M114.454 78.466C114.454 80.0242 113.761 81.2876 112.912 81.2876C112.063 81.2876 111.375 80.0242 111.375 78.466C111.375 76.9078 112.063 75.6504 112.912 75.6504C113.761 75.6504 114.454 76.9138 114.454 78.466Z" fill="#222228"/>
<path d="M104.004 71.3971C104.004 71.3971 103.299 71.4453 102.42 71.3971C101.977 71.3971 101.493 71.3971 101.003 71.3971H100.632C100.513 71.3971 100.387 71.3971 100.267 71.3971C100.022 71.3971 99.789 71.3971 99.5559 71.3971C99.3227 71.3971 99.0955 71.3971 98.8802 71.4633C98.665 71.5295 98.4438 71.5115 98.2465 71.5776C98.1443 71.606 98.0404 71.6281 97.9356 71.6438C97.8339 71.6438 97.7442 71.716 97.6426 71.7461C97.436 71.7961 97.2355 71.8687 97.0447 71.9627C96.8653 72.0529 96.668 72.1131 96.5066 72.1973C96.3452 72.2815 96.2076 72.3658 96.0821 72.4319C95.831 72.5643 95.6576 72.6365 95.6576 72.6365C95.6428 72.4804 95.6428 72.3233 95.6576 72.1672C95.6576 72.0168 95.7054 71.8303 95.7532 71.6197C95.8301 71.3943 95.9282 71.1767 96.0462 70.97C96.1069 70.8426 96.1768 70.72 96.2555 70.603L96.5544 70.2661C96.666 70.1438 96.7838 70.0274 96.9072 69.9172C97.0387 69.8209 97.1822 69.7307 97.3317 69.6344C97.6341 69.4405 97.9622 69.2906 98.3063 69.1892C98.6564 69.0921 99.0146 69.0276 99.3765 68.9967C99.7266 68.985 100.077 69.0071 100.423 69.0629C100.748 69.1067 101.067 69.1874 101.373 69.3035C101.91 69.4953 102.412 69.7715 102.862 70.1217C103.18 70.3722 103.463 70.6634 103.705 70.988C103.82 71.1125 103.92 71.2498 104.004 71.3971Z" fill="#84653C"/>
<path d="M110.33 71.3972L110.366 71.2889C110.396 71.1909 110.436 71.0962 110.486 71.0061C110.639 70.688 110.841 70.3957 111.083 70.1398C111.436 69.7808 111.857 69.4965 112.321 69.3035C112.593 69.1854 112.878 69.1005 113.17 69.0508C113.49 68.9995 113.816 68.9873 114.139 69.0147C114.478 69.0481 114.809 69.1376 115.119 69.2795C115.427 69.3966 115.709 69.5723 115.95 69.7969C116.186 69.9834 116.388 70.2092 116.548 70.4647C116.69 70.6724 116.797 70.902 116.865 71.1445C116.94 71.3369 116.984 71.5399 116.997 71.7461C117.008 71.9043 117.008 72.0632 116.997 72.2214C116.993 72.3242 116.983 72.4267 116.967 72.5282V72.6365L116.865 72.5884C116.799 72.5523 116.698 72.5102 116.59 72.444C116.482 72.3778 116.351 72.3116 116.225 72.2274C116.08 72.1407 115.931 72.0624 115.777 71.9928C115.628 71.9034 115.472 71.8269 115.311 71.7642C115.158 71.6948 115 71.6385 114.838 71.5957C114.761 71.5957 114.689 71.5476 114.617 71.5235C114.545 71.4994 114.456 71.5235 114.384 71.4814C114.312 71.4393 114.079 71.4393 113.923 71.4092C113.768 71.3791 113.595 71.4092 113.415 71.3731C113.236 71.337 113.051 71.3731 112.853 71.3731C112.471 71.3731 112.07 71.3731 111.699 71.3731C111.52 71.3731 111.335 71.3731 111.179 71.3731C111.024 71.3731 110.868 71.3731 110.743 71.3731L110.33 71.3972Z" fill="#84653C"/>
<path opacity="0.4" d="M84.4874 79.1699C86.3708 78.2073 88.0389 81.2635 88.1166 84.5183C86.5741 84.2897 86.3229 86.0945 87.172 87.376C84.1107 88.0257 82.5203 80.1866 84.4874 79.1699Z" fill="#B57662"/>
<path d="M147.507 175.405C146.03 173.51 144.213 173.113 141.821 172.818C139.776 166.02 134.317 147.55 134.317 147.55L126.461 153.133C126.461 153.133 131.938 167.897 135.812 175.61L135.704 175.712C134.879 177.818 135.979 180.122 136.53 181.602C137.08 183.082 137.163 183.84 137.666 185.422C138.09 186.77 138.814 188.99 139.627 188.4C140.44 187.811 138.909 183.527 139.31 183.311C139.824 183.028 143.256 192.233 144.511 190.169C144.924 189.495 142.168 184.231 142.245 183.178C142.323 182.125 146.742 190.674 148.189 189.489C149.067 188.773 143.967 181.343 144.924 182.035C146.156 182.92 149.348 186.95 150.156 187.161C150.963 187.372 151.949 187.72 149.378 183.768C147.489 180.868 145.713 178.913 145.905 178.089C146.138 177.066 147.519 178.528 147.519 178.528C151.238 181.211 151.662 179.129 151.86 178.456C152.057 177.782 149.055 177.391 147.507 175.405Z" fill="#F7CEB2"/>
<path d="M108.093 74.8804C108.303 75.3135 108.458 75.7648 108.632 76.216C108.805 76.6672 108.93 77.1244 109.062 77.5877C109.194 78.0509 109.319 78.5081 109.439 78.9714L109.762 80.3732C109.959 81.3057 110.12 82.2502 110.282 83.1948C110.443 84.1393 110.551 85.0899 110.652 86.0404V86.2029L110.527 86.263C109.929 86.5277 109.373 86.8045 108.793 87.0632C108.213 87.3219 107.633 87.5806 107.035 87.8212C107.573 87.4723 108.123 87.1594 108.673 86.8286C109.223 86.4977 109.78 86.1969 110.33 85.878L110.216 86.1006C110.019 85.1681 109.857 84.2296 109.702 83.291L109.427 81.8893C109.343 81.42 109.271 80.9507 109.176 80.4815L108.661 77.6779C108.578 77.2086 108.458 76.7514 108.38 76.2761C108.303 75.8009 108.231 75.3496 108.093 74.8804Z" fill="#D39484"/>
<path d="M143.124 170.099L133.641 142.003L125.342 112.909C121.199 111.922 112.541 112.813 118.084 128.485L125.043 150.294L133.157 174.894L143.124 170.099Z" fill="white"/>
<path d="M61.7618 165.003C61.7618 165.003 55.4958 182.594 57.146 184.201C57.2413 184.608 57.47 184.972 57.7953 185.232C58.1206 185.493 58.5237 185.636 58.9397 185.639C58.9397 185.639 59.1788 187.299 61.0802 186.878C61.1617 187.529 61.402 188.149 61.7797 188.683C62.6227 189.621 64.5539 188.978 64.5719 184.724C64.9176 185.542 65.5585 186.198 66.3656 186.559C68.1593 187.257 67.2983 184.7 67.2983 184.7C67.2983 184.7 67.2146 182.294 66.8618 179.021C66.5091 175.748 65.4687 175.068 65.4687 175.068L72.3565 152.447L61.7618 165.003Z" fill="#F7CEB2"/>
<path d="M59.1191 170.4L67.406 142.003L75.7048 112.909C79.8483 111.922 88.5058 112.813 82.9573 128.485L76.0038 150.312L67.4897 173.805L59.1191 170.4Z" fill="white"/>
<path d="M99.7754 92.189L100.319 92.3815C100.66 92.5078 101.163 92.6582 101.754 92.8447C102.346 93.0312 103.046 93.2177 103.805 93.3922C104.176 93.5005 104.577 93.5546 105.001 93.6449C105.426 93.7351 105.802 93.7893 106.197 93.8434C106.591 93.8976 107.01 93.9698 107.393 93.9818C107.775 93.9938 108.194 94.054 108.588 94.042C108.983 94.0299 109.348 94.042 109.7 94.042C110.053 94.042 110.388 94.042 110.693 93.9637L111.53 93.8555C111.781 93.8133 111.99 93.7532 112.17 93.7171L112.768 93.6028L112.236 93.8254C112.062 93.8916 111.853 93.9818 111.638 94.066L110.801 94.2886C110.469 94.3717 110.131 94.43 109.79 94.4631C109.412 94.5203 109.031 94.5525 108.648 94.5594C108.25 94.5822 107.851 94.5822 107.452 94.5594C107.034 94.5594 106.615 94.4811 106.191 94.439C104.657 94.2141 103.158 93.7915 101.731 93.1816C101.054 92.9019 100.401 92.5701 99.7754 92.189Z" fill="#D39484"/>
<path d="M117.714 62.8058C119.914 62.517 123.992 58.0951 122.396 53.4807C122.396 53.4807 122.001 55.9895 118.509 55.9895C118.509 55.9895 120.506 55.1893 120.901 53.9861C120.901 53.9861 118.414 55.4901 112.53 51.8804C112.004 51.5555 111.406 51.2126 110.737 50.8757C109.871 50.3713 108.957 49.9542 108.01 49.6303C101.32 46.9652 91.7474 46.1289 88.441 58.7629C88.362 58.9947 88.3 59.2319 88.2556 59.4728C88.2556 59.4728 83.5801 58.9615 83.5801 66.9329C83.5801 69.941 84.6981 73.0695 86.151 76.9018C87.574 77.1063 88.4649 79.0676 88.4649 79.0676L89.1286 84.2235C89.1286 85.6253 89.0449 87.9836 88.5307 89.235C87.8012 91.1 86.8028 99.8235 98.1628 104.239C109.523 108.655 119.986 104.035 117.397 89.1989C117.397 89.1989 117.624 93.1997 115.831 92.6943C114.037 92.189 115.717 87.021 107.143 87.9836C104.435 87.6407 100.764 85.4267 97.7682 90.6007C95.4364 94.6315 91.1315 91.8521 90.7967 81.6245V79.0014C90.7967 78.851 90.7967 78.7006 90.7967 78.5502V71.6196C90.7967 71.6196 93.9835 68.8641 94.3841 64.9596C115.245 73.0334 121.624 62.8058 121.624 62.8058C120.34 63.1235 118.998 63.1235 117.714 62.8058ZM99.8608 91.3828C102.403 92.218 105.166 92.0524 107.592 90.9195C110.187 92.959 113.612 92.7906 113.612 92.7906C114.109 93.3922 115.502 97.9044 110.719 99.7092C105.935 101.514 107.131 96.1958 107.131 96.1958L105.242 95.8949C105.242 95.8949 105.977 100.016 101.75 99.6069C95.5919 99.0053 99.8608 91.3828 99.8608 91.3828Z" fill="#84653C"/>
<path d="M117.756 169.936C119.256 169.61 120.698 169.054 122.031 168.288C122.868 167.969 122.754 168.89 122.85 169.87C122.97 171.164 122.778 171.85 122.025 172.12C121.887 172.168 121.224 172.957 118.378 173.739C118.168 172.469 117.959 171.206 117.756 169.936Z" fill="#705543"/>
<path d="M97.2717 171.025C100.735 171.353 104.217 171.448 107.693 171.308C110.283 171.232 112.862 170.945 115.406 170.448C115.364 171.767 115.454 173.087 115.675 174.388C113.072 174.93 110.427 175.24 107.771 175.315C106.539 175.351 105.343 175.357 104.183 175.315C101.739 175.281 99.2978 175.114 96.8711 174.816C97.117 173.567 97.2511 172.298 97.2717 171.025Z" fill="#705543"/>
<path d="M87.9551 170.719C88.1166 169.75 88.2242 168.914 89.0553 169.208C91.0411 169.94 93.0969 170.462 95.1897 170.767C95.112 172.024 94.9446 173.275 94.7772 174.527C92.5741 174.161 90.417 173.556 88.3438 172.722C87.7638 172.469 87.7877 171.699 87.9551 170.719Z" fill="#705543"/>
<path d="M102.49 170.754L102.395 175.886L109.791 175.441L109.874 170.676L102.49 170.754ZM103.728 171.609L108.607 171.561L108.553 174.707L103.668 175.002L103.728 171.609Z" fill="#ADADAD"/>
<path d="M58.2227 171.098L59.7174 165.082L70.085 169.792L67.8907 174.906L58.2227 171.098Z" fill="#EFEFED"/>
<path d="M130.771 170.496L142.132 166.285L143.925 170.093L132.165 175.309L130.771 170.496Z" fill="#EFEFED"/>
</g>
<defs>
<clipPath id="clip0_1439_13651">
<rect width="142" height="14" fill="white" transform="translate(43 292)"/>
</clipPath>
<clipPath id="clip1_1439_13651">
<rect width="95" height="248" fill="white" transform="translate(56.8711 48)"/>
</clipPath>
</defs>
</svg>
