<svg width="457" height="334" viewBox="0 0 457 334" fill="none" xmlns="http://www.w3.org/2000/svg">
<g opacity="0.7">
<path opacity="0.1" d="M278.012 79.8398C277.524 82.0477 276.413 84.1018 274.83 85.7241C273.246 87.3463 271.267 88.4584 269.159 88.9097C262.291 90.4583 249.401 91.8274 239.853 83.7802C226.258 72.3331 250.495 58.0044 268.522 66.0571C277.564 70.1056 278.896 75.5026 278.012 79.8398Z" fill="#32324C"/>
<path opacity="0.1" d="M225.18 79.6969C224.319 80.5037 223.265 81.0326 222.16 81.2119C221.055 81.3912 219.953 81.2122 219.003 80.6992C215.885 79.0616 210.502 75.3195 209.284 68.5903C207.535 58.9783 221.24 60.8437 225.729 70.4548C227.971 75.2651 226.858 78.0865 225.18 79.6969Z" fill="#32324C"/>
<path opacity="0.1" d="M231.332 92.88C231.332 92.88 253.504 114.104 291.724 91.0324C329.943 67.961 381.161 70.729 395.677 127.937C410.193 185.145 412.874 274.851 342.928 277.451C279.705 279.802 259.221 292.339 235.504 312.642C211.787 332.946 124.574 340.632 80.8357 273.756C45.8012 220.216 37.5529 163.572 72.1588 106.162C115.292 34.6641 177.058 43.042 231.332 92.88Z" fill="#C4A747"/>
<path opacity="0.07" d="M282 306C346.617 306 399 301.971 399 297C399 292.029 346.617 288 282 288C217.383 288 165 292.029 165 297C165 301.971 217.383 306 282 306Z" fill="black"/>
<g clip-path="url(#clip0_1440_13693)">
<path opacity="0.1" d="M111.202 302.15C135.983 302.15 156.071 299.251 156.071 295.675C156.071 292.099 135.983 289.2 111.202 289.2C86.4223 289.2 66.334 292.099 66.334 295.675C66.334 299.251 86.4223 302.15 111.202 302.15Z" fill="black"/>
</g>
</g>
<g clip-path="url(#clip1_1440_13693)">
<path d="M110.067 93.6728L109.605 113.009L97.9316 107.798L98.2978 87.8843L110.067 93.6728Z" fill="#E8BCA5"/>
<path d="M100.347 45.4967C89.2651 48.0252 89.5606 55.6363 89.5606 55.6363C89.5606 55.6363 89.9011 61.5083 90.1259 68.4713C89.6351 67.7629 88.9094 67.2507 88.077 67.0252C87.2447 66.7998 86.3593 66.8755 85.5775 67.2391C81.8064 68.8499 84.5946 80.7158 90.3315 79.7018C90.582 83.0132 90.9033 85.5995 91.3337 86.4915C92.9398 89.8735 100.026 95.0203 106.309 95.8225C112.592 96.6247 120.481 92.479 120.481 85.0797C120.481 77.6803 120.577 50.2713 120.577 50.2713C120.577 50.2713 118.708 41.3382 100.347 45.4967Z" fill="#FFCEB1"/>
<path d="M103.855 67.9448C103.855 69.5556 103.135 70.8648 102.249 70.8648C101.362 70.8648 100.643 69.5813 100.643 67.9448C100.643 66.3084 101.362 65.0249 102.249 65.0249C103.135 65.0249 103.855 66.3276 103.855 67.9448Z" fill="#1C1C24"/>
<path d="M117.384 68.5869C117.384 70.1977 116.664 71.5069 115.778 71.5069C114.891 71.5069 114.172 70.2234 114.172 68.5869C114.172 66.9505 114.891 65.667 115.778 65.667C116.664 65.667 117.384 67.0082 117.384 68.5869Z" fill="#1C1C24"/>
<path d="M106.47 61.2646C103.361 60.4046 100.142 59.8527 97.7715 62.5481C98.8379 58.6976 104.016 58.8259 106.47 61.2646Z" fill="#8E6537"/>
<path d="M113.074 61.2647C114.712 59.1084 118.503 58.6977 119.704 61.5086C119.843 61.8444 119.943 62.1955 120 62.5546C119.723 62.3043 119.524 62.0284 119.28 61.7973C117.629 59.9363 115.175 60.5459 113.074 61.2647Z" fill="#8E6537"/>
<path opacity="0.4" d="M86.0912 69.3118C88.057 68.3171 89.798 71.4809 89.8815 74.8629C88.269 74.6191 87.9992 76.493 88.8922 77.815C85.6993 78.4952 84.0033 70.3707 86.0912 69.3118Z" fill="#C87761"/>
<path d="M110.741 64.8645C112.122 68.6059 112.745 72.5655 113.311 76.5187C112.103 77.1219 110.889 77.7059 109.668 78.2835C110.831 77.6417 111.994 77 113.169 76.3582L113.118 76.4545C112.54 72.5434 111.753 68.6659 110.76 64.8389L110.741 64.8645Z" fill="#E69483"/>
<path d="M120.789 52.3508C123.082 52.0492 127.341 47.4671 125.677 42.6797C125.677 42.6797 125.26 45.2467 121.617 45.2467C121.617 45.2467 123.699 44.4188 124.116 43.1738C124.116 43.1738 121.547 44.7269 115.373 40.9855C114.827 40.6518 114.197 40.2988 113.516 39.9458C112.613 39.4229 111.66 38.9929 110.67 38.6624C103.668 35.8964 93.6651 35.0236 90.2153 48.1025C90.1338 48.3437 90.0694 48.5903 90.0225 48.8405C90.0225 48.8405 85.1465 48.3463 85.1465 56.612C85.1465 59.7373 86.3093 62.9717 87.8254 66.9441C89.3094 67.1559 90.2474 69.1903 90.2474 69.1903L90.9284 74.5296C90.9284 75.9864 90.8384 78.4314 90.3245 79.7342C89.56 81.6594 88.5192 90.708 100.385 95.2837C112.251 99.8594 123.172 95.0719 120.467 79.6892C120.467 79.6892 120.705 83.8349 118.829 83.3151C116.953 82.7953 118.713 77.4303 109.758 78.4314C106.931 78.0785 103.102 75.781 99.9674 81.146C97.5133 85.343 93.0163 82.4295 92.6693 71.8407V69.1389C92.6693 68.9785 92.6693 68.8309 92.6693 68.6704V61.4893C92.6693 61.4893 95.9971 58.6271 96.389 54.5841C118.18 62.9268 124.836 52.3508 124.836 52.3508C123.506 52.6721 122.118 52.6721 120.789 52.3508ZM102.158 81.9739C104.814 82.8421 107.7 82.6701 110.233 81.4926C112.069 82.7913 114.274 83.4662 116.523 83.4178C117.043 84.0595 118.495 88.7186 113.503 90.5925C108.512 92.4664 109.758 86.9538 109.758 86.9538L107.779 86.6394C107.779 86.6394 108.544 90.9134 104.137 90.4898C97.6867 89.8738 102.158 81.9739 102.158 81.9739Z" fill="#8E6537"/>
<path d="M102.057 82.5C102.057 82.5 109.04 92.0749 115.599 84.7397L102.057 82.5Z" fill="white"/>
<path d="M128.864 108.01C128.864 108.01 127.739 142.613 125.497 160.177C125.497 160.177 116.921 164.028 103.25 163.456C93.6136 163.065 90.819 161.005 90.819 161.005L76.9746 104.095C76.9746 104.095 83.9321 100.726 98.6438 100.739C98.6438 100.739 98.6438 100.27 101.952 102.022C104.522 103.376 105.383 112.624 105.383 112.624C105.383 112.624 105.884 103.331 107.31 102.568C108.424 101.866 109.663 101.386 110.959 101.156C116.51 101.541 122.272 103.228 128.735 104.287L128.864 108.01Z" fill="#FFD7D7"/>
<path d="M114.956 100.79L111.378 108.696L107.324 102.587L113.697 98.3511L114.956 100.79Z" fill="#EFBABA"/>
<path d="M94.1484 100.584L98.9602 108.337L102.346 102.054L95.3048 97.4976L94.1484 100.584Z" fill="#EFBABA"/>
<path d="M171.875 84.6948C171.875 84.6948 172.427 69.7998 173.667 69.7998C174.907 69.7998 175.325 73.246 175.184 75.7295C175.042 78.2131 184.711 71.4555 183.195 77.1093C183.195 77.1093 186.092 77.52 183.888 80.8314C183.888 80.8314 186.644 82.9043 183.471 84.4188C183.471 84.4188 186.233 85.7986 182.09 87.4543C179.824 88.3081 177.687 89.4676 175.736 90.9005L171.875 84.6948Z" fill="#FFCEB1"/>
<path d="M59.8105 147.188C59.8105 147.188 70.2629 168.725 85.0966 173.91L85.739 166.812C85.739 166.812 77.7022 160.061 70.7897 147.945C63.8771 135.829 59.8105 147.188 59.8105 147.188Z" fill="#FFCEB1"/>
<path d="M82.0625 172.511C82.0625 172.511 90.2214 179.468 88.2363 165.048C88.2363 165.048 98.9713 162.814 89.3412 161.999C89.3412 161.999 99.9092 157.822 88.596 159.869C88.596 159.869 96.999 150.326 84.5873 159.741C84.5873 159.741 82.101 161.897 82.66 168.237L82.0625 172.511Z" fill="#FFCEB1"/>
<path d="M76.9753 104.095L56 147.169C56 147.169 67.6794 165.221 76.3008 169.822L81.7871 161.634C81.7871 161.634 72.0736 149.152 69.8701 144.056L82.8793 124.765L76.9753 104.095Z" fill="#FFD7D7"/>
<path d="M123.352 120.126L152.229 124.233C152.229 124.233 169.157 103.113 178.273 91.5038L170.879 85.0479C170.879 85.0479 150.584 105.994 146.106 109.242L127.682 104.076L123.352 120.126Z" fill="#FFD7D7"/>
<path d="M71.3984 167.762L79.7115 158.245L82.8915 161.884L75.0731 171.439L71.3984 167.762Z" fill="#EFBABA"/>
<path d="M176.045 95.2256L167.424 86.915L170.957 83.3726L179.662 90.2842L176.045 95.2256Z" fill="#EFBABA"/>
<path opacity="0.1" d="M162.47 299.751C162.47 302.651 139.677 305 112.36 305C85.0442 305 63.5742 302.651 63.5742 299.751C63.5742 296.85 85.0507 294.495 112.36 294.495C139.67 294.495 162.47 296.85 162.47 299.751Z" fill="#1C1918"/>
<path d="M126.609 279.157L129.025 293.667H134.665L132.783 277.886L126.609 279.157Z" fill="#33343D"/>
<path d="M136.381 286.793C136.381 286.793 139.593 290.971 144.476 292.434C149.358 293.898 153.772 295.771 153.412 298.704C153.412 298.704 146.146 302.26 134.358 298.306V299.551L126.648 299.211V288.943L133.073 289.393L132.591 288.379L136.381 286.793Z" fill="#705543"/>
<path d="M139.484 298.448C150.052 301.162 152.731 298.152 153.354 297.941C153.421 298.189 153.441 298.448 153.412 298.704C153.412 298.704 146.146 302.26 134.358 298.306V299.551L126.648 299.211V297.164C129.379 297.331 131.692 296.452 139.484 298.448Z" fill="#543D31"/>
<path d="M99.6348 279.157L97.2128 293.667H91.5723L93.461 277.886L99.6348 279.157Z" fill="#33343D"/>
<path d="M89.8683 286.793C89.8683 286.793 86.6561 290.971 81.7672 292.434C76.8784 293.898 71.9381 295.771 72.2978 298.679C72.2978 298.679 80.1034 302.234 91.8919 298.281V299.526L99.6011 299.186V288.918L93.1768 289.367L93.6522 288.353L89.8683 286.793Z" fill="#705543"/>
<path d="M85.1466 298.987C77.7329 300.148 72.9404 298.152 72.3494 297.941C72.2876 298.182 72.2702 298.432 72.298 298.679C72.298 298.679 80.1035 302.234 91.8921 298.281V299.526L99.6012 299.186V296.619C96.8709 296.792 92.2775 297.864 85.1466 298.987Z" fill="#543D31"/>
<path d="M125.692 158.335L131.756 233.285L136.998 284.624C136.998 284.624 134.146 288.545 123.443 286.761L117.822 232.964L110.922 188.747H105.429L101.755 286.736C101.755 286.736 97.1163 290.336 88.5527 287.127L90.2873 160.953L125.692 158.335Z" fill="#DDCEA6"/>
<path d="M121.078 165.702C122.69 165.355 124.24 164.762 125.672 163.944C126.571 163.604 126.449 164.586 126.552 165.632C126.68 167.012 126.475 167.743 125.665 168.032C125.517 168.083 124.804 168.924 121.746 169.758C121.521 168.404 121.297 167.057 121.078 165.702Z" fill="#705543"/>
<path d="M99.0691 166.864C102.791 167.214 106.532 167.315 110.267 167.166C113.049 167.085 115.821 166.778 118.554 166.248C118.509 167.655 118.606 169.064 118.843 170.451C116.047 171.029 113.205 171.36 110.35 171.44C109.027 171.478 107.742 171.485 106.496 171.44C103.869 171.403 101.246 171.225 98.6387 170.907C98.9029 169.575 99.047 168.222 99.0691 166.864Z" fill="#705543"/>
<path d="M89.0586 166.537C89.232 165.503 89.3477 164.611 90.2406 164.926C92.3743 165.706 94.5833 166.263 96.832 166.588C96.7485 167.929 96.5686 169.264 96.3887 170.599C94.0216 170.209 91.7038 169.563 89.4761 168.674C88.853 168.404 88.8787 167.583 89.0586 166.537Z" fill="#705543"/>
<path d="M104.677 166.575L104.574 172.049L112.521 171.574L112.611 166.492L104.677 166.575ZM106.007 167.486L111.249 167.435L111.191 170.791L105.943 171.106L106.007 167.486Z" fill="#ADADAD"/>
</g>
<defs>
<clipPath id="clip0_1440_13693">
<rect width="142" height="14" fill="white" transform="translate(43 292)"/>
</clipPath>
<clipPath id="clip1_1440_13693">
<rect width="129" height="268" fill="white" transform="translate(56 37)"/>
</clipPath>
</defs>
</svg>
