<svg width="457" height="334" viewBox="0 0 457 334" fill="none" xmlns="http://www.w3.org/2000/svg">
<g opacity="0.7">
<path opacity="0.1" d="M278.012 79.8398C277.524 82.0477 276.413 84.1018 274.83 85.7241C273.246 87.3463 271.267 88.4584 269.159 88.9097C262.291 90.4583 249.401 91.8274 239.853 83.7802C226.258 72.3331 250.495 58.0044 268.522 66.0571C277.564 70.1056 278.896 75.5026 278.012 79.8398Z" fill="#32324C"/>
<path opacity="0.1" d="M225.18 79.6969C224.319 80.5037 223.265 81.0326 222.16 81.2119C221.055 81.3912 219.953 81.2122 219.003 80.6992C215.885 79.0616 210.502 75.3195 209.284 68.5903C207.535 58.9783 221.24 60.8437 225.729 70.4548C227.971 75.2651 226.858 78.0865 225.18 79.6969Z" fill="#32324C"/>
<path opacity="0.1" d="M231.332 92.88C231.332 92.88 253.504 114.104 291.724 91.0324C329.943 67.961 381.161 70.729 395.677 127.937C410.193 185.145 412.874 274.851 342.928 277.451C279.705 279.802 259.221 292.339 235.504 312.642C211.787 332.946 124.574 340.632 80.8357 273.756C45.8012 220.216 37.5529 163.572 72.1588 106.162C115.292 34.6641 177.058 43.042 231.332 92.88Z" fill="#C4A747"/>
<path opacity="0.07" d="M161 306C225.617 306 278 301.971 278 297C278 292.029 225.617 288 161 288C96.3827 288 44 292.029 44 297C44 301.971 96.3827 306 161 306Z" fill="black"/>
</g>
<g clip-path="url(#clip0_1443_13599)">
<path opacity="0.1" d="M344.202 302.15C368.983 302.15 389.071 299.251 389.071 295.675C389.071 292.099 368.983 289.2 344.202 289.2C319.422 289.2 299.334 292.099 299.334 295.675C299.334 299.251 319.422 302.15 344.202 302.15Z" fill="black"/>
</g>
<g clip-path="url(#clip1_1443_13599)">
<path d="M330.834 276.297L328.586 289.899H323.336L325.094 275.105L330.834 276.297Z" fill="#33343D"/>
<path d="M321.745 283.456C321.745 283.456 318.755 287.373 314.211 288.744C309.667 290.116 305.559 291.873 305.894 294.622C305.894 294.622 312.657 297.955 323.628 294.249V295.416L330.803 295.097V285.471L324.824 285.893L325.272 284.942L321.745 283.456Z" fill="#705543"/>
<path d="M318.857 294.382C309.021 296.926 306.528 294.105 305.948 293.906C305.886 294.139 305.867 294.382 305.894 294.622C305.894 294.622 312.657 297.955 323.628 294.249V295.416L330.803 295.098V293.178C328.262 293.335 326.109 292.511 318.857 294.382Z" fill="#543D31"/>
<path d="M355.946 276.297L358.194 289.899H363.443L361.686 275.105L355.946 276.297Z" fill="#33343D"/>
<path d="M365.033 283.456C365.033 283.456 368.022 287.373 372.572 288.744C377.122 290.116 381.72 291.873 381.385 294.598C381.385 294.598 374.121 297.931 363.149 294.225V295.392L355.974 295.073V285.447L361.953 285.869L361.511 284.918L365.033 283.456Z" fill="#705543"/>
<path d="M369.427 294.887C376.326 295.976 380.787 294.105 381.337 293.906C381.394 294.132 381.41 294.367 381.385 294.598C381.385 294.598 374.12 297.931 363.149 294.225V295.392L355.974 295.073V292.667C358.515 292.829 362.79 293.834 369.427 294.887Z" fill="#543D31"/>
<path d="M331.693 163.03L326.049 233.293L321.17 281.423C321.17 281.423 323.825 285.099 333.786 283.426L339.018 232.992L345.439 191.541H350.551L353.971 283.402C353.971 283.402 358.288 286.777 366.258 283.769L364.643 165.484L331.693 163.03Z" fill="#DDCEA6"/>
<path d="M346.289 102.663L346.737 121.319L357.912 116.29L357.559 97.0801L346.289 102.663Z" fill="#DDBCA6"/>
<path d="M328.293 116.519C328.293 116.519 329.369 149.897 331.516 166.844C331.516 166.844 339.737 170.544 352.819 170.009C362.068 169.63 364.729 167.638 364.729 167.638L377.984 112.723C377.984 112.723 371.318 109.468 357.231 109.486C357.231 109.486 357.231 109.035 354.068 110.737C351.617 112.043 350.78 120.965 350.78 120.965C350.78 120.965 350.302 112.001 348.921 111.267C347.851 110.59 346.661 110.128 345.417 109.907C340.108 110.274 334.589 111.898 328.401 112.915L328.293 116.519Z" fill="white"/>
<path d="M341.608 109.534L345.04 117.156L348.914 111.266L342.816 107.175L341.608 109.534Z" fill="#EFEFED"/>
<path d="M361.535 109.329L356.925 116.814L353.685 110.749L360.423 106.357L361.535 109.329Z" fill="#EFEFED"/>
<path d="M355.597 56.2003C366.216 58.6369 365.935 65.9827 365.935 65.9827C365.935 65.9827 365.6 71.6499 365.391 78.4001C365.858 77.7136 366.551 77.2159 367.348 76.9956C368.145 76.7753 368.994 76.8466 369.744 77.1969C373.331 78.7551 370.688 90.2099 365.194 89.2293C364.954 92.4299 364.644 94.9206 364.237 95.7869C362.694 99.0417 355.908 104.011 349.887 104.811C343.867 105.611 336.315 101.55 336.315 94.4152C336.315 87.28 336.22 60.8388 336.22 60.8388C336.22 60.8388 338.019 52.1454 355.597 56.2003Z" fill="#F7CEB2"/>
<path d="M352.243 77.8465C352.243 79.4047 352.931 80.6681 353.78 80.6681C354.629 80.6681 355.322 79.4047 355.322 77.8465C355.322 76.2883 354.635 75.0068 353.78 75.0068C352.925 75.0068 352.243 76.2943 352.243 77.8465Z" fill="#222228"/>
<path d="M339.288 78.466C339.288 80.0242 339.982 81.2876 340.831 81.2876C341.68 81.2876 342.367 80.0242 342.367 78.466C342.367 76.9078 341.68 75.6504 340.831 75.6504C339.982 75.6504 339.288 76.9138 339.288 78.466Z" fill="#222228"/>
<path d="M349.738 71.3971C349.738 71.3971 350.443 71.4453 351.322 71.3971C351.765 71.3971 352.249 71.3971 352.739 71.3971H353.11C353.23 71.3971 353.355 71.3971 353.475 71.3971C353.72 71.3971 353.953 71.3971 354.186 71.3971C354.42 71.3971 354.647 71.3971 354.862 71.4633C355.077 71.5295 355.298 71.5115 355.496 71.5776C355.598 71.606 355.702 71.6281 355.807 71.6438C355.908 71.6438 355.998 71.716 356.1 71.7461C356.306 71.7961 356.507 71.8687 356.697 71.9627C356.877 72.0529 357.074 72.1131 357.236 72.1973C357.397 72.2815 357.535 72.3658 357.66 72.4319C357.911 72.5643 358.085 72.6365 358.085 72.6365C358.099 72.4804 358.099 72.3233 358.085 72.1672C358.085 72.0168 358.037 71.8303 357.989 71.6197C357.912 71.3943 357.814 71.1767 357.696 70.97C357.635 70.8426 357.565 70.72 357.487 70.603L357.188 70.2661C357.076 70.1438 356.958 70.0274 356.835 69.9172C356.703 69.8209 356.56 69.7307 356.411 69.6344C356.108 69.4405 355.78 69.2906 355.436 69.1892C355.086 69.0921 354.728 69.0276 354.366 68.9967C354.016 68.985 353.665 69.0071 353.319 69.0629C352.994 69.1067 352.676 69.1874 352.369 69.3035C351.833 69.4953 351.33 69.7715 350.88 70.1217C350.563 70.3722 350.279 70.6634 350.037 70.988C349.922 71.1125 349.822 71.2498 349.738 71.3971Z" fill="#84653C"/>
<path d="M343.412 71.3972L343.376 71.2889C343.346 71.1909 343.306 71.0962 343.257 71.0061C343.103 70.688 342.901 70.3957 342.659 70.1398C342.306 69.7808 341.885 69.4965 341.421 69.3035C341.149 69.1854 340.864 69.1005 340.572 69.0508C340.252 68.9995 339.927 68.9873 339.603 69.0147C339.264 69.0481 338.933 69.1376 338.623 69.2795C338.315 69.3966 338.033 69.5723 337.792 69.7969C337.556 69.9834 337.354 70.2092 337.194 70.4647C337.052 70.6724 336.945 70.902 336.877 71.1445C336.802 71.3369 336.758 71.5399 336.746 71.7461C336.734 71.9043 336.734 72.0632 336.746 72.2214C336.749 72.3242 336.759 72.4267 336.775 72.5282V72.6365L336.877 72.5884C336.943 72.5523 337.045 72.5102 337.152 72.444C337.26 72.3778 337.391 72.3116 337.517 72.2274C337.662 72.1407 337.811 72.0624 337.965 71.9928C338.114 71.9034 338.27 71.8269 338.432 71.7642C338.584 71.6948 338.742 71.6385 338.904 71.5957C338.982 71.5957 339.053 71.5476 339.125 71.5235C339.197 71.4994 339.287 71.5235 339.358 71.4814C339.43 71.4393 339.663 71.4393 339.819 71.4092C339.974 71.3791 340.148 71.4092 340.327 71.3731C340.506 71.337 340.692 71.3731 340.889 71.3731C341.272 71.3731 341.672 71.3731 342.043 71.3731C342.222 71.3731 342.408 71.3731 342.563 71.3731C342.719 71.3731 342.874 71.3731 343 71.3731L343.412 71.3972Z" fill="#84653C"/>
<path opacity="0.4" d="M369.255 79.1699C367.371 78.2073 365.703 81.2635 365.626 84.5183C367.168 84.2897 367.419 86.0945 366.57 87.376C369.631 88.0257 371.222 80.1866 369.255 79.1699Z" fill="#B57662"/>
<path d="M306.235 175.405C307.712 173.51 309.53 173.113 311.921 172.818C313.966 166.02 319.425 147.55 319.425 147.55L327.281 153.133C327.281 153.133 321.805 167.897 317.93 175.61L318.038 175.712C318.863 177.818 317.763 180.122 317.213 181.602C316.663 183.082 316.579 183.84 316.077 185.422C315.652 186.77 314.929 188.99 314.116 188.4C313.302 187.811 314.833 183.527 314.432 183.311C313.918 183.028 310.486 192.233 309.231 190.169C308.818 189.495 311.574 184.231 311.497 183.178C311.419 182.125 307.001 190.674 305.554 189.489C304.675 188.773 309.775 181.343 308.818 182.035C307.586 182.92 304.394 186.95 303.587 187.161C302.779 187.372 301.793 187.72 304.364 183.768C306.253 180.868 308.029 178.913 307.838 178.089C307.604 177.066 306.223 178.528 306.223 178.528C302.504 181.211 302.08 179.129 301.883 178.456C301.685 177.782 304.687 177.391 306.235 175.405Z" fill="#F7CEB2"/>
<path d="M345.649 74.8804C345.439 75.3135 345.284 75.7648 345.111 76.216C344.937 76.6672 344.812 77.1244 344.68 77.5877C344.549 78.0509 344.423 78.5081 344.303 78.9714L343.981 80.3732C343.783 81.3057 343.622 82.2502 343.46 83.1948C343.299 84.1393 343.191 85.0899 343.09 86.0404V86.2029L343.215 86.263C343.813 86.5277 344.369 86.8045 344.949 87.0632C345.529 87.3219 346.109 87.5806 346.707 87.8212C346.169 87.4723 345.619 87.1594 345.069 86.8286C344.519 86.4977 343.963 86.1969 343.413 85.878L343.526 86.1006C343.724 85.1681 343.885 84.2296 344.04 83.291L344.315 81.8893C344.399 81.42 344.471 80.9507 344.567 80.4815L345.081 77.6779C345.164 77.2086 345.284 76.7514 345.362 76.2761C345.439 75.8009 345.511 75.3496 345.649 74.8804Z" fill="#D39484"/>
<path d="M310.619 170.099L320.101 142.003L328.4 112.909C332.544 111.922 341.201 112.813 335.659 128.485L328.699 150.294L320.586 174.894L310.619 170.099Z" fill="white"/>
<path d="M391.98 165.003C391.98 165.003 398.246 182.594 396.596 184.201C396.501 184.608 396.272 184.972 395.947 185.232C395.622 185.493 395.218 185.636 394.803 185.639C394.803 185.639 394.563 187.299 392.662 186.878C392.581 187.529 392.34 188.149 391.962 188.683C391.119 189.621 389.188 188.978 389.17 184.724C388.825 185.542 388.184 186.198 387.377 186.559C385.583 187.257 386.444 184.7 386.444 184.7C386.444 184.7 386.528 182.294 386.88 179.021C387.233 175.748 388.273 175.068 388.273 175.068L381.386 152.447L391.98 165.003Z" fill="#F7CEB2"/>
<path d="M394.623 170.4L386.336 142.003L378.037 112.909C373.894 111.922 365.236 112.813 370.785 128.485L377.738 150.312L386.252 173.805L394.623 170.4Z" fill="white"/>
<path d="M353.967 92.189L353.423 92.3815C353.082 92.5078 352.58 92.6582 351.988 92.8447C351.396 93.0312 350.696 93.2177 349.937 93.3922C349.566 93.5005 349.166 93.5546 348.741 93.6449C348.317 93.7351 347.94 93.7893 347.545 93.8434C347.151 93.8976 346.732 93.9698 346.35 93.9818C345.967 93.9938 345.548 94.054 345.154 94.042C344.759 94.0299 344.394 94.042 344.042 94.042C343.689 94.042 343.354 94.042 343.049 93.9637L342.212 93.8555C341.961 93.8133 341.752 93.7532 341.572 93.7171L340.974 93.6028L341.507 93.8254C341.68 93.8916 341.889 93.9818 342.105 94.066L342.942 94.2886C343.274 94.3717 343.611 94.43 343.952 94.4631C344.33 94.5203 344.712 94.5525 345.094 94.5594C345.492 94.5822 345.892 94.5822 346.29 94.5594C346.708 94.5594 347.127 94.4811 347.551 94.439C349.086 94.2141 350.585 93.7915 352.012 93.1816C352.688 92.9019 353.341 92.5701 353.967 92.189Z" fill="#D39484"/>
<path d="M336.028 62.8058C333.828 62.517 329.75 58.0951 331.347 53.4807C331.347 53.4807 331.741 55.9895 335.233 55.9895C335.233 55.9895 333.236 55.1893 332.841 53.9861C332.841 53.9861 335.329 55.4901 341.212 51.8804C341.738 51.5555 342.336 51.2126 343.006 50.8757C343.871 50.3713 344.785 49.9542 345.732 49.6303C352.422 46.9652 361.995 46.1289 365.301 58.7629C365.38 58.9947 365.442 59.2319 365.487 59.4728C365.487 59.4728 370.162 58.9615 370.162 66.9329C370.162 69.941 369.044 73.0695 367.591 76.9018C366.168 77.1063 365.277 79.0676 365.277 79.0676L364.614 84.2235C364.614 85.6253 364.697 87.9836 365.212 89.235C365.941 91.1 366.939 99.8235 355.579 104.239C344.219 108.655 333.756 104.035 336.345 89.1989C336.345 89.1989 336.118 93.1997 337.911 92.6943C339.705 92.189 338.025 87.021 346.599 87.9836C349.307 87.6407 352.979 85.4267 355.974 90.6007C358.306 94.6315 362.611 91.8521 362.945 81.6245V79.0014C362.945 78.851 362.945 78.7006 362.945 78.5502V71.6196C362.945 71.6196 359.759 68.8641 359.358 64.9596C338.497 73.0334 332.118 62.8058 332.118 62.8058C333.402 63.1235 334.744 63.1235 336.028 62.8058ZM353.881 91.3828C351.339 92.218 348.576 92.0524 346.151 90.9195C343.556 92.959 340.13 92.7906 340.13 92.7906C339.633 93.3922 338.24 97.9044 343.024 99.7092C347.807 101.514 346.611 96.1958 346.611 96.1958L348.5 95.8949C348.5 95.8949 347.765 100.016 351.992 99.6069C358.15 99.0053 353.881 91.3828 353.881 91.3828Z" fill="#84653C"/>
<path d="M335.986 169.936C334.486 169.61 333.044 169.054 331.711 168.288C330.874 167.969 330.988 168.89 330.892 169.87C330.773 171.164 330.964 171.85 331.717 172.12C331.855 172.168 332.519 172.957 335.365 173.739C335.574 172.469 335.783 171.206 335.986 169.936Z" fill="#705543"/>
<path d="M356.471 171.025C353.007 171.353 349.525 171.448 346.049 171.308C343.459 171.232 340.88 170.945 338.336 170.448C338.378 171.767 338.288 173.087 338.067 174.388C340.67 174.93 343.315 175.24 345.971 175.315C347.203 175.351 348.399 175.357 349.559 175.315C352.003 175.281 354.444 175.114 356.871 174.816C356.625 173.567 356.491 172.298 356.471 171.025Z" fill="#705543"/>
<path d="M365.787 170.719C365.626 169.75 365.518 168.914 364.687 169.208C362.701 169.94 360.645 170.462 358.552 170.767C358.63 172.024 358.798 173.275 358.965 174.527C361.168 174.161 363.325 173.556 365.398 172.722C365.978 172.469 365.954 171.699 365.787 170.719Z" fill="#705543"/>
<path d="M351.252 170.754L351.348 175.886L343.952 175.441L343.868 170.676L351.252 170.754ZM350.014 171.609L345.135 171.561L345.189 174.707L350.074 175.002L350.014 171.609Z" fill="#ADADAD"/>
<path d="M395.52 171.098L394.025 165.082L383.657 169.792L385.852 174.906L395.52 171.098Z" fill="#EFEFED"/>
<path d="M322.971 170.496L311.611 166.285L309.817 170.093L321.578 175.309L322.971 170.496Z" fill="#EFEFED"/>
</g>
<defs>
<clipPath id="clip0_1443_13599">
<rect width="142" height="14" fill="white" transform="translate(276 292)"/>
</clipPath>
<clipPath id="clip1_1443_13599">
<rect width="95" height="248" fill="white" transform="matrix(-1 0 0 1 396.871 48)"/>
</clipPath>
</defs>
</svg>
