<svg width="24" height="24" viewBox="0 0 24 24" fill="none" xmlns="http://www.w3.org/2000/svg">
<path d="M21 7V17C21 20 19.5 22 16 22H8C4.5 22 3 20 3 17V7C3 4 4.5 2 8 2H16C19.5 2 21 4 21 7Z" stroke="#797979" stroke-width="1.5" stroke-linecap="round" stroke-linejoin="round"/>
<path d="M14 3V6.5C14.002 7.16243 14.266 7.79717 14.7344 8.26558C15.2028 8.73399 15.8376 8.99802 16.5 9H20" stroke="#797979" stroke-width="1.5" stroke-linecap="round" stroke-linejoin="round"/>
<path d="M8 13H12" stroke="#797979" stroke-width="1.5" stroke-linecap="round" stroke-linejoin="round"/>
<path d="M8 17H16" stroke="#797979" stroke-width="1.5" stroke-linecap="round" stroke-linejoin="round"/>
<path d="M21 7.49988C21 9.43287 18.933 9.5 17 9.5C15.067 9.5 13.5 5.933 13.5 4C13.5 2.067 15.567 1.99988 17.5 1.99988C19.433 1.99988 21 5.56688 21 7.49988Z" fill="#797979"/>
</svg>
