<svg width="24" height="24" viewBox="0 0 24 24" fill="none" xmlns="http://www.w3.org/2000/svg">
<mask id="path-1-outside-1_3503_61" maskUnits="userSpaceOnUse" x="1" y="1" width="22" height="22" fill="black">
<rect fill="white" x="1" y="1" width="22" height="22"/>
<path d="M21.6875 2H6.0625C5.97962 2 5.90013 2.03292 5.84153 2.09153C5.78292 2.15013 5.75 2.22962 5.75 2.3125V5.80625C5.30563 5.91221 4.90986 6.16465 4.62642 6.52292C4.34298 6.88118 4.18837 7.32442 4.1875 7.78125C4.1875 8.49687 4.11562 9.14687 4.75625 9.8125H4.5C3.91984 9.8125 3.36344 10.043 2.9532 10.4532C2.54297 10.8634 2.3125 11.4198 2.3125 12V15.75C2.31284 16.1143 2.44044 16.467 2.67325 16.7472C2.90606 17.0273 3.22944 17.2173 3.5875 17.2844C3.65896 17.747 3.90085 18.1661 4.26562 18.4594C3.60234 18.6999 3.02914 19.1387 2.62382 19.7162C2.21851 20.2937 2.00071 20.982 2 21.6875C2 21.7704 2.03292 21.8499 2.09153 21.9085C2.15013 21.9671 2.22962 22 2.3125 22C2.39538 22 2.47487 21.9671 2.53347 21.9085C2.59208 21.8499 2.625 21.7704 2.625 21.6875C2.625 20.9416 2.92132 20.2262 3.44876 19.6988C3.97621 19.1713 4.69158 18.875 5.4375 18.875C6.18342 18.875 6.89879 19.1713 7.42624 19.6988C7.95368 20.2262 8.25 20.9416 8.25 21.6875C8.25 21.7704 8.28292 21.8499 8.34153 21.9085C8.40013 21.9671 8.47962 22 8.5625 22C8.64538 22 8.72487 21.9671 8.78347 21.9085C8.84208 21.8499 8.875 21.7704 8.875 21.6875C8.875 20.9416 9.17132 20.2262 9.69876 19.6988C10.2262 19.1713 10.9416 18.875 11.6875 18.875C12.4334 18.875 13.1488 19.1713 13.6762 19.6988C14.2037 20.2262 14.5 20.9416 14.5 21.6875C14.5 21.7704 14.5329 21.8499 14.5915 21.9085C14.6501 21.9671 14.7296 22 14.8125 22C14.8954 22 14.9749 21.9671 15.0335 21.9085C15.0921 21.8499 15.125 21.7704 15.125 21.6875C15.125 20.9416 15.4213 20.2262 15.9488 19.6988C16.4762 19.1713 17.1916 18.875 17.9375 18.875C18.6834 18.875 19.3988 19.1713 19.9262 19.6988C20.4537 20.2262 20.75 20.9416 20.75 21.6875C20.75 21.7704 20.7829 21.8499 20.8415 21.9085C20.9001 21.9671 20.9796 22 21.0625 22C21.1454 22 21.2249 21.9671 21.2835 21.9085C21.3421 21.8499 21.375 21.7704 21.375 21.6875C21.3743 20.982 21.1565 20.2937 20.7512 19.7162C20.3459 19.1387 19.7727 18.6999 19.1094 18.4594C19.8969 17.8344 19.8125 17.0531 19.8125 16.375C19.8125 15.8777 19.615 15.4008 19.2633 15.0492C18.9117 14.6975 18.4348 14.5 17.9375 14.5C17.4402 14.5 16.9633 14.6975 16.6117 15.0492C16.26 15.4008 16.0625 15.8777 16.0625 16.375C16.0625 17.075 15.9781 17.8281 16.7656 18.4594C16.3373 18.6164 15.9443 18.8566 15.6091 19.166C15.274 19.4755 15.0032 19.8481 14.8125 20.2625C14.6218 19.8481 14.351 19.4755 14.0159 19.166C13.6807 18.8566 13.2877 18.6164 12.8594 18.4594C13.6469 17.8344 13.5625 17.0531 13.5625 16.375C13.5625 15.8777 13.365 15.4008 13.0133 15.0492C12.6617 14.6975 12.1848 14.5 11.6875 14.5C11.1902 14.5 10.7133 14.6975 10.3617 15.0492C10.01 15.4008 9.8125 15.8777 9.8125 16.375C9.8125 17.075 9.72813 17.8281 10.5156 18.4594C9.85427 18.6993 9.28191 19.1354 8.875 19.7094V13.25H21.6875C21.7704 13.25 21.8499 13.2171 21.9085 13.1585C21.9671 13.0999 22 13.0204 22 12.9375V2.3125C22 2.22962 21.9671 2.15013 21.9085 2.09153C21.8499 2.03292 21.7704 2 21.6875 2ZM16.6875 17V16.375C16.6875 16.0435 16.8192 15.7255 17.0536 15.4911C17.288 15.2567 17.606 15.125 17.9375 15.125C18.269 15.125 18.587 15.2567 18.8214 15.4911C19.0558 15.7255 19.1875 16.0435 19.1875 16.375V17C19.1875 17.3315 19.0558 17.6495 18.8214 17.8839C18.587 18.1183 18.269 18.25 17.9375 18.25C17.606 18.25 17.288 18.1183 17.0536 17.8839C16.8192 17.6495 16.6875 17.3315 16.6875 17ZM10.4375 17V16.375C10.4375 16.0435 10.5692 15.7255 10.8036 15.4911C11.038 15.2567 11.356 15.125 11.6875 15.125C12.019 15.125 12.337 15.2567 12.5714 15.4911C12.8058 15.7255 12.9375 16.0435 12.9375 16.375V17C12.9375 17.3315 12.8058 17.6495 12.5714 17.8839C12.337 18.1183 12.019 18.25 11.6875 18.25C11.356 18.25 11.038 18.1183 10.8036 17.8839C10.5692 17.6495 10.4375 17.3315 10.4375 17ZM4.8125 7.78125C4.8125 7.40829 4.96066 7.0506 5.22438 6.78688C5.4881 6.52316 5.84579 6.375 6.21875 6.375C6.59171 6.375 6.9494 6.52316 7.21312 6.78688C7.47684 7.0506 7.625 7.40829 7.625 7.78125V8.40625C7.625 8.77921 7.47684 9.1369 7.21312 9.40062C6.9494 9.66434 6.59171 9.8125 6.21875 9.8125C5.84579 9.8125 5.4881 9.66434 5.22438 9.40062C4.96066 9.1369 4.8125 8.77921 4.8125 8.40625V7.78125ZM4.1875 17V16.375C4.1875 16.0435 4.3192 15.7255 4.55362 15.4911C4.78804 15.2567 5.10598 15.125 5.4375 15.125C5.76902 15.125 6.08696 15.2567 6.32138 15.4911C6.5558 15.7255 6.6875 16.0435 6.6875 16.375V17C6.6875 17.3315 6.5558 17.6495 6.32138 17.8839C6.08696 18.1183 5.76902 18.25 5.4375 18.25C5.10598 18.25 4.78804 18.1183 4.55362 17.8839C4.3192 17.6495 4.1875 17.3315 4.1875 17ZM6.60938 18.4594C7.39687 17.8344 7.3125 17.0531 7.3125 16.375C7.31177 16.0134 7.20647 15.6597 7.00931 15.3565C6.81214 15.0534 6.53151 14.8137 6.20124 14.6664C5.87096 14.5191 5.50514 14.4704 5.14785 14.5263C4.79056 14.5822 4.45704 14.7402 4.1875 14.9812V12C4.1875 11.9171 4.15458 11.8376 4.09597 11.779C4.03737 11.7204 3.95788 11.6875 3.875 11.6875C3.79212 11.6875 3.71263 11.7204 3.65403 11.779C3.59542 11.8376 3.5625 11.9171 3.5625 12V16.6312C3.38014 16.5668 3.22219 16.4475 3.11029 16.2897C2.9984 16.1319 2.93804 15.9434 2.9375 15.75V12C2.9375 11.5856 3.10212 11.1882 3.39515 10.8951C3.68817 10.6021 4.0856 10.4375 4.5 10.4375C11.7219 10.4375 11.225 10.4844 11.375 10.325C12.9 8.49062 12.9688 8.25 13.5094 8.25C13.5821 8.24929 13.6535 8.2694 13.7152 8.30797C13.7769 8.34653 13.8263 8.40194 13.8575 8.46765C13.8887 8.53336 13.9005 8.60663 13.8914 8.67881C13.8823 8.75099 13.8528 8.81907 13.8062 8.875L11.8094 11.375H8.5625C8.47962 11.375 8.40013 11.4079 8.34153 11.4665C8.28292 11.5251 8.25 11.6046 8.25 11.6875V19.7188C7.84449 19.1413 7.27198 18.7019 6.60938 18.4594ZM21.375 12.625H8.875V12C12.1594 12 12.0562 12.0469 12.1875 11.8812C14.4656 9.02812 14.5 9.1 14.5 8.63125C14.5004 8.43065 14.4412 8.23444 14.33 8.06753C14.2187 7.90062 14.0603 7.77052 13.875 7.69375V3.5625C13.875 3.47962 13.8421 3.40013 13.7835 3.34153C13.7249 3.28292 13.6454 3.25 13.5625 3.25C13.4796 3.25 13.4001 3.28292 13.3415 3.34153C13.2829 3.40013 13.25 3.47962 13.25 3.5625V7.64687C12.5188 7.76562 12.35 8.15312 10.9719 9.8125H7.68125C8.32812 9.1375 8.25 8.45 8.25 7.78125C8.25225 7.26833 8.06008 6.7736 7.71217 6.3967C7.36426 6.0198 6.88646 5.78872 6.375 5.75V2.625H21.375V12.625Z"/>
</mask>
<path d="M21.6875 2H6.0625C5.97962 2 5.90013 2.03292 5.84153 2.09153C5.78292 2.15013 5.75 2.22962 5.75 2.3125V5.80625C5.30563 5.91221 4.90986 6.16465 4.62642 6.52292C4.34298 6.88118 4.18837 7.32442 4.1875 7.78125C4.1875 8.49687 4.11562 9.14687 4.75625 9.8125H4.5C3.91984 9.8125 3.36344 10.043 2.9532 10.4532C2.54297 10.8634 2.3125 11.4198 2.3125 12V15.75C2.31284 16.1143 2.44044 16.467 2.67325 16.7472C2.90606 17.0273 3.22944 17.2173 3.5875 17.2844C3.65896 17.747 3.90085 18.1661 4.26562 18.4594C3.60234 18.6999 3.02914 19.1387 2.62382 19.7162C2.21851 20.2937 2.00071 20.982 2 21.6875C2 21.7704 2.03292 21.8499 2.09153 21.9085C2.15013 21.9671 2.22962 22 2.3125 22C2.39538 22 2.47487 21.9671 2.53347 21.9085C2.59208 21.8499 2.625 21.7704 2.625 21.6875C2.625 20.9416 2.92132 20.2262 3.44876 19.6988C3.97621 19.1713 4.69158 18.875 5.4375 18.875C6.18342 18.875 6.89879 19.1713 7.42624 19.6988C7.95368 20.2262 8.25 20.9416 8.25 21.6875C8.25 21.7704 8.28292 21.8499 8.34153 21.9085C8.40013 21.9671 8.47962 22 8.5625 22C8.64538 22 8.72487 21.9671 8.78347 21.9085C8.84208 21.8499 8.875 21.7704 8.875 21.6875C8.875 20.9416 9.17132 20.2262 9.69876 19.6988C10.2262 19.1713 10.9416 18.875 11.6875 18.875C12.4334 18.875 13.1488 19.1713 13.6762 19.6988C14.2037 20.2262 14.5 20.9416 14.5 21.6875C14.5 21.7704 14.5329 21.8499 14.5915 21.9085C14.6501 21.9671 14.7296 22 14.8125 22C14.8954 22 14.9749 21.9671 15.0335 21.9085C15.0921 21.8499 15.125 21.7704 15.125 21.6875C15.125 20.9416 15.4213 20.2262 15.9488 19.6988C16.4762 19.1713 17.1916 18.875 17.9375 18.875C18.6834 18.875 19.3988 19.1713 19.9262 19.6988C20.4537 20.2262 20.75 20.9416 20.75 21.6875C20.75 21.7704 20.7829 21.8499 20.8415 21.9085C20.9001 21.9671 20.9796 22 21.0625 22C21.1454 22 21.2249 21.9671 21.2835 21.9085C21.3421 21.8499 21.375 21.7704 21.375 21.6875C21.3743 20.982 21.1565 20.2937 20.7512 19.7162C20.3459 19.1387 19.7727 18.6999 19.1094 18.4594C19.8969 17.8344 19.8125 17.0531 19.8125 16.375C19.8125 15.8777 19.615 15.4008 19.2633 15.0492C18.9117 14.6975 18.4348 14.5 17.9375 14.5C17.4402 14.5 16.9633 14.6975 16.6117 15.0492C16.26 15.4008 16.0625 15.8777 16.0625 16.375C16.0625 17.075 15.9781 17.8281 16.7656 18.4594C16.3373 18.6164 15.9443 18.8566 15.6091 19.166C15.274 19.4755 15.0032 19.8481 14.8125 20.2625C14.6218 19.8481 14.351 19.4755 14.0159 19.166C13.6807 18.8566 13.2877 18.6164 12.8594 18.4594C13.6469 17.8344 13.5625 17.0531 13.5625 16.375C13.5625 15.8777 13.365 15.4008 13.0133 15.0492C12.6617 14.6975 12.1848 14.5 11.6875 14.5C11.1902 14.5 10.7133 14.6975 10.3617 15.0492C10.01 15.4008 9.8125 15.8777 9.8125 16.375C9.8125 17.075 9.72813 17.8281 10.5156 18.4594C9.85427 18.6993 9.28191 19.1354 8.875 19.7094V13.25H21.6875C21.7704 13.25 21.8499 13.2171 21.9085 13.1585C21.9671 13.0999 22 13.0204 22 12.9375V2.3125C22 2.22962 21.9671 2.15013 21.9085 2.09153C21.8499 2.03292 21.7704 2 21.6875 2ZM16.6875 17V16.375C16.6875 16.0435 16.8192 15.7255 17.0536 15.4911C17.288 15.2567 17.606 15.125 17.9375 15.125C18.269 15.125 18.587 15.2567 18.8214 15.4911C19.0558 15.7255 19.1875 16.0435 19.1875 16.375V17C19.1875 17.3315 19.0558 17.6495 18.8214 17.8839C18.587 18.1183 18.269 18.25 17.9375 18.25C17.606 18.25 17.288 18.1183 17.0536 17.8839C16.8192 17.6495 16.6875 17.3315 16.6875 17ZM10.4375 17V16.375C10.4375 16.0435 10.5692 15.7255 10.8036 15.4911C11.038 15.2567 11.356 15.125 11.6875 15.125C12.019 15.125 12.337 15.2567 12.5714 15.4911C12.8058 15.7255 12.9375 16.0435 12.9375 16.375V17C12.9375 17.3315 12.8058 17.6495 12.5714 17.8839C12.337 18.1183 12.019 18.25 11.6875 18.25C11.356 18.25 11.038 18.1183 10.8036 17.8839C10.5692 17.6495 10.4375 17.3315 10.4375 17ZM4.8125 7.78125C4.8125 7.40829 4.96066 7.0506 5.22438 6.78688C5.4881 6.52316 5.84579 6.375 6.21875 6.375C6.59171 6.375 6.9494 6.52316 7.21312 6.78688C7.47684 7.0506 7.625 7.40829 7.625 7.78125V8.40625C7.625 8.77921 7.47684 9.1369 7.21312 9.40062C6.9494 9.66434 6.59171 9.8125 6.21875 9.8125C5.84579 9.8125 5.4881 9.66434 5.22438 9.40062C4.96066 9.1369 4.8125 8.77921 4.8125 8.40625V7.78125ZM4.1875 17V16.375C4.1875 16.0435 4.3192 15.7255 4.55362 15.4911C4.78804 15.2567 5.10598 15.125 5.4375 15.125C5.76902 15.125 6.08696 15.2567 6.32138 15.4911C6.5558 15.7255 6.6875 16.0435 6.6875 16.375V17C6.6875 17.3315 6.5558 17.6495 6.32138 17.8839C6.08696 18.1183 5.76902 18.25 5.4375 18.25C5.10598 18.25 4.78804 18.1183 4.55362 17.8839C4.3192 17.6495 4.1875 17.3315 4.1875 17ZM6.60938 18.4594C7.39687 17.8344 7.3125 17.0531 7.3125 16.375C7.31177 16.0134 7.20647 15.6597 7.00931 15.3565C6.81214 15.0534 6.53151 14.8137 6.20124 14.6664C5.87096 14.5191 5.50514 14.4704 5.14785 14.5263C4.79056 14.5822 4.45704 14.7402 4.1875 14.9812V12C4.1875 11.9171 4.15458 11.8376 4.09597 11.779C4.03737 11.7204 3.95788 11.6875 3.875 11.6875C3.79212 11.6875 3.71263 11.7204 3.65403 11.779C3.59542 11.8376 3.5625 11.9171 3.5625 12V16.6312C3.38014 16.5668 3.22219 16.4475 3.11029 16.2897C2.9984 16.1319 2.93804 15.9434 2.9375 15.75V12C2.9375 11.5856 3.10212 11.1882 3.39515 10.8951C3.68817 10.6021 4.0856 10.4375 4.5 10.4375C11.7219 10.4375 11.225 10.4844 11.375 10.325C12.9 8.49062 12.9688 8.25 13.5094 8.25C13.5821 8.24929 13.6535 8.2694 13.7152 8.30797C13.7769 8.34653 13.8263 8.40194 13.8575 8.46765C13.8887 8.53336 13.9005 8.60663 13.8914 8.67881C13.8823 8.75099 13.8528 8.81907 13.8062 8.875L11.8094 11.375H8.5625C8.47962 11.375 8.40013 11.4079 8.34153 11.4665C8.28292 11.5251 8.25 11.6046 8.25 11.6875V19.7188C7.84449 19.1413 7.27198 18.7019 6.60938 18.4594ZM21.375 12.625H8.875V12C12.1594 12 12.0562 12.0469 12.1875 11.8812C14.4656 9.02812 14.5 9.1 14.5 8.63125C14.5004 8.43065 14.4412 8.23444 14.33 8.06753C14.2187 7.90062 14.0603 7.77052 13.875 7.69375V3.5625C13.875 3.47962 13.8421 3.40013 13.7835 3.34153C13.7249 3.28292 13.6454 3.25 13.5625 3.25C13.4796 3.25 13.4001 3.28292 13.3415 3.34153C13.2829 3.40013 13.25 3.47962 13.25 3.5625V7.64687C12.5188 7.76562 12.35 8.15312 10.9719 9.8125H7.68125C8.32812 9.1375 8.25 8.45 8.25 7.78125C8.25225 7.26833 8.06008 6.7736 7.71217 6.3967C7.36426 6.0198 6.88646 5.78872 6.375 5.75V2.625H21.375V12.625Z" fill="#797979"/>
<path d="M21.6875 2H6.0625C5.97962 2 5.90013 2.03292 5.84153 2.09153C5.78292 2.15013 5.75 2.22962 5.75 2.3125V5.80625C5.30563 5.91221 4.90986 6.16465 4.62642 6.52292C4.34298 6.88118 4.18837 7.32442 4.1875 7.78125C4.1875 8.49687 4.11562 9.14687 4.75625 9.8125H4.5C3.91984 9.8125 3.36344 10.043 2.9532 10.4532C2.54297 10.8634 2.3125 11.4198 2.3125 12V15.75C2.31284 16.1143 2.44044 16.467 2.67325 16.7472C2.90606 17.0273 3.22944 17.2173 3.5875 17.2844C3.65896 17.747 3.90085 18.1661 4.26562 18.4594C3.60234 18.6999 3.02914 19.1387 2.62382 19.7162C2.21851 20.2937 2.00071 20.982 2 21.6875C2 21.7704 2.03292 21.8499 2.09153 21.9085C2.15013 21.9671 2.22962 22 2.3125 22C2.39538 22 2.47487 21.9671 2.53347 21.9085C2.59208 21.8499 2.625 21.7704 2.625 21.6875C2.625 20.9416 2.92132 20.2262 3.44876 19.6988C3.97621 19.1713 4.69158 18.875 5.4375 18.875C6.18342 18.875 6.89879 19.1713 7.42624 19.6988C7.95368 20.2262 8.25 20.9416 8.25 21.6875C8.25 21.7704 8.28292 21.8499 8.34153 21.9085C8.40013 21.9671 8.47962 22 8.5625 22C8.64538 22 8.72487 21.9671 8.78347 21.9085C8.84208 21.8499 8.875 21.7704 8.875 21.6875C8.875 20.9416 9.17132 20.2262 9.69876 19.6988C10.2262 19.1713 10.9416 18.875 11.6875 18.875C12.4334 18.875 13.1488 19.1713 13.6762 19.6988C14.2037 20.2262 14.5 20.9416 14.5 21.6875C14.5 21.7704 14.5329 21.8499 14.5915 21.9085C14.6501 21.9671 14.7296 22 14.8125 22C14.8954 22 14.9749 21.9671 15.0335 21.9085C15.0921 21.8499 15.125 21.7704 15.125 21.6875C15.125 20.9416 15.4213 20.2262 15.9488 19.6988C16.4762 19.1713 17.1916 18.875 17.9375 18.875C18.6834 18.875 19.3988 19.1713 19.9262 19.6988C20.4537 20.2262 20.75 20.9416 20.75 21.6875C20.75 21.7704 20.7829 21.8499 20.8415 21.9085C20.9001 21.9671 20.9796 22 21.0625 22C21.1454 22 21.2249 21.9671 21.2835 21.9085C21.3421 21.8499 21.375 21.7704 21.375 21.6875C21.3743 20.982 21.1565 20.2937 20.7512 19.7162C20.3459 19.1387 19.7727 18.6999 19.1094 18.4594C19.8969 17.8344 19.8125 17.0531 19.8125 16.375C19.8125 15.8777 19.615 15.4008 19.2633 15.0492C18.9117 14.6975 18.4348 14.5 17.9375 14.5C17.4402 14.5 16.9633 14.6975 16.6117 15.0492C16.26 15.4008 16.0625 15.8777 16.0625 16.375C16.0625 17.075 15.9781 17.8281 16.7656 18.4594C16.3373 18.6164 15.9443 18.8566 15.6091 19.166C15.274 19.4755 15.0032 19.8481 14.8125 20.2625C14.6218 19.8481 14.351 19.4755 14.0159 19.166C13.6807 18.8566 13.2877 18.6164 12.8594 18.4594C13.6469 17.8344 13.5625 17.0531 13.5625 16.375C13.5625 15.8777 13.365 15.4008 13.0133 15.0492C12.6617 14.6975 12.1848 14.5 11.6875 14.5C11.1902 14.5 10.7133 14.6975 10.3617 15.0492C10.01 15.4008 9.8125 15.8777 9.8125 16.375C9.8125 17.075 9.72813 17.8281 10.5156 18.4594C9.85427 18.6993 9.28191 19.1354 8.875 19.7094V13.25H21.6875C21.7704 13.25 21.8499 13.2171 21.9085 13.1585C21.9671 13.0999 22 13.0204 22 12.9375V2.3125C22 2.22962 21.9671 2.15013 21.9085 2.09153C21.8499 2.03292 21.7704 2 21.6875 2ZM16.6875 17V16.375C16.6875 16.0435 16.8192 15.7255 17.0536 15.4911C17.288 15.2567 17.606 15.125 17.9375 15.125C18.269 15.125 18.587 15.2567 18.8214 15.4911C19.0558 15.7255 19.1875 16.0435 19.1875 16.375V17C19.1875 17.3315 19.0558 17.6495 18.8214 17.8839C18.587 18.1183 18.269 18.25 17.9375 18.25C17.606 18.25 17.288 18.1183 17.0536 17.8839C16.8192 17.6495 16.6875 17.3315 16.6875 17ZM10.4375 17V16.375C10.4375 16.0435 10.5692 15.7255 10.8036 15.4911C11.038 15.2567 11.356 15.125 11.6875 15.125C12.019 15.125 12.337 15.2567 12.5714 15.4911C12.8058 15.7255 12.9375 16.0435 12.9375 16.375V17C12.9375 17.3315 12.8058 17.6495 12.5714 17.8839C12.337 18.1183 12.019 18.25 11.6875 18.25C11.356 18.25 11.038 18.1183 10.8036 17.8839C10.5692 17.6495 10.4375 17.3315 10.4375 17ZM4.8125 7.78125C4.8125 7.40829 4.96066 7.0506 5.22438 6.78688C5.4881 6.52316 5.84579 6.375 6.21875 6.375C6.59171 6.375 6.9494 6.52316 7.21312 6.78688C7.47684 7.0506 7.625 7.40829 7.625 7.78125V8.40625C7.625 8.77921 7.47684 9.1369 7.21312 9.40062C6.9494 9.66434 6.59171 9.8125 6.21875 9.8125C5.84579 9.8125 5.4881 9.66434 5.22438 9.40062C4.96066 9.1369 4.8125 8.77921 4.8125 8.40625V7.78125ZM4.1875 17V16.375C4.1875 16.0435 4.3192 15.7255 4.55362 15.4911C4.78804 15.2567 5.10598 15.125 5.4375 15.125C5.76902 15.125 6.08696 15.2567 6.32138 15.4911C6.5558 15.7255 6.6875 16.0435 6.6875 16.375V17C6.6875 17.3315 6.5558 17.6495 6.32138 17.8839C6.08696 18.1183 5.76902 18.25 5.4375 18.25C5.10598 18.25 4.78804 18.1183 4.55362 17.8839C4.3192 17.6495 4.1875 17.3315 4.1875 17ZM6.60938 18.4594C7.39687 17.8344 7.3125 17.0531 7.3125 16.375C7.31177 16.0134 7.20647 15.6597 7.00931 15.3565C6.81214 15.0534 6.53151 14.8137 6.20124 14.6664C5.87096 14.5191 5.50514 14.4704 5.14785 14.5263C4.79056 14.5822 4.45704 14.7402 4.1875 14.9812V12C4.1875 11.9171 4.15458 11.8376 4.09597 11.779C4.03737 11.7204 3.95788 11.6875 3.875 11.6875C3.79212 11.6875 3.71263 11.7204 3.65403 11.779C3.59542 11.8376 3.5625 11.9171 3.5625 12V16.6312C3.38014 16.5668 3.22219 16.4475 3.11029 16.2897C2.9984 16.1319 2.93804 15.9434 2.9375 15.75V12C2.9375 11.5856 3.10212 11.1882 3.39515 10.8951C3.68817 10.6021 4.0856 10.4375 4.5 10.4375C11.7219 10.4375 11.225 10.4844 11.375 10.325C12.9 8.49062 12.9688 8.25 13.5094 8.25C13.5821 8.24929 13.6535 8.2694 13.7152 8.30797C13.7769 8.34653 13.8263 8.40194 13.8575 8.46765C13.8887 8.53336 13.9005 8.60663 13.8914 8.67881C13.8823 8.75099 13.8528 8.81907 13.8062 8.875L11.8094 11.375H8.5625C8.47962 11.375 8.40013 11.4079 8.34153 11.4665C8.28292 11.5251 8.25 11.6046 8.25 11.6875V19.7188C7.84449 19.1413 7.27198 18.7019 6.60938 18.4594ZM21.375 12.625H8.875V12C12.1594 12 12.0562 12.0469 12.1875 11.8812C14.4656 9.02812 14.5 9.1 14.5 8.63125C14.5004 8.43065 14.4412 8.23444 14.33 8.06753C14.2187 7.90062 14.0603 7.77052 13.875 7.69375V3.5625C13.875 3.47962 13.8421 3.40013 13.7835 3.34153C13.7249 3.28292 13.6454 3.25 13.5625 3.25C13.4796 3.25 13.4001 3.28292 13.3415 3.34153C13.2829 3.40013 13.25 3.47962 13.25 3.5625V7.64687C12.5188 7.76562 12.35 8.15312 10.9719 9.8125H7.68125C8.32812 9.1375 8.25 8.45 8.25 7.78125C8.25225 7.26833 8.06008 6.7736 7.71217 6.3967C7.36426 6.0198 6.88646 5.78872 6.375 5.75V2.625H21.375V12.625Z" stroke="#797979" stroke-width="0.4" mask="url(#path-1-outside-1_3503_61)"/>
<path d="M3.5625 21.0625V21.6875C3.5625 21.7704 3.59542 21.8499 3.65403 21.9085C3.71263 21.9671 3.79212 22 3.875 22C3.95788 22 4.03737 21.9671 4.09597 21.9085C4.15458 21.8499 4.1875 21.7704 4.1875 21.6875V21.0625C4.1875 20.9796 4.15458 20.9001 4.09597 20.8415C4.03737 20.7829 3.95788 20.75 3.875 20.75C3.79212 20.75 3.71263 20.7829 3.65403 20.8415C3.59542 20.9001 3.5625 20.9796 3.5625 21.0625ZM6.6875 21.0625V21.6875C6.6875 21.7704 6.72042 21.8499 6.77903 21.9085C6.83763 21.9671 6.91712 22 7 22C7.08288 22 7.16237 21.9671 7.22097 21.9085C7.27958 21.8499 7.3125 21.7704 7.3125 21.6875V21.0625C7.3125 20.9796 7.27958 20.9001 7.22097 20.8415C7.16237 20.7829 7.08288 20.75 7 20.75C6.91712 20.75 6.83763 20.7829 6.77903 20.8415C6.72042 20.9001 6.6875 20.9796 6.6875 21.0625ZM9.8125 21.0625V21.6875C9.8125 21.7704 9.84542 21.8499 9.90403 21.9085C9.96263 21.9671 10.0421 22 10.125 22C10.2079 22 10.2874 21.9671 10.346 21.9085C10.4046 21.8499 10.4375 21.7704 10.4375 21.6875V21.0625C10.4375 20.9796 10.4046 20.9001 10.346 20.8415C10.2874 20.7829 10.2079 20.75 10.125 20.75C10.0421 20.75 9.96263 20.7829 9.90403 20.8415C9.84542 20.9001 9.8125 20.9796 9.8125 21.0625ZM12.9375 21.0625V21.6875C12.9375 21.7704 12.9704 21.8499 13.029 21.9085C13.0876 21.9671 13.1671 22 13.25 22C13.3329 22 13.4124 21.9671 13.471 21.9085C13.5296 21.8499 13.5625 21.7704 13.5625 21.6875V21.0625C13.5625 20.9796 13.5296 20.9001 13.471 20.8415C13.4124 20.7829 13.3329 20.75 13.25 20.75C13.1671 20.75 13.0876 20.7829 13.029 20.8415C12.9704 20.9001 12.9375 20.9796 12.9375 21.0625ZM16.0625 21.0625V21.6875C16.0625 21.7704 16.0954 21.8499 16.154 21.9085C16.2126 21.9671 16.2921 22 16.375 22C16.4579 22 16.5374 21.9671 16.596 21.9085C16.6546 21.8499 16.6875 21.7704 16.6875 21.6875V21.0625C16.6875 20.9796 16.6546 20.9001 16.596 20.8415C16.5374 20.7829 16.4579 20.75 16.375 20.75C16.2921 20.75 16.2126 20.7829 16.154 20.8415C16.0954 20.9001 16.0625 20.9796 16.0625 21.0625ZM19.1875 21.0625V21.6875C19.1875 21.7704 19.2204 21.8499 19.279 21.9085C19.3376 21.9671 19.4171 22 19.5 22C19.5829 22 19.6624 21.9671 19.721 21.9085C19.7796 21.8499 19.8125 21.7704 19.8125 21.6875V21.0625C19.8125 20.9796 19.7796 20.9001 19.721 20.8415C19.6624 20.7829 19.5829 20.75 19.5 20.75C19.4171 20.75 19.3376 20.7829 19.279 20.8415C19.2204 20.9001 19.1875 20.9796 19.1875 21.0625Z" fill="#797979"/>
</svg>
