<svg width="22" height="22" viewBox="0 0 22 22" fill="none" xmlns="http://www.w3.org/2000/svg">
<path d="M14 21H8C3 21 1 19 1 14V8C1 3 3 1 8 1H14C19 1 21 3 21 8V14C21 19 19 21 14 21Z" stroke="#797979" stroke-width="1.5" stroke-linecap="round" stroke-linejoin="round"/>
<g clip-path="url(#clip0_3506_55)">
<g clip-path="url(#clip1_3506_55)">
<path d="M8.24571 15.1257C7.95619 15.1257 7.64 15.1067 7.29714 15.0686C6.95429 15.0381 6.61905 15 6.29143 14.9543C5.97143 14.901 5.69714 14.8552 5.46857 14.8171L5.57143 13.5714C5.80762 13.6019 6.0819 13.6362 6.39429 13.6743C6.70667 13.7048 7.01524 13.7314 7.32 13.7543C7.63238 13.7771 7.90286 13.7886 8.13143 13.7886C8.56571 13.7886 8.88191 13.7048 9.08 13.5371C9.2781 13.3619 9.37714 13.0914 9.37714 12.7257C9.37714 12.5276 9.33524 12.3714 9.25143 12.2571C9.17524 12.1352 9.03429 12.04 8.82857 11.9714C8.62286 11.8952 8.33714 11.8229 7.97143 11.7543C7.3619 11.64 6.86667 11.499 6.48571 11.3314C6.11238 11.1638 5.8381 10.9276 5.66286 10.6229C5.49524 10.3181 5.41143 9.91048 5.41143 9.4C5.41143 8.80571 5.5219 8.34095 5.74286 8.00571C5.96381 7.66286 6.28 7.41905 6.69143 7.27428C7.10286 7.12952 7.58667 7.05714 8.14286 7.05714C8.39429 7.05714 8.68 7.07238 9 7.10286C9.32762 7.12571 9.64762 7.15619 9.96 7.19429C10.28 7.23238 10.5505 7.27429 10.7714 7.32L10.7029 8.57714C10.4743 8.54667 10.2076 8.52 9.90286 8.49714C9.60571 8.46667 9.30857 8.44 9.01143 8.41714C8.72191 8.39428 8.47429 8.38286 8.26857 8.38286C7.83429 8.38286 7.51429 8.45143 7.30857 8.58857C7.10286 8.72571 7 8.94667 7 9.25143C7 9.48 7.04571 9.65524 7.13714 9.77714C7.22857 9.89905 7.38095 9.99809 7.59429 10.0743C7.81524 10.1505 8.11619 10.2305 8.49714 10.3143C8.94667 10.4133 9.32762 10.52 9.64 10.6343C9.96 10.7486 10.2152 10.8857 10.4057 11.0457C10.6038 11.2057 10.7486 11.4114 10.84 11.6629C10.9314 11.9143 10.9771 12.2305 10.9771 12.6114C10.9771 13.221 10.8667 13.7124 10.6457 14.0857C10.4324 14.4514 10.12 14.7181 9.70857 14.8857C9.30476 15.0457 8.81714 15.1257 8.24571 15.1257ZM12.0704 15V7.19429H15.0076C15.6552 7.19429 16.1924 7.28571 16.619 7.46857C17.0457 7.64381 17.3657 7.92952 17.579 8.32571C17.8 8.7219 17.9104 9.25143 17.9104 9.91429C17.9104 10.5771 17.8 11.1181 17.579 11.5371C17.3657 11.9486 17.0457 12.2533 16.619 12.4514C16.1924 12.6419 15.6552 12.7371 15.0076 12.7371H13.6476V15H12.0704ZM13.6476 11.4457H14.9619C15.4419 11.4457 15.7847 11.32 15.9904 11.0686C16.1962 10.8095 16.299 10.4286 16.299 9.92571C16.299 9.40762 16.1962 9.03809 15.9904 8.81714C15.7847 8.59619 15.4419 8.48571 14.9619 8.48571H13.6476V11.4457Z" fill="#797979"/>
</g>
</g>
<defs>
<clipPath id="clip0_3506_55">
<rect width="13" height="10" fill="white" transform="translate(5 6)"/>
</clipPath>
<clipPath id="clip1_3506_55">
<rect width="13" height="10" fill="white" transform="translate(5 6)"/>
</clipPath>
</defs>
</svg>
