<svg width="19" height="25" viewBox="0 0 19 25" fill="none" xmlns="http://www.w3.org/2000/svg">
<path d="M7.09416 5.82482C7.12487 5.89976 7.13871 5.98024 7.13475 6.06083C7.13079 6.14142 7.10911 6.22025 7.0712 6.29198C7.03328 6.36372 6.98001 6.42669 6.91496 6.47666C6.84992 6.52662 6.77462 6.56241 6.69416 6.58161C6.67816 6.58161 6.63816 6.59621 6.57816 6.61472C6.47316 6.64686 6.35516 6.68777 6.22616 6.73842C5.84577 6.88638 5.48434 7.07694 5.14916 7.30625C4.68769 7.593 4.30854 7.98919 4.04723 8.45766C3.78592 8.92613 3.65101 9.45156 3.65516 9.98469C3.70848 11.3203 3.9518 12.6423 4.37816 13.9127C4.67816 14.8935 5.05616 15.9337 5.49716 17.0061C5.90416 17.9976 6.34116 18.9628 6.77816 19.8628C6.93016 20.1774 7.07216 20.4598 7.19916 20.7082H11.6992C11.8262 20.4608 11.9672 20.1774 12.1202 19.8628C12.5572 18.9628 12.9932 17.9976 13.4012 17.0061C13.8422 15.9347 14.2212 14.8935 14.5202 13.9127C14.9465 12.6423 15.1898 11.3203 15.2432 9.98469C15.2473 9.45156 15.1124 8.92613 14.8511 8.45766C14.5898 7.98919 14.2106 7.593 13.7492 7.30625C13.4158 7.07737 13.0565 6.88683 12.6782 6.73842C12.5502 6.68777 12.4312 6.64686 12.3262 6.61472C12.2662 6.59621 12.2262 6.5855 12.2102 6.58161C12.1297 6.56241 12.0544 6.52662 11.9894 6.47666C11.9243 6.42669 11.871 6.36372 11.8331 6.29198C11.7952 6.22025 11.7735 6.14142 11.7696 6.06083C11.7656 5.98024 11.7795 5.89976 11.8102 5.82482L12.6512 3.77947H6.25116L7.09416 5.82482ZM4.85916 3.42202C4.8238 3.33637 4.81057 3.24358 4.82063 3.1518C4.83069 3.06001 4.86373 2.97203 4.91685 2.89558C4.96996 2.81913 5.04153 2.75655 5.12528 2.71333C5.20903 2.67011 5.30239 2.64758 5.39716 2.64771H13.5052C13.5999 2.64758 13.6933 2.67011 13.777 2.71333C13.8608 2.75655 13.9324 2.81913 13.9855 2.89558C14.0386 2.97203 14.0716 3.06001 14.0817 3.1518C14.0918 3.24358 14.0785 3.33637 14.0432 3.42202L13.1152 5.69334C13.5775 5.87367 14.0168 6.10574 14.4242 6.38486C15.0384 6.7754 15.542 7.31014 15.8885 7.93988C16.2351 8.56962 16.4134 9.27413 16.4072 9.98858C16.3553 11.4332 16.0958 12.8636 15.6362 14.2381C15.3262 15.2549 14.9362 16.3263 14.4822 17.4288C14.0652 18.4437 13.6192 19.4294 13.1732 20.3507C13.0172 20.6731 12.8732 20.9634 12.7412 21.2186L12.6192 21.4543L12.5752 21.539C12.5263 21.6306 12.4525 21.7074 12.3618 21.761C12.2712 21.8146 12.1672 21.8429 12.0612 21.8429H6.84616C6.74013 21.8429 6.63612 21.8146 6.54549 21.761C6.45485 21.7074 6.38105 21.6306 6.33216 21.539L6.28816 21.4543L6.16616 21.2186C6.03616 20.9634 5.89016 20.6731 5.73416 20.3507C5.28816 19.4313 4.84216 18.4456 4.42516 17.4288C3.97216 16.3263 3.58116 15.2549 3.27116 14.2381C2.81157 12.8636 2.55204 11.4332 2.50016 9.98858C2.49391 9.27413 2.67226 8.56962 3.01878 7.93988C3.36531 7.31014 3.86888 6.7754 4.48316 6.38486C4.89051 6.10574 5.32979 5.87367 5.79216 5.69334L4.85916 3.42202Z" fill="#797979"/>
<path d="M7.09416 5.82482C7.12487 5.89976 7.13871 5.98024 7.13475 6.06083C7.13079 6.14142 7.10911 6.22025 7.0712 6.29198C7.03328 6.36372 6.98001 6.42669 6.91496 6.47666C6.84992 6.52662 6.77462 6.56241 6.69416 6.58161C6.67816 6.58161 6.63816 6.59621 6.57816 6.61472C6.47316 6.64686 6.35516 6.68777 6.22616 6.73842C5.84577 6.88638 5.48434 7.07694 5.14916 7.30625C4.68769 7.593 4.30854 7.98919 4.04723 8.45766C3.78592 8.92613 3.65101 9.45156 3.65516 9.98469C3.70848 11.3203 3.9518 12.6423 4.37816 13.9127C4.67816 14.8935 5.05616 15.9337 5.49716 17.0061C5.90416 17.9976 6.34116 18.9628 6.77816 19.8628C6.93016 20.1774 7.07216 20.4598 7.19916 20.7082H11.6992C11.8262 20.4608 11.9672 20.1774 12.1202 19.8628C12.5572 18.9628 12.9932 17.9976 13.4012 17.0061C13.8422 15.9347 14.2212 14.8935 14.5202 13.9127C14.9465 12.6423 15.1898 11.3203 15.2432 9.98469C15.2473 9.45156 15.1124 8.92613 14.8511 8.45766C14.5898 7.98919 14.2106 7.593 13.7492 7.30625C13.4158 7.07737 13.0565 6.88683 12.6782 6.73842C12.5502 6.68777 12.4312 6.64686 12.3262 6.61472C12.2662 6.59621 12.2262 6.5855 12.2102 6.58161C12.1297 6.56241 12.0544 6.52662 11.9894 6.47666C11.9243 6.42669 11.871 6.36372 11.8331 6.29198C11.7952 6.22025 11.7735 6.14142 11.7696 6.06083C11.7656 5.98024 11.7795 5.89976 11.8102 5.82482L12.6512 3.77947H6.25116L7.09416 5.82482ZM4.85916 3.42202C4.8238 3.33637 4.81057 3.24358 4.82063 3.1518C4.83069 3.06001 4.86373 2.97203 4.91685 2.89558C4.96996 2.81913 5.04153 2.75655 5.12528 2.71333C5.20903 2.67011 5.30239 2.64758 5.39716 2.64771H13.5052C13.5999 2.64758 13.6933 2.67011 13.777 2.71333C13.8608 2.75655 13.9324 2.81913 13.9855 2.89558C14.0386 2.97203 14.0716 3.06001 14.0817 3.1518C14.0918 3.24358 14.0785 3.33637 14.0432 3.42202L13.1152 5.69334C13.5775 5.87367 14.0168 6.10574 14.4242 6.38486C15.0384 6.7754 15.542 7.31014 15.8885 7.93988C16.2351 8.56962 16.4134 9.27413 16.4072 9.98858C16.3553 11.4332 16.0958 12.8636 15.6362 14.2381C15.3262 15.2549 14.9362 16.3263 14.4822 17.4288C14.0652 18.4437 13.6192 19.4294 13.1732 20.3507C13.0172 20.6731 12.8732 20.9634 12.7412 21.2186L12.6192 21.4543L12.5752 21.539C12.5263 21.6306 12.4525 21.7074 12.3618 21.761C12.2712 21.8146 12.1672 21.8429 12.0612 21.8429H6.84616C6.74013 21.8429 6.63612 21.8146 6.54549 21.761C6.45485 21.7074 6.38105 21.6306 6.33216 21.539L6.28816 21.4543L6.16616 21.2186C6.03616 20.9634 5.89016 20.6731 5.73416 20.3507C5.28816 19.4313 4.84216 18.4456 4.42516 17.4288C3.97216 16.3263 3.58116 15.2549 3.27116 14.2381C2.81157 12.8636 2.55204 11.4332 2.50016 9.98858C2.49391 9.27413 2.67226 8.56962 3.01878 7.93988C3.36531 7.31014 3.86888 6.7754 4.48316 6.38486C4.89051 6.10574 5.32979 5.87367 5.79216 5.69334L4.85916 3.42202Z" fill="#797979"/>
<path d="M7.09416 5.82482C7.12487 5.89976 7.13871 5.98024 7.13475 6.06083C7.13079 6.14142 7.10911 6.22025 7.0712 6.29198C7.03328 6.36372 6.98001 6.42669 6.91496 6.47666C6.84992 6.52662 6.77462 6.56241 6.69416 6.58161C6.67816 6.58161 6.63816 6.59621 6.57816 6.61472C6.47316 6.64686 6.35516 6.68777 6.22616 6.73842C5.84577 6.88638 5.48434 7.07694 5.14916 7.30625C4.68769 7.593 4.30854 7.98919 4.04723 8.45766C3.78592 8.92613 3.65101 9.45156 3.65516 9.98469C3.70848 11.3203 3.9518 12.6423 4.37816 13.9127C4.67816 14.8935 5.05616 15.9337 5.49716 17.0061C5.90416 17.9976 6.34116 18.9628 6.77816 19.8628C6.93016 20.1774 7.07216 20.4598 7.19916 20.7082H11.6992C11.8262 20.4608 11.9672 20.1774 12.1202 19.8628C12.5572 18.9628 12.9932 17.9976 13.4012 17.0061C13.8422 15.9347 14.2212 14.8935 14.5202 13.9127C14.9465 12.6423 15.1898 11.3203 15.2432 9.98469C15.2473 9.45156 15.1124 8.92613 14.8511 8.45766C14.5898 7.98919 14.2106 7.593 13.7492 7.30625C13.4158 7.07737 13.0565 6.88683 12.6782 6.73842C12.5502 6.68777 12.4312 6.64686 12.3262 6.61472C12.2662 6.59621 12.2262 6.5855 12.2102 6.58161C12.1297 6.56241 12.0544 6.52662 11.9894 6.47666C11.9243 6.42669 11.871 6.36372 11.8331 6.29198C11.7952 6.22025 11.7735 6.14142 11.7696 6.06083C11.7656 5.98024 11.7795 5.89976 11.8102 5.82482L12.6512 3.77947H6.25116L7.09416 5.82482ZM4.85916 3.42202C4.8238 3.33637 4.81057 3.24358 4.82063 3.1518C4.83069 3.06001 4.86373 2.97203 4.91685 2.89558C4.96996 2.81913 5.04153 2.75655 5.12528 2.71333C5.20903 2.67011 5.30239 2.64758 5.39716 2.64771H13.5052C13.5999 2.64758 13.6933 2.67011 13.777 2.71333C13.8608 2.75655 13.9324 2.81913 13.9855 2.89558C14.0386 2.97203 14.0716 3.06001 14.0817 3.1518C14.0918 3.24358 14.0785 3.33637 14.0432 3.42202L13.1152 5.69334C13.5775 5.87367 14.0168 6.10574 14.4242 6.38486C15.0384 6.7754 15.542 7.31014 15.8885 7.93988C16.2351 8.56962 16.4134 9.27413 16.4072 9.98858C16.3553 11.4332 16.0958 12.8636 15.6362 14.2381C15.3262 15.2549 14.9362 16.3263 14.4822 17.4288C14.0652 18.4437 13.6192 19.4294 13.1732 20.3507C13.0172 20.6731 12.8732 20.9634 12.7412 21.2186L12.6192 21.4543L12.5752 21.539C12.5263 21.6306 12.4525 21.7074 12.3618 21.761C12.2712 21.8146 12.1672 21.8429 12.0612 21.8429H6.84616C6.74013 21.8429 6.63612 21.8146 6.54549 21.761C6.45485 21.7074 6.38105 21.6306 6.33216 21.539L6.28816 21.4543L6.16616 21.2186C6.03616 20.9634 5.89016 20.6731 5.73416 20.3507C5.28816 19.4313 4.84216 18.4456 4.42516 17.4288C3.97216 16.3263 3.58116 15.2549 3.27116 14.2381C2.81157 12.8636 2.55204 11.4332 2.50016 9.98858C2.49391 9.27413 2.67226 8.56962 3.01878 7.93988C3.36531 7.31014 3.86888 6.7754 4.48316 6.38486C4.89051 6.10574 5.32979 5.87367 5.79216 5.69334L4.85916 3.42202Z" fill="#797979"/>
<path d="M7.24565 6.25142C7.27468 6.32222 7.28781 6.39824 7.2842 6.47439C7.28058 6.55055 7.26029 6.62507 7.22468 6.69295C7.18907 6.76084 7.13897 6.82053 7.07774 6.86801C7.0165 6.9155 6.94555 6.94968 6.86964 6.96827C6.85464 6.96827 6.81665 6.9819 6.76065 6.99943C6.66065 7.02963 6.54865 7.06859 6.42765 7.11631C6.06739 7.25638 5.72508 7.4368 5.40765 7.65395C4.97124 7.92514 4.61255 8.29966 4.36509 8.74252C4.11763 9.18537 3.98949 9.68211 3.99265 10.1863C4.04287 11.4513 4.27307 12.7035 4.67665 13.9069C4.95965 14.8361 5.31965 15.8208 5.73665 16.8366C6.12265 17.7755 6.53665 18.6872 6.94965 19.5423C7.09365 19.8394 7.22765 20.1082 7.34965 20.3429H11.6146C11.7346 20.1082 11.8686 19.8404 12.0146 19.5423C12.4286 18.6901 12.8416 17.7765 13.2276 16.8366C13.6446 15.8208 14.0037 14.8361 14.2877 13.9069C14.6912 12.7035 14.9214 11.4513 14.9717 10.1863C14.9748 9.68211 14.8467 9.18537 14.5992 8.74252C14.3518 8.29966 13.9931 7.92514 13.5566 7.65395C13.2392 7.43686 12.8969 7.25644 12.5366 7.11631C12.4146 7.06859 12.3026 7.02963 12.2036 6.99943C12.1466 6.9819 12.1097 6.97216 12.0947 6.96827C12.0187 6.94968 11.9478 6.9155 11.8866 6.86801C11.8253 6.82053 11.7752 6.76084 11.7396 6.69295C11.704 6.62507 11.6837 6.55055 11.6801 6.47439C11.6765 6.39824 11.6896 6.32222 11.7187 6.25142L12.5186 4.31223H6.44965L7.24565 6.25142ZM5.12865 3.9762C5.0953 3.89505 5.08289 3.80716 5.0925 3.72025C5.10211 3.63333 5.13345 3.55004 5.18379 3.47766C5.23412 3.40528 5.3019 3.34602 5.3812 3.30508C5.4605 3.26413 5.5489 3.24275 5.63865 3.2428H13.3216C13.4114 3.24275 13.4998 3.26413 13.5791 3.30508C13.6584 3.34602 13.7262 3.40528 13.7765 3.47766C13.8268 3.55004 13.8582 3.63333 13.8678 3.72025C13.8774 3.80716 13.865 3.89505 13.8317 3.9762L12.9486 6.12772C13.3867 6.29867 13.8028 6.51865 14.1886 6.78321C14.7698 7.15274 15.2463 7.65855 15.5744 8.25418C15.9026 8.84981 16.0718 9.51619 16.0667 10.1921C16.0176 11.5603 15.7718 12.9149 15.3366 14.2166C15.0426 15.1799 14.6726 16.1948 14.2436 17.2359C13.8486 18.1973 13.4266 19.1303 13.0036 20.0011C12.8556 20.3059 12.7177 20.5855 12.5947 20.8231L12.4796 21.0462L12.4376 21.126C12.3919 21.2136 12.3222 21.2872 12.2363 21.3388C12.1504 21.3903 12.0516 21.4178 11.9506 21.4182H7.01065C6.90975 21.4178 6.8109 21.3903 6.72499 21.3388C6.63908 21.2872 6.56942 21.2136 6.52365 21.126L6.48165 21.0462L6.36665 20.8231C6.24265 20.5816 6.10565 20.3059 5.95765 20.0011C5.53465 19.1303 5.11264 18.1963 4.71764 17.2359C4.28864 16.1909 3.91765 15.177 3.62465 14.2166C3.18946 12.9149 2.94374 11.5603 2.89465 10.1921C2.88947 9.51619 3.05873 8.84981 3.38686 8.25418C3.715 7.65855 4.19151 7.15274 4.77264 6.78321C5.1585 6.51865 5.57463 6.29867 6.01265 6.12772L5.12865 3.9762Z" fill="#797979"/>
<path d="M7.22865 6.23876C7.25751 6.3093 7.27055 6.38505 7.2669 6.46091C7.26324 6.53676 7.24298 6.61098 7.20747 6.67859C7.17196 6.7462 7.12202 6.80563 7.06099 6.8529C6.99997 6.90018 6.92927 6.9342 6.85365 6.95268C6.83865 6.95268 6.80065 6.96632 6.74465 6.98385C6.64465 7.01404 6.53366 7.053 6.41266 7.10073C6.05381 7.24032 5.71285 7.42009 5.39665 7.63642C4.96137 7.9069 4.60374 8.28061 4.3573 8.72251C4.11085 9.16442 3.98366 9.66004 3.98765 10.1629C4.03841 11.4214 4.26792 12.6669 4.66965 13.864C4.95165 14.7893 5.30965 15.7701 5.72565 16.786C6.10965 17.721 6.52565 18.6365 6.93365 19.48C7.07765 19.7722 7.21065 20.0439 7.33365 20.2777H11.5807C11.7007 20.0439 11.8336 19.7771 11.9806 19.48C12.3926 18.6317 12.8046 17.721 13.1886 16.786C13.6046 15.774 13.9616 14.7932 14.2446 13.864C14.6464 12.6669 14.8759 11.4214 14.9267 10.1629C14.9306 9.66004 14.8035 9.16442 14.557 8.72251C14.3106 8.28061 13.9529 7.9069 13.5177 7.63642C13.2014 7.42012 12.8605 7.24035 12.5017 7.10073C12.3807 7.053 12.2687 7.01502 12.1697 6.98385C12.1137 6.96632 12.0757 6.95658 12.0607 6.95268C11.985 6.9342 11.9143 6.90018 11.8533 6.8529C11.7923 6.80563 11.7423 6.7462 11.7068 6.67859C11.6713 6.61098 11.6511 6.53676 11.6474 6.46091C11.6438 6.38505 11.6568 6.3093 11.6857 6.23876L12.4787 4.30736H6.43465L7.22865 6.23876ZM5.11965 3.97328C5.08648 3.89244 5.07416 3.80492 5.08375 3.71836C5.09335 3.63181 5.12458 3.54887 5.1747 3.47679C5.22483 3.40471 5.29232 3.34569 5.37128 3.3049C5.45024 3.26411 5.53827 3.24279 5.62765 3.2428H13.2797C13.369 3.24295 13.4568 3.26439 13.5357 3.30524C13.6145 3.3461 13.6819 3.40514 13.7319 3.47719C13.7819 3.54925 13.813 3.63213 13.8226 3.71861C13.8321 3.80508 13.8198 3.89252 13.7866 3.97328L12.9067 6.11604C13.3429 6.28621 13.7573 6.5052 14.1417 6.7686C14.7204 7.13668 15.1949 7.64048 15.5217 8.23374C15.8484 8.82699 16.0169 9.49069 16.0117 10.1639C15.9628 11.5267 15.7181 12.8761 15.2846 14.1728C14.9916 15.1322 14.6237 16.1422 14.1967 17.1824C13.8037 18.1398 13.3827 19.069 12.9617 19.9368C12.8147 20.2407 12.6777 20.5144 12.5547 20.7549L12.4396 20.977L12.3976 21.0569C12.3514 21.1432 12.2817 21.2156 12.1962 21.266C12.1107 21.3165 12.0126 21.3432 11.9127 21.3432H6.99365C6.89366 21.3432 6.79558 21.3165 6.71007 21.266C6.62456 21.2156 6.5549 21.1432 6.50865 21.0569L6.46665 20.977L6.35165 20.7549C6.22865 20.5144 6.09165 20.2397 5.94465 19.9368C5.52365 19.07 5.10265 18.1398 4.70965 17.1824C4.28265 16.1422 3.90966 15.1312 3.62166 14.1728C3.18818 12.8761 2.94346 11.5267 2.89465 10.1639C2.8894 9.49069 3.05789 8.82699 3.38463 8.23374C3.71138 7.64048 4.18591 7.13668 4.76465 6.7686C5.14897 6.50521 5.56342 6.28621 5.99965 6.11604L5.11965 3.97328Z" fill="#797979"/>
<path d="M7.22865 6.23876C7.25751 6.3093 7.27055 6.38505 7.2669 6.46091C7.26324 6.53676 7.24298 6.61098 7.20747 6.67859C7.17196 6.7462 7.12202 6.80563 7.06099 6.8529C6.99997 6.90018 6.92927 6.9342 6.85365 6.95268C6.83865 6.95268 6.80065 6.96632 6.74465 6.98385C6.64465 7.01404 6.53366 7.053 6.41266 7.10073C6.05381 7.24032 5.71285 7.42009 5.39665 7.63642C4.96137 7.9069 4.60374 8.28061 4.3573 8.72251C4.11085 9.16442 3.98366 9.66004 3.98765 10.1629C4.03841 11.4214 4.26792 12.6669 4.66965 13.864C4.95165 14.7893 5.30965 15.7701 5.72565 16.786C6.10965 17.721 6.52565 18.6365 6.93365 19.48C7.07765 19.7722 7.21065 20.0439 7.33365 20.2777H11.5807C11.7007 20.0439 11.8336 19.7771 11.9806 19.48C12.3926 18.6317 12.8046 17.721 13.1886 16.786C13.6046 15.774 13.9616 14.7932 14.2446 13.864C14.6464 12.6669 14.8759 11.4214 14.9267 10.1629C14.9306 9.66004 14.8035 9.16442 14.557 8.72251C14.3106 8.28061 13.9529 7.9069 13.5177 7.63642C13.2014 7.42012 12.8605 7.24035 12.5017 7.10073C12.3807 7.053 12.2687 7.01502 12.1697 6.98385C12.1137 6.96632 12.0757 6.95658 12.0607 6.95268L11.7996 6.81438L11.6787 6.23973L12.4717 4.30833H6.43465L7.22865 6.23876ZM5.11965 3.97328C5.08648 3.89244 5.07416 3.80492 5.08375 3.71836C5.09335 3.63181 5.12458 3.54887 5.1747 3.47679C5.22483 3.40471 5.29232 3.34569 5.37128 3.3049C5.45024 3.26411 5.53827 3.24279 5.62765 3.2428H13.2797C13.369 3.24295 13.4568 3.26439 13.5357 3.30524C13.6145 3.3461 13.6819 3.40514 13.7319 3.47719C13.7819 3.54925 13.813 3.63213 13.8226 3.71861C13.8321 3.80508 13.8198 3.89252 13.7866 3.97328L12.9067 6.11604C13.3429 6.28621 13.7573 6.5052 14.1417 6.7686C14.7204 7.13668 15.1949 7.64048 15.5217 8.23374C15.8484 8.82699 16.0169 9.49069 16.0117 10.1639C15.9628 11.5267 15.7181 12.8761 15.2846 14.1728C14.9916 15.1322 14.6237 16.1422 14.1967 17.1824C13.8037 18.1398 13.3827 19.069 12.9617 19.9368C12.8147 20.2407 12.6777 20.5144 12.5547 20.7549L12.4396 20.977L12.3976 21.0569C12.3514 21.1432 12.2817 21.2156 12.1962 21.266C12.1107 21.3165 12.0126 21.3432 11.9127 21.3432H6.99365C6.89366 21.3432 6.79558 21.3165 6.71007 21.266C6.62456 21.2156 6.5549 21.1432 6.50865 21.0569L6.46665 20.977L6.35165 20.7549C6.22865 20.5144 6.09165 20.2397 5.94465 19.9368C5.52365 19.07 5.10265 18.1398 4.70965 17.1824C4.28265 16.1422 3.90966 15.1312 3.62166 14.1728C3.18818 12.8761 2.94346 11.5267 2.89465 10.1639C2.8894 9.49069 3.05789 8.82699 3.38463 8.23374C3.71138 7.64048 4.18591 7.13668 4.76465 6.7686C5.14897 6.50521 5.56342 6.28621 5.99965 6.11604L5.11965 3.97328Z" fill="#797979"/>
</svg>
